<?xml version="1.0" encoding="UTF-8" standalone="no"?>
<svg
   xmlns:dc="http://purl.org/dc/elements/1.1/"
   xmlns:cc="http://creativecommons.org/ns#"
   xmlns:rdf="http://www.w3.org/1999/02/22-rdf-syntax-ns#"
   xmlns:svg="http://www.w3.org/2000/svg"
   xmlns="http://www.w3.org/2000/svg"
   version="1.1"
   id="svg2"
   viewBox="0 0 243.12471 243.12472"
   height="68.615196mm"
   width="68.615196mm">
  <defs
     id="defs4" />
  <metadata
     id="metadata7">
    <rdf:RDF>
      <cc:Work
         rdf:about="">
        <dc:format>image/svg+xml</dc:format>
        <dc:type
           rdf:resource="http://purl.org/dc/dcmitype/StillImage" />
        <dc:title></dc:title>
      </cc:Work>
    </rdf:RDF>
  </metadata>
  <g
     transform="translate(-64.547324,-624.14873)"
     id="layer1">
    <path
       id="path3347"
       d="m 252.16478,641.43985 c -0.5385,-0.009 -1.07968,-0.008 -1.62695,0.006 -2.92309,0.25846 -5.63241,0.40619 -8.03711,1.14453 -2.44082,0.91112 -4.72834,3.6095 -10.49805,11.25196 -7.11198,9.42044 -6.93231,9.30664 -14.6582,9.30664 -3.77826,0 -7.14836,0.45 -7.48828,1 -0.3646,0.58993 -6.38281,1 -14.67579,1 l -14.05664,0 -5.77929,-5.85156 c 0,0 -3.66305,-4.04039 -6.0918,-5.0918 -2.37597,-1.02857 -6.13282,-0.95065 -8.7207,-0.87305 -2.89885,0.0869 -7.54883,1.5 -7.54883,1.5 -4.35413,2.38643 -6.93759,5.41679 -9.8125,8.70703 -6.01711,6.25358 -8.32248,8.07662 -9.8457,17.5918 -1.44895,9.0512 -4.39446,18.61568 -14.62891,23.01758 -5.35548,1.00296 -13.73969,14.92915 -8.06445,23.16015 1.15504,1.56227 2.88941,2.83985 3.85352,2.83985 2.49729,0 3.14384,1.57988 1.65429,4.03906 -0.70613,1.1658 -5.00551,5.94235 -9.55469,10.61523 -4.54916,4.6729 -9.351448,10.62865 -10.671871,13.23438 -3.523985,6.95425 -4.999504,8.09595 -8.425781,5.20507 -2.848058,-2.40302 -2.417368,-1.91601 -3.197266,-1.91601 -1.582399,0 -7.933593,7.19563 -7.933593,9.44336 -1.032886,2.81042 -0.648209,3.29168 -2.292969,8.23633 -1.168444,5.24283 -0.968487,5.89049 -5.169922,10.14257 -2.445518,2.475 -4.467207,5.26137 -4.492187,6.19141 -1.675338,18.69342 6.659201,18.7596 22.34375,37.71289 2.261083,2.42243 6.451421,5.90993 9.3125,7.75 5.017579,3.22702 5.558109,3.3457 15.249999,3.3457 5.52642,0 10.05169,-0.3375 10.05469,-0.75 0.01,-1.14966 5.71041,-4.11607 8.04492,-4.40625 5.76707,-1.67285 12.30147,7.6e-4 16.94922,4.15625 0,0.62137 5.39546,0.98855 14.25,0.96875 10.94317,-0.0244 14.70072,-0.37251 16.1914,-1.5 2.51206,-1.90003 6.18508,-1.8856 6.91992,0.0293 0.42344,1.10348 2.16713,1.5 6.59571,1.5 6.92865,0 10.04297,-1.89129 10.04297,-6.09961 0,-3.15942 2.08876,-5.18631 4.42187,-4.29101 0.92172,0.35369 3.00634,3.27798 4.63281,6.5 2.40051,4.75539 3.85053,6.32361 7.70118,8.32812 6.7541,3.51592 15.9136,3.4894 24.82031,-0.0762 7.70508,-3.08455 20.49298,-13.55781 27.91211,-22.85938 2.63215,-3.3 6.0079,-7.35 7.50195,-9 1.49406,-1.65 3.94924,-6.15 5.45508,-10 3.31295,-8.47028 4.09882,-9.5 7.2539,-9.5 3.47715,0 7.21732,-4.17881 12.61915,-14.10156 4.65404,-8.54908 4.68185,-8.65864 4.63085,-18 -0.0901,-16.49422 -1.07219,-21.92572 -4.80468,-26.57031 l -3.29688,-4.10156 2.21485,-4.86328 c 2.10021,-4.60948 2.15003,-5.28045 0.94921,-12.86328 -0.69678,-4.4 -1.82182,-9.35 -2.5,-11 -1.7036,-4.14475 -15.29321,-21.50387 -17.34179,-22.15235 -6.06455,-1.91973 -14.16992,-6.98731 -14.16992,-8.85937 0,-1.18138 1.50957,-1.48828 7.33398,-1.48828 6.84029,0 9.1296,-0.1868 11.10352,-3.25977 l 2.20898,-3.43945 -0.39062,-2.23242 -2.86133,-3.27149 c -0.0754,-0.10616 -0.20423,-0.25575 -0.39844,-0.45703 l -0.25586,-0.29101 0.0117,0.043 c -3.58568,-3.5647 -19.32087,-16.9542 -21.65818,-17.56638 -3.92378,-0.60565 -7.51565,-1.17416 -11.28516,-1.23438 z m 1.09961,3.42579 c 2.27716,0.38536 5.01393,0.85217 5.8418,0.99218 2.8381,0.48001 6.86836,4.15332 9.45703,6.54492 2.58867,2.39161 6.52209,5.12184 8.5,6.45899 4.72329,3.19314 7.43986,4.80673 8.95507,5.49023 -0.62704,2.44697 -1.97519,3.08551 -4.58789,4.26368 -6.1872,2.79003 -13.51162,1.74863 -23.23242,-3.30469 -4.4028,-2.28878 -8.55197,-4.16211 -9.2207,-4.16211 -0.66873,0 -2.94836,1.77428 -5.06641,3.94336 -3.83644,3.92887 -3.84205,3.94582 -1.43945,4.54883 1.32645,0.33291 4.60617,0.92114 7.28906,1.30664 5.74709,0.8258 7.79623,3.04889 5.78125,6.27539 -0.87213,1.39651 -0.9757,2.47432 -0.3125,3.27343 0.54376,0.65519 1.13328,3.20767 1.3086,5.67188 0.26764,3.76193 0.67759,4.5316 2.55859,4.79883 2.10034,0.2984 2.20249,0.0459 1.64258,-4.03906 -0.80409,-5.8665 1.11706,-7.68412 5.86133,-5.54688 1.79109,0.80686 4.83086,2.07041 6.75586,2.80664 4.86271,1.85977 10.00796,5.21219 13.20117,8.60156 7.98309,8.94457 15.50988,33.01579 7.40039,41.29883 -3.43689,2.83738 -10.14409,9.58245 -12.85156,12.92382 -1.72117,2.12417 -2.46677,8.16767 -1,8.10547 1.28882,-0.0547 3.70287,-2.35144 5.62304,-5.34961 5.38115,-8.40217 11.29393,-12.13491 14.55078,-9.18749 3.08301,2.79011 4.78669,16.29085 3.13672,24.8496 -2.30467,11.95478 -4.16213,16.70187 -8.32617,21.27735 -5.73817,6.30512 -7.73437,5.70966 -7.73437,-2.30664 0,-1.97169 -0.29138,-3.29457 -0.64649,-2.93946 -0.35511,0.35511 -2.04945,-2.83304 -3.76562,-7.08398 -3.94528,-9.77244 -11.52793,-20.4401 -18.04297,-25.38477 -14.38712,-10.91927 -19.58872,-14.42336 -25.22071,-16.98632 -6.88683,-3.13399 -8.03885,-4.2914 -6.32421,-6.35742 0.6447,-0.77681 0.88064,-1.88491 0.52343,-2.46289 -0.35721,-0.57798 0.16671,-1.34641 1.16407,-1.70703 0.99736,-0.36061 3.00689,-1.48169 4.46679,-2.49219 1.4599,-1.01051 3.5974,-1.83789 4.75,-1.83789 2.89926,0 2.71483,-3.11149 -0.40429,-6.81836 -2.89659,-3.4424 -3.06286,-4.46962 -1,-6.18164 1.64358,-1.36405 2.08754,-8 0.53515,-8 -1.88764,0 -8.03515,6.24027 -8.03515,8.15625 0,1.07156 0.99206,3.67165 2.20507,5.7793 l 2.20508,3.83203 -3.39453,3.86718 c -1.86692,2.12633 -4.05783,3.86524 -4.86914,3.86524 -0.8113,0 -2.34888,-1.575 -3.41797,-3.5 -1.06908,-1.925 -2.57025,-3.859 -3.33594,-4.29883 -1.91602,-1.1006 -1.74666,-2.98858 0.63282,-7.02148 3.28239,-5.56323 6.97461,-15.80362 6.97461,-19.34571 0,-4.53813 -2.99838,-9.03819 -7.57422,-11.37109 -4.80733,-2.45092 -16.75221,-2.71672 -21.0625,-0.46875 -1.57537,0.82161 -3.73668,1.497 -4.80469,1.5 -1.06801,0.003 -4.95556,1.79629 -8.63867,3.98437 -5.13142,3.04853 -7.57175,5.32734 -10.44336,9.75 -2.06112,3.17441 -5.35619,8.24649 -7.32227,11.27149 -5.97088,9.18678 -9.90687,12.73086 -17.25585,15.53906 -7.16634,2.73841 -8.60362,4.35988 -6.64258,7.5 1.8735,2.99996 4.49624,2.40384 13.74414,-3.125 4.17658,-3.07623 9.11715,-4.94495 11.10742,-9.16406 1.51441,-2.89505 13.09363,-16.20716 16.83984,-19.35938 4.26745,-3.59082 13.20626,-7.3855 19.02149,-8.07422 1.20348,-0.14253 2.28464,-0.20604 3.26953,-0.17968 4.26785,0.1142 6.71552,1.9292 9.36328,6.44726 l 2.4375,4.15821 -1.91797,4.47656 c -1.05549,2.46234 -3.09118,5.39836 -4.52149,6.52344 -1.43027,1.12506 -2.5996,2.49318 -2.5996,3.04101 0,0.54782 2.55282,3.59048 5.67187,6.75977 l 5.66992,5.76172 -2.28125,1.84765 c -3.23827,2.6222 -9.05379,1.79573 -13.90234,-1.97656 -2.33517,-1.81681 -2.33719,-1.83532 -0.67969,-7.24805 4.57894,-14.95301 4.6433,-15.47713 2.49024,-20.5 -1.78247,-4.15835 -2.25094,-4.57328 -4.51954,-4.0039 -10.94724,2.74759 -22.1297,10.05207 -29.58398,19.32617 -4.01231,4.06601 -8.6296,8.35291 -12.3457,12.18555 -2.7395,2.8063 -6.43593,5.62821 -8.21484,6.27148 -1.77892,0.64326 -3.45746,1.74675 -3.72852,2.45312 -0.71295,1.85791 3.34044,4.33985 7.08789,4.33985 1.77016,0 3.47005,0.40978 3.7793,0.91015 0.96687,1.56449 -0.57312,4.08985 -2.49414,4.08985 -1.99003,0 -5.18984,3.79942 -4.34766,5.1621 1.10281,1.7844 7.30711,0.82785 9.83789,-1.51757 3.39569,-3.14702 11.27294,-7.26612 12.17383,-6.36523 1.12529,1.12529 -6.4771,11.47371 -10.05274,13.68358 -1.76639,1.09168 -4.43837,3.12238 -5.93749,4.51172 -3.58544,3.32288 -5.49646,3.18853 -6.77344,-0.47461 -0.98851,-2.83565 -4.84961,-4.42803 -4.84961,-2 0,0.55 -0.63151,1 -1.40234,1 -1.49888,0 -5.34553,4.29733 -8.95313,10 -2.13595,3.37637 -2.45492,3.51134 -9.03125,3.79883 -4.87881,0.21328 -7.48886,-0.14213 -9.17969,-1.25 -1.29942,-0.85141 -3.12193,-1.54883 -4.04883,-1.54883 -2.12281,0 -12.38476,5.14478 -12.38476,6.20899 0,0.4351 -2.2285,0.79101 -4.95117,0.79101 -5.295607,0 -7.60815,-1.89868 -6.013675,-4.93554 0.452012,-0.86091 1.640874,-3.72874 2.642578,-6.37305 1.001707,-2.64432 3.364117,-6.35986 5.248047,-8.25781 6.09635,-6.14172 15.07422,-6.69781 15.07422,-0.9336 0,3.63497 3.13081,4.8901 7.57031,3.03516 2.89214,-1.20842 12.3625,-7.94517 17.88672,-12.72266 2.17685,-1.88257 -2.32329,-4.07065 -9.41602,-4.57812 -5.86514,-0.41965 -7.07885,-0.79747 -6.82031,-2.12304 0.25412,-1.30287 1.65451,-1.60578 7.29688,-1.58008 3.84029,0.0175 8.33242,0.24252 9.98242,0.5 2.56326,0.39999 2.95134,0.17759 2.66601,-1.53125 -0.18367,-1.1 -1.48926,-3.22181 -2.90234,-4.71485 -1.59952,-1.69002 -2.53888,-3.79212 -2.48828,-5.57031 0.14127,-4.96855 6.26146,-14.06764 17.4082,-25.8789 3.19918,-3.38989 5.81641,-6.6524 5.81641,-7.25 0,-2.89089 -7.74285,0.34673 -10.35156,4.32812 -0.90668,1.38376 -2.55514,3.00028 -3.66407,3.59375 -1.78024,0.95276 -2.08748,0.72276 -2.625,-1.96484 -0.74002,-3.7001 -3.64392,-4.10122 -5.73437,-0.79297 -0.78196,1.2375 -1.9632,6.18283 -2.625,10.99023 -1.52479,11.07625 -4.57124,15.75877 -12.66211,19.46289 -7.92803,3.62957 -15.34573,2.14084 -15.33203,-3.07617 0.02,-7.64344 5.73971,-15.88105 13.78711,-19.85547 2.53012,-1.24957 7.36653,-5.08398 10.74804,-8.52148 3.38152,-3.4375 6.63104,-6.25 7.22071,-6.25 1.53962,0 10.60054,-3.97498 11.21875,-4.92188 0.5894,-0.90278 12.71813,-7.19225 18.01953,-9.34375 1.925,-0.78123 6.57993,-2.03187 10.34375,-2.77929 6.79698,-1.34974 6.85561,-1.34211 8.67382,1.06836 l 1.83008,2.42578 5.32617,-1.875 c 2.92933,-1.03178 6.99652,-2.70769 9.03711,-3.72461 4.032,-2.00934 9.3031,-2.44494 10.28907,-0.84961 0.33992,0.55 1.94518,1 3.56836,1 2.55576,0 3.73813,-1.10545 8.81835,-8.25 7.01327,-9.86308 10.44926,-14.98876 14.36329,-14.97656 2.7288,0.009 4.83399,-0.0176 6.6582,-0.0566 z m -92.46484,12.51171 c 3.78145,-0.0509 8.04875,2.06642 10.09374,5.1875 1.93201,2.94862 1.42914,4.04737 -2.8496,6.20899 -1.75263,0.88542 -4.19568,2.52982 -5.42774,3.65625 -1.93124,1.76566 -2.60341,1.88249 -4.8789,0.8457 -2.33619,-1.06444 -2.8201,-0.94469 -4.21094,1.04102 -3.00289,4.28723 -8.89126,9.77552 -11.58789,10.80078 -4.21687,1.60325 -5.58203,1.27476 -5.58203,-1.3457 0,-3.83715 2.69598,-9.20677 6.91992,-13.78125 4.0546,-4.45177 8.63103,-10.78083 15.94141,-12.45508 0.51252,-0.0992 1.04182,-0.15093 1.58203,-0.15821 z m 39.54296,45.77149 c 5.03459,0 6.18108,1.66957 5.81641,8.47461 l -0.30273,5.64258 -7,2.39843 c -3.85,1.31919 -7.81022,2.41811 -8.80079,2.44141 -2.48478,0.0586 -5.22209,-6.57787 -4.06054,-9.8457 1.31847,-3.70931 9.82481,-9.11133 14.34765,-9.11133 z m -62.58398,20.33789 c 0.46398,0.0715 0.94203,0.6039 1.79102,1.65234 0.99405,1.2276 1.80664,3.08204 1.80664,4.1211 0,1.40777 -0.7227,1.88867 -2.83399,1.88867 -1.55833,0 -3.13333,-0.29935 -3.5,-0.66602 -1.20961,-1.20961 -0.69328,-4.16218 1.02735,-5.88281 0.79509,-0.79509 1.245,-1.18478 1.70898,-1.11328 z m 62.16602,0.16797 c 0.0815,0.008 0.15352,0.0263 0.21874,0.0547 0.94166,0.40966 3.15951,0.94815 4.92774,1.19726 4.17835,0.58866 4.9637,1.65177 8.26562,11.1875 1.51922,4.38741 2.96571,7.77648 3.2129,7.52929 0.24716,-0.24719 1.22169,2.13128 2.16601,5.28711 2.41675,8.07655 6.78335,17.23828 8.2168,17.23828 1.90343,0 2.34784,-2.39231 1.30469,-7.03515 -1.19543,-5.32046 -0.13879,-6.72939 3.81445,-5.08789 3.77695,1.5683 6.86048,6.33555 9.69531,14.99023 2.86166,8.73657 4.83351,11.13281 9.16602,11.13281 l 3.24804,0 -1.3125,-4.25 c -1.39104,-4.50854 -5.09142,-13.10262 -9.07812,-21.08203 -1.32784,-2.6577 -2.41406,-5.42162 -2.41406,-6.14258 0,-1.62412 -2.52038,-2.77016 -6.62891,-3.01171 -2.4643,-0.14487 -4.48416,-1.6322 -9.5,-6.99414 -3.50365,-3.74541 -6.28228,-7.08114 -6.17383,-7.41406 0.88918,-2.72968 18.67655,4.98966 25.17578,10.92577 1.7877,1.63281 3.61416,2.96875 4.0586,2.96875 1.89357,0 20.42383,19.34812 23.63281,24.67578 6.69798,11.12025 8.83442,22.22897 6.02344,31.32422 -3.89482,12.60209 -9.31328,21.46013 -18.75977,30.66797 -7.96147,7.76034 -17.0566,12.72538 -27.03516,14.75977 -4.23931,0.86429 -7.83931,1.53202 -8,1.48242 -0.16069,-0.0496 -1.7383,-0.50857 -3.50586,-1.01953 -4.77922,-1.38154 -8.35244,-6.95307 -12.15624,-18.96094 -0.62216,-1.96405 -1.13086,-8.43226 -1.13086,-14.37305 0,-9.48796 -0.18241,-10.65014 -1.5,-9.55664 -0.825,0.68469 -1.5,2.03469 -1.5,3 0,0.96531 -0.675,2.31531 -1.5,3 -1.13819,0.94462 -1.5,3.5074 -1.5,10.62305 0,5.15766 -0.33973,9.37695 -0.75586,9.37695 -0.41613,0 -2.24322,-0.42661 -4.0586,-0.94726 -4.25033,-1.21898 -6.73057,-0.41435 -5.0332,1.63086 0.66148,0.79703 2.47283,2.10534 4.02539,2.9082 3.27125,1.69163 3.57027,3.42253 0.99414,5.75391 -2.57253,2.32811 -4.94518,2.04849 -10.53125,-1.24024 -4.69602,-2.76473 -7.58474,-3.02739 -10.2793,-0.93164 -0.62636,0.48716 -5.04332,1.51867 -9.81445,2.29102 -7.29642,1.18111 -9.65795,1.1932 -14.86132,0.0742 -9.0018,-1.9358 -9.71945,-2.31227 -14.91211,-7.81641 -4.91833,-5.21336 -5.40148,-5.15092 -5.98047,0.77734 -0.22737,2.32811 -0.84748,3.07713 -2.76563,3.34766 -1.35946,0.19173 -3.37028,0.97923 -4.4707,1.75 -3.36126,2.35432 -5.38238,1.66263 -7.54883,-2.58398 -1.11825,-2.19193 -3.08403,-4.67292 -4.36719,-5.51368 -5.01422,-3.28544 -6.10036,-9.96597 -1.89062,-11.62695 6.88204,-2.71536 14.25,-6.30401 14.25,-6.93945 0,-1.17131 14.47084,-11.53202 20.15625,-14.43164 2.93939,-1.49912 6.24375,-3.202 7.34375,-3.78516 1.1,-0.58316 5.45897,-1.10556 9.6875,-1.16016 4.22853,-0.0546 8.05353,-0.46663 8.5,-0.91406 0.44647,-0.44743 -0.49991,-1.94206 -2.10352,-3.32226 -2.6323,-2.26557 -3.45836,-2.44382 -8.5,-1.83008 -3.07139,0.37389 -6.0107,1.0926 -6.5332,1.5957 -0.5225,0.50309 -1.95887,0.91406 -3.19141,0.91406 -1.23254,0 -2.50172,0.42224 -2.82031,0.9375 -0.31845,0.51525 -3.1483,2.15091 -6.28906,3.63672 -5.98649,2.83207 -13.04315,7.07248 -14.76172,8.86914 -4.51994,4.72534 -17.67551,10.93474 -29.75,14.04297 -12.968997,3.33849 -13.821626,3.27268 -18.066406,-1.42578 -5.916669,-6.54905 -8.226442,-12.58525 -7.105469,-18.56055 0.603213,-3.2154 0.885116,-3.41064 5.783203,-3.98046 3.961124,-0.46084 6.650779,-0.0654 11.650391,1.71093 4.335064,1.54023 7.4992,2.09266 9.5,1.65821 1.65,-0.35828 4.938641,-0.70444 7.308591,-0.76954 2.36996,-0.0651 4.09493,-0.4645 3.83399,-0.88671 -0.59442,-0.9618 21.85033,-8.78228 32.51758,-11.33008 16.29751,-3.89256 23.06388,-2.3911 39.15234,8.6914 9.97444,6.87088 15.76198,8.42745 24,6.45118 6.31228,-1.51429 8.91302,-2.90349 6.9375,-3.70508 -1.62738,-0.66033 -1.56383,-3.8553 0.17578,-8.84571 1.8572,-5.32729 1.8534,-16.12853 -0.008,-24.33789 -1.76904,-7.80359 -3.21833,-11.03248 -8.68554,-19.33202 -1.86302,-2.82817 -1.063,-4.27294 1.76562,-3.1875 1.32745,0.50939 1.6072,0.14495 1.33985,-1.74609 -0.4578,-3.23811 -4.8535,-3.60479 -12.20899,-1.01954 -5.32084,1.87012 -5.6289,1.88134 -5.6289,0.19922 0,-2.7004 10.04252,-11.82275 12.56836,-11.56445 z m -77.26953,15.95312 c 1.07639,-0.008 2.24151,0.14188 3.45117,0.46875 5.30685,1.43404 5.83978,4.32286 1.10156,5.97461 -6.18559,2.15631 -11.35609,0.95298 -10.69336,-2.48828 0.47619,-2.47264 2.91145,-3.93123 6.14063,-3.95508 z m 101.52734,3.54101 c 1.70943,0 5.41099,4.94048 4.83203,6.44922 -0.78346,2.04167 -1.97986,1.9592 -4.00391,-0.27734 -1.71086,-1.89048 -2.28494,-6.17188 -0.82812,-6.17188 z m -32.91407,3.12696 c 0.89973,0.0191 1.83894,0.48923 3.60352,1.42968 2.00454,1.06834 4.37954,3.18086 5.2793,4.69336 0.89975,1.5125 1.97724,2.75 2.39453,2.75 1.21516,0 3.73245,5.52436 2.98828,6.5586 -0.37234,0.51748 -2.92773,0.9414 -5.67773,0.9414 -4.42384,0 -5.03759,0.25927 -5.32032,2.25 -0.42667,3.00424 -1.10634,2.86021 -5.9082,-1.25 -2.24893,-1.925 -4.54062,-3.5 -5.0918,-3.5 -1.40484,0 -6.17968,5.85381 -6.17968,7.57618 0,2.59692 -4.52391,1.51186 -7.80469,-1.87305 -4.55261,-4.69709 -4.18538,-6.9238 1.74414,-10.57227 2.71709,-1.67184 5.44916,-3.9878 6.07031,-5.14843 0.91571,-1.71103 1.7026,-1.98552 4.16211,-1.44532 2.06699,0.45399 4.09465,0.0958 6.36523,-1.12695 1.6133,-0.86883 2.4753,-1.30228 3.375,-1.2832 z m -38.86718,11.21484 c 1.32932,-0.0507 2.80747,1.76491 4.88867,5.75781 2.52422,4.84281 2.6037,7.11712 0.31641,9.13477 -4.18499,3.69161 -12.26882,2.73049 -12.22852,-1.45313 0.024,-2.48942 2.87618,-9.12535 5.26172,-12.24414 0.58517,-0.76503 1.15748,-1.17228 1.76172,-1.19531 z m 9.32422,6.73828 c 1.0302,0.13213 2.87544,1.6252 5.67187,4.4961 7.62224,7.82522 9.94157,7.96444 13.02149,0.77929 1.02687,-2.3956 2.36665,-4.35547 2.97851,-4.35547 0.61185,0 2.46328,1.35 4.11328,3 1.65,1.65 3.43766,3 3.97266,3 2.11202,0 6.87305,-3.13477 6.87305,-4.52539 0,-2.10081 4.34327,-1.85914 6.3457,0.35352 1.18109,1.30509 1.6543,3.68253 1.6543,8.30078 0,3.82044 0.50915,6.97986 1.24218,7.71289 0.98886,0.98886 0.93796,1.43254 -0.25,2.18359 -2.30056,1.45446 -7.9633,1.14606 -9.63476,-0.52539 -2.2142,-2.21421 -4.28212,-1.82825 -5.35742,1 -1.55533,4.09083 -6.3996,3.37847 -12.65625,-1.86132 -5.10784,-4.27768 -8.24189,-5.90769 -13.62891,-7.08594 -2.92074,-0.63882 -3.95315,-2.41144 -5.12109,-8.80274 -0.4701,-2.57252 -0.25481,-3.80206 0.77539,-3.66992 z m -76.250001,2.91992 c 1.034804,0 1.88086,0.46948 1.88086,1.04297 0,0.57348 1.813901,3.49848 4.03125,6.5 3.65656,4.94971 4.377405,5.45078 7.75,5.39258 4.248131,-0.0734 14.137501,-2.06756 15.902341,-3.20703 0.65084,-0.42022 5.15085,-1.60674 10,-2.63672 4.84916,-1.02998 10.00453,-2.18271 11.45703,-2.5625 3.32726,-0.86997 4.74591,1.07556 2.20899,3.0293 -1.66782,1.28444 -8.02256,3.42786 -28.59961,9.65039 -14.036875,4.65603 -36.260226,11.15525 -28.224611,-12.45899 1.217419,-3.37678 2.256217,-4.75 3.59375,-4.75 z m 9.330078,55.37696 c 5.437713,-0.11187 8.550783,1.03869 8.550783,3.1582 0,0.37264 1.4279,2.48113 3.17383,4.68555 l 3.17578,4.00781 -2.42578,1.86328 c -1.33343,1.02499 -3.32383,1.87261 -4.42383,1.88281 -4.779747,0.0442 -14.872291,-9.35557 -14.306642,-13.32422 0.27211,-1.90916 0.975197,-2.16478 6.255859,-2.27343 z"
       style="fill:#000000" />
    <path
       id="path3350"
       d="m 136.95516,685.53435 c -0.96047,-1.15729 -0.40899,-4.42688 1.36303,-8.08108 1.37528,-2.83604 2.91981,-5.00157 6.21415,-8.71257 6.25396,-7.04497 9.68453,-9.72527 13.90547,-10.86432 4.35295,-1.17467 9.73544,0.9368 12.34329,4.8421 1.84902,2.76892 1.43986,3.58358 -3.07866,6.12969 -1.46062,0.82303 -3.54984,2.2164 -4.64272,3.09637 -1.09288,0.87997 -2.27106,1.67494 -2.61818,1.7666 -0.40632,0.1073 -1.30941,-0.0736 -2.53539,-0.50785 -1.04735,-0.37098 -2.13317,-0.67452 -2.41293,-0.67452 -0.5637,0 -1.39853,0.82681 -3.31487,3.283 -1.80593,2.31467 -6.52631,6.84746 -8.37551,8.04265 -2.69641,1.74278 -6.10211,2.57829 -6.84768,1.67993 z"
       style="fill:#ffffff" />
    <path
       id="path3352"
       d="m 288.89643,790.68108 c -0.77591,-0.44758 -1.19298,-1.89276 -1.32563,-4.59339 -0.18574,-3.7814 -0.33206,-4.71498 -0.73898,-4.71498 -0.51918,0 -1.45148,-1.73452 -3.77273,-7.0191 -2.42644,-5.52408 -3.9463,-8.34431 -6.83279,-12.67888 -4.69368,-7.04839 -7.73769,-10.17153 -15.77988,-16.19012 -11.04028,-8.2623 -14.99522,-10.83319 -21.46575,-13.95377 -6.32544,-3.05061 -7.1472,-3.98404 -5.33398,-6.05881 0.27393,-0.31343 0.40949,-0.94047 0.40949,-1.89403 l 0,-1.42548 1.89404,-0.9613 c 1.04172,-0.52871 2.58848,-1.41248 3.43724,-1.96393 1.69262,-1.0997 3.9813,-1.99927 5.08655,-1.99927 1.22699,0 1.83027,-0.63169 1.83027,-1.91646 0,-1.57491 -0.51401,-2.65093 -2.52106,-5.2776 -1.57265,-2.05814 -2.27716,-3.27505 -2.27716,-3.93333 0,-0.12945 0.38226,-0.66185 0.84947,-1.18311 1.26026,-1.40607 1.67286,-2.38846 1.96776,-4.68524 0.31214,-2.43104 -0.046,-4.0378 -0.92826,-4.16425 -1.21856,-0.17466 -6.21212,4.31325 -7.56504,6.79899 l -0.70286,1.29139 0.42693,1.54718 c 0.36704,1.33015 1.97819,4.66378 3.57294,7.39273 l 0.46446,0.79479 -1.25241,1.47574 c -2.96425,3.49284 -5.92229,6.14842 -6.85201,6.15138 -0.6346,0.002 -1.9994,-1.47999 -3.50163,-3.80236 -0.86359,-1.33508 -2.20903,-3.06119 -2.98987,-3.83581 -1.98022,-1.96447 -1.96258,-2.11305 0.92715,-7.81055 3.81183,-7.51554 6.18058,-14.20545 6.42224,-18.13791 0.11343,-1.84592 0.0445,-2.39778 -0.49221,-3.94011 -1.7307,-4.97348 -5.78463,-8.27933 -11.46957,-9.35304 -1.94398,-0.36716 -3.59604,-0.46497 -7.54017,-0.44639 -5.45848,0.0257 -6.6441,0.22731 -10.18282,1.73146 -0.87809,0.37323 -2.41225,0.84164 -3.40926,1.0409 -3.29327,0.65819 -10.54905,4.60536 -14.46011,7.86635 -2.18841,1.82468 -3.44475,3.50686 -9.1563,12.25989 -6.31634,9.67988 -7.33923,11.06141 -10.51427,14.20072 -2.94972,2.91652 -5.00972,4.22633 -9.72966,6.18635 -4.19085,1.74031 -5.92406,2.68247 -6.82743,3.71135 -1.18123,1.34534 -1.00164,2.98474 0.51635,4.71363 2.00175,2.27987 4.72806,1.40515 15.2976,-4.90813 2.58009,-1.54112 4.73621,-2.7569 4.79138,-2.70174 0.20085,0.20086 -6.12709,6.30372 -7.96953,7.68605 -1.04172,0.78158 -2.80317,1.85779 -3.91434,2.39159 -2.64523,1.27077 -3.4724,1.94873 -3.4724,2.84606 0,1.06017 0.81291,1.95459 2.61065,2.87242 1.33703,0.68262 2.13769,0.88582 4.59228,1.16548 3.23709,0.36881 3.97263,0.7204 3.97094,1.8981 -0.001,0.86662 -0.86441,2.25107 -1.57684,2.52916 -0.31283,0.12211 -1.06846,0.35663 -1.67917,0.52117 -1.42041,0.38269 -3.41732,2.36822 -3.85668,3.8347 -0.29883,0.99739 -0.28384,1.05645 0.42243,1.66396 0.69337,0.59641 0.85363,0.62306 3.01725,0.50173 3.00494,-0.16852 4.67632,-0.82745 7.21645,-2.84508 3.46615,-2.75315 9.22731,-5.91755 10.78904,-5.92602 0.9012,-0.005 0.71309,0.93818 -0.63359,3.17647 -2.85848,4.751 -6.35289,8.66974 -9.95482,11.16364 -1.43369,0.99265 -3.34538,2.45271 -4.24821,3.24456 -3.04426,2.6701 -4.55791,3.34228 -5.67949,2.52216 -0.26001,-0.19012 -0.87996,-1.17327 -1.37767,-2.18476 -1.08879,-2.21274 -2.31987,-3.33018 -3.71735,-3.3742 -0.86198,-0.0272 -0.99542,0.0593 -1.39963,0.90647 -0.3621,0.75893 -0.65086,0.98976 -1.52307,1.2175 -1.35617,0.3541 -4.15052,3.14752 -6.44131,6.43918 -0.86734,1.24629 -2.15662,3.10105 -2.86507,4.12169 -1.74989,2.52106 -2.37307,2.78199 -7.35618,3.08019 -5.56091,0.33277 -7.77032,0.0502 -10.65977,-1.36322 -3.04477,-1.48943 -3.52306,-1.56902 -5.47937,-0.91172 -3.5453,1.19118 -9.46337,4.3258 -10.72903,5.68284 -0.42621,0.45698 -0.92838,0.60867 -2.50369,0.75629 -5.441542,0.50991 -9.007005,-0.82253 -8.634401,-3.22675 0.129252,-0.834 2.907599,-7.70423 3.958171,-9.78769 3.28073,-6.5062 8.58726,-10.67408 14.07016,-11.05105 1.5296,-0.10517 1.99571,-0.0353 2.99596,0.44888 1.35955,0.65815 2.12195,1.96551 2.13282,3.65737 0.008,1.22987 0.72934,2.47932 1.83319,3.17492 1.2219,0.76997 3.86635,0.57377 6.02825,-0.44726 3.95503,-1.8679 17.2924,-11.59698 18.18537,-13.26549 0.21559,-0.40283 0.17138,-0.65061 -0.20938,-1.17359 -1.07964,-1.48291 -4.76895,-2.55175 -10.55427,-3.05769 -3.86187,-0.33773 -5.10676,-0.58347 -5.6358,-1.11252 -0.61373,-0.61373 -0.0359,-1.57881 1.14087,-1.9056 1.29419,-0.35939 10.50656,-0.34132 14.69256,0.0288 3.16307,0.27969 3.4004,0.26965 3.71239,-0.15703 0.7049,-0.96399 -0.28359,-3.26037 -2.55869,-5.9442 -2.03812,-2.40426 -2.51659,-3.52001 -2.49308,-5.81359 0.0157,-1.53362 0.17269,-2.25759 0.82489,-3.80453 2.115,-5.01661 6.98637,-11.6244 15.16113,-20.5654 4.55798,-4.9852 6.2787,-7.04289 6.79503,-8.12564 0.41597,-0.87229 0.4125,-0.90072 -0.16728,-1.3702 -0.74303,-0.60167 -1.2031,-0.60051 -3.00631,0.008 -2.96798,1.00086 -5.43754,2.92007 -8.18376,6.36002 -1.01717,1.27413 -3.05053,2.74946 -3.78941,2.74946 -0.51603,0 -0.74264,-0.43915 -1.33118,-2.57963 -0.21826,-0.79377 -0.66686,-1.75715 -0.9969,-2.14084 -1.27153,-1.47825 -3.79139,-0.57051 -4.92673,1.77478 -0.77288,1.59655 -1.6253,5.16843 -2.51346,10.53202 -1.43306,8.6543 -2.67499,11.74479 -6.08494,15.1421 -6.73943,6.71445 -18.8652,8.67458 -21.24507,3.43425 -0.5792,-1.27535 -0.60043,-2.62285 -0.0811,-5.14953 1.35847,-6.6099 6.02651,-12.47866 12.98618,-16.32649 3.84599,-2.12635 6.57563,-4.34571 13.52675,-10.99805 3.45506,-3.30655 3.92566,-3.62062 6.80086,-4.53876 2.97743,-0.95079 7.44677,-3.12235 10.07715,-4.89627 3.31247,-2.23393 15.41304,-8.23911 18.85839,-9.35891 2.88474,-0.93759 9.52644,-2.48556 12.64317,-2.94672 2.68677,-0.39755 3.13248,-0.12508 5.89845,3.60577 l 0.50508,0.68127 4.46006,-1.6021 c 2.45303,-0.88116 6.16794,-2.35315 8.25535,-3.2711 4.45848,-1.96063 6.33377,-2.50143 8.77159,-2.52959 1.56259,-0.0181 1.91699,0.068 2.7999,0.67964 1.23872,0.85815 2.35125,1.19374 3.95754,1.19374 2.61236,0 3.95361,-1.30561 9.91851,-9.65491 6.55969,-9.18185 8.83751,-11.83413 11.15134,-12.98457 1.49078,-0.74121 7.79388,-0.79182 11.92755,-0.0958 4.57704,0.77072 5.89918,1.50883 11.36281,6.34354 4.27768,3.78528 12.59994,9.69303 16.59494,11.78031 1.49313,0.78011 1.5995,1.10906 0.76459,2.36433 -0.8067,1.21287 -4.67547,3.09946 -7.50531,3.65993 -2.71227,0.53719 -6.01256,0.36387 -9.36768,-0.49194 -3.28051,-0.83679 -4.92764,-1.51282 -11.91116,-4.88872 -3.29731,-1.59395 -6.42443,-2.95567 -6.94916,-3.02605 -0.83544,-0.11206 -1.14227,0.0135 -2.46791,1.01002 -2.11651,1.59101 -6.17983,5.84545 -6.17983,6.4705 0,0.66247 1.29357,1.03837 6.9448,2.01809 5.78661,1.0032 7.32444,1.58762 8.09413,3.07603 0.53165,1.0281 0.45556,1.68548 -0.39172,3.3843 -0.89248,1.78946 -0.91667,2.10745 -0.25846,3.39764 0.62918,1.23331 0.93704,2.60572 1.2855,5.73071 0.4307,3.86255 0.83313,4.48423 3.10427,4.79553 1.6354,0.22415 1.81004,-0.21762 1.41239,-3.57293 -0.53546,-4.51821 -0.0432,-6.31247 1.86439,-6.79612 1.09277,-0.27706 2.35738,0.13002 8.75435,2.81805 4.81344,2.02262 6.21613,2.71358 8.54252,4.20802 3.85453,2.4761 6.53258,4.98194 8.61036,8.05666 3.29669,4.87848 6.30309,12.35216 7.76311,19.29847 0.87617,4.16851 0.99975,10.77274 0.25145,13.43745 -0.86969,3.09695 -1.30537,3.65123 -8.58089,10.9166 -7.81006,7.79917 -8.26471,8.43118 -8.78242,12.20867 -0.76664,5.59389 2.33081,4.28291 7.34439,-3.10848 3.93384,-5.79956 8.65534,-9.35744 11.66784,-8.79229 1.78596,0.33505 2.88206,1.78544 3.93621,5.20851 1.11495,3.6205 1.42706,6.37182 1.43238,12.6269 0.005,5.74756 -0.0207,6.05487 -0.81285,9.74813 -2.37952,11.09457 -4.18562,15.25117 -8.64527,19.89645 -2.87993,2.9998 -4.41076,3.96639 -5.38849,3.40238 z"
       style="fill:#ffffff" />
    <path
       id="path3354"
       d="m 188.74958,721.37634 c -0.4248,-0.35744 -1.19293,-1.50086 -1.70696,-2.54092 -0.79246,-1.60345 -0.95122,-2.20793 -1.04397,-3.97489 -0.0909,-1.73234 -0.0238,-2.25157 0.39783,-3.07805 1.20258,-2.35722 5.91455,-5.96582 9.75561,-7.4712 2.73382,-1.07143 5.81451,-1.28339 7.54267,-0.51894 2.07945,0.91984 2.55909,2.75265 2.30451,8.80596 -0.0944,2.24557 -0.25163,4.21215 -0.34931,4.37019 -0.36362,0.58835 -14.22436,5.05776 -15.68535,5.05776 -0.24346,0 -0.79022,-0.29246 -1.21503,-0.64991 z"
       style="fill:#ffffff" />
    <path
       id="path3356"
       d="m 218.39882,725.63799 c -2.72084,-0.36026 -6.11286,-1.9426 -8.23086,-3.83961 -1.22198,-1.09448 -1.34604,-1.30233 -1.31032,-2.19517 0.0217,-0.54243 0.60758,-2.86132 1.30196,-5.1531 3.46532,-11.43721 4.02833,-14.31697 3.33631,-17.06522 -0.51032,-2.02668 -2.66565,-6.32148 -3.42067,-6.81619 -0.64986,-0.4258 -0.76583,-0.42566 -2.61792,0.003 -4.6751,1.08255 -11.16441,4.04932 -16.17227,7.39361 -5.30985,3.54597 -8.69307,6.61447 -13.50106,12.24516 -2.86266,3.35249 -4.56583,4.97863 -4.88264,4.66181 -0.73032,-0.73031 5.06812,-8.17763 13.22966,-16.99171 3.61914,-3.90851 6.01108,-5.79084 9.86106,-7.76016 5.51891,-2.82299 10.54841,-4.378 14.98125,-4.63187 2.30203,-0.13184 2.92593,-0.0774 4.46399,0.38981 2.85453,0.86704 4.38508,2.46068 7.55592,7.86742 l 1.26122,2.15057 -1.21705,2.84648 c -1.61691,3.78172 -3.12248,6.0437 -5.67873,8.53182 -1.24263,1.2095 -2.11658,2.26592 -2.11658,2.55848 0,0.70641 2.46576,3.58919 7.1077,8.3098 2.20219,2.2395 3.99914,4.17142 3.99322,4.29315 -0.0175,0.36095 -2.40346,2.09565 -3.57565,2.5997 -1.15485,0.49659 -3.11973,0.76736 -4.36854,0.60201 z"
       style="fill:#ffffff" />
    <path
       id="path3358"
       d="m 137.46035,730.99267 c -0.20835,-0.0517 -0.80469,-0.16344 -1.3252,-0.24836 -1.74107,-0.28407 -2.15619,-2.30851 -0.95583,-4.6614 0.47025,-0.92177 2.07559,-2.54143 2.51895,-2.54143 0.50754,0 2.55202,2.65449 3.0315,3.93603 0.642,1.71591 0.65356,2.42959 0.0482,2.97742 -0.44714,0.40466 -2.50765,0.73864 -3.31763,0.53774 z"
       style="fill:#ffffff" />
    <path
       id="path3360"
       d="m 119.40387,746.79298 c -1.81796,-0.43872 -2.77899,-1.4188 -2.74285,-2.7972 0.0826,-3.14923 4.10105,-4.96895 8.70527,-3.94206 3.62788,0.80913 5.64293,2.58077 4.65327,4.09119 -1.16958,1.78499 -7.57308,3.38235 -10.61569,2.64807 z"
       style="fill:#ffffff" />
    <path
       id="path3362"
       d="m 225.83113,749.8858 c -1.41215,-1.27579 -2.05381,-2.64176 -2.20043,-4.68422 -0.1007,-1.40279 -0.0511,-1.72689 0.28397,-1.85546 0.61661,-0.23662 2.01338,0.75686 3.13861,2.2324 1.83932,2.41194 2.19816,3.58302 1.43274,4.6758 -0.57742,0.82439 -1.47191,0.70023 -2.65489,-0.36852 z"
       style="fill:#ffffff" />
    <path
       id="path3364"
       d="m 148.32176,774.07574 c -1.78728,-0.6384 -2.78019,-1.71526 -2.78019,-3.01524 0,-1.88095 1.7169,-6.4924 3.69223,-9.91704 2.16492,-3.75335 3.13246,-4.26079 4.84969,-2.54355 1.63634,1.63633 4.31282,6.64547 4.86331,9.10187 0.41691,1.86037 0.0912,2.97651 -1.26435,4.33202 -2.17929,2.17929 -6.39909,3.0998 -9.36069,2.04194 z"
       style="fill:#ffffff" />
    <path
       id="path3366"
       d="m 186.41995,787.7093 c -1.90189,-0.60836 -3.93601,-1.87588 -7.27016,-4.53025 -4.71936,-3.75716 -7.61203,-5.22161 -13.02637,-6.59473 -1.62021,-0.41091 -2.58245,-1.15276 -3.27955,-2.52844 -0.91992,-1.81537 -1.93971,-6.24645 -1.84694,-8.0251 0.0671,-1.28576 0.14069,-1.46109 0.64351,-1.5325 0.80034,-0.11367 1.7646,0.62519 5.36687,4.11234 5.01979,4.85939 6.9243,6.1961 8.82804,6.1961 1.62579,0 2.66662,-1.14849 4.6614,-5.14353 0.92722,-1.85699 1.95319,-3.62749 2.27993,-3.93445 0.56515,-0.53093 0.63194,-0.53851 1.37229,-0.15566 0.42803,0.22134 1.49081,1.06325 2.36175,1.87091 0.87094,0.80765 2.25587,2.01098 3.07764,2.67405 1.32837,1.07185 1.59451,1.1893 2.39911,1.05878 2.26164,-0.3669 5.94408,-2.91328 6.4662,-4.47133 0.15922,-0.47514 0.56407,-1.00899 0.89967,-1.18634 1.19579,-0.63193 3.96279,0.1671 5.21048,1.50463 1.04016,1.11507 1.36223,2.60501 1.6005,7.40413 0.31393,6.32295 0.57822,7.80694 1.58742,8.91332 0.66381,0.72774 0.40524,1.23745 -0.98708,1.94582 -0.82368,0.41906 -1.48734,0.50447 -3.89694,0.50154 -3.14305,-0.004 -3.69088,-0.17012 -5.59174,-1.69734 -1.1626,-0.93408 -2.66855,-1.17603 -3.58448,-0.57588 -0.36269,0.23764 -0.93678,1.01759 -1.27575,1.73322 -1.31018,2.76602 -2.94447,3.43674 -5.9958,2.46071 z"
       style="fill:#ffffff" />
    <path
       id="path3368"
       d="m 173.1238,768.24767 c -2.53201,-1.19784 -5.64935,-4.4532 -6.35472,-6.63607 -0.63628,-1.96908 0.56002,-3.56575 4.73694,-6.32227 2.82102,-1.86171 5.05363,-3.82531 6.13284,-5.39388 0.92246,-1.34075 1.50637,-1.50779 3.86211,-1.10483 2.31674,0.39629 3.87925,0.10052 6.71598,-1.27129 2.74212,-1.32606 3.57974,-1.31516 6.11752,0.0796 2.4619,1.35304 4.46796,3.0887 5.7473,4.97262 0.54991,0.80978 1.61174,1.99509 2.35963,2.63402 1.47102,1.25674 2.86748,3.78819 3.00542,5.44813 0.10766,1.29543 -0.62151,1.54445 -5.28633,1.80529 -2.1666,0.12116 -4.19945,0.36097 -4.57383,0.53957 -0.64665,0.3085 -0.97888,1.01977 -1.41642,3.03247 -0.31038,1.42774 -1.193,0.99534 -6.12305,-2.99972 -2.75777,-2.23477 -3.78425,-2.8718 -4.62748,-2.8718 -1.23976,0 -5.51381,5.04071 -6.08454,7.17596 -0.15165,0.56734 -0.39217,1.17359 -0.53449,1.34721 -0.43992,0.53665 -2.01752,0.35001 -3.67688,-0.435 z"
       style="fill:#ffffff" />
    <path
       id="path3370"
       d="m 86.321374,788.34048 c -2.932214,-0.72656 -4.86658,-2.41286 -5.579011,-4.86353 -1.415047,-4.8676 1.888898,-16.24638 4.717302,-16.24638 0.89436,0 1.663322,0.55816 1.981609,1.43836 0.431412,1.19305 3.894774,6.33656 5.746719,8.53457 2.081917,2.47095 2.923049,2.89716 5.727878,2.90236 4.081989,0.008 12.179369,-1.50954 15.861699,-2.97183 2.41891,-0.96056 4.37378,-1.4671 13.46514,-3.48901 10.68173,-2.37562 9.85797,-2.23116 10.7101,-1.87819 0.96205,0.39849 1.14904,0.92989 0.61568,1.74964 -0.58947,0.90602 -1.00549,1.21829 -2.61322,1.96155 -2.50885,1.15986 -13.89878,4.84922 -31.94607,10.34778 -8.296354,2.52769 -14.996662,3.4293 -18.687826,2.51468 z"
       style="fill:#ffffff" />
    <path
       id="path3372"
       d="m 221.84068,847.26078 c -3.70688,-1.08291 -5.53227,-2.58686 -8.00233,-6.59318 -1.69524,-2.74959 -4.65628,-10.11984 -5.40732,-13.45922 -0.51121,-2.27303 -0.8136,-6.74882 -0.98536,-14.58494 -0.15147,-6.91018 -0.2449,-8.33809 -0.56661,-8.65981 -0.34529,-0.34528 -0.45593,-0.32963 -1.06691,0.15098 -0.87381,0.68733 -1.29974,1.53205 -1.6641,3.30026 -0.19578,0.95014 -0.56733,1.74364 -1.12338,2.39912 -0.45696,0.53867 -0.9727,1.37716 -1.14609,1.86329 -0.19053,0.53423 -0.40198,3.33146 -0.5345,7.07107 -0.27961,7.88982 -0.44645,10.56442 -0.68474,10.9767 -0.15219,0.26333 -0.77753,0.18477 -3.09492,-0.38882 -3.52174,-0.87167 -5.59251,-0.95476 -6.29471,-0.25256 -0.30479,0.30479 -0.43464,0.68405 -0.34784,1.01595 0.19557,0.74788 1.93894,2.20672 4.33374,3.62646 2.20585,1.30773 2.81442,1.94499 2.81294,2.94554 -0.002,1.43343 -2.03431,3.47657 -4.06229,4.08416 -1.44661,0.43342 -2.83379,-0.0134 -7.74954,-2.496 -4.13229,-2.08695 -4.46211,-2.20843 -6.23982,-2.2982 -1.77675,-0.0897 -1.98866,-0.0396 -3.97086,0.93819 -1.63819,0.80814 -2.91841,1.19624 -5.88201,1.78313 -5.96472,1.18121 -9.36723,1.62169 -12.50063,1.61831 -3.16034,-0.003 -4.34357,-0.18327 -9.8112,-1.49135 -5.5219,-1.32106 -6.21468,-1.72956 -11.17248,-6.58797 -3.56315,-3.49173 -4.33164,-4.12963 -4.97502,-4.12963 -0.93456,0 -1.18716,0.59742 -1.57614,3.72761 -0.39535,3.18155 -0.72723,3.63414 -3.02187,4.12091 -1.42459,0.3022 -2.88983,0.92941 -5.26941,2.25563 -2.92107,1.628 -4.02421,0.95005 -7.13005,-4.38182 -0.82728,-1.42022 -2.11462,-2.83564 -5.14548,-5.65743 -2.52465,-2.35051 -3.57562,-5.85343 -2.42995,-8.09913 0.66366,-1.30088 0.91895,-1.46389 4.8222,-3.07902 1.7362,-0.71842 4.77394,-2.08911 6.75054,-3.04598 3.0327,-1.46812 3.84285,-1.98756 5.18884,-3.32694 3.79314,-3.77451 14.82453,-11.2851 22.31701,-15.19426 6.20214,-3.23594 6.14121,-3.22164 15.74616,-3.69532 4.74567,-0.23404 6.89044,-0.48256 7.24767,-0.83978 0.3661,-0.36611 -0.3463,-1.6329 -1.65331,-2.93991 -2.50407,-2.50407 -4.05213,-2.99024 -8.03843,-2.52448 -3.55071,0.41487 -6.60194,1.11948 -7.94871,1.83557 -0.73194,0.38917 -1.81884,0.68414 -2.92117,0.79276 -1.51357,0.14915 -1.93805,0.31015 -3.08012,1.16828 -0.72853,0.54741 -3.37287,2.02892 -5.8763,3.29225 -7.78642,3.92932 -12.31879,6.69643 -15.23155,9.29918 -6.18223,5.52427 -18.26043,10.93346 -32.19861,14.42008 -5.712024,1.42886 -9.247205,1.83886 -10.965562,1.27175 -1.197404,-0.39518 -4.009984,-3.02623 -6.081145,-5.68866 -3.301933,-4.24455 -5.080587,-8.26566 -5.350989,-12.09729 -0.157499,-2.23179 0.216407,-5.07218 0.821809,-6.2429 0.530675,-1.02621 2.317987,-1.4953 6.347876,-1.66603 3.931071,-0.16654 5.138437,0.0274 9.981417,1.60325 5.518594,1.7957 8.155473,2.19533 10.676164,1.61802 0.555584,-0.12724 2.71479,-0.35926 4.79823,-0.51559 4.13503,-0.31027 5.56128,-0.5819 5.75886,-1.09677 0.48892,-1.27411 19.65793,-7.98811 31.1117,-10.89695 14.22707,-3.61316 21.44826,-2.95351 31.62576,2.88897 1.63458,0.93835 5.21089,3.18816 7.94735,4.99959 9.50546,6.29221 13.67683,7.88124 19.8542,7.5632 4.18651,-0.21555 10.78065,-1.96621 12.12557,-3.21919 0.59325,-0.5527 0.49175,-1.15059 -0.23445,-1.38108 -1.53484,-0.48714 -1.43271,-3.22987 0.34297,-9.21015 1.70182,-5.73152 1.607,-16.06203 -0.22236,-24.22712 -1.41323,-6.30772 -3.45881,-11.05507 -7.38958,-17.14958 -2.4029,-3.7256 -2.73172,-4.85349 -1.50824,-5.17343 0.27949,-0.0731 1.03244,0.0249 1.67322,0.21774 1.54519,0.46503 1.92455,0.17216 1.75263,-1.3531 -0.26207,-2.32509 -1.5641,-3.19836 -4.72657,-3.17012 -2.35587,0.021 -3.71948,0.32861 -8.8836,2.00374 -1.89971,0.61622 -3.63276,1.05183 -3.85121,0.968 -0.63184,-0.24246 -0.46649,-1.40516 0.39303,-2.76372 1.68952,-2.67045 7.3267,-7.80496 10.15094,-9.24578 l 1.03809,-0.5296 2.15474,0.52696 c 1.1851,0.28983 3.04641,0.71269 4.13624,0.9397 3.34038,0.69579 4.20733,1.86152 6.86598,9.23228 2.17028,6.01681 3.18859,8.50856 3.70273,9.06043 0.63914,0.68603 1.18848,2.02369 2.54528,6.19788 2.64741,8.14469 6.34712,15.96106 7.76835,16.41214 1.30127,0.41301 2.2637,-0.79459 2.2637,-2.84036 0,-0.67158 -0.23821,-2.52391 -0.52935,-4.11629 -0.5355,-2.92886 -0.52561,-4.50552 0.0325,-5.17799 0.51862,-0.62489 2.27869,-0.44775 3.9754,0.4001 2.56199,1.28025 5.10882,4.4506 6.99553,8.70821 0.36759,0.82951 1.35361,3.44012 2.19117,5.80135 3.39984,9.58483 4.77977,11.16448 9.985,11.43014 2.43386,0.12422 2.6034,0.10171 2.60098,-0.34533 -0.005,-0.92866 -2.73972,-8.61664 -4.65306,-13.08105 -1.06582,-2.48689 -3.11174,-6.97576 -4.54649,-9.97526 -1.43475,-2.9995 -2.80529,-6.13549 -3.04565,-6.96886 -0.24036,-0.83338 -0.53817,-1.77746 -0.66181,-2.09796 -0.34433,-0.89265 -2.55122,-1.76577 -5.51401,-2.18155 -2.09896,-0.29456 -2.85315,-0.52231 -3.96976,-1.19879 -2.43172,-1.47323 -12.664,-12.35844 -12.38122,-13.17128 0.18208,-0.5234 2.96119,-0.28518 5.22763,0.44811 6.53063,2.11292 14.73495,6.50481 19.21149,10.28418 2.41922,2.04246 4.05543,3.24533 4.41446,3.24533 1.75609,0 19.77446,18.74821 23.38064,24.32767 2.22727,3.44602 4.59773,8.70454 5.88183,13.04798 1.49254,5.04852 1.90374,11.06704 1.05713,15.47272 -0.51955,2.70373 -2.48781,8.47379 -4.20569,12.32926 -5.86891,13.17166 -17.48352,25.55133 -29.66308,31.617 -5.77879,2.87795 -8.62659,3.70455 -20.07678,5.8275 -0.20834,0.0386 -1.44374,-0.24087 -2.74532,-0.6211 z"
       style="fill:#ffffff" />
    <path
       id="path3374"
       d="m 100.33724,837.35707 c -2.250837,-0.92726 -4.497987,-2.59873 -7.328664,-5.45121 -2.905657,-2.92804 -4.28809,-5.09018 -4.28809,-6.7066 0,-1.92599 0.65018,-2.27653 4.671956,-2.51879 3.26784,-0.19685 6.442516,0.19785 8.123458,1.00997 1.12947,0.54568 1.35746,0.7846 1.69556,1.77686 0.42716,1.25366 1.6465,3.04724 4.44525,6.53874 l 1.82144,2.27227 -1.09806,0.95502 c -1.58895,1.38198 -4.34696,2.70924 -5.61453,2.70193 -0.57165,-0.003 -1.66439,-0.26349 -2.42832,-0.57819 z"
       style="fill:#ffffff" />
    <path
       id="path3376"
       d="m 221.84068,847.25929 c -3.75749,-1.09533 -5.71461,-2.73064 -8.13117,-6.79411 -1.67327,-2.81361 -4.59246,-10.14003 -5.28214,-13.2568 -0.5035,-2.27539 -0.80711,-6.71341 -0.98369,-14.37878 -0.20218,-8.7771 -0.32839,-9.60024 -1.36638,-8.91104 -0.92395,0.61348 -1.44756,1.53023 -1.84128,3.22375 -0.24132,1.03798 -0.66627,1.989 -1.16903,2.61622 -1.3337,1.66387 -1.48876,2.50525 -1.72661,9.36863 -0.25424,7.33642 -0.43984,10.18433 -0.69151,10.61072 -0.1361,0.23058 -0.92267,0.1292 -3.21072,-0.41384 -4.5429,-1.0782 -6.43972,-0.94338 -6.43972,0.45771 0,0.88827 1.41584,2.20465 4.14295,3.8519 2.2901,1.38328 2.92812,2.03421 2.92812,2.98737 0,1.42686 -1.63675,3.21192 -3.65005,3.98081 -1.70282,0.65032 -2.98064,0.28607 -8.11739,-2.3139 -4.03167,-2.04063 -4.44185,-2.19331 -6.19459,-2.30579 -1.79392,-0.11513 -1.97172,-0.0747 -4.01619,0.91315 -2.20635,1.06607 -6.35301,2.05384 -12.2407,2.91583 -6.26814,0.91768 -8.92033,0.75253 -16.0573,-0.99991 -5.47542,-1.34446 -6.12348,-1.72827 -11.1337,-6.59398 -3.64169,-3.53664 -4.38014,-4.14401 -4.95718,-4.0772 -0.90073,0.10428 -1.22092,0.83985 -1.56265,3.5898 -0.36224,2.91513 -0.71681,3.58652 -2.08792,3.95359 -2.33778,0.62587 -4.16886,1.34982 -5.54471,2.19218 -1.82354,1.11646 -3.28115,1.30882 -4.4342,0.58516 -0.77069,-0.48369 -1.3509,-1.28293 -3.59354,-4.95015 -0.49847,-0.8151 -2.0044,-2.49012 -3.45358,-3.84135 -3.3701,-3.14232 -4.24085,-4.66089 -4.24556,-7.40416 -0.005,-2.85146 0.41932,-3.30356 4.84345,-5.16203 1.91787,-0.80565 5.09768,-2.24363 7.06625,-3.19551 3.00301,-1.45207 3.83645,-1.9851 5.17703,-3.31098 5.3272,-5.26878 23.67414,-16.87899 28.49313,-18.03086 0.76393,-0.1826 3.3777,-0.44967 5.80837,-0.59351 9.62383,-0.56947 11.11168,-0.78647 11.11168,-1.62061 0,-0.66112 -1.98174,-2.85044 -3.49473,-3.86077 -1.86466,-1.24518 -2.94632,-1.43005 -6.23618,-1.06589 -3.55597,0.39363 -5.71112,0.88576 -7.69817,1.75788 -0.94721,0.41573 -2.04408,0.75866 -2.43749,0.76205 -1.40733,0.0122 -2.87858,0.515 -3.99085,1.36402 -0.62176,0.4746 -2.86652,1.74019 -4.98837,2.81242 -8.19575,4.14157 -12.96943,7.04215 -15.97973,9.70955 -2.62581,2.32673 -5.80598,4.33144 -10.6066,6.68619 -7.0076,3.43729 -13.1181,5.59908 -22.223355,7.86227 -5.082818,1.26337 -8.700473,1.65208 -10.339994,1.11098 -1.971469,-0.65064 -6.949708,-6.19889 -9.067894,-10.10617 -2.011249,-3.71002 -2.821941,-7.93428 -2.203853,-11.4836 0.443372,-2.54603 0.791226,-3.07038 2.357393,-3.55351 1.814656,-0.55977 7.513126,-0.78482 9.582176,-0.37842 0.875024,0.17187 3.31033,0.85991 5.411793,1.52899 5.152202,1.64038 7.085571,1.95031 9.757389,1.56417 1.143523,-0.16527 3.556485,-0.41518 5.362135,-0.55536 4.52967,-0.35165 5.12131,-0.46967 5.75753,-1.14847 0.98536,-1.05131 9.4001,-4.27709 19.62255,-7.52226 19.50398,-6.19165 28.0867,-6.99229 37,-3.45155 3.66221,1.45478 7.1466,3.41484 13.00255,7.31425 6.99134,4.65546 10.53378,6.54968 14.27298,7.63208 1.71705,0.49704 2.55831,0.58022 5.67753,0.56131 3.36113,-0.0204 3.94173,-0.0966 7.07107,-0.92812 3.74638,-0.99551 5.4811,-1.67874 6.15607,-2.42458 0.46822,-0.51737 0.4164,-0.62262 -0.67725,-1.37557 -1.10524,-0.76093 -1.0016,-3.54678 0.28833,-7.75017 1.25367,-4.08524 1.43152,-5.64056 1.41501,-12.37437 -0.0126,-5.1341 -0.10756,-6.72447 -0.558,-9.34391 -1.44875,-8.42484 -3.31108,-13.24697 -7.99557,-20.70291 -1.08904,-1.73332 -2.07224,-3.47288 -2.18489,-3.86567 -0.41215,-1.4371 0.28963,-1.84522 2.27322,-1.32195 1.4245,0.37577 1.78815,0.18519 1.78815,-0.93713 0,-1.13985 -0.66119,-2.41555 -1.5239,-2.94019 -1.94878,-1.18513 -5.20581,-0.84257 -11.71535,1.23214 -2.21188,0.70497 -4.17221,1.22397 -4.35628,1.15333 -0.57619,-0.2211 -0.36699,-1.50958 0.45617,-2.80962 1.67354,-2.64303 7.33125,-7.82117 10.0511,-9.19913 l 1.11923,-0.56704 2.16377,0.51237 c 1.19007,0.2818 3.05544,0.70259 4.14527,0.93509 3.43322,0.73244 4.16011,1.7612 7.25332,10.26564 1.83744,5.05184 3.21169,8.29455 3.5152,8.29455 0.28314,0 0.72876,1.12249 2.40613,6.06092 2.49119,7.33447 4.52936,12.01855 6.51151,14.9646 1.20739,1.79454 2.42973,1.91178 3.10413,0.29773 0.48726,-1.16617 0.44727,-2.53159 -0.1736,-5.92737 -0.5355,-2.92886 -0.52561,-4.50552 0.0325,-5.17799 0.51862,-0.62489 2.27869,-0.44775 3.9754,0.4001 2.68986,1.34414 5.32796,4.71712 7.2254,9.23813 0.45899,1.09364 1.43547,3.69307 2.16995,5.77651 1.70108,4.82528 2.83839,7.17544 4.21151,8.70268 1.39896,1.55598 2.59101,2.01923 5.68021,2.20743 2.21621,0.13502 2.4882,0.1055 2.4882,-0.27003 0,-0.63482 -1.67323,-5.71435 -2.9642,-8.99859 -1.52128,-3.87015 -3.59166,-8.53063 -6.47862,-14.58348 -1.30854,-2.74352 -2.62945,-5.81637 -2.93535,-6.82854 -0.30591,-1.01218 -0.74031,-2.02445 -0.96535,-2.24949 -0.75671,-0.75671 -2.5125,-1.34461 -5.10028,-1.70777 -2.07339,-0.29096 -2.83952,-0.52246 -3.95797,-1.19595 -2.43742,-1.46774 -12.6511,-12.34013 -12.37723,-13.17547 0.25797,-0.78684 3.27265,-0.34493 6.99564,1.02546 3.56251,1.31133 10.10512,4.59442 13.24048,6.6441 1.51579,0.99091 3.80794,2.67971 5.09366,3.75288 1.28573,1.07318 3.00023,2.28021 3.81001,2.6823 2.65822,1.31992 17.27342,16.38867 22.12849,22.81521 1.74186,2.30565 5.12701,9.03652 6.24498,12.4172 2.23133,6.74748 2.7092,13.16956 1.39735,18.7793 -0.47249,2.02049 -2.19115,6.97948 -3.46923,10.01005 -4.80578,11.39541 -14.12063,22.54467 -24.62324,29.47237 -6.79102,4.47947 -13.05343,6.79061 -23.31326,8.60374 l -2.65165,0.4686 -2.36651,-0.68986 z"
       style="fill:#ffffff" />
    <path
       id="path3378"
       d="m 288.8054,790.589 c -0.80378,-0.56299 -1.09683,-1.76787 -1.3185,-5.42117 -0.18712,-3.08379 -0.24071,-3.32992 -0.8474,-3.89218 -0.7609,-0.70517 -1.44346,-2.00687 -3.35442,-6.39707 -4.20394,-9.65809 -9.1791,-17.24328 -15.04659,-22.94021 -3.79726,-3.68688 -16.82877,-13.36757 -22.94436,-17.04464 -1.45841,-0.87688 -4.1802,-2.32157 -6.04843,-3.21041 -4.01747,-1.91139 -5.87834,-3.09344 -6.28907,-3.9949 -0.26254,-0.5762 -0.20412,-0.82527 0.46988,-2.00329 0.5903,-1.03175 0.75337,-1.59868 0.69968,-2.43255 -0.0697,-1.08216 -0.0635,-1.09069 1.31895,-1.81557 0.76393,-0.40057 2.41174,-1.33114 3.6618,-2.06794 2.4304,-1.43251 4.23013,-2.14105 5.4384,-2.14105 1.07148,0 1.75894,-0.79068 1.75894,-2.02305 0,-1.34053 -0.68345,-2.72539 -2.55359,-5.17428 -1.43658,-1.88115 -2.24463,-3.28711 -2.24463,-3.9055 0,-0.14296 0.38226,-0.68641 0.84947,-1.20767 1.1889,-1.32646 1.61392,-2.2619 1.93181,-4.25182 0.27486,-1.72055 0.157,-3.35034 -0.30598,-4.23111 -0.53926,-1.02588 -2.57736,0.20893 -5.67776,3.43996 -1.13632,1.1842 -2.3096,2.63051 -2.60729,3.21403 -0.49028,0.96102 -0.51254,1.18064 -0.23635,2.33195 0.26908,1.12161 2.33432,5.45648 3.65791,7.67779 l 0.47359,0.79479 -1.24473,1.47806 c -2.86052,3.39673 -5.93244,6.14617 -6.87028,6.14906 -0.6036,0.002 -2.07977,-1.57069 -3.38617,-3.60725 -0.73065,-1.13901 -2.0453,-2.83419 -2.92144,-3.76706 -1.32262,-1.40825 -1.59299,-1.8446 -1.59299,-2.57092 0,-0.60032 0.71409,-2.28719 2.27598,-5.37643 2.39724,-4.7415 4.32727,-9.38232 5.3905,-12.96167 1.55968,-5.25062 1.53591,-7.49122 -0.11493,-10.834 -3.04362,-6.16299 -9.16283,-8.72084 -19.79965,-8.27632 -3.79129,0.15844 -5.45839,0.4982 -8.22846,1.67697 -0.96594,0.41104 -2.63485,0.92535 -3.7087,1.14291 -3.36739,0.68223 -10.32355,4.40599 -14.28521,7.64715 -2.30864,1.88877 -4.0207,4.15283 -9.49595,12.55763 -6.23041,9.56401 -7.05225,10.68291 -10.11735,13.77441 -3.20447,3.23206 -5.23135,4.54015 -10.38567,6.70259 -5.91085,2.47984 -7.2962,3.49955 -7.28784,5.3644 0.005,1.19916 0.90531,2.77309 2.01999,3.53282 1.88755,1.28649 4.90387,0.15024 14.22643,-5.35914 2.75694,-1.62927 5.05552,-2.91942 5.10796,-2.86698 0.20709,0.20708 -5.88494,6.10057 -7.7898,7.53592 -1.11377,0.83925 -3.03366,2.03247 -4.26644,2.65161 -1.23278,0.61914 -2.46641,1.3507 -2.7414,1.62569 -1.32321,1.32321 0.10413,3.3762 3.082,4.43294 0.59948,0.21274 2.31725,0.53876 3.81726,0.72448 2.97083,0.36784 3.71313,0.74475 3.71149,1.88456 -0.001,0.78256 -0.80072,2.17174 -1.43764,2.49769 -0.2505,0.1282 -0.85038,0.30819 -1.33306,0.39998 -1.20095,0.22839 -2.68039,1.30387 -3.56771,2.59354 -1.03016,1.49728 -1.16755,2.36999 -0.4721,2.99861 0.4678,0.42284 0.90584,0.49751 2.86116,0.48776 3.05618,-0.0153 4.61597,-0.60376 7.58415,-2.8615 3.87643,-2.94858 9.15429,-5.82809 10.69768,-5.83646 1.07807,-0.006 0.56636,1.55162 -1.53395,4.66887 -2.86221,4.24804 -5.68565,7.29256 -8.8316,9.52308 -1.38332,0.9808 -3.49502,2.6038 -4.69266,3.60665 -4.08306,3.41901 -5.14845,3.50915 -6.63008,0.56095 -1.13844,-2.26529 -1.65085,-2.90481 -2.79526,-3.48865 -1.32578,-0.67636 -2.10982,-0.47988 -2.58052,0.64665 -0.29019,0.69452 -0.57157,0.92122 -1.43051,1.15251 -1.36328,0.36709 -4.24066,3.22789 -6.48056,6.44322 -0.86734,1.24504 -2.15662,3.09879 -2.86507,4.11943 -1.75714,2.5315 -2.36048,2.78104 -7.46295,3.08666 -5.55677,0.33284 -7.54342,0.0674 -10.76461,-1.43837 -1.82544,-0.8533 -2.83213,-1.17923 -3.60612,-1.16753 -2.0303,0.0307 -9.7845,3.74124 -12.02114,5.75236 -0.81323,0.73124 -1.15113,0.84988 -2.88249,1.01213 -5.098887,0.4778 -8.696928,-0.70734 -8.696928,-2.86464 0,-0.66683 2.107158,-5.98715 3.790787,-9.57128 3.203691,-6.82006 8.590731,-11.24445 14.155391,-11.62586 1.6798,-0.11513 2.1198,-0.0544 3.12311,0.43133 1.38094,0.6685 1.87393,1.49037 2.17603,3.62764 0.24809,1.75515 0.7938,2.63363 2.02645,3.26217 2.0333,1.03681 4.94476,0.25286 9.22919,-2.48508 5.2477,-3.35351 13.84152,-9.8684 14.65484,-11.10968 0.36666,-0.55958 0.36421,-0.66437 -0.0295,-1.26522 -0.92165,-1.40662 -4.28467,-2.44706 -9.72408,-3.00841 -5.21484,-0.53817 -5.76703,-0.63637 -6.38292,-1.13508 -0.47755,-0.3867 -0.51109,-0.53076 -0.25464,-1.09362 0.5833,-1.2802 1.62764,-1.32887 18.12176,-0.84453 l 1.51523,0.0445 0.0799,-0.9733 c 0.10391,-1.26509 -0.79544,-3.05286 -2.62026,-5.20867 -2.03272,-2.40143 -2.51346,-3.52107 -2.49616,-5.81359 0.0121,-1.60495 0.15502,-2.2181 0.93638,-4.01722 2.28861,-5.26969 6.95685,-11.53734 15.72326,-21.11033 3.68653,-4.02572 6.06251,-6.93199 6.3134,-7.72246 0.11172,-0.35201 0.0272,-0.68599 -0.24175,-0.95492 -1.23821,-1.2382 -5.76916,0.56493 -8.67722,3.45316 -0.93515,0.92878 -2.11763,2.21289 -2.62774,2.85358 -1.01364,1.27311 -3.04705,2.74945 -3.78692,2.74945 -0.51775,0 -0.74161,-0.43638 -1.34136,-2.61465 -0.679,-2.46614 -2.10299,-3.40592 -3.81474,-2.51759 -2.12062,1.1005 -3.04057,3.58318 -4.50352,12.15366 -1.04696,6.13351 -1.81253,9.00892 -3.09032,11.60703 -2.83895,5.77243 -10.87788,10.48036 -17.88473,10.47405 -4.95785,-0.005 -7.23542,-2.01791 -6.8578,-6.06251 0.23284,-2.49395 0.80431,-4.44698 2.04937,-7.00382 2.16044,-4.43668 5.99474,-8.37047 10.84487,-11.12625 3.65552,-2.07702 6.66265,-4.4159 11.2922,-8.78282 6.16868,-5.81874 6.52078,-6.08627 9.0346,-6.86471 2.85566,-0.88428 7.82149,-3.26624 10.43724,-5.00642 2.29552,-1.52713 10.92359,-6.03198 15.08506,-7.87614 4.00033,-1.77274 12.4424,-3.99579 17.18364,-4.52496 1.82498,-0.20369 2.29858,0.07 4.20093,2.42796 l 1.55001,1.9212 4.63754,-1.69462 c 2.55064,-0.93205 6.22853,-2.38541 8.17307,-3.22969 4.49332,-1.95093 6.10267,-2.41478 8.4808,-2.44436 1.70227,-0.0212 2.02709,0.0539 2.92618,0.67648 1.84353,1.27655 4.18744,1.55745 6.01814,0.72123 1.64054,-0.74935 2.62111,-1.95171 10.6184,-13.01998 3.36456,-4.65659 6.64018,-8.30926 8.1957,-9.13911 1.41355,-0.75411 7.96848,-0.80913 12.12183,-0.10174 4.63465,0.78935 5.86693,1.47349 11.36421,6.30911 4.35698,3.83258 11.94983,9.25297 16.2239,11.58194 1.00389,0.54702 1.70364,1.09403 1.70463,1.33254 0.004,1.01568 -1.16679,2.13338 -3.42713,3.27104 -3.99659,2.01153 -7.76004,2.46348 -12.48899,1.49978 -3.63219,-0.74019 -6.23375,-1.73167 -12.87154,-4.90548 -8.46072,-4.04542 -7.86843,-3.8831 -9.6217,-2.63676 -1.4795,1.05173 -6.54075,6.17773 -6.54075,6.62443 0,0.82742 1.4494,1.26601 7.19734,2.17796 4.14597,0.65778 6.2017,1.32881 7.32956,2.39252 1.11312,1.04981 1.13651,1.86231 0.12031,4.17763 -0.41668,0.94938 -0.75761,1.83542 -0.75761,1.96898 0,0.13355 0.27644,0.85318 0.61429,1.59917 0.33786,0.74599 0.7441,2.3223 0.90276,3.50291 0.78318,5.82777 0.90029,6.12889 2.55681,6.57495 1.26765,0.34134 2.15323,0.15595 2.3595,-0.49396 0.0845,-0.26611 0.0352,-1.4277 -0.10943,-2.58131 -0.68931,-5.49731 0.14866,-7.57689 2.90111,-7.19962 1.18435,0.16233 8.15972,2.93812 12.20744,4.85785 4.44831,2.10971 8.99785,5.49389 11.29536,8.40205 3.83775,4.85779 7.43609,13.22128 9.10481,21.16198 0.87963,4.18579 1.00462,10.78425 0.25485,13.45421 -0.87704,3.12314 -1.4408,3.881 -6.68244,8.98313 -6.05722,5.89601 -9.03794,9.20026 -9.80762,10.87217 -0.69284,1.50497 -1.18869,4.71645 -0.8948,5.79535 0.6237,2.28964 3.43202,0.11671 7.39921,-5.72514 0.88001,-1.29584 2.68232,-3.43717 4.00512,-4.75849 2.90867,-2.90541 4.67491,-3.91104 6.86914,-3.91104 2.33975,0 3.39089,1.13742 4.63122,5.01137 1.16048,3.62456 1.48231,6.34682 1.49744,12.66629 0.0155,6.46899 -0.17803,7.86802 -2.13771,15.45456 -1.81083,7.01026 -3.57197,10.43344 -7.4156,14.4139 -3.03693,3.14505 -4.35651,3.93244 -5.38409,3.21269 z"
       style="fill:#ffffff" />
    <path
       id="path3380"
       d="m 188.74958,721.37634 c -0.4248,-0.35744 -1.19293,-1.50086 -1.70696,-2.54092 -0.79246,-1.60345 -0.95122,-2.20793 -1.04397,-3.97489 -0.13238,-2.52221 0.22764,-3.38907 2.25792,-5.43665 1.32541,-1.3367 4.39886,-3.50134 6.40366,-4.51011 3.08334,-1.55147 7.06775,-2.02438 9.13776,-1.08457 1.98953,0.90328 2.46088,2.75228 2.21237,8.6786 -0.12483,2.97685 -0.27758,4.34447 -0.51135,4.57824 -0.6361,0.6361 -14.22446,4.94021 -15.59657,4.94021 -0.20927,0 -0.72805,-0.29246 -1.15286,-0.64991 z"
       style="fill:#ffffff" />
    <path
       id="path3382"
       d="m 136.46395,730.85654 c -0.61746,-0.12898 -1.29931,-0.41139 -1.51523,-0.62757 -0.5781,-0.57882 -0.48086,-2.78475 0.17896,-4.05975 0.50946,-0.98444 2.11154,-2.62774 2.56183,-2.62774 0.43965,0 2.35683,2.35326 2.9432,3.61266 0.73906,1.58737 0.7859,2.72103 0.13669,3.30855 -0.58082,0.52564 -2.73238,0.72246 -4.30545,0.39385 z"
       style="fill:#ffffff" />
    <path
       id="path3384"
       d="m 118.91981,746.65291 c -1.50916,-0.53774 -2.29044,-1.44976 -2.2593,-2.63738 0.0832,-3.17126 4.09522,-4.99541 8.70578,-3.95821 3.58736,0.80703 5.55748,2.43699 4.74443,3.9253 -1.09377,2.00218 -8.26417,3.71313 -11.19091,2.67029 z"
       style="fill:#ffffff" />
    <path
       id="path3386"
       d="m 136.84332,685.35203 c -1.20134,-1.71516 0.63927,-7.44673 3.83416,-11.93937 1.59379,-2.24118 7.30527,-8.64123 9.43156,-10.56863 3.17876,-2.88142 6.51603,-4.71343 9.41404,-5.16788 4.10638,-0.64395 8.88058,1.48209 11.23051,5.00113 1.77104,2.65214 1.43747,3.58043 -1.99286,5.54596 -2.32131,1.33009 -4.70034,2.91495 -6.63697,4.42141 -0.81085,0.63075 -1.7419,1.14682 -2.06899,1.14682 -0.32709,0 -1.39534,-0.29677 -2.3739,-0.65949 -1.11044,-0.4116 -2.01361,-0.60064 -2.40287,-0.50294 -0.38165,0.0958 -1.39812,1.11122 -2.61931,2.61665 -2.39402,2.95124 -6.96447,7.41299 -8.88601,8.67466 -1.66121,1.09075 -4.16979,1.99295 -5.5414,1.99295 -0.74175,0 -1.09484,-0.14279 -1.38796,-0.56127 z"
       style="fill:#ffffff" />
    <path
       id="path3388"
       d="m 288.89643,790.68108 c -0.82164,-0.47396 -1.20459,-1.93878 -1.4224,-5.44082 -0.19668,-3.1622 -0.2528,-3.42548 -0.84767,-3.97679 -0.74241,-0.68804 -1.76898,-2.6544 -3.50271,-6.70929 -3.48946,-8.1613 -8.36163,-15.81296 -13.52107,-21.23465 -3.2711,-3.43736 -11.24257,-9.66072 -19.76277,-15.42887 -4.46142,-3.02037 -7.37859,-4.71834 -10.94765,-6.37219 -3.47492,-1.61023 -5.40793,-2.83646 -5.86516,-3.72063 -0.36981,-0.71515 -0.35433,-0.81144 0.31134,-1.93626 0.50727,-0.85717 0.7029,-1.53058 0.70917,-2.44126 0.008,-1.22945 0.0341,-1.27114 1.14509,-1.8633 0.62503,-0.33315 2.29761,-1.28301 3.71683,-2.11082 2.62661,-1.53206 4.37957,-2.21818 5.66722,-2.21818 1.01838,0 1.72816,-0.80524 1.72516,-1.95717 -0.003,-1.27003 -0.89691,-3.0757 -2.65577,-5.36643 -1.32834,-1.73002 -2.13998,-3.15324 -2.13998,-3.75247 0,-0.12823 0.45833,-0.78532 1.01852,-1.4602 1.21264,-1.46092 1.8294,-3.35263 1.84093,-5.64647 0.0144,-2.86316 -0.43307,-3.37426 -2.17958,-2.48952 -1.34722,0.68247 -5.43439,4.76635 -6.34727,6.34217 -0.6539,1.12876 -0.67796,1.27511 -0.40014,2.43319 0.267,1.113 2.01336,4.7989 3.55926,7.51224 l 0.59532,1.04491 -0.90446,1.10378 c -2.84474,3.47163 -6.20785,6.52912 -7.18176,6.52912 -0.62398,0 -1.93619,-1.38033 -3.44406,-3.62284 -0.84392,-1.25511 -2.19874,-2.99611 -3.01069,-3.8689 -1.19286,-1.28223 -1.47628,-1.74996 -1.47628,-2.43627 0,-0.56665 0.8681,-2.61627 2.60794,-6.15745 3.84025,-7.81623 6.23089,-14.76255 6.23089,-18.10469 0,-4.69234 -3.64674,-9.65813 -8.55829,-11.65387 -2.77239,-1.12652 -5.3132,-1.48678 -10.50834,-1.48997 -5.33417,-0.003 -6.65591,0.19676 -9.97525,1.50957 -1.18062,0.46693 -3.09448,1.08027 -4.25303,1.36298 -4.68093,1.1422 -12.27168,5.60246 -15.91696,9.35267 -0.7681,0.79021 -4.00629,5.39089 -7.46967,10.61257 -6.60342,9.95588 -8.21132,12.10898 -11.025,14.76326 -2.52213,2.37925 -5.02459,3.91544 -9.31758,5.71978 -6.10689,2.56671 -7.57615,3.63301 -7.57615,5.49832 0,1.26699 1.23124,3.18581 2.40266,3.74443 1.86256,0.88818 4.72728,-0.26277 13.59452,-5.46187 2.89537,-1.69763 5.3095,-3.04141 5.36473,-2.98618 0.18989,0.18989 -6.01107,6.24913 -7.68796,7.51225 -0.92311,0.69534 -2.70117,1.78958 -3.95123,2.43164 -4.00046,2.05473 -4.5392,3.06593 -2.56109,4.80714 1.38014,1.21485 2.94538,1.78296 5.84408,2.12115 1.25007,0.14585 2.64224,0.38106 3.09371,0.52269 2.0711,0.64973 0.89338,3.90476 -1.58074,4.36891 -1.69589,0.31815 -3.63875,2.05134 -4.42365,3.94627 -0.42139,1.0173 0.17173,1.91797 1.41688,2.15156 1.28764,0.24156 3.94124,-0.077 5.48412,-0.65841 1.49262,-0.56244 1.90435,-0.81949 5.22732,-3.26342 2.6808,-1.97164 7.45417,-4.50886 8.90197,-4.73172 0.84825,-0.13058 0.94702,-0.0886 0.94702,0.4024 0,1.47593 -3.75258,6.98636 -7.29763,10.71611 -0.63932,0.67263 -2.242,1.99991 -3.56151,2.94951 -1.31951,0.9496 -3.36507,2.53685 -4.54569,3.52723 -4.24849,3.56393 -5.35898,3.65397 -6.91968,0.5611 -1.02463,-2.03055 -1.86175,-2.98004 -3.07392,-3.48651 -1.16455,-0.48658 -1.68685,-0.30214 -2.20169,0.77749 -0.27677,0.58038 -0.65322,0.93142 -1.11884,1.0433 -1.93306,0.46447 -4.57793,3.26419 -8.53041,9.02981 -2.94758,4.29974 -3.08493,4.37568 -8.56278,4.73455 -5.49355,0.3599 -7.53386,0.0873 -10.81049,-1.44436 -2.20593,-1.03117 -2.66106,-1.15757 -3.81389,-1.05923 -2.29359,0.19564 -9.13202,3.438 -11.66409,5.53038 -0.97272,0.80381 -1.39181,0.97096 -2.81703,1.12359 -2.31466,0.24788 -5.55623,0.002 -6.846296,-0.52014 -1.255183,-0.50763 -2.078712,-1.43902 -2.078712,-2.35097 0,-0.66878 2.785152,-7.63463 4.108038,-10.27449 1.81763,-3.62712 4.26178,-6.50928 7.16903,-8.45377 2.36997,-1.58513 4.29891,-2.29545 6.69174,-2.46417 1.65939,-0.11701 2.09776,-0.0563 3.10048,0.42907 1.38094,0.6685 1.87393,1.49037 2.17603,3.62764 0.24809,1.75515 0.7938,2.63363 2.02645,3.26217 1.87655,0.95688 4.62238,0.30688 8.38374,-1.98462 4.84829,-2.95367 14.98294,-10.58195 15.60633,-11.74676 0.20755,-0.38781 0.17718,-0.65137 -0.12891,-1.11852 -0.92739,-1.41537 -4.31935,-2.43459 -10.09304,-3.03279 -5.9488,-0.61634 -6.85593,-0.93987 -6.26594,-2.23474 0.56753,-1.2456 2.33013,-1.32518 18.23876,-0.8235 l 1.38896,0.0438 0.0772,-0.92761 c 0.0993,-1.19215 -0.74866,-2.88181 -2.59183,-5.16488 -2.08694,-2.58501 -2.53722,-3.63533 -2.53076,-5.90307 0.005,-1.62372 0.13827,-2.19706 0.93638,-4.01722 2.36561,-5.39494 6.73585,-11.25647 15.83362,-21.2366 3.89367,-4.27129 6.38922,-7.47049 6.27798,-8.04811 -0.0432,-0.22444 -0.39593,-0.56017 -0.78379,-0.74606 -0.61495,-0.29474 -0.92973,-0.26981 -2.45951,0.19485 -2.52871,0.76807 -5.22123,2.69629 -7.54173,5.40093 -1.91959,2.23736 -3.73866,3.70347 -4.59505,3.70347 -0.54559,0 -0.80387,-0.45585 -1.21624,-2.14657 -0.16939,-0.69448 -0.52974,-1.62198 -0.80079,-2.06111 -1.18057,-1.91264 -3.64078,-1.41602 -5.03085,1.01554 -0.85248,1.49117 -1.94477,5.90274 -2.88505,11.65217 -1.16177,7.10377 -2.58647,10.75835 -5.36326,13.75754 -6.49016,7.00997 -19.00746,9.3365 -21.75478,4.04346 -0.51352,-0.98936 -0.57072,-1.37432 -0.4498,-3.02752 0.29197,-3.99165 1.98915,-8.03753 4.8694,-11.60806 2.20927,-2.73874 4.5271,-4.67532 8.17543,-6.83065 3.92321,-2.31774 6.61222,-4.44152 11.8611,-9.3679 2.42905,-2.27981 4.81421,-4.4451 5.30035,-4.81175 0.48614,-0.36665 1.94868,-1.02122 3.25011,-1.45459 2.68513,-0.89415 7.81251,-3.2659 8.97806,-4.15295 2.08409,-1.5861 12.05321,-6.81585 17.11549,-8.9787 4.01701,-1.71625 13.66481,-4.08733 16.91244,-4.15646 1.63826,-0.0349 2.00891,0.21923 3.91554,2.68433 0.61772,0.79865 1.28124,1.4521 1.4745,1.4521 0.55672,0 8.74121,-3.07735 12.62481,-4.74691 4.50605,-1.93713 6.11392,-2.39779 8.46003,-2.42378 1.46334,-0.0162 2.0879,0.0932 2.74658,0.48126 1.80591,1.06389 2.14784,1.19021 3.57121,1.31927 2.93415,0.26606 4.1568,-0.82601 9.96221,-8.89825 5.31206,-7.38624 6.94787,-9.49592 8.83158,-11.38996 2.65984,-2.67443 2.81629,-2.7328 7.59211,-2.83199 4.61685,-0.0959 9.38251,0.54748 11.61675,1.56827 1.47585,0.67429 4.02438,2.55871 6.69226,4.94836 1.04172,0.93308 3.03046,2.58219 4.41942,3.66468 2.72155,2.12107 10.60593,7.42989 12.56377,8.45963 1.3513,0.71072 1.44857,1.06492 0.63135,2.29906 -0.77373,1.16846 -4.66663,3.0985 -7.38674,3.66222 -3.64985,0.75641 -8.38693,0.16219 -13.38452,-1.67894 -0.83338,-0.30702 -4.19823,-1.84677 -7.47745,-3.42167 -3.27923,-1.57491 -6.48117,-3.00226 -7.11543,-3.1719 -1.08756,-0.29088 -1.20818,-0.27033 -2.119,0.36101 -2.24637,1.55708 -6.90044,6.29049 -6.90044,7.01808 0,0.53078 1.81261,1.04889 6.57107,1.87825 5.39427,0.94018 7.36523,1.60956 8.32246,2.82649 0.70724,0.8991 0.64148,1.84213 -0.27389,3.9277 l -0.78518,1.78897 0.63064,1.53636 c 0.34685,0.84499 0.76437,2.44549 0.92782,3.55666 0.16345,1.11117 0.41374,2.7875 0.55621,3.72519 0.14247,0.93769 0.44762,1.93776 0.67811,2.22238 0.45551,0.56248 2.35092,1.09942 3.07252,0.87039 0.6628,-0.21036 0.7228,-0.77764 0.4314,-4.07835 -0.31649,-3.58483 -0.1474,-4.70575 0.86216,-5.71531 0.68602,-0.68601 0.86207,-0.74022 1.97577,-0.60832 1.23135,0.14584 9.73401,3.51562 13.0176,5.15914 4.06424,2.03427 8.48427,5.40395 10.63939,8.1111 1.65493,2.07884 3.8195,5.82483 5.20147,9.0016 4.7246,10.86062 6.03812,22.10109 3.27311,28.00978 -0.6522,1.39372 -1.58483,2.4363 -7.0535,7.88508 -3.46606,3.45345 -6.77118,6.91103 -7.34471,7.68351 -1.19973,1.6159 -1.73734,2.98127 -2.05385,5.21625 -0.29285,2.06787 0.0329,3.3545 0.84917,3.3545 0.9738,0 2.78793,-1.62588 4.71466,-4.2254 4.02159,-5.4259 4.65159,-6.19472 6.46027,-7.88383 3.84465,-3.59047 7.37785,-4.2579 9.23246,-1.74402 0.73135,0.99132 1.54083,3.00531 2.06619,5.14068 0.79465,3.23 1.03692,5.88508 1.03692,11.36422 0,6.09022 -0.1868,7.44472 -2.05476,14.89975 -1.7693,7.06123 -3.70749,10.83055 -7.63835,14.85479 -2.84617,2.91379 -4.1838,3.73341 -5.16717,3.16615 z"
       style="fill:#ffffff" />
    <path
       id="path3390"
       d="m 225.83113,749.8858 c -1.41215,-1.27579 -2.05381,-2.64176 -2.20043,-4.68422 -0.1007,-1.40279 -0.0511,-1.72689 0.28397,-1.85546 0.62069,-0.23818 2.10544,0.81591 3.18114,2.25844 1.80504,2.4206 2.14804,3.56781 1.39021,4.64976 -0.57742,0.82439 -1.47191,0.70023 -2.65489,-0.36852 z"
       style="fill:#ffffff" />
    <path
       id="path3392"
       d="m 188.74958,721.37634 c -0.4248,-0.35744 -1.19293,-1.50086 -1.70696,-2.54092 -0.79246,-1.60345 -0.95122,-2.20793 -1.04397,-3.97489 -0.13265,-2.52743 0.26734,-3.48761 2.28097,-5.47539 3.62587,-3.57932 8.76142,-6.05213 12.54637,-6.04117 4.59825,0.0133 5.50405,1.6121 5.18989,9.16034 -0.1291,3.10183 -0.27122,4.33608 -0.52897,4.59383 -0.63768,0.63768 -14.20558,4.92811 -15.58447,4.92811 -0.20927,0 -0.72805,-0.29246 -1.15286,-0.64991 z"
       style="fill:#ffffff" />
    <path
       id="path3487"
       d="m 288.98768,790.82537 c -0.14894,-0.0601 -0.41181,-0.298 -0.58414,-0.52864 -0.61938,-0.82898 -0.82152,-1.91208 -0.97498,-5.22408 -0.12685,-2.73764 -0.2691,-3.43551 -0.749,-3.67441 -0.60388,-0.30063 -1.67831,-2.34543 -3.65779,-6.96136 -3.41425,-7.96165 -7.6428,-14.72034 -12.79339,-20.44827 -2.31516,-2.57467 -4.9223,-4.78229 -11.14817,-9.43986 -9.81737,-7.34435 -14.30767,-10.22816 -20.26619,-13.01558 -2.93372,-1.3724 -4.48192,-2.27186 -5.35029,-3.10834 -0.73911,-0.71198 -0.74404,-0.72154 -0.68561,-1.32961 0.0415,-0.43164 0.19269,-0.80706 0.51216,-1.27148 0.64433,-0.93669 0.77221,-1.41219 0.67333,-2.50345 -0.10432,-1.15122 -0.0789,-1.18098 1.82602,-2.13633 0.76959,-0.38596 2.0064,-1.07873 2.74847,-1.53949 2.77534,-1.72323 3.9876,-2.23901 5.72942,-2.43767 1.64068,-0.18712 2.07965,-0.69669 1.96619,-2.28243 -0.0826,-1.15482 -0.73666,-2.5015 -2.05247,-4.22617 -0.52629,-0.68982 -1.1744,-1.53963 -1.44024,-1.88848 -0.57247,-0.75121 -1.0257,-1.60514 -1.15601,-2.178 -0.14685,-0.64567 0.11748,-1.24637 0.9108,-2.06981 0.40059,-0.4158 0.87905,-1.07455 1.06324,-1.46388 0.92807,-1.9618 1.09191,-5.93675 0.27822,-6.75043 -0.34188,-0.34188 -0.90512,-0.24141 -1.83763,0.3278 -1.7164,1.0477 -4.89734,4.26388 -6.06315,6.13033 -0.4991,0.79905 -0.58539,1.03271 -0.5829,1.57837 0.006,1.40444 1.60943,4.96178 4.10772,9.11568 l 0.23697,0.394 -1.81377,2.06825 c -2.81979,3.21543 -4.73014,4.97507 -5.95827,5.48822 -0.39827,0.16641 -0.49111,0.1643 -0.87936,-0.0199 -0.69408,-0.32936 -1.96548,-1.78801 -2.97096,-3.4085 -1.16824,-1.8828 -2.71045,-3.80991 -3.50686,-4.38207 -1.44492,-1.03807 -1.39271,-2.52757 0.19356,-5.52159 1.78889,-3.37644 2.34564,-4.48658 3.1346,-6.25032 2.52421,-5.64282 4.25531,-11.08869 4.4423,-13.97508 0.2112,-3.25975 -1.28091,-6.64527 -4.12729,-9.36469 -3.47307,-3.31814 -7.93136,-4.51503 -16.16723,-4.34028 -4.63749,0.0984 -5.74902,0.3204 -9.53331,1.90406 -0.76393,0.3197 -1.81512,0.66861 -2.33598,0.77537 -0.52086,0.10676 -1.22793,0.25127 -1.57127,0.32113 -1.27335,0.25908 -4.69384,1.8042 -7.40385,3.3445 -3.04633,1.73144 -6.63058,4.36783 -8.01199,5.8932 -1.41047,1.55747 -3.475,4.55653 -9.9082,14.39329 -3.55444,5.43495 -5.19811,7.63782 -7.47968,10.02438 -2.86697,2.99892 -5.9689,4.95997 -11.08187,7.00601 -6.26866,2.50851 -7.76855,4.06645 -6.46471,6.71492 0.47828,0.97154 1.34124,1.91594 2.01634,2.20663 0.72763,0.31331 1.94752,0.25604 3.22745,-0.15151 2.1144,-0.67327 6.63008,-3.06702 10.3113,-5.46599 1.03763,-0.6762 2.6982,-1.75204 3.69015,-2.39076 3.29391,-2.12095 4.6888,-3.44307 5.88395,-5.57702 1.68947,-3.01657 10.07593,-12.88271 15.26988,-17.96404 1.61793,-1.58285 2.35278,-2.19595 3.70914,-3.0946 4.2274,-2.80085 10.10675,-5.24128 15.19595,-6.3076 2.09246,-0.43843 5.46324,-0.55982 7.01481,-0.25263 2.15491,0.42664 3.96021,1.58344 5.50685,3.52867 0.68027,0.85558 3.91421,6.05113 4.15167,6.66993 0.0719,0.18735 -1.53822,4.0759 -2.37555,5.73715 -1.00917,2.00217 -2.18676,3.56794 -4.07307,5.41573 -1.85853,1.82057 -2.45501,2.55363 -2.45501,3.01712 0,0.63167 2.45882,3.50965 6.74985,7.90052 1.73316,1.77347 3.45549,3.54219 3.82742,3.9305 l 0.67624,0.706 -1.17578,0.94324 c -1.69374,1.35877 -2.07513,1.59351 -3.13556,1.92991 -3.57105,1.13285 -8.35328,-0.25654 -12.36002,-3.59098 -1.60507,-1.33575 -1.59486,-1.50869 0.49214,-8.33346 2.54027,-8.30704 3.14843,-10.76724 3.24659,-13.13352 0.0873,-2.10383 -0.0994,-2.95628 -1.23111,-5.62156 -0.9391,-2.21169 -1.79715,-3.67365 -2.39307,-4.07733 -0.60972,-0.41302 -1.42524,-0.32885 -3.94458,0.40713 -7.1718,2.09512 -14.48292,6.15893 -20.80416,11.5638 -1.68952,1.44459 -4.89353,4.67494 -6.48919,6.54254 -1.17062,1.37012 -2.73065,2.93845 -10.11519,10.16905 -6.31566,6.18399 -7.99552,7.53405 -11.49049,9.23459 -2.756,1.34099 -3.5589,2.14249 -3.23367,3.22802 0.33118,1.10536 2.37725,2.51703 4.39703,3.03369 0.54077,0.13833 1.84392,0.33398 2.89588,0.43478 3.08022,0.29514 3.77889,0.66648 3.76035,1.99856 -0.0198,1.4203 -1.21362,2.7102 -2.68201,2.89781 -1.44134,0.18415 -3.28803,1.71432 -4.13351,3.42503 -0.52434,1.06093 -0.53039,1.59263 -0.0236,2.06741 0.47267,0.44277 0.94665,0.54144 2.60554,0.54238 3.13754,0.002 5.04612,-0.6921 7.62523,-2.77224 2.26116,-1.82371 4.68214,-3.35178 7.34317,-4.63488 1.92583,-0.9286 3.01954,-1.31413 3.72805,-1.31413 0.49076,0 0.50895,0.0148 0.50606,0.41037 -0.006,0.87259 -1.04538,2.80292 -2.92505,5.43432 -2.64164,3.69812 -5.24174,6.4545 -7.65327,8.11326 -1.88717,1.29809 -3.71101,2.70636 -5.4215,4.18621 -1.58065,1.3675 -2.54888,2.01225 -3.3883,2.25628 -1.38184,0.40171 -2.16203,-0.18156 -3.21976,-2.40711 -0.54136,-1.13906 -0.8101,-1.5385 -1.49369,-2.22013 -0.8547,-0.85223 -1.63548,-1.25227 -2.44414,-1.25227 -0.46394,0 -1.10422,0.61263 -1.10422,1.05653 0,0.50033 -0.4857,0.95051 -1.1572,1.0726 -0.80286,0.14596 -1.53366,0.59973 -2.66013,1.65173 -1.75066,1.63492 -3.68573,4.09152 -6.22706,7.90535 -0.79917,1.19935 -1.67957,2.40716 -1.95644,2.68402 -1.06892,1.06892 -2.27507,1.33799 -6.97142,1.55519 -3.42951,0.1586 -5.88202,0.0486 -7.35485,-0.32984 -0.41668,-0.10707 -1.49629,-0.56242 -2.39911,-1.01188 -2.87281,-1.4302 -3.53584,-1.55502 -5.39636,-1.01586 -3.24449,0.94022 -10.00549,4.50966 -10.77955,5.69102 -0.2875,0.4388 -1.17248,0.66691 -3.20767,0.82681 -2.64094,0.2075 -5.253573,-0.0976 -6.565054,-0.76668 -1.772225,-0.90412 -2.064374,-2.12775 -1.040046,-4.3561 0.287314,-0.62504 1.111049,-2.59337 1.830523,-4.37409 1.492304,-3.69349 2.483857,-5.54041 4.222667,-7.86542 2.61721,-3.49954 6.02035,-5.81554 9.87282,-6.71896 1.1391,-0.26711 3.04657,-0.26902 3.94504,-0.004 1.01676,0.29998 1.8435,0.91376 2.28615,1.69727 0.29444,0.52115 0.40745,0.94584 0.54233,2.03788 0.2556,2.06957 0.792,2.94434 2.20571,3.59715 0.46033,0.21256 0.80796,0.26095 1.8309,0.25486 1.08398,-0.006 1.43694,-0.0666 2.49385,-0.42458 1.54281,-0.52263 3.32455,-1.50795 6.16222,-3.40777 4.72998,-3.16672 11.50857,-8.32828 12.85336,-9.78721 0.68077,-0.73854 0.69487,-1.14301 0.0642,-1.84111 -1.26682,-1.40222 -4.70139,-2.30789 -10.7776,-2.84199 -3.80122,-0.33413 -4.94787,-0.60148 -5.37489,-1.25319 -0.18415,-0.28105 -0.1952,-0.40636 -0.0721,-0.81736 0.17455,-0.58258 0.51483,-0.82537 1.56343,-1.11549 0.6928,-0.19167 1.4265,-0.21732 5.96696,-0.20859 2.97992,0.006 5.92727,0.0762 6.9448,0.16594 0.97227,0.0858 2.52638,0.18903 3.45358,0.22941 1.94506,0.0847 1.90797,0.10427 1.91092,-1.00759 0.004,-1.31619 -0.80749,-2.83705 -2.78668,-5.22597 -1.216,-1.46773 -1.76721,-2.33182 -2.16759,-3.39795 -0.23205,-0.61794 -0.2808,-1.00323 -0.27847,-2.20115 0.003,-1.33763 0.0392,-1.55793 0.46376,-2.7948 1.80886,-5.26926 7.11076,-12.5997 16.19831,-22.39588 3.33495,-3.59501 5.68802,-6.44413 6.24226,-7.55819 0.28414,-0.57115 0.20735,-0.8993 -0.29877,-1.27674 -0.96722,-0.7213 -4.10006,0.24576 -6.6191,2.04322 -1.15225,0.82218 -2.68706,2.30998 -3.55445,3.44558 -1.14416,1.49793 -2.64445,2.85325 -3.72818,3.36791 -1.41822,0.67351 -1.6075,0.53229 -2.1447,-1.60015 -0.6193,-2.45832 -1.42439,-3.46732 -2.76051,-3.45966 -1.25829,0.007 -2.52179,1.01267 -3.29317,2.62062 -0.78874,1.64414 -1.69801,5.46778 -2.46657,10.37236 -0.89338,5.70113 -1.60379,8.33782 -2.98608,11.08276 -0.7916,1.57196 -1.67496,2.75863 -3.12599,4.19933 -1.67945,1.66749 -3.09199,2.63915 -5.69563,3.91791 -2.11534,1.03893 -3.89723,1.67287 -5.87151,2.08889 -1.7359,0.36578 -4.5561,0.40176 -5.85883,0.0747 -1.95103,-0.48976 -3.32881,-1.47514 -3.96729,-2.8374 -0.31252,-0.66679 -0.33794,-0.84361 -0.3307,-2.30067 0.0127,-2.55684 0.56836,-4.77598 1.88982,-7.54744 1.22137,-2.56157 2.83494,-4.79997 5.00181,-6.93871 2.09489,-2.06769 3.49587,-3.10356 6.35878,-4.70163 3.58793,-2.00277 6.68756,-4.44297 11.29704,-8.89364 2.88114,-2.78187 4.86646,-4.58449 5.91952,-5.37475 0.63227,-0.47449 1.01899,-0.65526 1.8309,-0.85585 0.56613,-0.13987 1.85323,-0.57756 2.86022,-0.97264 2.38433,-0.93545 6.9923,-3.20943 7.64587,-3.77315 1.09631,-0.94559 5.26799,-3.25854 10.85255,-6.01709 4.54215,-2.24364 6.95481,-3.30415 9.05951,-3.98219 3.36673,-1.08462 10.27785,-2.64494 13.22698,-2.98625 2.06812,-0.23935 2.36116,-0.0696 4.39536,2.54587 0.75946,0.97648 1.32706,1.59269 1.48846,1.61593 0.53574,0.0771 9.48066,-3.26852 12.93027,-4.8363 3.56776,-1.62148 5.0083,-2.0807 7.32754,-2.3359 1.91863,-0.21112 3.23565,8.8e-4 3.96069,0.63743 0.95527,0.83874 2.89225,1.36809 4.42142,1.20833 1.24211,-0.12977 2.00211,-0.57058 3.35447,-1.94559 1.39026,-1.41356 2.39415,-2.71543 6.39766,-8.29663 3.50013,-4.87944 4.42342,-6.13252 5.54207,-7.52168 2.18515,-2.71353 3.83901,-4.2461 5.36164,-4.96841 l 0.82075,-0.38936 4.05478,-0.0394 4.05478,-0.0394 2.98005,0.51163 c 1.63902,0.2814 3.26308,0.61918 3.60902,0.75062 1.53946,0.58495 3.62906,2.02305 6.18183,4.25442 3.19889,2.79617 3.92445,3.41092 5.1941,4.40092 3.88799,3.03163 11.3624,8.00386 13.80146,9.18122 0.68038,0.32843 0.69327,0.42579 0.19452,1.46962 -0.4209,0.88093 -1.2399,1.58338 -2.72476,2.33702 -2.62629,1.33298 -4.41726,1.87461 -7.00211,2.11765 -3.65185,0.34335 -8.25584,-0.5914 -13.10794,-2.66131 -0.93755,-0.39995 -3.38086,-1.55021 -5.42957,-2.55612 -5.91048,-2.90202 -7.97791,-3.7553 -8.61712,-3.5565 -0.66899,0.20805 -2.30436,1.51334 -4.18234,3.33816 -2.41796,2.34953 -3.61552,3.71422 -3.61552,4.12011 0,0.71542 1.17676,1.04356 7.62875,2.12727 1.83359,0.30799 3.8015,0.71526 4.38023,0.90653 1.27101,0.42008 2.43535,1.17652 2.95114,1.91726 0.33387,0.47949 0.38084,0.65315 0.37572,1.38896 -0.005,0.75416 -0.0729,0.97496 -0.65579,2.13927 -0.918,1.83383 -0.94588,2.15719 -0.29855,3.46307 0.62378,1.2584 0.94866,2.64925 1.21782,5.21387 0.23671,2.25534 0.47253,3.47184 0.79264,4.08864 0.33622,0.64788 1.17205,1.04779 2.34763,1.12323 0.82206,0.0528 0.95758,0.0291 1.19532,-0.20864 0.33822,-0.33822 0.3549,-1.25766 0.0655,-3.60918 -0.27103,-2.202 -0.19809,-4.19322 0.18501,-5.05124 0.35662,-0.79871 0.59123,-1.05805 1.21721,-1.3455 1.07895,-0.49546 2.28558,-0.26233 5.3033,1.02463 1.11116,0.47388 3.29246,1.38008 4.84734,2.01379 4.48326,1.82721 7.25494,3.3404 10.35199,5.65162 1.8359,1.37008 4.3763,3.90258 5.44937,5.43245 4.39817,6.27042 7.7796,15.2207 8.91005,23.58389 0.32941,2.43701 0.30508,6.7061 -0.0493,8.64943 -0.65638,3.59957 -1.72787,5.59437 -4.15726,7.73968 -1.58981,1.40391 -9.28781,9.13693 -10.63038,10.67876 -1.65089,1.89591 -2.20501,2.95366 -2.67858,5.11307 -0.2451,1.11767 -0.33652,3.19446 -0.16205,3.68173 0.43398,1.21209 1.56689,0.84677 3.52362,-1.13622 0.69448,-0.7038 1.74147,-1.95824 2.32665,-2.78763 2.32511,-3.29546 2.61036,-3.68831 3.34133,-4.60157 1.24408,-1.55431 3.57545,-3.79407 4.7833,-4.59532 0.60905,-0.40403 1.51819,-0.91305 2.02031,-1.13116 0.82203,-0.35706 1.03867,-0.3966 2.17563,-0.39706 1.44187,-6.3e-4 1.92864,0.18306 2.73164,1.03052 1.55508,1.64117 2.67431,5.30967 3.35233,10.98786 0.31763,2.66014 0.31855,9.40983 0.002,11.64645 -0.65157,4.59766 -2.4016,11.78175 -3.66852,15.05976 -1.4517,3.75613 -3.04503,6.20676 -6.00624,9.23804 -1.66219,1.70151 -2.61002,2.4779 -3.57143,2.92549 -0.70467,0.32806 -1.00145,0.36673 -1.44395,0.18818 l 6e-5,0 z"
       style="fill:#ffffff" />
    <path
       id="path3489"
       d="m 288.98768,790.82537 c -0.47017,-0.18972 -0.91988,-0.93615 -1.18238,-1.96255 -0.17958,-0.70216 -0.28936,-1.74533 -0.37739,-3.58647 -0.13843,-2.89514 -0.28814,-3.65346 -0.76674,-3.88407 -0.61217,-0.29496 -1.472,-1.97517 -4.15497,-8.11929 -3.67791,-8.42261 -9.39759,-16.83376 -14.88653,-21.89163 -3.10279,-2.85912 -12.73061,-10.11061 -18.84213,-14.19156 -3.05223,-2.03812 -5.42614,-3.42689 -8.06948,-4.72079 -1.28479,-0.6289 -2.98884,-1.46374 -3.78678,-1.85522 -1.81627,-0.89107 -3.07902,-1.71284 -3.70915,-2.41384 -0.44992,-0.50052 -0.48354,-0.58924 -0.43094,-1.13677 0.038,-0.39506 0.19312,-0.79162 0.46346,-1.18455 0.69515,-1.01037 0.80914,-1.41005 0.71381,-2.50286 -0.10559,-1.2105 -0.10884,-1.20668 1.90987,-2.2359 0.82148,-0.41882 2.14704,-1.16991 2.94569,-1.66908 2.39306,-1.4957 4.24573,-2.25683 5.51093,-2.26403 0.26778,-10e-4 0.73048,-0.11335 1.02825,-0.24849 0.71984,-0.32672 0.96326,-0.88592 0.8798,-2.02122 -0.10181,-1.38503 -0.77939,-2.63648 -2.87044,-5.30155 -1.01808,-1.29757 -1.57311,-2.21763 -1.78639,-2.96131 -0.17638,-0.61502 0.082,-1.23187 0.88161,-2.10479 1.38641,-1.51349 1.8283,-2.85913 1.84087,-5.60575 0.0121,-2.64955 -0.36496,-3.20859 -1.73576,-2.57339 -1.933,0.89571 -5.98643,4.99846 -6.93562,7.02001 -0.35132,0.74823 -0.36163,0.81886 -0.22124,1.51523 0.34509,1.71167 1.84962,4.86493 4.24658,8.90019 0.0655,0.11018 -3.42148,4.06538 -4.66007,5.28588 -1.10233,1.08624 -2.23904,1.9636 -2.96549,2.2889 -0.50599,0.22657 -0.56175,0.22841 -0.97547,0.0321 -0.65567,-0.31113 -1.95654,-1.76356 -2.77784,-3.10149 -1.2793,-2.08401 -2.77817,-3.9663 -3.74811,-4.7069 -1.4466,-1.10456 -1.34146,-2.57691 0.41685,-5.83696 3.36212,-6.23367 6.11323,-13.12433 7.12763,-17.85237 0.34145,-1.59151 0.31812,-3.92739 -0.0522,-5.22633 -0.586,-2.05543 -1.64394,-3.89909 -3.1832,-5.54732 -2.56225,-2.74362 -5.61068,-4.14447 -10.34999,-4.75616 -1.72139,-0.22217 -6.54721,-0.30171 -8.68782,-0.14319 -2.97852,0.22057 -4.00748,0.48019 -7.32183,1.84739 -0.87514,0.36101 -2.02086,0.71087 -2.96732,0.90613 -1.79022,0.36933 -3.12431,0.86882 -5.58236,2.09009 -4.88247,2.42581 -9.22128,5.50088 -11.29572,8.00567 -1.26585,1.52846 -3.07329,4.15681 -7.21896,10.49774 -5.80391,8.87722 -7.20846,10.78932 -9.95544,13.55287 -2.91424,2.93183 -5.38047,4.49682 -10.14304,6.43647 -6.20853,2.52854 -7.86642,3.86052 -7.41647,5.95854 0.27631,1.28837 1.53852,2.94289 2.48286,3.25455 0.65288,0.21547 2.34245,0.0878 3.33008,-0.25156 1.77462,-0.60984 7.16591,-3.44793 9.28077,-4.8856 0.41669,-0.28326 1.87017,-1.22275 3.22995,-2.08775 4.05913,-2.58213 5.56164,-3.8539 6.68217,-5.656 1.31958,-2.1222 2.08426,-3.20488 3.57002,-5.0546 3.70586,-4.61368 8.84268,-10.37709 12.1056,-13.58223 1.70549,-1.67529 2.37308,-2.23268 3.83295,-3.20021 3.11287,-2.06304 8.19206,-4.38011 12.05455,-5.49915 2.82569,-0.81865 4.38672,-1.0853 6.82541,-1.1659 2.77472,-0.0917 3.81369,0.0819 5.53923,0.92554 0.9877,0.4829 1.3672,0.76188 2.27284,1.67085 1.20586,1.2103 1.85842,2.14663 3.8653,5.54613 l 1.36343,2.30956 -0.92384,2.17299 c -2.09629,4.93075 -2.93162,6.22806 -5.87091,9.11779 -1.85821,1.82689 -2.28267,2.40076 -2.15423,2.91254 0.19249,0.7669 2.68751,3.64055 6.95399,8.00925 1.66675,1.70669 3.30325,3.39004 3.63665,3.74077 l 0.60621,0.63771 -1.17442,0.94934 c -1.52292,1.23107 -2.04406,1.56501 -2.92624,1.87507 -3.53671,1.24305 -8.49965,-0.15521 -12.56798,-3.5409 -0.92095,-0.76643 -1.14814,-1.16755 -1.14814,-2.02708 0,-0.82668 0.10811,-1.23906 1.77752,-6.78014 1.62671,-5.39932 2.29102,-7.77512 2.72741,-9.75404 0.3877,-1.75816 0.5209,-4.06574 0.30042,-5.20479 -0.19057,-0.98455 -1.21181,-3.6104 -2.02638,-5.21034 -1.21004,-2.37667 -1.66421,-2.67214 -3.52176,-2.29114 -1.38903,0.28491 -5.47626,1.6404 -7.26117,2.40811 -4.3893,1.88789 -8.447,4.24653 -12.3885,7.20113 -3.33114,2.49707 -6.10785,5.09069 -9.1285,8.5266 -0.94635,1.07645 -2.91613,3.131 -4.37729,4.56568 -1.46116,1.43467 -4.50333,4.42037 -6.76039,6.63488 -5.6215,5.51553 -7.57396,7.0723 -10.88267,8.6772 -3.57796,1.73549 -4.11655,2.68578 -2.44907,4.32107 1.45758,1.42944 3.426,2.12215 6.89902,2.42784 1.75617,0.15458 2.71232,0.44711 3.07626,0.94115 0.35303,0.47924 0.3416,1.47616 -0.0251,2.18474 -0.36852,0.71219 -1.33074,1.53701 -1.90455,1.6326 -1.0523,0.1753 -1.76449,0.46286 -2.47948,1.00114 -1.41347,1.06413 -2.48951,2.65217 -2.5131,3.70886 -0.0107,0.47924 0.0435,0.59703 0.41946,0.91092 0.55336,0.46205 1.13014,0.54487 3.21011,0.46096 2.80568,-0.11318 4.36925,-0.73837 7.02788,-2.81007 2.60328,-2.02857 4.58816,-3.27235 7.35331,-4.60778 1.91415,-0.92443 2.87394,-1.25984 3.60516,-1.25984 l 0.56486,0 -0.0651,0.57789 c -0.15104,1.34002 -2.48341,5.02415 -5.41174,8.5482 -1.34703,1.62105 -3.54915,3.74349 -4.70914,4.53875 -1.88696,1.29364 -3.9748,2.89034 -5.56732,4.2577 -1.83292,1.57376 -2.80031,2.2249 -3.68956,2.48342 -1.36592,0.39708 -2.11538,-0.1529 -3.15615,-2.3161 -0.82548,-1.71574 -1.60386,-2.62862 -2.71451,-3.18363 -1.30407,-0.65165 -2.05586,-0.42366 -2.3629,0.71657 -0.17514,0.65042 -0.44479,0.87911 -1.23693,1.04899 -1.93179,0.4143 -4.70739,3.43079 -8.8772,9.64764 -2.05482,3.06358 -2.49348,3.4267 -4.57606,3.78804 -1.81001,0.31406 -7.20373,0.51827 -9.19794,0.34825 -2.2401,-0.19098 -2.87679,-0.37156 -4.99377,-1.41632 -2.34389,-1.15674 -3.13083,-1.36673 -4.3429,-1.15889 -2.71329,0.46528 -10.80327,4.55112 -11.68959,5.90383 -0.28425,0.43381 -1.17745,0.66298 -3.20471,0.82227 -4.06111,0.31908 -7.217112,-0.48275 -8.021341,-2.03796 -0.2793,-0.54011 -0.226409,-1.58575 0.120909,-2.39034 0.164881,-0.38197 0.930156,-2.22865 1.70061,-4.10375 1.692277,-4.11858 1.8279,-4.4091 2.917832,-6.25032 1.76677,-2.98461 3.79139,-5.26456 6.03543,-6.79659 4.81064,-3.28429 10.19191,-3.65297 11.799,-0.80837 0.28904,0.51161 0.41214,0.96258 0.55056,2.01694 0.20169,1.53635 0.58087,2.46919 1.22501,3.01368 1.73693,1.46824 4.67027,1.11898 8.29574,-0.98776 3.33044,-1.9353 9.83099,-6.5838 14.04282,-10.04191 2.6911,-2.20953 2.9167,-2.5998 2.0545,-3.55415 -1.25346,-1.38743 -4.73344,-2.30402 -10.85715,-2.85965 -3.76017,-0.34118 -4.88832,-0.60745 -5.31176,-1.2537 -0.18483,-0.2821 -0.19542,-0.4056 -0.0705,-0.8225 0.17867,-0.59635 0.65783,-0.91893 1.72047,-1.15826 0.97312,-0.21917 10.29622,-0.21717 12.87945,0.003 3.24854,0.27657 4.83376,0.32238 5.04651,0.14581 0.28568,-0.23709 0.24671,-1.3675 -0.077,-2.2326 -0.46903,-1.25361 -1.00259,-2.05115 -3.10513,-4.64141 -0.83446,-1.02804 -1.57549,-2.41707 -1.79108,-3.35732 -0.18798,-0.8198 -0.16229,-2.20902 0.0584,-3.15672 1.17007,-5.02532 6.84084,-13.12765 16.34935,-23.35978 3.07884,-3.31315 5.1351,-5.74155 6.10978,-7.21553 1.15704,-1.74975 -0.13537,-2.54341 -2.76659,-1.69892 -2.68093,0.86043 -5.37084,2.81034 -7.31951,5.30589 -1.23746,1.58476 -2.70257,2.91875 -3.76461,3.42772 -0.49737,0.23836 -0.97953,0.43338 -1.07145,0.43338 -0.40082,0 -0.75041,-0.59788 -1.03667,-1.77295 -0.5421,-2.22527 -1.31183,-3.42499 -2.34726,-3.65852 -1.18615,-0.26752 -2.53043,0.50888 -3.48622,2.01349 -0.80082,1.26065 -1.84777,5.33761 -2.62871,10.23651 -1.05009,6.58731 -1.75681,9.19356 -3.2755,12.07932 -0.81803,1.55439 -1.78626,2.81151 -3.2242,4.18619 -1.49111,1.42551 -2.99958,2.43293 -5.43344,3.62868 -3.44895,1.69445 -6.01881,2.36654 -9.09137,2.37765 -1.60542,0.006 -2.04739,-0.037 -2.90039,-0.28059 -1.87166,-0.53459 -3.08199,-1.43943 -3.70587,-2.77053 -0.31252,-0.66679 -0.33794,-0.84362 -0.3307,-2.30067 0.0127,-2.55542 0.58039,-4.82786 1.88545,-7.54745 2.28758,-4.76702 6.10364,-8.72465 11.05416,-11.46424 3.76911,-2.08581 6.94205,-4.58361 11.92756,-9.38963 2.71646,-2.61867 5.02486,-4.68322 5.95198,-5.32324 0.28733,-0.19835 0.77031,-0.41704 1.07329,-0.48597 2.58765,-0.58874 9.15682,-3.55919 11.13789,-5.03634 2.1746,-1.62144 11.88855,-6.66418 17.0659,-8.85931 2.45215,-1.03967 6.78282,-2.23233 11.67946,-3.21649 4.82688,-0.97014 5.90428,-1.00852 6.81437,-0.24273 0.21213,0.1785 0.96243,1.05891 1.66732,1.95648 0.7049,0.89757 1.40044,1.66098 1.54565,1.69645 0.23157,0.0566 2.87564,-0.82321 6.19866,-2.06253 2.09268,-0.78046 6.14556,-2.44933 7.84639,-3.23092 2.92606,-1.34464 5.00416,-1.87734 7.36904,-1.88901 1.54676,-0.008 2.18005,0.14547 2.85562,0.69037 1.52205,1.22765 4.1318,1.58413 5.80444,0.79284 0.35734,-0.16905 1.02779,-0.65381 1.4899,-1.07723 1.38016,-1.26467 2.72055,-3.00853 8.457,-11.00258 4.8561,-6.76724 7.04214,-9.17656 9.2985,-10.24828 l 0.82075,-0.38983 4.04498,-0.0379 4.04499,-0.0379 2.7104,0.45203 c 3.06601,0.51133 3.7825,0.69162 4.81029,1.21045 1.62697,0.8213 3.23953,2.04889 6.84232,5.20888 1.2021,1.05437 2.83546,2.42216 3.62966,3.03954 3.91956,3.0469 11.39851,8.02688 13.79338,9.18456 0.68037,0.32888 0.69325,0.42624 0.19452,1.47003 -0.43332,0.90689 -1.23822,1.58379 -2.87638,2.41898 -4.21637,2.14964 -8.17869,2.6207 -13.20304,1.56966 -3.29722,-0.68975 -6.14292,-1.78812 -11.74302,-4.53255 -4.34174,-2.12775 -7.10299,-3.3781 -8.10062,-3.66812 -0.85576,-0.24877 -1.07878,-0.17199 -2.44695,0.84245 -1.88985,1.40123 -6.0883,5.69181 -6.26724,6.40476 -0.194,0.77296 0.73513,1.04925 7.31061,2.17389 4.76104,0.8143 6.26402,1.32854 7.3293,2.50768 0.94181,1.04246 0.93599,2.0286 -0.0235,3.97916 -0.8915,1.81243 -0.90435,1.96879 -0.27417,3.33682 0.61784,1.34126 0.95702,2.80173 1.21631,5.23743 0.33771,3.17215 0.58745,4.0618 1.31114,4.67075 0.62851,0.52885 2.47018,0.79025 2.97369,0.42207 0.34599,-0.253 0.38522,-1.35421 0.12643,-3.54869 -0.28331,-2.40239 -0.21974,-4.29202 0.17412,-5.17623 0.35562,-0.79838 0.59029,-1.05793 1.21654,-1.3455 1.04081,-0.47795 2.27842,-0.26676 4.83961,0.82583 0.88006,0.37543 3.07147,1.28635 4.8698,2.02428 5.04229,2.06906 7.72738,3.52368 10.80579,5.85391 2.70781,2.04971 4.47274,3.91878 6.22242,6.58959 4.00656,6.11582 7.06029,14.54009 8.12443,22.41276 0.30609,2.26453 0.31017,6.72188 0.008,8.3969 -0.46132,2.55438 -1.18514,4.45281 -2.28588,5.99537 -0.31191,0.4371 -1.26486,1.4195 -2.11767,2.18312 -2.13218,1.90918 -9.53569,9.40696 -10.81358,10.95127 -1.75769,2.12412 -2.39591,3.81564 -2.50118,6.62913 -0.0542,1.44976 -0.0372,1.61307 0.20966,2.00434 0.24602,0.38998 0.30985,0.42046 0.75543,0.36069 0.66392,-0.0891 1.5165,-0.69327 2.71789,-1.92615 0.93414,-0.95862 1.71544,-1.97668 4.06767,-5.30024 3.01318,-4.25747 6.32027,-7.16267 9.06018,-7.95919 0.97835,-0.28441 2.44858,-0.20734 3.17508,0.16643 1.50607,0.77487 2.66747,3.04263 3.50591,6.84574 0.81784,3.70963 1.15145,7.55819 1.05076,12.12183 -0.0778,3.52728 -0.26943,5.14532 -1.04675,8.83883 -2.37363,11.27863 -4.31453,15.45 -9.55474,20.53489 -1.34973,1.30973 -1.90018,1.75366 -2.62247,2.11501 -0.93208,0.4663 -1.23947,0.52567 -1.71929,0.33205 l -4e-5,0 z"
       style="fill:#ffffff" />
  </g>
</svg>
