<?xml version="1.0" encoding="utf-8"?>
<!-- Generator: Adobe Illustrator 19.0.0, SVG Export Plug-In . SVG Version: 6.00 Build 0)  -->
<svg version="1.1" id="Layer_1" xmlns="http://www.w3.org/2000/svg" xmlns:xlink="http://www.w3.org/1999/xlink" x="0px" y="0px"
	 viewBox="0 0 1000 960" style="enable-background:new 0 0 1000 960;" xml:space="preserve">
<style type="text/css">
	.st0{fill:#040303;}
	.st1{fill:#800026;}
	.st2{fill:#FFFFFF;}
</style>
<g id="XMLID_1_">
	<g>
		<path class="st0" d="M436.1,239.9c0.6,0.4,1.2,0.8,1.8,1.1l0.1,0c1.3-0.1,2.6-0.1,3.9-0.2c7.2-9.4,18.1-13,27.9-18.4
			c3.1-1.7,6.2-3.3,9.1-5.1c5-3,5.8-6.8,1.9-11.1c-3.8-4.2-7.9-8.2-12.2-11.8c-6.9-5.8-15-8.1-24.1-7.9
			c-15.3,0.4-27.4,7.6-38.5,17.1c-20.5,17.6-34.9,39.6-44.4,64.8c-1.9,5.1-4.4,10.4-2.7,16.3c16.1-0.6,28.3-7.7,38.1-19.5
			c8.5-10.2,16.8-20.6,25.5-30.6c1.6-1.8,4.5-2.5,6.7-3.6C431.5,234,433.8,237,436.1,239.9z M990.2,462.5c1.5,20.6-1,40.9-3.5,61.3
			c-0.9,6.8-0.1,13.9-0.1,20.8c-0.1,1.9-0.3,3.7-0.4,5.6c-0.1,0.8-0.1,1.6-0.2,2.4c-0.3,1.3-0.5,2.5-0.8,3.8c0,0-0.2,0.1-0.2,0.1
			l0.1,0.2c-4.3,20.3-8.8,40.5-15.7,60.3c-8.2,23.3-18.1,45.7-29.8,67.3c-6.8,12.5-14.8,24.3-22.4,36.5c-6.8,11-13.2,22.3-20.6,32.8
			c-13.9,20-30.4,37.8-48,54.5c-5,4.8-10.7,9-16.4,13c-10.3,7.3-20.7,14.3-31.2,21.3c-9.5,6.4-19,12.8-28.8,18.6
			c-7.1,4.2-14.6,7.9-22.2,11.1c-21.1,8.9-42.1,18.1-63.6,26c-25.1,9.2-50.5,17.8-77.1,22.2c-20.2,3.3-40.3,7.1-60.6,10
			c-10.5,1.5-21.2,1.4-31.8,2.1c-3.3,0.2-6.6,0.8-9.9,0.7c-15.1-0.5-30.3-0.4-45.3-2.1c-22.8-2.5-45.5-5.7-68.1-9.8
			c-31.9-5.8-62.8-15.3-92.9-27.4c-23.8-9.6-46.7-20.7-68.8-33.7c-27.6-16.3-53.4-35.2-77.5-56.4c-9.7-8.6-19.5-17-28.9-25.9
			c-3.7-3.5-6.2-8.1-9.4-12.1c-7.9-9.9-16.1-19.5-23.6-29.7c-7.2-9.8-13.6-20.3-20.6-30.3c-12.2-17.5-21.3-36.6-30-56
			c-4.5-9.9-8-20.4-11.8-30.6c-7.5-20-12.2-40.7-16.4-61.6C10.2,540.3,7,523.3,8,505.8c0.3-1.1,0.9-2.1,0.9-3.1
			c0.1-14.1,0.1-28.2,0-42.3c0-1-0.6-2.1-1-3.1c1.1-14.6,1.4-29.3,3.6-43.7c2.2-14.4,5.8-28.7,9.5-42.8c2.8-10.7,6.8-21.1,10.3-31.7
			c8.3-25.2,19.8-49,33.2-71.7c8.7-14.7,18.4-28.9,28.6-42.6c20-27,42.6-51.6,68.7-72.8c15.1-12.2,30.1-24.6,46.1-35.4
			c15.5-10.4,32.1-19.3,48.5-28.2c11.1-6,22.5-11.3,34.1-16.3c26.5-11.5,53.6-21.2,81.9-27.1c15.6-3.3,31.3-6.2,47-8.8
			c10.1-1.7,20.3-2.9,30.4-3.7c15.6-1.3,31.2-3.3,46.8-2.9c24.4,0.6,48.9,1.9,73.2,4.9c27.3,3.4,54.6,8.3,80.8,17.1
			c20,6.7,39.9,13.5,59.6,20.9c8.5,3.2,16.4,8.2,24.6,12.3c7.8,3.9,15.8,7.4,23.5,11.6c8.1,4.5,16.1,9.2,23.7,14.4
			c12.9,8.8,25.6,17.8,38,27.2c7.7,5.8,15.4,11.8,22,18.6c8,8.2,17.2,12.2,28.4,12.3c7.8,0.1,15.7,0.3,23.5,0.1c5-0.2,7.8,2.1,9,6.7
			c1.1,4.3,2.3,8.3,5.9,11.8c1.9,1.8,1.5,6,2.1,9.1c-1.3,3.6-2.5,7.3-3.8,10.9c-1.3,3.6-3,7.1-3.7,10.8c-0.4,2.2,0.2,5.2,1.5,6.8
			c16.3,19.8,29.1,41.8,40.9,64.5c13.3,25.6,23.5,52.4,31.3,80c2.9,10.4,4.9,21,7.4,31.5c0.5,2.9,1,5.8,1.5,8.6
			c0.2,1.6,0.4,3.2,0.6,4.8c-0.1,0-0.2,0-0.3,0c0.1,0.1,0.2,0.2,0.3,0.3c0.1,0.9,0.2,1.8,0.2,2.8c-0.2,1.4-0.6,2.9-0.5,4.3
			C987.6,435.3,989.2,448.9,990.2,462.5z M961.4,390.9c0.5-0.2,1.1-0.5,1.6-0.7c-1-3.9-2-7.9-3.2-11.8c-3.5-11.8-6.6-23.7-10.9-35.1
			c-4.2-11.3-9.4-22.3-14.6-33.2c-5.3-11-10.8-22-16.9-32.6c-7.2-12.5-15.1-24.5-22.7-36.7c-3.6-5.8-7.5-7.1-11.8-3.8
			c-4.4,3.5-8.8,7-13,10.7c-3.7,3.2-3.5,6.4,0.6,9.3c3.5,2.5,7.3,4.7,10.5,7.5c13.6,12,26.2,24.7,37.1,39.4
			c11.1,15,19.5,31.3,27.3,47.9c5.2,11.1,8.7,22.9,13,34.3C959,387.9,960.3,389.3,961.4,390.9z M941.4,553.6
			c1.5-24.3,0.8-48.3-6.7-71.7c-1.1-3.5-2.2-6.9-6.6-6.9c-9.1,0-18.1,1.4-24.4,8.3c-6.3,6.9-11.4,15-17,22.7
			c-5.6,7.6-10.7,15.7-19.2,20.7c-4.5,2.7-7.8,1.4-8.7-3.8c-0.5-2.8-0.6-5.6-0.6-8.4c0.2-12,5.3-22.3,13.7-30.1
			c11.1-10.3,23.1-19.6,35.1-28.9c11-8.5,19.1-18,15.3-33.3c-0.6-2.4-0.3-5-0.5-7.5c-2.8-31.3-8.7-61.5-26.3-88.5
			c-13.7-21-32-36.2-54.6-46.4c-12-5.4-24-10.7-37.3-12c-6.6-0.6-9.7,1.7-9.4,8.4c0.2,5.9,1.8,11.8,2.8,17.6c0.7,4,2.7,8.3-0.9,11.7
			c-2.8,2.7-9.8,1.8-13.8-2.1c-2.4-2.4-4.6-5.9-5.2-9.2c-0.9-5.3,0-11-0.7-16.4c-0.6-4.4-2.5-8.7-3.8-13c-2.4-3-1.8-6,0.2-8.9
			c0.4-0.7,0.8-1.3,1.3-2c0.3-0.8,0.6-1.7,0.9-2.5c0.2-1.2,0.4-2.4,0.6-3.5c-0.3-2.2-0.6-4.4-0.8-6.6c-2.3-5.4-7.3-7.3-12.4-8.1
			c-11.4-1.6-22.8-2.4-34.2-3.9c-2.2-0.3-5.3-1.8-5.9-3.5c-0.6-1.7,0.8-4.7,2.1-6.6c2.5-3.9,5.3-7.7,8.5-11.1
			c4.8-5,9.6-10.1,15.1-14.3c5.2-4.1,9.3-3.1,14.3,1.2c3,2.6,6.1,5.2,9.5,7.2c10.7,6.1,21.4,12.2,32.4,17.7
			c14.3,7.1,29.6,9.6,45.6,8.3c14-1.1,23-10.3,32.6-18.8c0.5-0.4,0.9-1.1,1.1-1.7c1-2.7,1.2-4.8-2.8-5.2c-3.6-0.3-7.2-1.1-10.8-2
			c-16.6-4.3-29.4-15-42.5-25.3c-13.9-11-25.9-24.4-43.2-30.7c-20.2-7.3-38.8-5.7-55.5,8.5c-9.4,8-15.8,18.3-22.4,28.5
			c-8.8,13.7-17.4,27.6-30.2,38.2c-8.3,6.8-16.9,7.5-25.1,0.3c-7.3-6.3-14.9-6.8-23.2-3.2c-15.4,6.6-30.7,13.7-46.3,19.8
			c-5.8,2.3-12.6,2.4-18.9,3.3c-3,0.4-4.7-1.4-5.6-4.5c-2.2-7.8-2.3-7.8-10.5-7.5c-32.1,1-60.7,13.1-87.8,28.8
			c-22.1,12.8-44.1,25.4-68.9,32.2c-5.8,1.6-9.7,5.3-12.6,10.6c-2.6,4.8-5.3,10.1-9.4,13.4c-9.9,8-20.6,15.1-31.1,22.4
			c-11.4,7.9-23.7,14.9-34.4,23.8c-17.3,14.3-22.6,34.2-22.9,55.9c0,3,1.2,5,4.5,5.5c4.3,0.6,8.5,1.4,12.8,2
			c27.1,3.7,49.3-6.7,64.5-29c8.3-12.3,11-26.2,11.8-40.7c0.7-11.5,1.5-23,6.2-33.7c3.6-8.2,9.1-14.4,17.9-17.1
			c6.9-2.1,9.5-0.3,9.6,6.7c0.1,4.2,0,8.3,0.4,12.5c0.4,4,2.8,4.6,6,2.8c1.3-0.7,2.2-1.9,3.3-3c6.9-7.2,13.5-14.6,20.8-21.4
			c2.7-2.6,6.9-3.6,10.4-5.4l0.1,0c1.3-0.3,2.6-0.6,3.9-1c0.4-0.1,0.9-0.2,1.3-0.3c0.9-0.2,1.8-0.4,2.6-0.6c0.8-0.1,1.6-0.3,2.4-0.4
			c1.5-0.1,3.1-0.3,4.6-0.5c0.3,2.5,0.7,5.1,1,7.6c-2.1,2.9-4.1,6-6.4,8.7c-11.7,13.6-23.4,27.3-35.4,40.7
			c-15.3,17-29.1,35.1-38.7,56c-2.1,4.6-2.7,9-0.3,13.4c2,3.6,4.4,7.1,7.1,10.1c5.4,5.8,11.9,10.6,14.8,18.5
			c2.8,7.6,1.4,10.1-6.6,9.2c-7-0.8-14-2.1-21-3c-14.9-1.8-29.9-3.6-44.5,1.7c-2.3,0.8-4.4,2.4-6.6,3.7c0.1,0.5,0.2,1.1,0.3,1.6
			c2.6,0.5,5.3,1.4,7.9,1.4c9.3,0.2,18.7-0.2,28,0.3c10.8,0.6,21.2,2.7,29.5,10.4c3.9,3.6,3.7,8-0.4,11.4c-1.2,0.9-2.4,1.9-3.6,2.7
			c-12.4,8.6-24.6,17.6-37.2,25.8c-11.8,7.7-24,14.8-36.2,21.9c-5.2,3-8.2,1.8-11-3.5c-1.8-3.5-3.1-7.3-4.4-11.1
			c-1.1-3-1.6-6.2-2.8-9c-2.9-6.7-9.9-10.8-17-9c-7.2,1.9-14.3,4.4-21,7.6c-10.1,4.9-17,13.6-21.8,23.4
			c-6.3,12.8-11.4,26.2-16.8,39.4c-2.4,5.9-0.6,10.1,4,11.3c14,3.6,27.5,2.2,40.1-4.9c11-6.1,22-12.4,32.6-19.2c3.7-2.4,6-2.2,9,0.6
			c7.7,7.1,17,11.1,27.5,11.8c8.6,0.6,17.3,0.5,25.9,1.2c6.6,0.5,10.4-2.1,13.4-7.9c6.8-13.2,15-25.7,26.6-35.2
			c6.3-5.1,13.3-9.5,20.3-13.5c6.4-3.6,10-1.7,12.4,5.3c1,3,1.3,6.2,2.4,9.2c1.5,4.3,5.2,6.2,8.5,4c9.3-6.1,19.3-11.4,27.5-18.8
			c12.4-11.2,23.7-23.8,35-36.1c3.6-3.9,6-9,9.4-14.2c-6.9-1-11.5,1.9-16.1,4.6c-13.5,7.8-24.3,19.5-38.7,26.2
			c-8.6,4.1-16.5,4.6-24.7,0.2c-3.9-2.1-6.9-4.9-6.1-9.9c0.8-4.9,3.7-8,8.6-9.3c5.1-1.4,10.3-2.8,15.3-4.6c2.1-0.8,4.1-2.3,5.6-3.9
			c3.2-3.7,1.7-7.7-3.1-8.7c-3.1-0.6-6.2-1.1-9.3-1.6c-9-1.5-18.2-2.1-26.3-7c-5.1-3.1-5.4-7.5-2.2-11.8c4-5.5,10-7.3,15.9-9.6
			c5.5-2.1,11.5-4.1,15.9-7.8c6.8-5.8,13.5-11.8,20-17.9c4.7-4.4,9.3-8.9,13.8-13.4c18.1-18.2,35.3-37.2,53.6-55.1
			c19.5-19.1,42.6-31.7,70-35.7c10.8-1.6,12.8-0.3,18.5,9.1c8.7,14.4,7.4,29.1,2.7,44.2c-4.7,15.2-9.3,30.5-14.2,45.7
			c-1.7,5.2,0,9.3,4.4,11.4c8.6,3.9,17.3,8.1,26.4,10c7,1.5,14.7-0.2,22.1-1c3.1-0.3,5.5-2.6,3.4-6.1c-2.1-3.5-4.4-7-7.3-9.8
			c-9.6-9.2-19.5-18-29.4-26.9c-3.4-3-3.8-7.7-0.2-10.2c10.5-7.2,17.9-17,23.7-27.9c8-15,10.6-20.9-2.8-36.5
			c-4.5-5.3-9.4-10.4-14.4-15.2c-1.6-1.6-4.3-2.8-6.5-3c-31.2-2.3-58.3,7.9-82.1,27.5c-15.8,13-29.1,28.4-42.2,44.1
			c-11,13.1-21.9,26.3-33.5,38.9c-2.5,2.7-5.1,5.4-7.7,7.9c-5.9,5.6-12.3,10.5-19.8,14.3c-11.5,5.9-21.8,14.4-35.4,15
			c-2.3,0.1-4.6-1.2-7-1.8c-0.7-0.5-1.5-1.1-2.2-1.6c-0.3-0.2-0.6-0.4-0.9-0.6c-0.5-0.4-0.9-0.8-1.4-1.3c-0.6-0.8-1.1-1.6-1.7-2.4
			c-1.6-4.6-2.1-9,1.3-13.2c0.5-0.7,0.6-1.8,0.9-2.7c0.6-0.8,1.2-1.6,1.8-2.4l0.4-0.1l0-0.4c4.1-2.4,8.1-5.2,12.4-7
			c7.4-3.2,15.8-4.8,22.6-8.9c18.8-11.2,30.9-29.1,43.5-46.2c11.5-15.6,21.8-32.2,33.5-47.7c14.7-19.5,33.1-34.5,56.5-42.7
			c33.1-11.6,66.5-14.4,100.5-4.5c7.1,2.1,12.6,6.2,16.1,12.5c2.8,5.1,5.3,10.5,6.8,16c5.4,20.3-1.5,39-9.6,56.9
			c-5.9,13-13.7,25.1-20.7,37.5c-1.5,2.7-1.8,5,0.9,7c9.7,7.1,15.9,16.7,20.1,27.9c2.5,6.6,5.4,7.9,10.7,3.1
			c7.7-6.9,14.1-15.3,20.6-23.4c1.1-1.4,0.9-4.9-0.1-6.6c-3-5.3-6.5-10.3-10.2-15.2c-4.8-6.3-6.5-13.2-2.8-17.9
			c5.7-7.3,11.9-14.3,18.6-20.7c2.8-2.7,7.3-3.7,11.2-4.9c2.9-0.8,5.3,0.7,5.5,4.1c0.9,10.4,1.9,20.9-9.8,26.8
			c-1.1,0.6-1.8,1.9-2.8,2.8c-2.8,2.5-2.1,4.5,0.8,6.4c7.8,5,13,12.4,16.9,20.5c2.1,4.4,2.8,9.3,4.4,14.8c-3.1,0-5.1,0.2-7,0
			c-12.2-1.8-21.4,3.4-28.9,12.2c-4,4.7-7.7,9.6-11.5,14.4c-5,6.3-4.1,10,3.1,13.7c9.3,4.8,18.6,9.7,27.8,14.6
			c35.4,19,67.9,42,95.8,71.1c14.1,14.7,27,30.6,36.5,48.5c8.8,16.7,15.4,34.6,22.2,52.3c2.8,7.2,3.8,15.1,5.5,22.8
			c0.7,3.1-1.3,7.9,2.9,8.5c2.7,0.4,6-2.6,8.8-4.3c1.4-0.9,2.5-2.2,3.4-3.6c6-8.8,13-17,17.6-26.4
			C934.8,598.2,940,576.3,941.4,553.6z M854.2,687.7c7.8-26.1,5.1-51.4-5-76.2c-9.4-23.1-24-42.9-40-61.8
			c-17.1-20.2-36.7-37.7-57.5-53.8c-16.4-12.7-33.9-24.1-51-35.8c-13.1-8.9-27.4-15.4-42.7-19.3c-3.8-0.9-8.2-3.2-12.6,0.4
			c1.3,1.5,2.3,2.8,3.4,4c6,6.2,12,12.3,17.9,18.6c7.1,7.5,13.6,15.6,21.2,22.5c7,6.4,15.6,7.7,24.6,3.6c6.7-3.1,9-2.2,11,4.9
			c7.1,25.3,21.8,47,32.8,70.4c6.5,13.8,11.7,28.3,17.3,42.5c1.1,2.8,0.8,5.6-2.9,6.8c-11,3.6-23.2,1.1-29.7-8.3
			c-6.1-8.8-10.6-18.7-15-28.5c-5.3-11.8-9.2-24.3-14.6-36c-4.7-10.2-12.5-17.1-24.7-17.5c-11-0.4-11.6,0.3-6.6,10.1
			c4.9,9.6,7.2,19.5,3.1,29.8c-1.1,2.7-3.7,5.6-6.2,6.4c-1.5,0.5-5.3-2.1-6.5-4.2c-6.7-12-14.1-23.9-19-36.6
			c-8.4-21.7-14.6-44.2-22.8-66c-4.8-12.8-11.6-24.9-17.6-37.3c-1.7-3.5-4.3-4.4-7.7-2.1c-4.8,3.3-9.2,3-13.6-1.2
			c-5.6-5.4-12.5-5.2-19-1.8c-3.8,2-7.8,4.3-10.5,7.5c-8.2,9.8-15.8,20-23.6,30.1c-0.4,0.6-0.5,1.5-1.1,3.4c4.4-1.3,8-2.3,11.6-3.5
			c10.6-3.4,21-7.5,31.7-10.2c12.6-3.2,22,2,26.2,13.7c0.8,2.2,0.7,5.9-0.7,7.3c-1.3,1.3-4.8,0.6-7.3,0.6c-0.9,0-1.7-1.2-2.6-1.4
			c-2.4-0.5-4.8-0.7-7.2-1c0.7,2,0.8,4.6,2.1,6c9.3,9.6,15.3,21.3,19.9,33.4c11.2,29.8,16.9,60.6,15.3,92.5
			c-0.8,16-2.4,31.9-8.9,46.9c-2.9,6.7-2.5,7.9,3.9,11.3c1.7,0.9,4,3,3.9,4.3c-0.2,1.8-2.1,4.2-3.8,5c-5.2,2.3-10.6,4.1-16,5.8
			c-12.2,3.8-24.6,6-37.4,4.8c-20.3-2-38-10.5-54.7-21.6c-16.6-11-32.7-22.7-49.7-33c-14.3-8.6-30.3-11.8-47-9.5
			c-8.4,1.2-16.8,2.6-25,4.5c-15.1,3.4-30.5,6.1-45,11.1c-28.9,9.9-57.2,21.8-86.2,31.7c-20.9,7.2-42.5,11.8-64.7,5.4
			c-7-2-14-4.3-20.9-6.8c-10.6-3.9-21.4-6.1-32.8-4.8c-8.2,1-10.3,2.6-12.6,10.4c-3.4,11.7-2.3,23,2.4,34.1
			c6.6,15.5,18.1,27.3,29,39.7c3.4,3.9,7.1,5.3,12.2,5c31.2-1.6,61.3-8.3,88.7-23.1c24.4-13.2,48-27.9,71.3-43.1
			c29.9-19.5,60.6-36.8,95.5-45.4c13.2-3.3,26.3-7.5,37.8,4c0.7,0.7,1.7,1,2.7,1.3c5.4,2.1,8.3,6.4,10,11.7c2.2,6.7,0.4,8.9-6.7,8.4
			c-7.3-0.5-14.6-1.3-21.9-1.3c-31.9,0-60.6,9.8-85.9,28.9c-18.1,13.6-35.6,27.9-53.8,41.3c-15,11.1-31.4,19.4-50.1,22.5
			c-1.5,0.3-3.4,2.5-3.8,4.2c-0.5,2.1,0.1,4.6,0.5,6.9c2.5,13.6,11.5,23,20.6,32.4c7.2,7.4,13.8,15,11.8,27.1
			c2.8-0.6,4.9-0.9,6.8-1.5c5.2-1.7,10.2-3.8,15.4-5.3c7.6-2.3,15.4-4,23-6.3c3.8-1.1,5.3-4.1,5.1-8.2c-0.2-5-0.2-10,0.1-15
			c0.1-1.5,1.3-4.3,2-4.3c2.1-0.1,4.2,0.9,6.2,1.8c0.8,0.3,1.2,1.6,1.6,2.5c8.3,14.4,20.7,24,36,29.4c41.5,14.7,82.4,9.6,122.6-5.3
			c6.2-2.3,11.6-3.5,17.4,0.5c3.9,2.8,8,5.3,12.1,7.9c4.1,2.6,8,5.5,12.3,7.4c7.8,3.4,15.1,1.3,21.6-3.5c4.6-3.4,4.8-7.4,0.8-11.5
			c-1.9-1.9-4.4-3.3-6.7-4.9c-4.7-3.3-9.9-6.1-14-10.1c-2.2-2.2-4.1-6.9-3.2-9.5c1.3-3.8,5.8-5.1,10.2-3.6c6,2,11.9,4.2,17.9,6.2
			c3.3,1.1,6.8,2,10.9,3.3c0-3.1,0-5.1,0-7.1c0.5-19.1,0.5-38.3,1.8-57.4c0.8-11.3,4-22.3,13.1-30.4c1.4-1.2,3.4-1.6,5.1-2.4
			c0.4,1.9,1.2,3.7,1.2,5.6c-0.1,15.8-1.3,31.7-0.2,47.4c2.2,29.8,8.2,58.7,25.4,84.1c8.2,12.2,18.4,20.1,33.8,19
			c4-0.3,8-0.2,12-0.5c38.8-3.4,71-21,99.8-46c20.2-17.5,37-37.8,51-60.4C839.8,724.8,848.5,707,854.2,687.7z M761.1,122.1
			c-0.7-0.9-1.1-1.8-1.7-2.2c-5.4-3.4-10.7-7-16.2-10.2c-7.9-4.5-15.8-9.3-24.2-12.8c-18.8-7.9-37.8-15.6-57-22.3
			c-15.6-5.4-31.7-9.7-47.8-13.5c-12.2-2.9-24.8-4.1-37.2-6.4c-25.6-4.7-51.4-6.2-77.3-6.4c-17.9-0.2-35.7,2.7-53.6,3.4
			c-21.3,0.9-42.1,5.2-62.9,9.7c-7.6,1.6-15,4.2-22.5,6.4c-12.2,3.7-24.7,6.7-36.6,11.3c-16.4,6.3-32.5,13.4-48.5,20.7
			c-8.8,4-17.3,8.6-25.5,13.5c-10.5,6.3-21,12.8-31,19.9c-14.9,10.6-29.9,21.1-43.7,32.9c-13.6,11.6-26.3,24.4-38.6,37.4
			c-10.2,10.8-19.8,22.4-28.8,34.3c-16.7,21.9-30.5,45.7-42.5,70.6C55,330.3,46.9,353,40.1,376c-7.8,26.7-11.9,54.1-13.1,81.9
			c-1.3,30.8-0.5,61.6,5.1,92c6,32.5,16,63.7,28.9,94.1c2.8,6.5,6,13,9.4,19.2c6.4,11.6,13.1,23,19.8,34.5c0.8,1.3,2.2,2.2,3.3,3.3
			c0.8-1.5,2.3-3,2.4-4.5c0.4-10.7,5.1-20,9.4-29.2c6.6-14,17.5-24.9,28.8-35.3c2.2-2,4.5-4.9,4.9-7.6c1.5-10.1,2.1-20.4,3.2-30.6
			c1.9-17.2,9.8-32,19.6-45.5c10.5-14.4,24.5-25.7,39.6-35.3c19.7-12.4,39.5-24.6,59.1-37.2c11.7-7.5,21.4-17.3,30.3-27.9
			c1.9-2.2,1.8-4.2-0.6-5.9c-4.2-2.9-8.5-5.8-12.6-8.9c-7.1-5.4-14.5-10.3-19.4-18.3c-3.6-6-5.4-11.9-2.3-18.4
			c4.4-9.2,8.8-18.3,15.9-26.1c12.1-13.5,25.5-25.1,41.3-34c8-4.5,15.5-9.6,23.2-14.5c3.7-2.4,6-6,4.2-10.2
			c-2.8-6.9-5.5-14.1-9.9-20c-6.2-8.3-11.7-16.8-16.4-25.9c-4.1-8-1.5-12.3,7.5-12.8c2.6-0.1,5.3-0.6,7.8-1.4
			c16.9-5.4,29.5-16.9,41-29.8c12.5-14,24.2-28.7,37.5-41.8c8.7-8.6,18.9-15.9,32.1-17.8c9.6-1.4,19-1,28,1.6
			c9.5,2.7,16.6,9.4,22.8,17.1c5.5,6.7,10.7,13.6,16.5,19.9c4.4,4.8,9.7,8.4,16.6,3.8c0.9-0.6,2.2-0.6,3.4-0.6
			c17.9-0.7,35.9-1.9,53.8-1.9c15.4,0,30.5-1,45.6-4.1c11-2.3,21.1-6.7,28.9-14.7c7.1-7.3,12.4-16.5,19.3-24
			c6.7-7.3,13.7-14.9,22-20c14.1-8.5,30.4-10.8,46.7-12.5C749.5,126.2,755.9,127.6,761.1,122.1z M680.3,509.9c3.3-1,3.4-3.9,2.6-6.6
			c-3-9.7-10.8-14.8-19.7-20.8c-0.1,2.5-0.5,3.7-0.2,4.7c0.9,3.5,1.8,7,3.1,10.4c1.3,3.4,2.7,6.8,4.5,10
			C672.9,511.8,676.8,511,680.3,509.9z M642.3,891.9c-3.2-2.3-5.1-3.9-7.2-5.2c-8.4-4.9-16.3-10.2-21.2-19
			c-2.5-4.5-6.3-6.8-11.8-6.6c-8.7,0.3-17.6,0.9-26.2-0.1c-16.3-1.9-31.4-7.2-45.2-16.8c-4.2-2.9-10-4.3-15.3-4.9
			c-7.2-0.8-14.6-0.7-21.8-0.1c-15.7,1.3-31.3,3.2-47,4.5c-16.1,1.4-31.9,0-47-5.9c-10.5-4.1-20.7-9-31.3-13
			c-9.4-3.5-19.1-4.1-28.6,0.4c-7.5,3.6-15,7-22.6,10.3c-19.1,8.2-39,8.8-59.2,6.7c-4.7-0.5-9.4-0.9-14.1-1.4
			c-0.3,0.5-0.7,1.1-1,1.7c1.3,1.5,2.4,3.5,4.1,4.5c3.7,2.2,7.6,4,11.5,5.9c14.8,7.1,29.4,14.7,44.4,21.1c12.3,5.3,25.2,9.4,38,13.5
			c12.4,4,24.8,8.3,37.5,11.1c15.8,3.5,31.8,6.3,47.9,8.3c21.7,2.6,43.5,4.9,65.4,5.7c17.4,0.6,34.9-0.8,52.3-2
			c14-1,28.1-2.6,42-4.8c13.6-2.2,27-5.2,40.4-8.3C631.2,896.4,636.1,894.1,642.3,891.9z M599.5,634.1c6.3-1.3,7.2-3.6,5.8-9.9
			c-1.8-8-2.8-16.3-3.5-24.5c-0.4-4.6,0.6-9.3,0.6-14c0.1-13-4.3-19.1-16.4-23.8c-3.6-1.4-6.5-0.6-7.7,3
			c-3.4,9.8-11.1,14.5-20.3,17.4c-10.7,3.4-15.4,1.7-21.7-7.5c-2.2-3.2-4.8-6.3-7.9-8.5c-5.8-4.3-9.3-3.1-11.7,3.6
			c-1.7,4.6-2.9,9.4-4.4,14.1c-4.9,14.5-17.4,17.9-28.5,7.8c-0.1-0.1-0.3-0.2-0.4-0.3c-8-8.6-16.5-16.9-23.9-26
			c-4.1-5-9.6-4.7-14.8-7.5c-2.6,6-0.5,10.5,1.2,15.2c2.1,5.9,5,11.8,5.9,17.9c0.8,5.4,3,7.2,7.8,7.5c13.2,0.8,24.8,5.9,35.2,13.8
			c8.9,6.7,17.3,14.2,26.6,20.3c6.9,4.5,14.8,7.5,22.4,10.7c3.5,1.5,6.3,0.4,7.1-4.2c0.8-4.6,1.9-9.1,3.5-13.5
			c0.7-1.8,2.7-3.6,4.5-4.5c4-2,7,0.4,9.8,3C577.3,632.5,587.2,636.8,599.5,634.1z M603,376.5c0.1,0,0.2,0,0.3,0
			c-0.4-4.6-0.6-9.3-1.3-13.9c-2.3-14.6-11.4-20.3-25.7-17c-7.2,1.6-13.7,4.4-19.2,9c-8.1,6.8-16.1,13.8-23.3,21.5
			c-4.6,4.9-3,9.2,0.8,14.7c3.1,4.6,5.6,10.1,6.6,15.6c1.3,7.2,1.5,8,8,5c14.4-6.5,29-12.6,44.6-15.7c7.9-1.6,7.9-1.9,8.7-9.7
			C602.8,382.8,602.8,379.6,603,376.5z M603.1,550.2c-1.7-3.2-2.3-4.9-3.3-6.4c-5.5-7.9-10.8-16-16.6-23.7
			c-7.5-10-16.1-18.6-28-23.4c-7.8-3.1-8.1-3.3-13.2,3.5c-3.1,4.2-7,7.6-12.4,7.3c-5.8-0.3-11.7-0.8-17.2-2.5
			c-5.5-1.7-7.9,0.3-10.3,4.6c-2.2,3.9-4.4,8.1-7.7,10.8c-7,5.6-14.3,11.1-22.3,15.1c-10,5.1-8.5,11.8-4.4,18.2
			c5.4,8.3,11.9,15.6,20.4,21c6.4,4,9.8,2.8,12.4-4.2c4.2-11.4,11.1-21.1,20.5-29c2.5-2.1,4.8-2.1,7.1-0.1c3.4,2.9,6.8,5.9,9.9,9.1
			c4.5,4.6,8.6,9.8,13.3,14.2c4.8,4.5,8.6,3.1,9.5-3.4c0.8-5.9,4.1-9.2,9.2-11.4c7.8-3.4,15.7-1.7,23.6-0.4
			C596.2,549.7,598.9,549.8,603.1,550.2z M433.9,587.6c3.1-0.6,2.9-2.8,2.2-5c-3.4-11.1-6.7-22.3-10.6-33.2
			c-1.6-4.4-4.2-8.7-7.2-12.4c-3.6-4.6-6.3-4-9.1,0.9c-1,1.7-1.7,3.7-2.9,5.3c-8.8,11.6-12.1,25.1-14,39
			c-1.2,9.1,0.6,10.9,12.9,10.8C412.9,591.5,423.4,589.5,433.9,587.6z M368,440.1c5.8-0.4,7.6-3.1,5.4-8.6c-1.3-3.4-2.7-6.9-5-9.7
			c-1.5-1.9-4.6-3.7-6.8-3.6c-1.9,0.1-4.5,2.7-5.4,4.8c-1.4,3.1-1.5,6.8-2.1,10.2c-0.7,4.2,1.6,6.2,5.4,6.7c1.6,0.3,3.3,0.2,5,0.3
			c0,0,0-0.1,0-0.1C365.6,440.1,366.8,440.2,368,440.1z M368.5,592.6c1.8-0.9,3-2.8,5.4-5.2c-17.4-1.2-32.1,4.8-47.4,6.7
			c-1.4,0.3-2.7,0.7-4.1,1c-1.3,0.3-2.6,0.6-3.9,0.9c-2.5,0.7-5.1,1.3-7.6,2c-2.5,0.7-5.1,1.3-7.6,2c-0.5,0.1-1,0.2-1.5,0.4
			c-2.2,0.5-4.4,1-6.6,1.6c-0.2,0.2-0.5,0.3-0.8,0.2c-1.5,0.4-2.9,0.7-4.4,1.1c-1.2,0.3-2.4,0.6-3.5,0.8c-0.9,0-1.8-0.2-2.7,0
			c-8.2,1.9-16.4,3.8-24.5,5.7c-3.6,0.8-7.3,1.6-10.9,2.4c-0.1,0-0.2,0.1-0.4,0.1c-1.2,0.2-2.3,0.3-3.5,0.5
			c-1.4-0.1-2.9-0.4-4.3-0.4c-9.4,0-18.7,0-28.1,0h0c-13.8-9.9-20.7-24.8-29-38.8c-1.7-2.8-3.9-5.4-6.4-8.8
			c-1.3,2.2-1.9,3.1-2.3,4.1c-2.6,6.8-4.8,13.8-7.6,20.5c-4.4,10.6-7.2,21.4-7.1,33c0,3.3,0.9,5.6,3.8,7.4c2.5,1.5,5,3.5,6.7,5.8
			c5.7,7.6,7.2,8.2,16.6,5.7c5.5-1.4,11-2.7,16.6-3.4c4.4-0.6,8.4,0.1,10.8,5.1c2.1,4.5,5.7,4.8,10,2.5c6.7-3.6,13.3-7.7,20.4-10.1
			c23.1-7.7,46.5-14.7,69.8-21.9C333.2,607.7,351.4,601.6,368.5,592.6z M333.7,488.8c2.1-1.4,2.9-4.8,4.3-7.3c-1.9-1-3.8-2.3-5.9-3
			c-6.9-2-13.9-3.4-20.6-5.7c-4.7-1.6-8-0.7-11.1,2.8c-2,2.2-4.4,4-6.4,6.2c-1.7,1.8-4.8,4.8-4.4,5.7c1.4,2.5,3.9,5.1,6.5,5.9
			c4.9,1.4,10.2,1.4,15.3,2C319.7,495.7,327.1,493.2,333.7,488.8z M258.5,807.7c4-3.5,4.2-6.7-0.4-9c-6.8-3.5-9.9-9.5-13-15.8
			c-2.7-5.5-5.5-11-8.7-16.2c-2.3-3.6-6.3-5.2-10-2.9c-5.3,3.2-10.4,2.7-15.8,1.5c-3.6-0.7-7.3-0.9-10.9-1.3
			c-0.2-0.3-0.3-0.5-0.5-0.8c-2.8,1.2-6.6,1.7-8.3,3.8c-2.6,3.4,0.1,6.9,2.3,9.9c8.3,11.1,17.3,21.5,28.4,29.9
			C233.9,816.1,248.3,816.7,258.5,807.7z"/>
		<path class="st1" d="M986.8,414.5l-0.2,0.2c-0.1-0.1-0.2-0.2-0.3-0.3c0.1,0,0.2,0,0.3,0L986.8,414.5z"/>
		<path class="st1" d="M985.3,556.5l-0.3,0.1l-0.1-0.2c0,0,0.2-0.1,0.2-0.1L985.3,556.5z"/>
		<path class="st1" d="M963,390.2c-0.5,0.2-1.1,0.5-1.6,0.7c-1-1.6-2.4-3-3.1-4.7c-4.4-11.4-7.9-23.2-13-34.3
			c-7.8-16.7-16.2-33-27.3-47.9c-10.9-14.7-23.5-27.4-37.1-39.4c-3.2-2.8-7-5-10.5-7.5c-4-2.9-4.3-6.1-0.6-9.3
			c4.3-3.7,8.6-7.2,13-10.7c4.3-3.4,8.2-2,11.8,3.8c7.6,12.2,15.6,24.2,22.7,36.7C923.5,288,929,299,934.3,310
			c5.2,10.9,10.4,21.9,14.6,33.2c4.3,11.5,7.3,23.4,10.9,35.1C961,382.3,961.9,386.2,963,390.2z"/>
		<path class="st2" d="M451.5,293c-1.3,0.3-2.6,0.6-3.9,1l0-0.2l-0.1,0.2c-3.5,1.7-7.6,2.8-10.4,5.4c-7.3,6.8-13.9,14.2-20.8,21.4
			c-1,1.1-2,2.3-3.3,3c-3.2,1.8-5.6,1.2-6-2.8c-0.4-4.1-0.3-8.3-0.4-12.5c-0.1-7-2.7-8.8-9.6-6.7c-8.8,2.7-14.4,8.9-17.9,17.1
			c-4.6,10.8-5.5,22.3-6.2,33.7c-0.9,14.5-3.5,28.4-11.8,40.7c-15.1,22.4-37.3,32.8-64.5,29c-4.3-0.6-8.5-1.4-12.8-2
			c-3.3-0.5-4.5-2.5-4.5-5.5c0.2-21.7,5.5-41.6,22.9-55.9c10.7-8.8,22.9-15.8,34.4-23.8c10.5-7.3,21.2-14.4,31.1-22.4
			c4.1-3.3,6.8-8.6,9.4-13.4c2.9-5.3,6.8-9,12.6-10.6c24.8-6.8,46.8-19.4,68.9-32.2c27.1-15.7,55.7-27.8,87.8-28.8
			c8.3-0.2,8.4-0.2,10.5,7.5c0.9,3.1,2.6,4.9,5.6,4.5c6.4-0.8,13.1-1,18.9-3.3c15.6-6.1,30.9-13.2,46.3-19.8
			c8.3-3.6,16-3.1,23.2,3.2c8.2,7.1,16.8,6.5,25.1-0.3c12.9-10.6,21.4-24.5,30.2-38.2c6.6-10.3,13-20.6,22.4-28.5
			c16.7-14.2,35.3-15.9,55.5-8.5c17.4,6.3,29.4,19.7,43.2,30.7c13.1,10.4,25.9,21,42.5,25.3c3.5,0.9,7.1,1.7,10.8,2
			c3.9,0.4,3.8,2.5,2.8,5.2c-0.2,0.6-0.6,1.2-1.1,1.7c-9.6,8.5-18.5,17.7-32.6,18.8c-16,1.2-31.3-1.2-45.6-8.3
			c-11-5.5-21.7-11.6-32.4-17.7c-3.4-2-6.6-4.5-9.5-7.2c-5-4.4-9-5.3-14.3-1.2c-5.5,4.3-10.3,9.3-15.1,14.3c-3.2,3.4-6,7.2-8.5,11.1
			c-1.3,1.9-2.7,4.9-2.1,6.6c0.6,1.7,3.7,3.2,5.9,3.5c11.4,1.5,22.8,2.3,34.2,3.9c5.1,0.7,10.1,2.6,12.4,8.1
			c0.3,2.2,0.6,4.4,0.8,6.6c-0.2,1.2-0.4,2.3-0.6,3.5c-0.3,0.8-0.6,1.7-0.9,2.5c-0.4,0.7-0.8,1.3-1.3,2c-6.4,4.7-6.4,4.8-0.2,8.9
			c1.3,4.3,3.2,8.6,3.8,13c0.7,5.4-0.3,11,0.7,16.4c0.6,3.3,2.8,6.8,5.2,9.2c4,3.9,11,4.8,13.8,2.1c3.6-3.4,1.6-7.7,0.9-11.7
			c-1-5.9-2.6-11.7-2.8-17.6c-0.3-6.6,2.8-9,9.4-8.4c13.3,1.3,25.4,6.6,37.3,12c22.6,10.2,40.9,25.4,54.6,46.4
			c17.6,27,23.5,57.2,26.3,88.5c0.2,2.5-0.1,5.1,0.5,7.5c3.8,15.3-4.3,24.7-15.3,33.3c-12,9.3-24,18.6-35.1,28.9
			c-8.5,7.8-13.5,18.1-13.7,30.1c0,2.8,0.1,5.7,0.6,8.4c0.9,5.2,4.2,6.5,8.7,3.8c8.5-5,13.6-13.1,19.2-20.7
			c5.6-7.6,10.6-15.7,17-22.7c6.3-6.9,15.3-8.3,24.4-8.3c4.4,0,5.5,3.4,6.6,6.9c7.5,23.4,8.2,47.5,6.7,71.7
			c-1.4,22.7-6.6,44.5-16.6,64.9c-4.6,9.4-11.6,17.7-17.6,26.4c-0.9,1.4-2.1,2.7-3.4,3.6c-2.8,1.8-6.1,4.7-8.8,4.3
			c-4.3-0.6-2.3-5.4-2.9-8.5c-1.7-7.6-2.7-15.5-5.5-22.8c-6.8-17.6-13.4-35.6-22.2-52.3c-9.5-17.9-22.4-33.8-36.5-48.5
			c-27.9-29.1-60.4-52.1-95.8-71.1c-9.2-4.9-18.5-9.8-27.8-14.6c-7.2-3.7-8.1-7.4-3.1-13.7c3.8-4.8,7.5-9.8,11.5-14.4
			c7.6-8.8,16.8-14,28.9-12.2c1.9,0.3,3.9,0,7,0c-1.5-5.4-2.3-10.4-4.4-14.8c-3.9-8.2-9.1-15.5-16.9-20.5c-2.8-1.8-3.6-3.8-0.8-6.4
			c1-0.9,1.7-2.3,2.8-2.8c11.7-5.9,10.7-16.4,9.8-26.8c-0.3-3.4-2.6-4.9-5.5-4.1c-3.9,1.1-8.5,2.2-11.2,4.9
			c-6.7,6.4-12.9,13.5-18.6,20.7c-3.7,4.8-2,11.6,2.8,17.9c3.7,4.9,7.2,9.9,10.2,15.2c1,1.7,1.2,5.2,0.1,6.6
			c-6.5,8.1-12.9,16.5-20.6,23.4c-5.3,4.8-8.2,3.5-10.7-3.1c-4.2-11.2-10.3-20.8-20.1-27.9c-2.7-2-2.4-4.3-0.9-7
			c7-12.5,14.8-24.6,20.7-37.5c8.2-17.9,15-36.6,9.6-56.9c-1.5-5.6-4-11-6.8-16c-3.5-6.3-9-10.5-16.1-12.5
			c-34-9.9-67.4-7.1-100.5,4.5c-23.5,8.2-41.8,23.2-56.5,42.7c-11.7,15.5-21.9,32.1-33.5,47.7c-12.6,17.1-24.8,35-43.5,46.2
			c-6.9,4.1-15.2,5.7-22.6,8.9c-4.3,1.9-8.3,4.7-12.4,7l-0.4,0l0,0.4c-0.6,0.8-1.2,1.6-1.8,2.4c-0.3,0.9-0.3,2-0.9,2.7
			c-3.4,4.1-2.8,8.6-1.3,13.2c0.6,0.8,1.1,1.6,1.7,2.4c0.5,0.4,0.9,0.8,1.4,1.3c0.3,0.2,0.6,0.4,0.9,0.6c0.7,0.5,1.5,1.1,2.2,1.6
			c2.3,0.6,4.7,1.9,7,1.8c13.6-0.5,23.9-9.1,35.4-15c7.4-3.8,13.9-8.7,19.8-14.3l2,2.1c-6.5,6.2-13.2,12.1-20,17.9
			c-4.4,3.7-10.4,5.7-15.9,7.8c-5.9,2.3-11.9,4.1-15.9,9.6c-3.2,4.4-3,8.7,2.2,11.8c8.1,4.9,17.3,5.6,26.3,7c3.1,0.5,6.3,1,9.3,1.6
			c4.8,1,6.3,5,3.1,8.7c-1.5,1.7-3.5,3.2-5.6,3.9c-5,1.8-10.1,3.2-15.3,4.6c-4.9,1.3-7.8,4.4-8.6,9.3c-0.8,4.9,2.2,7.8,6.1,9.9
			c8.3,4.4,16.1,3.9,24.7-0.2c14.4-6.8,25.2-18.4,38.7-26.2c4.6-2.6,9.2-5.6,16.1-4.6c-3.4,5.3-5.8,10.3-9.4,14.2
			c-11.4,12.4-22.6,24.9-35,36.1c-8.2,7.4-18.2,12.7-27.5,18.8c-3.3,2.1-7,0.3-8.5-4c-1-3-1.4-6.2-2.4-9.2c-2.4-7-6-8.9-12.4-5.3
			c-7.1,4-14.1,8.3-20.3,13.5c-11.6,9.5-19.8,22-26.6,35.2c-3,5.8-6.8,8.4-13.4,7.9c-8.6-0.7-17.3-0.6-25.9-1.2
			c-10.5-0.7-19.7-4.7-27.5-11.8c-3.1-2.8-5.3-3-9-0.6c-10.6,6.8-21.6,13.1-32.6,19.2c-12.6,7-26.1,8.5-40.1,4.9
			c-4.6-1.2-6.4-5.3-4-11.3c5.4-13.3,10.5-26.6,16.8-39.4c4.8-9.7,11.7-18.5,21.8-23.4c6.6-3.2,13.8-5.7,21-7.6c7-1.8,14,2.3,17,9
			c1.3,2.9,1.8,6.1,2.8,9c1.3,3.7,2.6,7.6,4.4,11.1c2.8,5.3,5.9,6.5,11,3.5c12.2-7,24.4-14.2,36.2-21.9
			c12.6-8.2,24.8-17.2,37.2-25.8c1.2-0.9,2.4-1.8,3.6-2.7c4.1-3.3,4.3-7.8,0.4-11.4c-8.4-7.6-18.8-9.8-29.5-10.4
			c-9.3-0.5-18.7-0.1-28-0.3c-2.7-0.1-5.3-0.9-7.9-1.4c-0.1-0.5-0.2-1.1-0.3-1.6c2.2-1.2,4.2-2.8,6.6-3.7
			c14.6-5.3,29.6-3.5,44.5-1.7c7,0.8,14,2.2,21,3c8,0.9,9.4-1.5,6.6-9.2c-2.9-7.9-9.4-12.7-14.8-18.5c-2.8-3-5.2-6.5-7.1-10.1
			c-2.4-4.4-1.8-8.8,0.3-13.4c9.7-20.9,23.4-39,38.7-56c12-13.4,23.7-27,35.4-40.7c2.3-2.7,4.3-5.8,6.4-8.7c-0.3-2.5-0.7-5.1-1-7.6
			c-1.5,0.2-3,0.3-4.6,0.5c-0.8,0.1-1.6,0.3-2.4,0.4c-0.9,0.2-1.8,0.4-2.6,0.6C452.3,292.9,451.9,293,451.5,293z"/>
		<path class="st2" d="M849.3,611.5c10.1,24.8,12.8,50.1,5,76.2c-5.7,19.3-14.4,37.1-25,54.1c-14,22.7-30.8,42.9-51,60.4
			c-28.8,25-61,42.6-99.8,46c-4,0.3-8,0.2-12,0.5c-15.4,1-25.6-6.9-33.8-19c-17.1-25.5-23.2-54.3-25.4-84.1
			c-1.1-15.7,0.1-31.6,0.2-47.4c0-1.9-0.8-3.7-1.2-5.6c-1.7,0.8-3.8,1.2-5.1,2.4c-9.1,8-12.4,19.1-13.1,30.4
			c-1.3,19.1-1.3,38.3-1.8,57.4c0,2,0,3.9,0,7.1c-4.1-1.2-7.5-2.2-10.9-3.3c-6-2-11.9-4.2-17.9-6.2c-4.4-1.5-8.9-0.2-10.2,3.6
			c-0.9,2.6,1,7.3,3.2,9.5c4,4,9.3,6.8,14,10.1c2.3,1.6,4.8,2.9,6.7,4.9c3.9,4,3.7,8.1-0.8,11.5c-6.5,4.8-13.8,7-21.6,3.5
			c-4.4-1.9-8.3-4.9-12.3-7.4c-4.1-2.6-8.1-5.1-12.1-7.9c-5.7-4-11.2-2.8-17.4-0.5c-40.3,14.9-81.2,19.9-122.6,5.3
			c-15.3-5.4-27.7-15.1-36-29.4c-0.5-0.9-0.9-2.1-1.6-2.5c-2-0.9-4.1-1.8-6.2-1.8c-0.8,0-2,2.8-2,4.3c-0.3,5-0.3,10-0.1,15
			c0.2,4-1.4,7-5.1,8.2c-7.6,2.3-15.4,4.1-23,6.3c-5.2,1.5-10.3,3.6-15.4,5.3c-2,0.6-4.1,0.9-6.8,1.5c2-12.1-4.7-19.7-11.8-27.1
			c-9.1-9.4-18.1-18.8-20.6-32.4c-0.4-2.3-1-4.8-0.5-6.9c0.4-1.7,2.3-3.9,3.8-4.2C277.7,746.4,294,738,309,727
			c18.2-13.4,35.7-27.7,53.8-41.3c25.4-19.2,54.1-28.9,85.9-28.9c7.3,0,14.6,0.8,21.9,1.3c7.1,0.5,8.9-1.7,6.7-8.4
			c-1.7-5.3-4.6-9.6-10-11.7c-0.9-0.4-2-0.7-2.7-1.3c-11.5-11.5-24.6-7.3-37.8-4c-35,8.6-65.7,25.9-95.5,45.4
			c-23.3,15.2-46.9,30-71.3,43.1c-27.5,14.8-57.5,21.5-88.7,23.1c-5.2,0.3-8.8-1.2-12.2-5c-10.9-12.3-22.4-24.2-29-39.7
			c-4.7-11.2-5.9-22.5-2.4-34.1c2.3-7.8,4.4-9.5,12.6-10.4c11.4-1.4,22.2,0.9,32.8,4.8c6.9,2.5,13.9,4.7,20.9,6.8
			c22.2,6.5,43.8,1.8,64.7-5.4c28.9-9.9,57.2-21.8,86.2-31.7c14.6-5,30-7.7,45-11.1c8.3-1.9,16.6-3.3,25-4.5
			c16.7-2.3,32.8,0.8,47,9.5c17,10.3,33.1,22,49.7,33c16.7,11.1,34.4,19.6,54.7,21.6c12.8,1.3,25.3-1,37.4-4.8
			c5.4-1.7,10.8-3.5,16-5.8c1.8-0.8,3.7-3.2,3.8-5c0.1-1.3-2.2-3.4-3.9-4.3c-6.4-3.5-6.8-4.6-3.9-11.3c6.4-15,8.1-30.9,8.9-46.9
			c1.6-31.9-4.1-62.8-15.3-92.5c-4.6-12.1-10.5-23.9-19.9-33.4c-1.3-1.4-1.4-4-2.1-6c2.4,0.3,4.8,0.5,7.2,1c0.9,0.2,1.7,1.4,2.6,1.4
			c2.5,0.1,6,0.8,7.3-0.6c1.4-1.3,1.4-5.1,0.7-7.3c-4.2-11.7-13.6-17-26.2-13.7c-10.7,2.8-21.1,6.8-31.7,10.2
			c-3.5,1.1-7.1,2.2-11.6,3.5c0.6-1.9,0.6-2.8,1.1-3.4c7.8-10.1,15.4-20.4,23.6-30.1c2.7-3.2,6.7-5.5,10.5-7.5
			c6.6-3.4,13.4-3.6,19,1.8c4.5,4.3,8.8,4.5,13.6,1.2c3.5-2.4,6-1.4,7.7,2.1c6,12.4,12.8,24.5,17.6,37.3c8.2,21.8,14.4,44.3,22.8,66
			c4.9,12.8,12.3,24.6,19,36.6c1.2,2.1,4.9,4.7,6.5,4.2c2.6-0.9,5.2-3.8,6.2-6.4c4.2-10.3,1.8-20.2-3.1-29.8
			c-5-9.8-4.4-10.5,6.6-10.1c12.2,0.4,19.9,7.3,24.7,17.5c5.4,11.7,9.3,24.2,14.6,36c4.4,9.8,8.9,19.7,15,28.5
			c6.5,9.4,18.7,11.9,29.7,8.3c3.7-1.2,4-4,2.9-6.8c-5.6-14.2-10.8-28.7-17.3-42.5c-11-23.4-25.7-45.1-32.8-70.4
			c-2-7.2-4.3-8-11-4.9c-9.1,4.1-17.6,2.8-24.6-3.6c-7.6-6.9-14.1-15-21.2-22.5c-5.9-6.2-12-12.4-17.9-18.6c-1.1-1.2-2.1-2.5-3.4-4
			c4.4-3.6,8.8-1.3,12.6-0.4c15.4,3.9,29.7,10.3,42.7,19.3c17.2,11.7,34.6,23.1,51,35.8c20.8,16.1,40.4,33.6,57.5,53.8
			C825.3,568.6,839.8,588.5,849.3,611.5z"/>
		<path class="st1" d="M773,255.8c-2,2.9-2.6,5.9-0.2,8.9C766.6,260.6,766.6,260.5,773,255.8z"/>
		<path class="st1" d="M759.4,120c0.6,0.4,1,1.2,1.7,2.2c-5.1,5.4-11.6,4.1-17.3,4.6c-16.3,1.7-32.6,4-46.7,12.5
			c-8.3,5-15.3,12.7-22,20c-6.9,7.5-12.2,16.7-19.3,24c-7.8,8-17.9,12.4-28.9,14.7c-15,3.1-30.2,4.1-45.6,4.1
			c-17.9,0-35.9,1.2-53.8,1.9c-1.1,0.1-2.5,0-3.4,0.6c-6.9,4.5-12.2,0.9-16.6-3.8c-5.8-6.3-11.1-13.2-16.5-19.9
			c-6.2-7.6-13.4-14.4-22.8-17.1c-9-2.6-18.4-3-28-1.6c-13.2,1.9-23.4,9.2-32.1,17.8c-13.3,13.1-25,27.8-37.5,41.8
			c-11.5,12.9-24,24.4-41,29.8c-2.5,0.8-5.2,1.2-7.8,1.4c-9,0.5-11.6,4.7-7.5,12.8c4.7,9.1,10.2,17.6,16.4,25.9
			c4.4,5.9,7.1,13.1,9.9,20c1.7,4.2-0.5,7.8-4.2,10.2c-7.7,5-15.3,10.1-23.2,14.5c-15.8,8.9-29.2,20.4-41.3,34
			c-7.1,7.9-11.5,16.9-15.9,26.1c-3.1,6.5-1.3,12.3,2.3,18.4c4.8,8,12.2,12.9,19.4,18.3c4.1,3.1,8.4,5.9,12.6,8.9
			c2.5,1.7,2.5,3.7,0.6,5.9c-8.9,10.6-18.7,20.4-30.3,27.9c-19.6,12.6-39.4,24.7-59.1,37.2c-15.1,9.6-29.1,20.9-39.6,35.3
			c-9.8,13.5-17.8,28.4-19.6,45.5c-1.1,10.2-1.8,20.5-3.2,30.6c-0.4,2.7-2.7,5.6-4.9,7.6c-11.4,10.4-22.2,21.3-28.8,35.3
			c-4.3,9.2-9,18.5-9.4,29.2c0,1.5-1.5,3-2.4,4.5c-1.1-1.1-2.5-2-3.3-3.3c-6.7-11.4-13.4-22.9-19.8-34.5C67,657,63.8,650.5,61,644
			c-12.9-30.4-23-61.6-28.9-94.1c-5.6-30.4-6.4-61.2-5.1-92c1.2-27.8,5.3-55.2,13.1-81.9c6.7-23.1,14.8-45.7,25.3-67.5
			c12-24.9,25.8-48.6,42.5-70.6c9.1-11.9,18.6-23.4,28.8-34.3c12.3-13,25-25.8,38.6-37.4c13.9-11.8,28.9-22.3,43.7-32.9
			c10-7.1,20.4-13.6,31-19.9c8.3-4.9,16.8-9.6,25.5-13.5c16-7.3,32.1-14.5,48.5-20.7c11.9-4.5,24.4-7.6,36.6-11.3
			c7.5-2.2,14.9-4.7,22.5-6.4c20.8-4.5,41.5-8.8,62.9-9.7c17.9-0.8,35.8-3.6,53.6-3.4c25.9,0.3,51.7,1.7,77.3,6.4
			c12.4,2.3,25,3.5,37.2,6.4c16.1,3.8,32.1,8.1,47.8,13.5c19.3,6.7,38.2,14.4,57,22.3c8.4,3.5,16.2,8.3,24.2,12.8
			C748.7,113,754,116.5,759.4,120z"/>
		<path class="st2" d="M682.9,503.3c0.8,2.7,0.7,5.6-2.6,6.6c-3.5,1.1-7.4,1.9-9.7-2.2c-1.8-3.2-3.2-6.6-4.5-10
			c-1.3-3.4-2.2-6.9-3.1-10.4c-0.3-1,0.1-2.2,0.2-4.7C672.1,488.6,680,493.6,682.9,503.3z"/>
		<path class="st2" d="M669.3,412.8c2.1,3.5-0.3,5.7-3.4,6.1c-7.4,0.8-15.1,2.4-22.1,1c-9.1-1.9-17.8-6.1-26.4-10
			c-4.4-2-6.1-6.1-4.4-11.4c4.9-15.2,9.5-30.4,14.2-45.7c4.7-15.1,6-29.8-2.7-44.2c-5.6-9.3-7.7-10.7-18.5-9.1
			c-27.3,4-50.5,16.6-70,35.7c-18.3,17.9-35.5,36.9-53.6,55.1c-4.5,4.5-9.1,9-13.8,13.4l-2-2.1c2.7-2.5,5.3-5.2,7.7-7.9
			c11.5-12.6,22.5-25.7,33.5-38.9c13.1-15.6,26.4-31,42.2-44.1c23.9-19.6,51-29.8,82.1-27.5c2.3,0.2,4.9,1.4,6.5,3
			c5,4.8,9.9,9.9,14.4,15.2c13.3,15.5,10.7,21.5,2.8,36.5c-5.8,11-13.2,20.7-23.7,27.9c-3.6,2.5-3.2,7.2,0.2,10.2
			c9.9,8.9,19.8,17.7,29.4,26.9C664.9,405.7,667.2,409.3,669.3,412.8z"/>
		<path class="st1" d="M635.1,886.7c2.1,1.2,4,2.8,7.2,5.2c-6.1,2.2-11,4.5-16.2,5.7c-13.4,3.1-26.8,6.1-40.4,8.3
			c-13.9,2.2-27.9,3.8-42,4.8c-17.4,1.2-34.9,2.6-52.3,2c-21.8-0.8-43.7-3.1-65.4-5.7c-16.1-1.9-32.1-4.8-47.9-8.3
			c-12.7-2.8-25.1-7-37.5-11.1c-12.8-4.2-25.6-8.3-38-13.5c-15.1-6.4-29.6-14-44.4-21.1c-3.9-1.9-7.8-3.7-11.5-5.9
			c-1.7-1-2.7-3-4.1-4.5c0.3-0.6,0.7-1.1,1-1.7c4.7,0.5,9.4,0.9,14.1,1.4c20.2,2.1,40.2,1.5,59.2-6.7c7.6-3.3,15.2-6.7,22.6-10.3
			c9.5-4.5,19.2-3.9,28.6-0.4c10.6,3.9,20.8,8.9,31.3,13c15.1,5.9,31,7.3,47,5.9c15.7-1.4,31.3-3.3,47-4.5
			c7.2-0.6,14.6-0.7,21.8,0.1c5.3,0.6,11,2,15.3,4.9c13.7,9.5,28.9,14.8,45.2,16.8c8.6,1,17.5,0.5,26.2,0.1c5.5-0.2,9.3,2,11.8,6.6
			C618.8,876.5,626.7,881.8,635.1,886.7z"/>
		<path class="st2" d="M605.3,624.2c1.4,6.3,0.5,8.6-5.8,9.9c-12.3,2.6-22.2-1.6-30.9-9.9c-2.7-2.6-5.8-5-9.8-3
			c-1.8,0.9-3.8,2.7-4.5,4.5c-1.6,4.3-2.8,8.9-3.5,13.5c-0.8,4.6-3.6,5.7-7.1,4.2c-7.6-3.2-15.5-6.2-22.4-10.7
			c-9.3-6.1-17.7-13.5-26.6-20.3c-10.4-7.9-22-13-35.2-13.8c-4.8-0.3-7.1-2.1-7.8-7.5c-0.9-6.1-3.7-12-5.9-17.9
			c-1.7-4.7-3.8-9.3-1.2-15.2c5.2,2.8,10.7,2.5,14.8,7.5c7.4,9.1,15.9,17.4,23.9,26c0.1,0.1,0.2,0.2,0.4,0.3
			c11.1,10.1,23.6,6.6,28.5-7.8c1.6-4.7,2.8-9.5,4.4-14.1c2.5-6.8,5.9-7.9,11.7-3.6c3.1,2.3,5.8,5.4,7.9,8.5
			c6.3,9.2,11,10.9,21.7,7.5c9.3-2.9,16.9-7.6,20.3-17.4c1.3-3.5,4.1-4.4,7.7-3c12.1,4.7,16.5,10.8,16.4,23.8c0,4.7-1,9.4-0.6,14
			C602.5,608,603.5,616.2,605.3,624.2z"/>
		<path class="st2" d="M603.3,376.4c-0.1,0-0.2,0-0.3,0c-0.2,3.2-0.2,6.3-0.5,9.5c-0.8,7.9-0.8,8.2-8.7,9.7
			c-15.6,3.1-30.2,9.2-44.6,15.7c-6.5,3-6.7,2.2-8-5c-1-5.4-3.5-11-6.6-15.6c-3.8-5.6-5.4-9.9-0.8-14.7c7.2-7.7,15.2-14.8,23.3-21.5
			c5.5-4.6,12-7.4,19.2-9c14.3-3.3,23.4,2.4,25.7,17C602.6,367.1,602.8,371.8,603.3,376.4z"/>
		<path class="st2" d="M599.8,543.8c1,1.5,1.7,3.2,3.3,6.4c-4.2-0.4-6.9-0.5-9.6-0.9c-7.9-1.3-15.7-3-23.6,0.4
			c-5.1,2.2-8.4,5.5-9.2,11.4c-0.9,6.6-4.6,7.9-9.5,3.4c-4.7-4.4-8.8-9.6-13.3-14.2c-3.1-3.2-6.5-6.2-9.9-9.1c-2.3-2-4.6-2-7.1,0.1
			c-9.3,7.9-16.2,17.6-20.5,29c-2.6,7.1-6,8.2-12.4,4.2c-8.5-5.4-15-12.6-20.4-21c-4.1-6.4-5.6-13.1,4.4-18.2
			c8-4,15.3-9.5,22.3-15.1c3.3-2.7,5.5-7,7.7-10.8c2.4-4.3,4.8-6.3,10.3-4.6c5.5,1.7,11.4,2.2,17.2,2.5c5.4,0.3,9.2-3.1,12.4-7.3
			c5.1-6.8,5.4-6.7,13.2-3.5c11.9,4.8,20.5,13.4,28,23.4C588.9,527.8,594.3,535.8,599.8,543.8z"/>
		<path class="st2" d="M480.8,206.3c3.9,4.3,3.1,8-1.9,11.1c-3,1.8-6.1,3.4-9.1,5.1c-9.7,5.4-20.7,9.1-27.9,18.4
			c-1.3,0.1-2.6,0.1-3.9,0.2l-0.1,0c-0.6-0.4-1.2-0.8-1.8-1.1c-2.3-3-4.5-5.9-6.8-8.9c-2.3,1.2-5.2,1.8-6.7,3.6
			c-8.7,10.1-17,20.4-25.5,30.6c-9.8,11.8-22.1,18.9-38.1,19.5c-1.6-5.9,0.8-11.2,2.7-16.3c9.5-25.2,23.9-47.2,44.4-64.8
			c11-9.4,23.2-16.7,38.5-17.1c9.1-0.2,17.2,2.1,24.1,7.9C472.9,198.2,477,202.1,480.8,206.3z"/>
		<polygon class="st1" points="447.6,293.8 447.6,294 447.5,294 		"/>
		<path class="st2" d="M436.1,582.6c0.7,2.2,0.9,4.4-2.2,5c-10.5,2-20.9,4-28.6,5.4c-12.3,0.1-14.1-1.7-12.9-10.8
			c1.9-14,5.2-27.5,14-39c1.2-1.6,1.9-3.5,2.9-5.3c2.8-5,5.5-5.5,9.1-0.9c2.9,3.7,5.6,8,7.2,12.4
			C429.4,560.3,432.7,571.5,436.1,582.6z"/>
		<polygon class="st1" points="402.8,404.3 402.8,404.7 402.4,404.7 402.4,404.3 		"/>
		<path class="st2" d="M373.4,431.5c2.2,5.5,0.4,8.2-5.4,8.6c-1.2,0.1-2.3,0-3.5,0c0,0,0,0.1,0,0.1c-1.7-0.1-3.3,0-5-0.3
			c-3.8-0.6-6.1-2.5-5.4-6.7c0.6-3.4,0.8-7.1,2.1-10.2c0.9-2.1,3.4-4.6,5.4-4.8c2.3-0.1,5.3,1.7,6.8,3.6
			C370.6,424.6,372,428.1,373.4,431.5z"/>
		<path class="st2" d="M374,587.4c-2.4,2.3-3.7,4.2-5.4,5.2c-17.1,9-35.4,15.1-53.8,20.8c-23.3,7.2-46.7,14.2-69.8,21.9
			c-7.1,2.4-13.7,6.5-20.4,10.1c-4.3,2.3-7.9,2-10-2.5c-2.4-5-6.3-5.7-10.8-5.1c-5.6,0.8-11.1,2-16.6,3.4
			c-9.4,2.5-10.9,1.9-16.6-5.7c-1.7-2.3-4.2-4.3-6.7-5.8c-2.9-1.8-3.8-4-3.8-7.4c-0.1-11.5,2.7-22.4,7.1-33
			c2.8-6.7,5.1-13.7,7.6-20.5c0.4-1,1.1-1.9,2.3-4.1c2.5,3.4,4.7,5.9,6.4,8.8c8.2,14,15.2,28.9,29,38.8h0c2.1,0.8,4.2,2.5,6.2,2.4
			c8.7-0.4,17.4-1.3,26.1-2c1.2-0.2,2.3-0.3,3.5-0.5c0.1,0,0.2,0,0.4-0.1c12.7-2.7,25.4-5.4,38.1-8.2c1.2-0.3,2.4-0.6,3.5-0.8
			c1.5-0.4,2.9-0.7,4.4-1.1c0.3,0.1,0.5,0,0.8-0.2c2.2-0.5,4.4-1,6.6-1.6c0.5-0.1,1-0.2,1.5-0.4c2.5-0.7,5.1-1.3,7.6-2
			c2.5-0.7,5.1-1.3,7.6-2c1.3-0.3,2.6-0.6,3.9-0.9c1.4-0.3,2.7-0.7,4.1-1C341.9,592.2,356.6,586.2,374,587.4z"/>
		<path class="st2" d="M338,481.5c-1.4,2.5-2.2,5.9-4.3,7.3c-6.6,4.4-14,6.9-22.2,6.6c-5.1-0.6-10.4-0.6-15.3-2
			c-2.6-0.7-5.2-3.4-6.5-5.9c-0.5-0.9,2.7-3.9,4.4-5.7c2-2.2,4.4-4,6.4-6.2c3.1-3.5,6.4-4.5,11.1-2.8c6.7,2.4,13.8,3.7,20.6,5.7
			C334.2,479.2,336.1,480.5,338,481.5z"/>
		<path class="st1" d="M286.7,604.1c-12.7,2.7-25.4,5.5-38.1,8.2c3.6-0.8,7.3-1.6,10.9-2.4c8.2-1.9,16.4-3.8,24.5-5.7
			C284.9,603.9,285.8,604.1,286.7,604.1z"/>
		<path class="st2" d="M258.1,798.7c4.6,2.4,4.4,5.5,0.4,9c-10.1,8.9-24.5,8.4-36.9-0.9c-11.2-8.4-20.1-18.8-28.4-29.9
			c-2.2-3-4.9-6.5-2.3-9.9c1.7-2.1,5.5-2.6,8.3-3.8c0.2,0.3,0.3,0.5,0.5,0.8c3.6,0.4,7.3,0.6,10.9,1.3c5.5,1.1,10.6,1.6,15.8-1.5
			c3.7-2.2,7.8-0.7,10,2.9c3.2,5.2,6,10.7,8.7,16.2C248.2,789.2,251.2,795.2,258.1,798.7z"/>
		<path class="st1" d="M240.4,612.4c1.4,0,2.8,0.3,4.3,0.4c-8.7,0.7-17.4,1.6-26.1,2c-2,0.1-4.1-1.5-6.2-2.4
			C221.8,612.4,231.1,612.4,240.4,612.4z"/>
	</g>
	<g>
	</g>
</g>
</svg>
