<?xml version="1.0" encoding="UTF-8" standalone="no"?>
<svg
   xmlns:dc="http://purl.org/dc/elements/1.1/"
   xmlns:cc="http://creativecommons.org/ns#"
   xmlns:rdf="http://www.w3.org/1999/02/22-rdf-syntax-ns#"
   xmlns:svg="http://www.w3.org/2000/svg"
   xmlns="http://www.w3.org/2000/svg"
   xmlns:sodipodi="http://sodipodi.sourceforge.net/DTD/sodipodi-0.dtd"
   xmlns:inkscape="http://www.inkscape.org/namespaces/inkscape"
   viewBox="0 0 1.6584109 1.4356086"
   height="40.515701cm"
   width="46.804947cm"
   version="1.1"
   id="svg30"
   sodipodi:docname="favicon.svg"
   inkscape:version="0.92.2 (5c3e80d, 2017-08-06)">
  <metadata
     id="metadata36">
    <rdf:RDF>
      <cc:Work
         rdf:about="">
        <dc:format>image/svg+xml</dc:format>
        <dc:type
           rdf:resource="http://purl.org/dc/dcmitype/StillImage" />
        <dc:title></dc:title>
      </cc:Work>
    </rdf:RDF>
  </metadata>
  <defs
     id="defs34" />
  <sodipodi:namedview
     pagecolor="#ffffff"
     bordercolor="#666666"
     borderopacity="1"
     objecttolerance="10"
     gridtolerance="10"
     guidetolerance="10"
     inkscape:pageopacity="0"
     inkscape:pageshadow="2"
     inkscape:window-width="1920"
     inkscape:window-height="1027"
     id="namedview32"
     showgrid="false"
     units="cm"
     fit-margin-top="0"
     fit-margin-left="0"
     fit-margin-right="0"
     fit-margin-bottom="0"
     inkscape:pagecheckerboard="true"
     inkscape:zoom="0.45254834"
     inkscape:cx="1513.8871"
     inkscape:cy="781.44504"
     inkscape:window-x="1432"
     inkscape:window-y="365"
     inkscape:window-maximized="1"
     inkscape:current-layer="svg30" />
  <g
     id="g75">
    <path
       style="stroke-width:0.006816"
       inkscape:connector-curvature="0"
       id="path2"
       d="m 1.2807101,0 h -0.01111 c -0.019903,0.00183913 -0.038374,0.00286357 -0.054801,0.00790678 -0.016358,0.00613399 -0.032035,0.02453744 -0.071568,0.07667981 -0.048394,0.06475185 -0.04703,0.06338884 -0.099514,0.06338884 -0.025901,0 -0.0483936,0.00341 -0.05112,0.006816 -0.002045,0.004088 -0.0436224,0.006816 -0.0995135,0.006816 H 0.7969103 L 0.7575138,0.12207453 c 0,0 -0.0250147,-0.02726393 -0.0415776,-0.03476142 C 0.6997823,0.08049711 0.6741542,0.08117861 0.6565007,0.08186011 0.6367343,0.08254307 0.6050399,0.09208409 0.6050399,0.09208409 0.575254,0.10844255 0.5576687,0.129572 0.5380387,0.15138295 0.4968701,0.19432385 0.4811933,0.20659285 0.470833,0.27134514 0.46095,0.33337054 0.4408426,0.39812234 0.371115,0.42811276 0.3347858,0.43492876 0.2777359,0.5303525 0.3163826,0.58624387 c 0.007634,0.0109055 0.0197663,0.0190845 0.0260371,0.0190845 0.0170401,0 0.0214704,0.0109059 0.0113146,0.0279459 -0.004771,0.008179 -0.03408,0.0408958 -0.0650928,0.0722492 -0.0309446,0.0320354 -0.0637296,0.0729313 -0.0727267,0.0906528 -0.0241286,0.0477119 -0.03408,0.0552099 -0.057527,0.0354434 -0.0193574,-0.0163585 -0.0163584,-0.0129506 -0.0218112,-0.0129506 -0.0107011,0 -0.05398271,0.0490749 -0.05398271,0.0647519 -0.0071568,0.0190845 -0.0044983,0.0224924 -0.01567677,0.0565728 -0.0079747,0.0361249 -0.0066115,0.0402144 -0.03530686,0.0695229 C 0.01497925,1.0265577 0.00121093,1.0456417 9.3828412e-4,1.0517757 -0.01037629,1.1792349 0.04640097,1.1799164 0.1533439,1.30942 c 0.0154042,0.016359 0.0439632,0.040214 0.0633888,0.053165 0.0342844,0.022493 0.0379651,0.023174 0.1040121,0.023174 0.037488,0 0.0684326,-0.00204 0.0684326,-0.00477 0,-0.0075 0.0388512,-0.027945 0.0548688,-0.029991 0.0392601,-0.011587 0.0838367,0 0.11553109,0.028627 0,0.00477 0.0368064,0.00682 0.0971279,0.00682 0.074567,0 0.10019515,-0.00204 0.11041914,-0.010224 0.0170401,-0.01295 0.0420547,-0.01295 0.0470304,6.825e-4 0.002931,0.00818 0.0148589,0.010224 0.0449856,0.010224 0.0472348,0 0.0685007,-0.012269 0.0685007,-0.041577 0,-0.02113 0.0143137,-0.034762 0.0299904,-0.028627 0.006134,0.00204 0.020448,0.022493 0.0313536,0.044304 0.0163584,0.032036 0.0263098,0.042941 0.0524832,0.056573 0.046144,0.023856 0.1085788,0.023856 0.1692411,-6.781e-4 0.052483,-0.020448 0.1397281,-0.092016 0.1908479,-0.1554051 0.018403,-0.022492 0.040896,-0.049756 0.05112,-0.061344 0.010224,-0.010906 0.027264,-0.041577 0.037488,-0.06816 0.022493,-0.057254 0.027945,-0.064752 0.049757,-0.064752 0.023856,0 0.049075,-0.027946 0.086563,-0.0961058 0.031354,-0.0579359 0.032035,-0.0586174 0.031354,-0.12268769 -6.82e-4,-0.11246421 -0.0075,-0.14927015 -0.032717,-0.18062405 l -0.023856,-0.0340799 0.014995,-0.0327164 c 0.014313,-0.0313539 0.014995,-0.0361254 0.00682,-0.0872448 -0.00477,-0.0299904 -0.012269,-0.0633893 -0.01704,-0.0749763 C 1.5944542,0.41108092 1.5017565,0.29248268 1.4881244,0.2883927 1.4472284,0.2754427 1.3920194,0.2406808 1.3920194,0.2284123 c 0,-0.008179 0.010224,-0.0102245 0.050438,-0.0102245 0.046349,0 0.062026,-0.001361 0.075657,-0.021811 L 1.5331094,0.1732024 1.5303794,0.1582074 1.5106134,0.136396 c -6.826e-4,-6.8297e-4 -0.00136,-0.002044 -0.00273,-0.00341 L 1.5058334,0.130942 C 1.4813043,0.10640096 1.3742932,0.01506668 1.3579347,0.01097719 1.3312842,0.00545591 1.3067467,0.00136642 1.2808459,0.00136642 Z m 0.0075,0.02337885 c 0.015472,0.002727 0.03408,0.005794 0.039805,0.006816 0.019358,0.003205 0.046826,0.02828643 0.064411,0.04457659 0.017722,0.01635846 0.044508,0.03489801 0.057936,0.04403119 0.03224,0.0218114 0.050711,0.0327169 0.061071,0.0374879 -0.00429,0.0165629 -0.013496,0.0209255 -0.031354,0.0289679 -0.042123,0.019085 -0.092016,0.0119285 -0.1582675,-0.0224924 -0.02999,-0.015677 -0.057936,-0.0284225 -0.062707,-0.0284225 -0.00409,0 -0.019767,0.0122685 -0.03408,0.0272639 -0.025901,0.0272639 -0.025901,0.0272639 -0.00954,0.0313534 0.00954,0.002727 0.031354,0.006816 0.049757,0.008861 0.039533,0.006134 0.053165,0.0211294 0.039533,0.0429404 -0.00545,0.009543 -0.00613,0.0170399 -0.00204,0.0224929 0.00409,0.004771 0.0075,0.0218114 0.00886,0.0388514 0.00204,0.0259005 0.00477,0.0313534 0.017722,0.0327164 0.014314,0.002044 0.014995,6.8257e-4 0.011587,-0.0272639 -0.00545,-0.0395324 0.00818,-0.0524829 0.040214,-0.0374879 0.012269,0.005452 0.033398,0.0143135 0.046349,0.0190849 0.033398,0.0129506 0.06816,0.0354429 0.089971,0.0586174 0.054528,0.0613439 0.105648,0.22492795 0.050438,0.28150081 -0.023174,0.0197665 -0.068841,0.0654333 -0.087245,0.0886078 -0.011587,0.0143135 -0.01704,0.0558914 -0.00682,0.0552094 0.00886,0 0.025219,-0.0156766 0.03817,-0.0361244 0.036806,-0.0572544 0.077021,-0.0824733 0.099514,-0.0627074 0.02113,0.019085 0.032717,0.11110074 0.021811,0.16971859 -0.015677,0.0817918 -0.027945,0.11382721 -0.056573,0.14518014 -0.039533,0.0429409 -0.053165,0.0388514 -0.053165,-0.0156766 0,-0.0129506 -0.00204,-0.022493 -0.00409,-0.0197665 -0.00205,0.002727 -0.013632,-0.0190843 -0.025219,-0.0483932 -0.026583,-0.0661154 -0.078385,-0.13904666 -0.1226885,-0.1724446 -0.09815,-0.0742943 -0.1335935,-0.0981502 -0.1717631,-0.1158722 -0.04703,-0.0211295 -0.054528,-0.0293089 -0.042941,-0.0429404 0.00409,-0.004771 0.00545,-0.012269 0.00341,-0.0163589 -0.00273,-0.004088 6.826e-4,-0.00886 0.0075,-0.011587 0.00682,-0.002727 0.020448,-0.0102239 0.030672,-0.0170399 0.010224,-0.006816 0.024538,-0.012269 0.032717,-0.012269 0.019766,0 0.018403,-0.0211294 -0.00273,-0.0463484 -0.019766,-0.0231744 -0.02113,-0.0306724 -0.00682,-0.0422594 0.010906,-0.00886 0.014314,-0.0545279 0.00341,-0.0545279 -0.01295,0 -0.054528,0.0429404 -0.054528,0.0558913 0,0.007498 0.00682,0.025219 0.014995,0.0395324 l 0.014995,0.0259009 -0.023175,0.0265824 c -0.01295,0.0143135 -0.027945,0.0265824 -0.033398,0.0265824 -0.00545,0 -0.015677,-0.0102239 -0.023175,-0.0238559 -0.00682,-0.012951 -0.01704,-0.0259009 -0.022493,-0.0286274 -0.01295,-0.007497 -0.011587,-0.020448 0.00409,-0.0483934 0.022493,-0.0381699 0.047712,-0.10769274 0.047712,-0.13223067 0,-0.0306719 -0.020448,-0.0613438 -0.051802,-0.0777023 -0.032717,-0.0163579 -0.1138271,-0.018403 -0.14313589,-0.002727 -0.0109057,0.006135 -0.0252192,0.0102245 -0.0327168,0.0102245 -0.006816,0 -0.0333984,0.0122684 -0.0586176,0.0272634 -0.0347616,0.0211299 -0.0518015,0.0368069 -0.0708863,0.0667973 l -0.0518016,0.0749758 c -0.0402826,0.062639 -0.0668649,0.086495 -0.1173033,0.10557945 -0.0490751,0.0184035 -0.0586176,0.0299909 -0.0451219,0.0511204 0.0129504,0.0204479 0.030672,0.0163584 0.0939244,-0.0211294 0.0279456,-0.02113 0.0620256,-0.0340804 0.0756576,-0.0627073 0.010224,-0.0197665 0.0892895,-0.11041924 0.11450871,-0.13154869 0.0293088,-0.0245379 0.0899711,-0.0497569 0.12998103,-0.0545284 0.008179,-8.2029e-4 0.015677,-0.001365 0.0224931,-0.001365 0.029309,0.001094 0.046008,0.0134275 0.06407,0.0443044 l 0.016358,0.0282859 -0.01295,0.0306719 c -0.00709,0.0166994 -0.02113,0.0368064 -0.030672,0.0443044 -0.00954,0.007497 -0.017722,0.0170399 -0.017722,0.0207885 0,0.003751 0.017517,0.0245379 0.038851,0.0456674 l 0.038647,0.0388509 -0.015677,0.012269 c -0.022081,0.0177206 -0.062022,0.0122681 -0.094739,-0.0136328 -0.0159494,-0.012269 -0.0159494,-0.0129505 -0.004771,-0.0497569 0.0313536,-0.10155826 0.0316944,-0.10564775 0.01704,-0.13972767 -0.012269,-0.0279459 -0.0156768,-0.0313539 -0.030672,-0.0272639 -0.0742943,0.0190845 -0.15063348,0.0688413 -0.20175345,0.13154866 -0.027264,0.0279454 -0.0586176,0.0572539 -0.0838368,0.0831548 -0.0188122,0.0190849 -0.0440313,0.0388514 -0.0561638,0.0429409 -0.0122688,0.004088 -0.023856,0.011587 -0.0259007,0.0163585 -0.004771,0.0129506 0.0231743,0.0293089 0.0483935,0.0293089 0.0122688,0 0.023856,0.003069 0.0259008,0.006475 0.006816,0.010565 -0.003612,0.0279454 -0.0166992,0.0279454 -0.0136319,0 -0.0354432,0.0259009 -0.0293087,0.0350346 0.007498,0.0122686 0.0497567,0.005452 0.0674783,-0.0102245 0.0231744,-0.0224925 0.0770207,-0.050438 0.0831551,-0.0443035 0.007498,0.007497 -0.044304,0.0783838 -0.06816,0.0933788 -0.0115872,0.007497 -0.0299904,0.0211294 -0.0402143,0.0306719 -0.0245376,0.0224929 -0.037488,0.0218109 -0.0463488,-0.00341 -0.006816,-0.0190849 -0.0327168,-0.0299904 -0.0327168,-0.013632 0,0.004088 -0.00409,0.006816 -0.009542,0.006816 -0.0102239,0 -0.0361248,0.0293089 -0.0606624,0.0681598 -0.0143137,0.0231744 -0.0170399,0.0238564 -0.0613439,0.0259009 -0.0333984,0.001365 -0.05112,-6.8257e-4 -0.0627072,-0.008179 -0.008861,-0.006134 -0.0211296,-0.0109059 -0.0279456,-0.0109059 -0.0143137,0 -0.0845183,0.0354434 -0.0845183,0.0422594 0,0.00341 -0.0156768,0.005452 -0.03408,0.005452 -0.0361247,0 -0.0518016,-0.0129499 -0.0408959,-0.0333979 0.003408,-0.005453 0.0115872,-0.0252194 0.0184032,-0.0429409 0.006816,-0.018403 0.0224928,-0.0436224 0.0354432,-0.0565729 0.0415775,-0.0415774 0.10292149,-0.0456669 0.10292149,-0.006135 0,0.0252194 0.0211296,0.0333984 0.05112,0.02113 0.0197663,-0.008179 0.0838367,-0.0545284 0.12200627,-0.0865633 0.0149952,-0.0129506 -0.0156768,-0.0279454 -0.0640703,-0.0313534 -0.0402144,-0.00341 -0.0483936,-0.005453 -0.0470304,-0.0149954 0.002045,-0.00886 0.0115872,-0.0109055 0.0497568,-0.0102239 0.0259008,0 0.0565728,0.001365 0.06816,0.00341 0.0170399,0.002727 0.0197663,0.001365 0.0177216,-0.0109055 -6.8054e-4,-0.007498 -0.0102239,-0.0218114 -0.0197665,-0.0320349 -0.0109055,-0.0115874 -0.0170399,-0.0259009 -0.0170399,-0.0381699 0.001363,-0.0333984 0.0429408,-0.0954238 0.11859832,-0.17585258 0.0218112,-0.0231744 0.0402144,-0.0456674 0.0402144,-0.0497569 0,-0.0197665 -0.0531647,0.002044 -0.0708863,0.0293084 -0.006134,0.009543 -0.0170401,0.0204485 -0.0245377,0.024538 -0.0122688,0.006816 -0.0143136,0.004771 -0.0177215,-0.013632 -0.004771,-0.0252194 -0.0245376,-0.0279454 -0.0388512,-0.005453 -0.005453,0.008861 -0.013632,0.0422594 -0.0184032,0.0749758 -0.010224,0.0749763 -0.0313536,0.10701125 -0.0865631,0.13223067 -0.054528,0.0245374 -0.10496629,0.0143135 -0.10496629,-0.0211294 6.8149e-4,-0.0518018 0.0395328,-0.10837471 0.0940607,-0.13495666 0.0177216,-0.008861 0.0504384,-0.0347619 0.0736127,-0.0586178 0.0231744,-0.0231744 0.0456672,-0.0422594 0.0497568,-0.0422594 0.0109057,0 0.0722496,-0.0272639 0.0770208,-0.0333979 0.004089,-0.006134 0.0872447,-0.0490754 0.12336951,-0.0640703 0.0129504,-0.005453 0.0449856,-0.0136324 0.0708864,-0.0190849 0.0463488,-0.008861 0.0470304,-0.008861 0.0592992,0.007497 l 0.0122688,0.0163585 0.0368064,-0.0129506 c 0.0197663,-0.007497 0.047712,-0.0190845 0.061344,-0.0259004 0.027264,-0.0136325 0.0633887,-0.0163585 0.0702048,-0.005453 0.00204,0.004088 0.01295,0.006816 0.024538,0.006816 0.017722,0 0.025901,-0.007497 0.059981,-0.0558914 0.047712,-0.06679634 0.071568,-0.10223975 0.09815,-0.10155825 0.018403,0 0.032717,-6.8297e-4 0.045667,-6.8297e-4 z M 0.65786439,0.10857864 c 0.0259008,-2.9267e-4 0.0549369,0.0141774 0.0688415,0.0354434 0.013223,0.0201069 0.009747,0.0276044 -0.0194256,0.0422589 -0.0119279,0.006134 -0.0286271,0.0173127 -0.0369426,0.025015 -0.0131549,0.0119958 -0.0177216,0.0128139 -0.0332621,0.005725 -0.0159494,-0.007225 -0.0192211,-0.006407 -0.0286272,0.007089 -0.0205843,0.0293089 -0.0606623,0.0666607 -0.0790656,0.0736128 -0.0287635,0.0109055 -0.0380332,0.008724 -0.0380332,-0.009133 0,-0.0261736 0.0184032,-0.0627073 0.0471667,-0.0939247 0.027264,-0.0303992 0.0586176,-0.0734767 0.10837434,-0.0849271 0.003408,-6.8297e-4 0.006816,-0.001024 0.0102239,-0.001093 z m 0.2695726,0.31203614 c 0.0343526,0 0.0421229,0.0115874 0.0396691,0.0579363 l -0.002045,0.0388514 -0.0477119,0.0163579 c -0.0262416,0.008861 -0.0531648,0.0163585 -0.0599808,0.01704 -0.01704,6.8298e-4 -0.0356477,-0.0449854 -0.0276729,-0.0667963 0.009542,-0.0252194 0.0674783,-0.0620258 0.0981503,-0.0620258 z M 0.500892,0.55959313 c 0.003135,4.8812e-4 0.006407,0.004088 0.0122688,0.0113148 0.00668,0.008383 0.0122688,0.0211294 0.0122688,0.0281498 0,0.009543 -0.004976,0.012269 -0.0193574,0.012269 -0.0106331,0 -0.021334,-0.002044 -0.023856,-0.004771 -0.008179,-0.008179 -0.004771,-0.0286269 0.00702,-0.0402139 0.005453,-0.005453 0.00852,-0.008179 0.0115872,-0.007497 z m 0.42375045,0.001161 c 5.4484e-4,0 0.001023,1.9513e-4 0.001363,3.9091e-4 0.006543,0.002727 0.0216067,0.006407 0.033671,0.008179 0.0284909,0.003951 0.0338755,0.0111781 0.0563682,0.0762032 0.01036,0.02999 0.020175,0.0531644 0.021811,0.0518014 0.00177,-0.001365 0.00838,0.014995 0.014859,0.0361249 0.016358,0.0552094 0.046212,0.11723519 0.055891,0.11723519 0.013087,0 0.016086,-0.015677 0.009,-0.0477124 -0.00818,-0.0361244 -9.539e-4,-0.0456674 0.025901,-0.0347614 0.025901,0.0109055 0.046826,0.0436224 0.066115,0.10223976 0.019562,0.0599808 0.03299,0.0763393 0.062503,0.0763393 h 0.022152 l -0.00886,-0.0286277 c -0.00954,-0.0306719 -0.034762,-0.0892893 -0.062025,-0.14381716 -0.009,-0.0177219 -0.016359,-0.0368064 -0.016359,-0.0415779 0,-0.0109055 -0.017176,-0.018403 -0.04519,-0.020448 -0.016835,-6.8295e-4 -0.030672,-0.0109055 -0.064752,-0.0477119 -0.023856,-0.0252189 -0.042804,-0.0483934 -0.042123,-0.0504384 0.00613,-0.018403 0.1273228,0.0340799 0.1716268,0.0749758 0.012269,0.0109059 0.024537,0.0204479 0.027673,0.0204479 0.012951,0 0.1391826,0.13223067 0.161062,0.16835558 0.045667,0.0756573 0.060253,0.15131519 0.041032,0.21334059 -0.026582,0.085881 -0.063389,0.1465436 -0.1277999,0.209251 -0.054323,0.053165 -0.1162808,0.087245 -0.1843045,0.1008767 -0.0289,0.00613 -0.053437,0.010224 -0.054528,0.010224 l -0.023856,-0.00682 c -0.032717,-0.00954 -0.056982,-0.04703 -0.0828826,-0.1288222 -0.004226,-0.013632 -0.007702,-0.057254 -0.007702,-0.09815 0,-0.064752 -0.001363,-0.07225 -0.0102239,-0.064752 -0.005657,0.00477 -0.0102239,0.014314 -0.0102239,0.020447 0,0.00682 -0.004635,0.015677 -0.0102241,0.020448 -0.00777,0.00682 -0.0102239,0.023856 -0.0102239,0.072249 0,0.035443 -0.002317,0.06407 -0.00518,0.06407 -0.002726,0 -0.0149952,-0.00273 -0.027264,-0.00613 -0.0286272,-0.00818 -0.0456672,-0.00273 -0.03408,0.010906 0.004771,0.00545 0.0170399,0.014313 0.0272639,0.019766 0.0224928,0.011587 0.0245376,0.023174 0.006816,0.039533 -0.0170401,0.015677 -0.0333984,0.014313 -0.071568,-0.00818 -0.0320352,-0.018403 -0.0518016,-0.020447 -0.0695231,-0.00613 -0.00409,0.00341 -0.03408,0.010224 -0.0667968,0.015677 -0.0497567,0.00818 -0.0654335,0.00818 -0.10087675,0 -0.0613439,-0.012951 -0.066115,-0.015677 -0.10155822,-0.053165 -0.0333983,-0.035443 -0.0368063,-0.034762 -0.0408959,0.00545 -0.001363,0.015677 -0.005453,0.02113 -0.0184032,0.023175 -0.008861,0.00137 -0.0224928,0.00682 -0.0299904,0.012269 -0.0224928,0.016358 -0.0368063,0.011587 -0.05112,-0.01704 -0.007498,-0.014995 -0.0211296,-0.032035 -0.0293088,-0.037488 -0.0340799,-0.022493 -0.0415776,-0.067478 -0.0129504,-0.079065 0.0470303,-0.018403 0.0974687,-0.042941 0.0974687,-0.04703 0,-0.00818 0.0988319,-0.078384 0.13768308,-0.09815 0.020448,-0.010224 0.0429408,-0.021811 0.0504384,-0.025901 0.007497,-0.00341 0.0374879,-0.0075 0.0661151,-0.0075 0.0286272,0 0.0552096,-0.00273 0.057936,-0.00613 0.002726,-0.00273 -0.003408,-0.012951 -0.0143137,-0.022492 -0.0177216,-0.0149955 -0.023856,-0.0163586 -0.057936,-0.012269 -0.0211295,0.002727 -0.0408959,0.007498 -0.0443039,0.0109054 -0.003408,0.00341 -0.0129503,0.00613 -0.0218112,0.00613 -0.008179,0 -0.0170401,0.00341 -0.0190847,0.00682 -0.002045,0.00341 -0.0211296,0.014995 -0.0429407,0.025219 -0.040896,0.019085 -0.0886079,0.047713 -0.10019507,0.059981 -0.030672,0.032035 -0.12064314,0.074295 -0.2031167,0.095424 -0.0879263,0.023175 -0.0940607,0.022493 -0.12268789,-0.00954 C 0.051994,1.1410557 0.03631724,1.0994777 0.04381482,1.058582 0.04790432,1.036771 0.04994922,1.035408 0.08334762,1.032 0.1106116,1.02859 0.12901476,1.0313174 0.16309472,1.043588 c 0.0293088,0.010223 0.05112,0.014313 0.064752,0.010905 0.0115872,-0.00204 0.0333984,-0.00477 0.0497568,-0.00477 0.0163583,-6.826e-4 0.0279456,-0.00341 0.0259007,-0.00613 -0.003408,-0.00682 0.14927033,-0.0599809 0.22220145,-0.0777024 0.11110072,-0.0265824 0.15744945,-0.0163585 0.26718699,0.0592989 0.06816,0.04703 0.10769272,0.057254 0.16358388,0.043622 0.0429408,-0.010224 0.0606624,-0.019766 0.047712,-0.025219 -0.0109055,-0.00477 -0.0102239,-0.026582 0.00136,-0.0606624 0.01295,-0.0361249 0.01295,-0.10973773 0,-0.16562859 -0.0115872,-0.0531649 -0.0218111,-0.0749763 -0.0586176,-0.13154915 -0.0129503,-0.0190849 -0.007498,-0.0293085 0.0115872,-0.021811 0.008861,0.00341 0.0109055,6.8257e-4 0.008861,-0.0115874 -0.002726,-0.0224925 -0.0327168,-0.0245374 -0.0831551,-0.006816 -0.0361248,0.0122686 -0.0381696,0.0122686 -0.0381696,0.001365 0,-0.0190849 0.06816,-0.0811103 0.0858816,-0.0790658 z M 0.3979705,0.66912888 c 0.007293,0 0.0152678,0.001025 0.0235152,0.003205 0.0361248,0.009815 0.0398054,0.0295128 0.007497,0.0407593 -0.0422592,0.0146545 -0.0774297,0.006475 -0.0729311,-0.0170399 0.003272,-0.0167673 0.0199026,-0.0267185 0.0419183,-0.0269229 z m 0.692028,0.0240603 c 0.011587,0 0.036806,0.0338072 0.032921,0.0440312 -0.00545,0.013973 -0.013496,0.0133593 -0.027264,-0.001839 -0.011724,-0.0129503 -0.015677,-0.0422589 -0.00573,-0.0422589 z m -0.22438257,0.0214022 c 0.006134,1.4633e-4 0.0125414,0.00341 0.0245376,0.009747 0.0136319,0.007293 0.029854,0.0216748 0.0359884,0.0320354 0.006134,0.0102239 0.0134958,0.0186756 0.0163585,0.0186756 0.008179,0 0.0254236,0.0381694 0.0203117,0.0449854 -0.002522,0.00341 -0.0199028,0.006816 -0.0386467,0.006816 -0.0301948,0 -0.0343526,0.002044 -0.0362611,0.015677 -0.002931,0.020448 -0.007498,0.0197665 -0.0402143,-0.008179 -0.0154041,-0.0129506 -0.0310128,-0.0238559 -0.0347616,-0.0238559 -0.009542,0 -0.0421228,0.0402144 -0.0421228,0.0518019 0,0.0177214 -0.0308765,0.0102239 -0.0531648,-0.0129506 -0.031081,-0.0320348 -0.0286273,-0.0470303 0.0118597,-0.0715678 0.0190847,-0.0115874 0.037488,-0.0272644 0.0415776,-0.0347619 0.006134,-0.011587 0.0115872,-0.0136319 0.0286272,-0.009542 0.0143137,0.00341 0.0279456,6.8256e-4 0.0436223,-0.007498 0.0115872,-0.005452 0.0170401,-0.00886 0.0231744,-0.00886 z m -0.26500589,0.0764754 c 0.009133,-3.423e-4 0.019221,0.0119964 0.0333984,0.0391919 0.0171764,0.0333984 0.0177216,0.0490749 0.002181,0.0627073 -0.0286272,0.0252189 -0.0836323,0.0190849 -0.0833596,-0.009543 0,-0.0170399 0.0190847,-0.0620258 0.0354432,-0.0831553 0.00409,-0.004771 0.007498,-0.007498 0.0115872,-0.008179 z m 0.0636614,0.0458718 c 0.007021,6.8257e-4 0.0195619,0.0109055 0.0386467,0.0306719 0.0524832,0.0531649 0.06816,0.0538464 0.0892896,0.004771 0.007498,-0.0163579 0.0163583,-0.0299904 0.0204479,-0.0299904 0.00409,0 0.0170401,0.008861 0.0279456,0.0204484 0.0109057,0.011587 0.023856,0.0204475 0.027264,0.0204475 0.0143137,0 0.0470303,-0.021811 0.0470303,-0.0306719 0,-0.0143135 0.0299904,-0.0129499 0.0436224,0.002044 0.008179,0.008861 0.0115872,0.0252194 0.0115872,0.0565729 0,0.0259009 0.003408,0.0477124 0.008861,0.0524834 0.006816,0.006816 0.006134,0.009543 -0.001363,0.0143135 -0.0156768,0.009543 -0.0538464,0.007498 -0.0654336,-0.00341 -0.0149951,-0.0149948 -0.0293088,-0.0122684 -0.0361247,0.006816 -0.010224,0.0279455 -0.0436224,0.0231745 -0.0858815,-0.0129504 -0.0347616,-0.0293084 -0.0558912,-0.0402139 -0.0926975,-0.0483934 -0.0197664,-0.004771 -0.0265824,-0.0163585 -0.0347616,-0.0599809 -0.002726,-0.0177215 -0.001363,-0.0259004 0.005453,-0.0252194 z m -0.51971965,0.0197665 c 0.006816,0 0.0122688,0.002727 0.0122688,0.006816 0,0.00341 0.0122688,0.0238564 0.027264,0.0443044 0.0245376,0.0333984 0.0293088,0.0368064 0.0524832,0.0368064 0.0286271,-6.8257e-4 0.0961055,-0.0143135 0.10837427,-0.0218114 0.00409,-0.002727 0.0347616,-0.0109055 0.06816,-0.018403 0.0327168,-0.007498 0.0681599,-0.0149954 0.0777023,-0.017722 0.0224928,-0.006134 0.0320352,0.007498 0.0149952,0.0204484 -0.0115872,0.00886 -0.0552095,0.0231744 -0.19493746,0.0654334 -0.0954239,0.0320349 -0.24742064,0.0763393 -0.19221107,-0.0845183 0.008179,-0.0231745 0.0149952,-0.0327169 0.0245376,-0.0327169 z m 0.0633887,0.37760602 c 0.0368064,-0.00137 0.057936,0.00682 0.057936,0.02113 0,0.00204 0.009542,0.01704 0.0211297,0.032035 l 0.0218112,0.027264 -0.0170401,0.012268 c -0.009542,0.00682 -0.0231743,0.012269 -0.030672,0.012951 -0.0327168,0 -0.1015583,-0.06407 -0.0974687,-0.091334 0.001363,-0.012951 0.006134,-0.014995 0.0422591,-0.015677 z" />
    <path
       transform="matrix(9.375084e-4,0,0,9.375084e-4,-2.3473975e-5,0)"
       inkscape:connector-curvature="0"
       id="path38"
       d="m 1146.6732,1500.0525 c -20.8354,-6.0131 -29.521,-11.3218 -43.4385,-26.5498 -21.6969,-23.7399 -52.6813,-96.8692 -57.846,-136.528 -1.2977,-9.9647 -2.8529,-42.4797 -3.456,-72.2555 -1.5775,-77.8844 -2.5864,-84.898 -11.4183,-79.3824 -6.1541,3.8433 -10.9876,12.6424 -13.7736,25.0741 -1.2949,5.7782 -5.3025,14.1743 -8.9057,18.658 -8.96253,11.1527 -10.60121,22.3797 -12.87031,88.1776 -1.05918,30.713 -2.53279,56.4488 -3.2747,57.1907 -0.74189,0.7419 -9.58733,-0.6944 -19.65653,-3.1919 -26.00827,-6.4508 -37.30791,-7.7516 -44.27169,-5.0963 -13.37199,5.0988 -3.80528,19.8041 22.7788,35.014 24.64075,14.098 28.16287,23.8087 13.9576,38.4817 -19.79954,20.4515 -30.1124,20.0435 -75.45667,-2.985 -28.44467,-14.4459 -33.03762,-16.102 -46.81762,-16.8806 -13.75065,-0.777 -16.45316,-0.2 -27.01858,5.7679 -25.02926,14.1379 -115.07318,28.6667 -152.03569,24.5314 -26.18591,-2.9297 -79.3667,-16.1242 -93.15931,-23.1134 -7.41357,-3.7567 -22.4049,-16.4573 -41.82874,-35.4369 -40.40468,-39.4808 -42.79221,-39.4306 -48.18131,1.0123 -2.59139,19.4472 -5.80104,23.5759 -20.83433,26.7999 -6.21491,1.3329 -19.44466,6.8632 -29.39942,12.2895 -10.10248,5.5069 -21.04743,9.8661 -24.77143,9.8661 -8.50647,0 -18.61991,-8.4288 -26.13016,-21.7776 -11.39816,-20.2591 -19.44188,-30.4552 -39.47499,-50.038 -16.15655,-15.7933 -21.08996,-22.1291 -23.96462,-30.7771 -4.58872,-13.8045 -4.5891,-23.9648 -0.001,-33.6331 3.93326,-8.2888 8.85074,-11.2943 38.51873,-23.5425 45.88929,-18.9451 70.64855,-32.3973 85.77334,-46.6024 46.6538,-43.817 174.39721,-122.791 209.38121,-129.4446 7.12081,-1.3543 33.33147,-3.4088 58.24593,-4.5657 49.19163,-2.2841 58.16842,-3.738 59.29869,-9.6042 1.87542,-9.7339 -21.86456,-32.046 -38.9539,-36.611 -15.8045,-4.2219 -73.56354,4.0058 -86.18728,12.2772 -2.82144,1.8487 -12.37543,4.6212 -21.2311,6.1612 -12.07741,2.1002 -18.25719,4.5246 -24.72836,9.7011 -4.74496,3.7956 -29.70415,17.7894 -55.46491,31.0973 -51.54282,26.6269 -79.69184,44.0092 -97.31787,60.095 -40.63773,37.0865 -127.72136,76.7964 -222.65603,101.5306 -61.1008,15.9191 -80.61013,17.971 -95.86501,10.0824 -14.41496,-7.4543 -49.604234,-49.4905 -62.144446,-74.2362 -12.029711,-23.7383 -16.126625,-42.0379 -14.995385,-66.9795 1.714903,-37.8103 4.959025,-40.4946 51.666199,-42.7502 29.660722,-1.4324 35.375822,-0.4813 76.039612,12.6542 38.02068,12.2818 51.74027,14.0221 78.44466,9.9505 12.15339,-1.853 27.67898,-3.375 34.50131,-3.3821 15.40863,-0.015 35.95472,-3.7692 36.96842,-6.7528 3.29258,-9.6907 147.28836,-60.3833 231.26036,-81.4133 48.35293,-12.1095 64.07503,-14.3711 100.54174,-14.4629 28.99726,-0.073 37.10808,0.6908 52.88171,4.9801 36.07807,9.8107 68.49914,26.3942 125.801,64.348 17.78945,11.7828 39.47861,25.5844 48.19812,30.6702 35.74783,20.8506 71.68401,30.5688 103.47062,27.9817 32.47814,-2.6434 85.76624,-18.839 88.90584,-27.0207 0.7225,-1.8828 -1.3991,-5.2859 -5.1704,-8.2935 -5.9416,-4.7384 -6.3688,-6.0957 -6.0179,-19.1198 0.217,-8.052 3.2516,-23.8606 7.1294,-37.1394 10.2392,-35.0621 12.021,-52.2286 10.6436,-102.54574 -1.0368,-37.87907 -2.1922,-49.07387 -7.7838,-75.41775 -11.4545,-53.96613 -21.8749,-79.44985 -52.4066,-128.16311 -9.1408,-14.58408 -17.2404,-28.90855 -17.9993,-31.83216 -2.0652,-7.95672 3.7666,-11.32904 14.7642,-8.53756 13.2501,3.36325 16.1388,1.36101 14.2917,-9.90602 -1.8033,-10.9997 -6.0859,-16.58509 -15.9023,-20.73991 -13.9062,-5.88591 -30.89293,-3.55225 -76.00356,10.4415 -34.27428,10.63221 -37.31495,10.81637 -37.31495,2.25996 0,-16.65613 57.63822,-73.67703 82.9031,-82.01519 4.49874,-1.48472 7.1269,-3.53796 6.28087,-4.90689 -0.9713,-1.57158 0.54174,-1.8528 4.55256,-0.84615 3.30398,0.82926 13.64458,3.07763 22.97908,4.99638 34.7531,7.14368 35.5176,8.23488 67.8789,96.89187 4.4362,12.15339 11.8515,29.08038 16.4785,37.61553 4.6269,8.53514 13.3766,30.41126 19.4436,48.61359 18.2284,54.68857 40.8848,103.44931 53.2787,114.66564 6.8657,6.21334 14.7268,1.97822 17.8488,-9.61584 1.9159,-7.11497 1.4672,-14.6467 -2.2409,-37.61682 -3.9577,-24.51566 -4.2089,-29.6171 -1.7161,-34.84379 7.8997,-16.56353 41.8692,-1.43267 61.7916,27.52349 10.8606,15.78528 22.6683,41.623 36.1251,79.04848 14.7146,40.92421 20.4365,53.05511 30.3508,64.34685 10.6202,12.09574 21.507,16.20144 43.1124,16.25904 10.0265,0.027 18.2301,-0.491 18.2301,-1.1505 0,-0.6594 -4.1006,-13.83479 -9.1125,-29.2786 -10.8317,-33.37759 -26.7864,-71.23891 -58.2691,-138.27626 -12.7654,-27.18167 -23.8449,-52.78478 -24.6213,-56.89581 -2.8632,-15.16182 -12.0544,-20.64909 -42.1561,-25.16784 -18.2011,-2.73226 -23.2507,-4.44472 -33.0909,-11.22187 -19.1275,-13.17365 -86.8659,-86.06784 -86.8664,-93.47822 -3e-4,-4.64157 21.7918,-1.98829 43.0891,5.24627 23.7301,8.06096 74.939,32.84538 99.4369,48.1261 10.938,6.82268 28.3395,19.49699 38.6699,28.16512 10.3304,8.66814 23.7544,18.28965 29.8311,21.38114 19.1461,9.74047 128.3926,122.20789 162.1887,166.97057 22.3365,29.5844 48.3439,91.3508 56.3944,133.9337 4.456,23.5699 4.4947,64.1441 0.082,85.5093 -7.7993,37.759 -33.4626,100.0505 -57.6618,139.9603 -17.1162,28.2285 -40.2884,57.4097 -69.2737,87.2379 -44.2519,45.5387 -75.8369,69.2324 -122.6652,92.0182 -30.6959,14.9362 -50.3972,21.7434 -85.3893,29.5038 -54.7717,12.1472 -56.5282,12.3087 -75.2168,6.915 z"
       style="fill:#ffffff;stroke-width:2.20970869" />
    <path
       transform="matrix(9.375084e-4,0,0,9.375084e-4,-2.3473975e-5,0)"
       inkscape:connector-curvature="0"
       id="path40"
       d="m 895.01254,1062.9047 c -14.20761,-3.9444 -27.90039,-12.4205 -58.2694,-36.0696 -31.90213,-24.8431 -48.38738,-33.78777 -78.19288,-42.42663 -26.92765,-7.80475 -32.03014,-10.81827 -37.94349,-22.4094 -9.08937,-17.81663 -17.51377,-68.51095 -11.38518,-68.51095 3.90623,0 20.22702,13.4957 45.83026,37.89714 36.78034,35.05389 49.49787,42.28053 63.85157,36.28317 9.19524,-3.84202 16.18826,-13.19783 27.36818,-36.61526 11.72575,-24.56075 17.74274,-32.00439 24.21096,-29.95146 2.68838,0.85326 12.07706,8.20431 20.86373,16.33566 29.31724,27.13073 33.72265,28.70422 53.97078,19.27688 13.64484,-6.35292 31.61081,-22.245 31.61081,-27.96185 0,-8.56546 15.88785,-11.28885 30.42432,-5.21513 20.1426,8.41614 24.2158,19.24397 26.8911,71.48571 1.7839,34.83582 2.4566,39.07402 8.0009,50.40612 5.8248,11.9055 5.8987,12.4854 1.9589,15.3663 -6.3513,4.6442 -18.5024,7.3477 -33.0247,7.3477 -17.48146,0 -28.16586,-3.176 -41.46884,-12.3269 -17.18097,-11.8184 -26.0217,-9.2948 -35.9288,10.2559 -8.67799,17.1252 -20.00308,22.0424 -38.76822,16.8326 z"
       style="fill:#ffffff;stroke-width:2.20970869" />
    <path
       transform="matrix(9.375084e-4,0,0,9.375084e-4,-2.3473975e-5,0)"
       inkscape:connector-curvature="0"
       id="path42"
       d="m 791.89255,923.41212 c -22.30177,-10.38308 -46.99176,-38.79498 -46.97582,-54.05721 0.0133,-12.75166 6.5962,-20.23505 34.82815,-39.59254 16.02155,-10.98531 32.41318,-24.48348 41.1373,-33.8757 l 14.50301,-15.61369 10.55679,1.91728 c 17.87282,3.24599 33.92,2.03496 45.91212,-3.46483 6.0767,-2.78688 16.71365,-7.34477 23.63766,-10.12865 l 12.58912,-5.06159 12.82253,6.09643 c 18.39305,8.74491 34.42542,22.28879 47.24058,39.90803 6.13583,8.436 13.82871,16.61606 17.09521,18.1779 6.2853,3.0052 18.6401,25.3602 21.3829,38.69051 1.3204,6.41761 0.8192,7.43039 -4.7745,9.64657 -3.4374,1.36188 -19.6738,3.32489 -36.08088,4.36224 -27.6004,1.74506 -30.17871,2.28545 -34.4802,7.22673 -2.55703,2.93734 -5.29417,9.37442 -6.08254,14.3046 -0.78837,4.93019 -2.39594,9.55887 -3.57238,10.28594 -3.36142,2.07748 -12.82451,-3.74356 -34.30954,-21.10485 -10.93806,-8.83866 -24.24286,-18.84293 -29.56623,-22.23172 -8.86258,-5.64179 -10.17675,-5.90395 -15.58258,-3.10849 -12.36197,6.39262 -36.41271,37.12967 -40.39732,51.62812 -1.22614,4.46143 -3.36161,8.84225 -4.74549,9.73514 -4.64934,2.99981 -13.48462,1.68522 -25.13789,-3.74022 z"
       style="fill:#ffffff;stroke-width:2.20970869" />
    <path
       transform="matrix(9.375084e-4,0,0,9.375084e-4,-2.3473975e-5,0)"
       inkscape:connector-curvature="0"
       id="path44"
       d="m 620.05993,967.67184 c -1.21534,-0.48222 -4.86759,-1.46064 -8.1161,-2.17426 -9.08135,-1.99495 -19.18177,-11.69042 -20.71986,-19.88915 -0.96329,-5.13479 0.68162,-13.38513 5.59059,-28.04059 12.46698,-37.21949 34.59245,-72.69331 45.33975,-72.69331 6.57447,0 20.22414,16.97496 31.85156,39.61117 12.4238,24.18658 16.78444,38.77541 14.78143,49.45234 -3.04704,16.24214 -27.34648,31.79816 -52.49063,33.60346 -7.71487,0.55391 -15.0214,0.61256 -16.23674,0.13034 z"
       style="fill:#ffffff;stroke-width:2.20970869" />
    <path
       transform="matrix(9.375084e-4,0,0,9.375084e-4,-2.3473975e-5,0)"
       inkscape:connector-curvature="0"
       id="path46"
       d="m 1635.0231,1086.3164 c -6.1072,-7.1083 -6.6684,-9.5357 -8.3708,-36.2051 -1.4645,-22.9432 -2.3209,-27.0651 -6.4165,-30.8806 -5.6166,-5.2328 -12.2798,-18.0565 -23.4277,-45.08821 -26.0849,-63.25119 -68.6378,-128.43369 -109.7717,-168.14812 -18.0457,-17.42289 -96.788,-76.87738 -140.4509,-106.0475 -15.5417,-10.38304 -44.8094,-27.24243 -65.0392,-37.46534 -38.935,-19.6752 -50.5019,-27.52827 -50.5019,-34.28684 0,-2.28521 2.0741,-8.13416 4.6091,-12.99766 3.2543,-6.24351 4.1768,-10.81067 3.1386,-15.53779 -1.2718,-5.79036 -0.6256,-7.16084 4.7822,-10.14192 3.4389,-1.89577 16.7839,-9.35427 29.6554,-16.57445 15.1704,-8.50972 27.9959,-14.01943 36.4602,-15.66292 16.5681,-3.21703 18.5817,-4.89601 18.5817,-15.4941 0,-10.67338 -4.8723,-20.33673 -20.8045,-41.26185 -15.7472,-20.68219 -16.4379,-25.54081 -5.2863,-37.18206 10.2282,-10.67729 16.0611,-40.58106 10.6775,-54.74103 -2.5447,-6.69294 -9.5797,-7.49721 -17.7931,-2.03414 -8.8887,5.91218 -30.5814,27.59477 -39.0331,39.01488 -7.0457,9.5202 -7.7451,11.70823 -6.82,21.336 1.0166,10.58017 10.3254,32.1363 23.5579,54.55271 l 6.7098,11.3667 -22.0815,23.30142 c -12.1448,12.81578 -25.5548,25.44806 -29.8,28.07174 -7.3165,4.52179 -8.0108,4.57885 -13.3277,1.09504 -3.085,-2.02137 -11.1158,-12.3109 -17.8462,-22.8656 -6.7304,-10.55472 -17.2261,-23.86814 -23.3239,-29.58543 -10.519,-9.86266 -11.0072,-10.81975 -9.5313,-18.68672 0.8555,-4.56039 10.38,-26.23339 21.1654,-48.16221 10.816,-21.99098 24.2954,-53.7435 30.0583,-70.80649 9.7498,-28.86735 10.4578,-32.48877 10.5878,-54.15912 0.1315,-21.88604 -0.2755,-24.06755 -7.0676,-37.88793 -8.651,-17.60292 -29.7295,-38.40865 -47.3642,-46.75116 -19.5739,-9.25999 -45.1657,-13.44585 -82.4307,-13.4826 -36.6748,-0.0362 -51.6893,2.43855 -73.1127,12.0506 -7.7123,3.46027 -19.43525,7.29203 -26.0509,8.515 -34.8734,6.44669 -100.46725,45.94552 -124.72106,75.1036 -5.68947,6.83991 -27.65126,37.78838 -48.80396,68.77438 -21.15272,30.98601 -42.45429,61.80723 -47.33684,68.4916 -30.77658,42.13419 -58.02527,63.56613 -103.76951,81.61791 -37.4305,14.77099 -54.60699,26.81282 -54.60699,38.28309 0,7.3825 8.51617,23.01038 14.7733,27.11019 15.15416,9.92939 52.90566,-5.27321 115.59951,-46.55207 37.66095,-24.79671 45.09656,-31.54492 60.77882,-55.16009 23.51872,-35.41576 95.79317,-117.41308 121.68392,-138.05377 16.72136,-13.33057 44.76561,-28.74093 71.65376,-39.37376 30.07635,-11.8936 50.22865,-16.45883 77.66855,-17.59482 23.954,-0.99168 26.5611,-0.68563 37.5651,4.40962 15.9316,7.37696 27.1188,19.38903 43.7717,46.99916 l 13.9683,23.15892 -8.4954,20.25872 c -11.4812,27.37928 -22.6709,44.32326 -40.9062,61.94242 -8.7531,8.45737 -15.2963,16.64328 -15.2963,19.13652 0,6.1983 12.6107,21.37807 48.5409,58.42982 17.2515,17.7901 30.8169,33.23488 30.1452,34.32173 -3.6553,5.91435 -25.8145,18.24022 -36.3669,20.22876 -21.0711,3.97075 -51.4907,-5.32348 -74.36,-22.71954 -12.2088,-9.28692 -14.3631,-12.35857 -14.3631,-20.47901 0,-3.87629 6.3522,-28.29687 14.1161,-54.26795 18.3952,-61.53391 22.0857,-78.59028 20.6739,-95.54791 -1.2401,-14.89596 -9.4975,-37.47131 -19.4409,-53.15044 -5.6998,-8.98752 -7.3087,-10.11206 -14.4682,-10.11206 -18.8985,0 -80.78585,25.35033 -117.37745,48.08025 -35.72441,22.19124 -55.60211,39.82395 -135.41024,120.11683 -44.35991,44.62933 -87.11777,85.82157 -95.01748,91.53829 -7.89971,5.71673 -21.46833,13.64778 -30.15251,17.62457 -16.53435,7.57165 -25.09021,14.31296 -25.09021,19.76898 0,1.78074 3.04311,6.70357 6.76244,10.93967 8.59345,9.7874 25.1972,16.0741 49.85207,18.8756 10.44664,1.18701 20.37782,3.30678 22.06931,4.71059 5.18488,4.30307 3.74252,16.20943 -2.75018,22.70215 -3.20408,3.20407 -7.36481,5.82558 -9.24604,5.82558 -7.39161,0 -22.68719,9.6222 -29.0508,18.27538 -12.90611,17.54957 -6.94825,28.12851 15.84149,28.12851 17.32438,0 38.44871,-7.35663 51.63042,-17.98051 36.94439,-29.77556 87.13595,-55.0153 87.13595,-43.81789 0,4.49943 -10.79772,23.43891 -23.26428,40.80616 -20.72194,28.8679 -36.12553,44.90109 -58.42564,60.81366 -11.58385,8.26581 -27.52493,20.57442 -35.42464,27.35244 -24.87973,21.34704 -35.25108,20.94466 -45.29092,-1.75716 -10.08758,-22.80983 -31.57344,-33.77279 -37.16372,-18.96242 -1.86029,4.92845 -4.60711,7.2412 -10.47784,8.82202 -13.01956,3.50579 -37.09533,30.62606 -66.60787,75.0307 -13.35415,20.09273 -17.64211,22.05192 -53.08887,24.25657 -41.67579,2.59208 -60.1161,0.39821 -78.76446,-9.37073 -21.24319,-11.12827 -27.33701,-11.82561 -45.05631,-5.15609 -22.9277,8.62997 -62.58472,29.65807 -70.6196,37.44599 l -7.25079,7.02793 h -28.72621 c -31.84173,0 -41.26477,-3.00034 -47.05566,-14.98273 -2.54401,-5.26401 -2.14,-7.58063 3.64153,-20.88073 3.57666,-8.22792 10.8009,-25.40071 16.05388,-38.16178 12.17637,-29.58011 31.53528,-58.71483 47.93156,-72.13592 19.82093,-16.22432 41.778,-25.68114 62.02832,-26.71535 14.19502,-0.72496 17.98511,-0.13723 24.15178,3.74503 8.02736,5.05372 13.67771,16.06056 13.67771,26.64403 0,17.13477 14.30154,28.01659 33.7879,25.70872 19.64195,-2.32629 44.57237,-16.32676 94.37521,-52.99933 43.16332,-31.78354 61.87184,-47.94133 61.87184,-53.43619 0,-12.40109 -24.9262,-21.24103 -76.95479,-27.29158 -21.05666,-2.44874 -39.74908,-5.66744 -41.53865,-7.15265 -5.84276,-4.84906 -2.68727,-11.66771 6.90315,-14.91697 7.00539,-2.37343 19.15192,-2.65751 58.55728,-1.36952 82.65643,2.70173 73.91712,3.26405 74.70095,-4.80664 0.93725,-9.65018 -3.68018,-19.36039 -17.1815,-36.13188 -13.11794,-16.29523 -17.69188,-24.29161 -20.17957,-35.27877 -6.8695,-30.33999 31.63288,-92.37941 113.18559,-182.37753 39.02781,-43.06946 54.97744,-62.67154 54.97744,-67.56728 0,-10.91369 -15.47879,-11.00563 -38.5084,-0.2288 -15.82962,7.40759 -29.51693,19.05848 -43.15141,36.73131 -10.20706,13.23025 -23.38678,23.33079 -30.4432,23.33079 -3.88714,0 -5.16201,-2.08862 -7.41216,-12.14326 -5.31187,-23.73603 -14.98386,-31.75106 -29.79297,-24.6891 -15.58229,7.43068 -23.74716,30.3001 -35.23957,98.7042 -9.32217,55.4866 -19.19795,79.70402 -41.94743,102.86364 -45.72634,46.55072 -129.83427,62.34017 -154.48387,29.00104 -9.034,-12.2187 -4.43996,-46.18855 10.19723,-75.40159 18.28452,-36.49245 44.44552,-62.8037 84.6245,-85.11057 21.52111,-11.94823 42.37656,-28.47678 77.45876,-61.38825 44.94412,-42.16321 44.9399,-42.16007 66.77814,-49.58655 26.52393,-9.01994 57.12895,-23.75812 77.16814,-37.16113 24.81834,-16.59953 115.37393,-60.99049 139.88233,-68.57127 24.42566,-7.55519 62.23985,-16.18172 86.85862,-19.815 20.69124,-3.05365 23.10533,-1.94436 38.2723,17.58636 l 10.05559,12.94873 24.66208,-8.74709 c 13.56416,-4.81089 40.57203,-15.5217 60.01743,-23.8018 43.6944,-18.6056 46.8496,-19.66165 63.9892,-21.41765 13.503,-1.38343 29.9234,1.72341 29.9234,5.6617 0,6.93327 35.5555,9.99867 44.9066,3.8716 9.4448,-6.18844 21.0351,-19.52315 40.7338,-46.8642 61.9912,-86.041608 81.2979,-108.729858 96.9083,-113.881746 11.0985,-3.662847 67.0539,-3.863879 86.253,-0.309883 20.4827,3.791598 36.2266,13.178308 66.494,39.644588 37.5925,32.871411 86.2475,67.803471 125.4286,90.051991 6.0767,3.45058 11.3704,6.5016 11.7639,6.78004 2.3204,1.64211 -7.6399,15.03595 -14.5877,19.61635 -22.7924,15.02618 -58.0776,22.55589 -88.1741,18.81596 -28.1319,-3.4958 -50.1259,-11.30192 -102.3516,-36.32675 -64.1287,-30.72831 -61.675,-29.9739 -72.6812,-22.34661 -13.4914,9.34952 -48.8528,46.85195 -48.8528,51.81064 0,3.63668 3.1127,5.0513 19.3349,8.7871 10.6343,2.44893 27.2899,5.57119 37.0127,6.93835 32.6256,4.58765 52.0576,13.53387 55.0182,25.3296 0.9144,3.64337 -0.5337,10.19163 -4.1581,18.80284 -6.6789,15.8684 -6.7197,16.79051 -1.288,29.08527 2.3502,5.31969 5.8251,21.52234 7.722,36.0059 1.897,14.48353 4.9271,28.58954 6.7336,31.34666 3.4722,5.29923 20.4725,9.48696 25.6138,6.30947 1.9763,-1.22144 2.2901,-8.03899 1.2056,-26.19144 -2.289,-38.31005 1.5226,-47.74212 19.2929,-47.74212 9.2372,0 66.9494,22.11136 96.3183,36.9026 29.6044,14.90985 62.8886,40.29459 77.2618,58.92491 34.434,44.63282 63.9524,121.51066 70.959,184.80549 3.7923,34.2582 -0.2922,67.26325 -10.8965,88.04934 -2.3471,4.60074 -26.5847,30.67261 -53.8614,57.93745 -54.3621,54.33855 -59.2454,61.0931 -63.7091,88.12177 -4.2815,25.92554 2.2006,32.77776 19.2864,20.38753 8.7386,-6.33705 16.1501,-15.42775 39.6901,-48.68243 21.5676,-30.46841 47.6825,-51.97277 68.605,-56.49308 11.7659,-2.542 23.6613,3.87495 30.5102,16.4586 11.2388,20.64939 18.1698,54.46057 20.3292,99.17106 1.5491,32.07271 -1.1935,60.70837 -9.3325,97.44199 -15.5115,70.00743 -27.6164,97.68193 -56.407,128.95923 -22.5233,24.4688 -37.9841,33.6499 -44.2954,26.304 z"
       style="fill:#ffffff;stroke-width:2.20970869" />
    <path
       transform="matrix(9.375084e-4,0,0,9.375084e-4,-2.3473975e-5,0)"
       inkscape:connector-curvature="0"
       id="path48"
       d="m 396.87935,764.35586 c -15.77067,-5.85991 -19.76487,-14.83813 -12.97071,-29.15575 10.78957,-22.73733 58.16667,-27.07124 85.8911,-7.85705 17.87633,12.38905 10.20739,25.3308 -20.66624,34.87538 -16.0158,4.95128 -41.83856,6.00754 -52.25415,2.13742 z"
       style="fill:#ffffff;stroke-width:2.20970869" />
    <path
       transform="matrix(9.375084e-4,0,0,9.375084e-4,-2.3473975e-5,0)"
       inkscape:connector-curvature="0"
       id="path50"
       d="m 520.21506,648.19503 c -10.30634,-4.15252 -12.28885,-17.20883 -4.92334,-32.42394 4.41253,-9.11506 13.48834,-18.38393 18.00101,-18.38393 3.91398,0 15.56077,14.23699 20.78841,25.41165 6.37514,13.6276 6.69439,22.25299 0.93765,25.3339 -5.13375,2.7475 -28.03746,2.78851 -34.80373,0.0623 z"
       style="fill:#ffffff;stroke-width:2.20970869" />
    <path
       transform="matrix(9.375084e-4,0,0,9.375084e-4,-2.3473975e-5,0)"
       inkscape:connector-curvature="0"
       id="path52"
       d="m 168.1745,1068.0277 c -27.07203,-3.6067 -45.67316,-18.2792 -50.92438,-40.1687 -5.23862,-21.837 2.45268,-65.43742 16.94891,-96.07993 6.66516,-14.089 12.42125,-18.3995 22.45455,-16.81532 5.66509,0.89448 7.94565,2.78372 10.37297,8.59312 4.44035,10.62726 21.49526,36.56558 37.83593,57.5436 19.10841,24.53123 27.03247,28.38873 54.69706,26.62733 34.71454,-2.2103 85.85581,-12.69836 109.69845,-22.49703 12.5709,-5.16629 46.79476,-13.8585 122.23251,-31.04471 38.32619,-8.73146 44.5242,-9.62281 49.69143,-7.14623 8.06302,3.86451 8.38149,8.60067 1.07296,15.95704 -10.52135,10.59021 -28.13452,17.00691 -153.10952,55.77973 -122.13647,37.8922 -121.41734,37.685 -151.36504,43.606 -31.06081,6.1412 -52.70618,7.8966 -69.60583,5.6451 z"
       style="fill:#ffffff;stroke-width:2.20970869" />
    <path
       transform="matrix(9.375084e-4,0,0,9.375084e-4,-2.3473975e-5,0)"
       inkscape:connector-curvature="0"
       id="path54"
       d="m 528.79896,320.73163 c -6.81955,-6.81955 -1.47777,-37.69874 10.64512,-61.5362 12.48112,-24.54184 53.28032,-74.04377 85.51756,-103.75898 44.22492,-40.76506 89.22075,-48.71004 127.091,-22.44065 17.86792,12.39442 32.26937,33.03187 29.38731,42.11242 -1.96295,6.18471 -13.29887,15.07726 -35.29912,27.69074 -10.45003,5.99134 -24.03522,15.19128 -30.1893,20.44432 -14.54614,12.41635 -18.75619,13.26525 -35.68228,7.1949 -8.67958,-3.11284 -16.00839,-4.45361 -19.40132,-3.54938 -3.20585,0.85437 -10.0053,7.56219 -16.5012,16.27884 -15.25888,20.47542 -48.18997,53.04691 -64.94395,64.23479 -20.18499,13.47901 -44.16111,19.7919 -50.62382,13.3292 z"
       style="fill:#ffffff;stroke-width:2.20970869" />
    <path
       transform="matrix(9.375084e-4,0,0,9.375084e-4,-2.3473975e-5,0)"
       inkscape:connector-curvature="0"
       id="path56"
       d="m 904.52026,580.90671 c -10.73792,-9.03536 -19.14544,-30.47691 -19.22638,-49.03269 -0.0621,-14.23707 0.61406,-16.74309 6.8566,-25.41165 13.0541,-18.12728 49.84204,-42.46961 78.14828,-51.71017 16.70189,-5.45233 36.67184,-5.43939 45.78694,0.0297 11.5195,6.91178 13.908,16.30653 13.6549,53.70922 -0.1211,17.90166 -0.8837,34.91578 -1.6946,37.80913 -1.1984,4.27582 -5.3974,6.64689 -22.4293,12.66545 -29.05904,10.26856 -85.65477,27.37293 -90.57282,27.37293 -2.2375,0 -6.97313,-2.44435 -10.52362,-5.4319 z"
       style="fill:#ffffff;stroke-width:2.20970869" />
    <path
       transform="matrix(9.375084e-4,0,0,9.375084e-4,-2.3473975e-5,0)"
       inkscape:connector-curvature="0"
       id="path58"
       d="m 1177.8931,791.27342 c -10.6711,-7.19125 -20.1502,-26.36763 -19.3194,-39.08334 0.4809,-7.35978 1.656,-10.21725 4.4176,-10.74145 5.6943,-1.08089 23.0323,16.22202 29.4988,29.43912 5.4657,11.17155 5.5672,12.02777 2.1982,18.54278 -4.2114,8.14398 -6.9922,8.44911 -16.7952,1.84289 z"
       style="fill:#ffffff;stroke-width:2.20970869" />
    <path
       transform="matrix(9.375084e-4,0,0,9.375084e-4,-2.3473975e-5,0)"
       inkscape:connector-curvature="0"
       id="path60"
       d="m 258.95617,1422.6226 c -40.26092,-18.7414 -87.59184,-70.9228 -83.05719,-91.5689 2.68067,-12.205 9.03651,-14.2818 42.47806,-13.8796 28.80451,0.3464 50.44327,4.0759 57.54767,9.9187 1.53398,1.2616 5.7136,8.3767 9.28804,15.8115 3.57444,7.4348 14.5788,23.8515 24.45412,36.4816 9.87532,12.6302 17.08317,23.5682 16.01744,24.3068 -1.06573,0.7387 -6.76821,4.7291 -12.67219,8.8678 -11.78614,8.2619 -29.40525,15.6893 -37.13802,15.6555 -2.72148,-0.012 -10.33455,-2.5289 -16.91793,-5.5934 z"
       style="fill:#ffffff;stroke-width:2.20970869" />
  </g>
</svg>
