<?xml version="1.0" encoding="utf-8"?>
<!-- Generator: Adobe Illustrator 19.0.0, SVG Export Plug-In . SVG Version: 6.00 Build 0)  -->
<svg version="1.1" xmlns="http://www.w3.org/2000/svg" xmlns:xlink="http://www.w3.org/1999/xlink" x="0px" y="0px"
	 viewBox="0 0 7456 2768" style="enable-background:new 0 0 7456 2768;" xml:space="preserve">
<style type="text/css">
	.st0{fill:#FFFFFF;}
	.st1{fill:#060506;}
	.st2{fill:#7E132A;}
	.st3{fill:#0C0A0B;}
	.st4{fill:#2C2829;}
	.st5{fill:#CA2126;}
	.st6{fill:#69696A;}
</style>
<g id="Layer_1">
	<g>
		<g id="XMLID_1_">
			<g>
				<path class="st0" d="M655.1,2539.2c12,21.6,21.3,44.3,19.6,69.9c-0.2,3.3-0.9,6.5-1.7,9.7c-0.3,1.2-1.5,2.2-3.1,4.5
					c-18.2,1.1-37.4,0.3-55.4,0.3c-5.7-4.8-6.5-9.7-5.1-15.3c8.4-34.8,4.3-68.1-13.2-99.4c-2.9-5.2-6.8-9.8-10-14.8
					c-2.8-4.4-5.2-8.9-8.9-15.1c4.4,0,6.9-0.6,8.8,0.1C616.6,2490.5,639.5,2511,655.1,2539.2z"/>
				<path class="st0" d="M2865.8,1699.4c4.4,3.6,6.2,8.6,3.8,14.2c-2.1,4.9-3.7,10-6.6,14.4c-11.9,18.2-25.1,35.5-43.3,55.5
					c-0.6-18.6,0.4-32.5-1.9-45.9c-2.4-13.3-8.2-26.1-12.6-39.3c15.8-9.3,32.5-7,48.8-5.6C2858.1,1693,2862.3,1696.6,2865.8,1699.4z
					"/>
				<path class="st0" d="M2927.5,1580.9c3.4,29.6-0.1,58.1-13.3,85.1c-3.6,7.3-7.6,14.1-17.5,17.4c-4.1-3.8-9.4-7.9-13.7-12.8
					c-10.4-11.8-22.2-20.9-38.2-23.5c-1.1-0.2-2-1.5-5.5-4.4c10.1-5.8,18.7-10.6,27.2-15.6c14.9-8.8,29.7-17.8,40.9-31.3
					c5.4-6.5,10.1-13.5,16-21.5C2925.1,1577,2927.2,1578.8,2927.5,1580.9z"/>
				<path class="st0" d="M638.3,1517.1c5.6,5.2,5.3,12.4,0,17.5c-1.4,1.4-3,2.7-4.6,3.8c-19.7,13.6-39.3,27.3-59.1,40.8
					c-11.8,8.1-14.7,8-26.5-0.7c-26.4-19.5-55.5-33.8-85.7-46.3c-32.6-13.5-65.6-25.7-100.2-33.2c-6.2-1.3-12.1-4-18.1-6.1
					c0-1.4,0-2.8,0.1-4.1c14.3-2.4,28.6-4.8,43-7.2c29.5-5,58.8-10.4,87.7-18.6c16.5-4.7,33.5-2.4,49,3.5
					c34.2,13,67.7,27.5,101.4,41.7C630,1510.2,634.4,1513.6,638.3,1517.1z"/>
				<path class="st0" d="M1918.1,2421.9c4.3,24.9,7.8,50.1,1.2,75.2c-1.7,6.3-4.1,12.8-7.6,18.2c-6.5,10.1-16.7,15.7-28.6,16
					c-22,0.5-44,0.3-66,0c-7.7-0.1-10.5-3.6-10.3-11.6c0.4-16,1.2-31.9,1.5-47.9c0.1-6-0.3-12-0.8-18c-2.2-29.7-19.6-48.5-44.8-61.3
					c-3.9-2-9.1-3.1-13.3-2.4c-6.6,1.1-12.7,4.1-15.4,11.3c3,7.8,9.6,12.5,16,17.2c8.2,6.1,14.3,13.9,19.3,22.6
					c4.4,7.5,7.3,15.4,7,24.5c-0.5,16-0.1,32-0.2,48c0,2.7,0.1,5.4-0.4,8c-2.3,13.1-8.4,18.1-21.8,17.8c-4-0.1-8-0.5-11.9-1.2
					c-24.8-4.6-49.4-10.7-74.8-10.3c-11.6,0.2-20.7-4.2-27.8-13c-26-32.1-61.5-50.5-98.1-66.7c-23.7-10.5-48.4-18.6-72.8-27.3
					c-5.3-1.9-9.8-3.9-12.9-10.5c0.6-2,1.1-5.4,2.6-8.1c9-16.3,17.9-32.6,27.4-48.6c3.7-6.2,8.4-12.1,13.4-17.3
					c9-9.4,19.7-15.4,33.4-15.3c13.9,0,27.9-0.9,41.8-1.8c14.3-0.9,25.8,3.7,35.5,14.4c6.7,7.3,14.7,13.5,22.4,19.8
					c8.4,6.9,18.5,8.8,28,3.8c10-5.3,19.2-3.9,28.9-0.6c1.9,0.6,3.9,1,5.7,1.9c23.2,12.1,47.9,14.5,73.6,13.3c21.9-1,44-0.2,66-0.3
					c10.8,0,21.2,0.7,30.1,8.2c5.3,4.5,11.8,5.9,18.7,5.5c8-0.5,14,3.6,19.2,9.1C1910,2402.3,1916.2,2411.3,1918.1,2421.9z"/>
				<path class="st1" d="M7460,1464c0,14.7,0,29.3,0,44c-8.1,5.1-16.1,10.6-24.4,15.3c-13.4,7.6-26.1,15.9-37.2,26.6
					c-22.5,21.8-45,43.8-64.2,68.6c-13,16.8-25.1,34.4-36.9,52.1c-31.7,47.7-59.8,97.4-87.5,147.5c-44,79.5-83,161.5-123.6,242.7
					c-41.2,82.4-82.9,164.5-124.1,246.9c-36.2,72.3-71.9,144.8-107.9,217.1c-11.8,23.7-24.3,47.1-36,70.9c-3.4,7-7.4,14.1-6.6,23.9
					c28.9,0.6,57.4,0.2,85.8,0.3c29.3,0.1,58.7,0,88,0c28.7,0,57.3,0,86,0c28.7,0,57.3,0,86,0c28.7,0,57.3,0,86,0
					c29.3,0,58.7,0,88,0c28.6,0,57.2,0,86.5,0c4.2,16,1.4,31.3,2,46.3c0.6,15.3,0.1,30.7,0.1,46c0,15.2,0,30.5,0,46.8
					c-4.9,0.7-8.7,1.7-12.4,1.8c-14,0.2-28,0.1-42,0.1c-1319.2,0-2638.3,0-3957.5,0c-628.6,0-1257.2-0.1-1885.8-0.1
					c-60.7,0-121.3,0.5-181.9,0.9c-6.6,0-13.5,0.2-19.8,2c-25.1,7.1-50.4,4.3-75.2,0c-28.1-4.9-56.3-9.8-83.6-18.6
					c-25.3-8.1-50.8-15.4-75.3-26c-8.5-3.7-17.8-5.3-26.4-8.8c-25.1-10.4-50.1-21.2-75.1-31.8c-3.7-1.6-7.4-2.9-11.2-4.2
					c-15.6-5.4-28-15.3-38.8-27.3c-6.3-7.1-9.9-15.5-9.8-25.4c0.2-31.8-11.9-59.7-29-85.6c-4.7-7.1-11.6-12.7-17.8-18.8
					c-5.2-5.1-11-9.7-16.2-14.8c-13.1-12.5-23.2-27-31.4-43.4c-17.7-35.3-31-71.9-40.2-110.2c-6.2-25.8-12.3-51.6-18.4-77.4
					c-0.2-0.6-0.4-1.3-0.6-1.9c-4-12.6-9.9-14.9-20.5-7c-20.4,15.1-41.2,29.2-64.5,39.4c-30.4,13.4-61.2,26.1-93.6,33.5
					c-29.8,6.8-60.1,11.7-91,10.4c-16-0.7-32,0.3-48-0.4c-11.3-0.4-19.4,3.3-24.5,13.5c-1.5,2.9-3.9,5.4-5.3,8.4
					c-6.6,14.2-4.2,19,11.3,21.4c16.4,2.6,33,4.2,49.4,7.3c16.3,3,32.9,5.9,48.5,11.3c24.5,8.4,48.3,18.8,72.2,28.6
					c16,6.6,31.9,13.3,47.5,20.7c21.2,10.1,36.3,26.8,47.7,46.9c10.5,18.5,20.2,37.3,35.9,52.4c7.8,7.5,12.1,17.1,11.6,28.7
					c-0.6,12,0.3,24-0.2,36c-0.3,5.8-1.5,11.9-3.7,17.3c-10.6,26.1-28.9,44.5-56.3,52.3c-11.4,3.3-23.4,5.1-35.3,6
					c-11.7,0.9-22.3,3.7-31.9,10.3c-15.3,10.7-32.3,14.7-50.8,14.6c-50.7-0.4-101.3-0.2-151.9-0.6c-10.6-0.1-21.1-1.8-31.7-2.6
					c-4.6-0.3-9.4-1-13.9-0.2c-30.4,5.3-61.1,3.9-91.7,3.4c-16-0.3-31.6-3-47.5-5c-41.1-5.3-80-19.4-120.3-28
					c-10.2-2.2-20.1-7.2-29.1-12.6c-27.3-16.5-49.5-38.1-63.8-67.1c-4.5-9.1-6.7-18.4-7.2-28.7c-1.1-24.3,2.1-48.1,9-71.1
					c6-20.2,6.8-40.5,7.2-61.1c0.4-19.3,0.9-38.6,2.3-57.8c0.6-8.5,2.8-17.2,6-25.1c7.3-17.8,15.2-35.4,23.9-52.6
					c7.1-14.1,11-29.2,10.5-44.2c-1.1-30.1,2.7-59.7,5-89.5c1.6-20.4,9.1-38.6,17.3-56.8c12.1-27.1,29.2-50.6,50.2-71.5
					c24.1-24,47.1-49.1,74.8-69.1c18.3-13.3,37.3-25.6,55.7-38.7c31-22,60.7-45.3,86.5-73.7c18.3-20.1,31-43.1,40.7-67.9
					c14.5-37.2,29.1-74.3,48.4-109.4c6.1-11.1,12.8-21.8,19.2-32.7c1.4-2.3,3.1-4.3,4.2-6.7c4.7-10.3,1-19.8-9.6-24.5
					c-11.6-5.1-23.1-10.2-34.9-14.9c-40.6-16.4-81.4-32.4-122-49c-12.3-5-24.3-10.9-35.8-17.3c-12.9-7.2-23.7-17.4-32.9-28.9
					c-11.3-14.1-10-28.3,2.8-41c3.3-3.3,6.7-6.7,10.8-8.9c21.1-11.3,42.3-21.5,66.6-25.3c30.8-4.8,61.9-8.5,92.1-17
					c13.1-3.7,24.6-9.9,35-18.4c3.1-2.5,6.1-5.2,8.9-8c8.9-9.4,18-10.6,30.4-5.2c25.5,11.2,52,20.5,78,30.7
					c31.5,12.3,63,25,94.6,37.1c17.4,6.6,34.9,12.9,52.7,18.2c17.7,5.2,35.6,4.4,52.6-3.7c47.3-22.7,95.2-44.3,141.7-68.6
					c39.5-20.5,79-41.3,115.4-67.2c19-13.5,39.3-25.1,56-41.7c18-17.9,34.4-36.8,47.3-59c24-41.4,48.2-82.8,74.1-123
					c17.3-26.8,36.8-52.4,59.6-75c19.8-19.7,39.6-39.6,60.1-58.6c28-26,60.2-45.9,94.1-63.3c27.2-14,54.9-26.8,83.7-37
					c8.6-3,18.1-4.4,27.3-4.7c31.3-0.9,62.6-1,93.9-1.4c1.3,0,2.7,0,4,0c14.3-0.4,15.7-1.9,16.1-16.4c0.2-6,0.4-12,0.1-18
					c-0.7-13,4.7-23.3,13.4-32.2c14.2-14.3,31.6-21.5,51.7-22.8c19-1.3,37,2.4,54.7,9c21.8,8.1,44.1,14.7,67.1,19.3
					c14.9,3,27.6,1.2,39.6-7.7c1.6-1.2,3.3-2.2,5-3.3c6.2-0.1,8.7-3.1,7.5-9.2c1.2-2.1,2.3-4.3,3.5-6.4c7.2-3.9,14.3-5.3,22.6-2.3
					c5.4,1.9,11.7,1.5,17.6,1.7c9.8,0.2,19.7,0.1,29.4,0.1c4.3,8,9.6,14.4,3.8,22.6c-5.4,2.5-10.8,5.1-16.2,7.6
					c-7.8,3.6-13.1,8.8-13.5,18.1c-0.3,5.9-1.7,11.8-2,17.8c-0.4,7.7-4.1,12.7-11.5,14.3c-7.1,1.6-14.3,3.4-21.5,3.4
					c-25.9,0.2-51.9,0.5-77.8-2.2c-35.7-3.8-71.4-7.7-106.8-13.8c-8.3-1.4-16.7-4-25.7-2.3c-6.6,14.4-6.5,29-6.4,43.6
					c0.6,64.3,34.2,107.3,88.9,135.9c12.9,6.7,27.2,8.4,42.6,4.8c18.7-4.3,35.1-12.6,50.2-23.5c14-10.1,27-21.7,39.5-33.5
					c18.4-17.4,36-35.6,53.8-53.6c4.9-4.9,10-8.9,17.6-6.2c0.2,16.5,1.8,32.9,7.9,48.5c1.9,4.9,2.9,10.1,4.4,15.2
					c7.6,14.9,9.1,31.5,11.7,47.6c2.6,16.2,6.9,32.4,4.1,49.1c-15.2,0.3-25.4-5.4-28.3-21.8c-1.8-9.8-8.4-16.3-18-19.7
					c-18.4-6.6-30.7,0.1-32.5,19.4c-1,10.4-1.3,21.1,1.8,31.7c4.6,15.9,8.5,32.2,11.3,48.6c3.5,20.4,4.2,40.9-0.6,61.4
					c-5.2,22.5-20.3,35.3-40.9,42.4c-2.7,0.9-6.7-2.2-10.3-3.5c2.7-12.6,8.5-22.2,14.3-31.8c6.5-10.8,6-15.3-2.1-25.2
					c-5.8-7.1-12.4-13.5-20.1-18.1c-7.3,4.5-11.4,10.3-14.6,17.1c-9.7,20.5-20.3,40.5-29.2,61.2c-13.9,32.4-27.3,65-39.6,97.9
					c-16.6,44.2-29.2,89.8-37.7,136.2c-6.8,37.2-10.9,75-13.1,112.9c-2.1,36.7-0.7,73.2,0.7,109.8c0.4,9.7,2.9,19.2,4.5,28.7
					c6.2-0.2,6.6-4.6,7.8-8.3c7.5-24.1,14.6-48.4,22.7-72.3c15.8-46.8,36.6-91.3,64.7-132.2c22.4-32.6,48.7-61.6,80-85.9
					c28.1-21.7,58.7-39.1,91.7-52.1c20.5-8.1,41.7-14.1,64-14.5c4.6-0.1,9.3,0.2,13.8,1.1c5.5,1.1,8.2,7.8,5.1,12.7
					c-1.7,2.7-4.1,5.4-6.8,6.9c-5.8,3.3-11.9,5.8-18,8.7c-25.9,12.2-52.1,23.7-77.6,36.8c-39.4,20.2-71,49.3-93.8,87.5
					c-16.4,27.4-33.4,54.5-48.7,82.5c-8.6,15.7-15.2,32.5-21.3,49.4c-11,30.7-17.2,62.6-22.4,94.8c-5.7,35.6-7.6,71.4-9.8,107.2
					c-2.1,35.2,0.3,70.5,3,105.7c0.6,7.9,1.3,15.9,2.5,23.8c3.4,21.6,6.6,43.4,10.8,64.9c6.4,32.8,17.5,63.8,34.7,92.9
					c25,42.5,58.3,77.7,94.1,110.8c16.1,14.9,33.7,28.2,50.9,41.9c24.3,19.5,52.2,24.6,82.5,21.2c14.4-1.6,27.1-7.4,37.9-16.4
					c11.8-9.8,22.2-21,30.3-34.3c21.4-35.1,33-73.8,40.7-113.8c1.4-7.2,2.2-14.5,4.2-21.5c2.6-9.1,6.9-17.3,16.6-21.1
					c5.6-2.2,11-0.7,13.8,4.3c1.3,2.3,2.6,4.8,3.1,7.3c3.4,16.9,6.9,33.8,4.1,51.3c-3.3,20.5-9.1,40.1-16.4,59.5
					c-7.6,20.1-16.9,39-31.9,54.8c-1.8,1.9-3.4,4.1-4.8,6.4c-2.6,4.3-0.2,10.2,4.6,10.9c3.3,0.5,6.6,0.5,9.9,0.5
					c17.3,0.1,34.7-0.7,52,0.3c14.4,0.9,22.5-6.2,27.9-18c1.9-4.2,3.2-8.8,4.1-13.3c4.5-20.4,4.4-41.1,2.7-61.7
					c-1.6-19.2-4.5-38.3-6.4-57.5c-0.8-8.6-0.7-17.3-0.7-25.9c0-4.7,0.1-9.4,4.9-12.3c3.5-2.2,9.3-1.1,14.5,3.4
					c2.5,2.2,4.6,4.8,6.4,7.5c5.3,7.7,10.5,15.4,15.5,23.3c15.4,24.1,31,48.1,46.1,72.5c7.1,11.5,17,18.8,29.9,21.4
					c7.7,1.6,15.9,2,23.8,1.7c14.4-0.5,20.9-5.7,22-20.4c1.3-18.6,0.6-37.3,0.5-55.9c0-4.3-2.8-7.4-6.9-8.8c-3.1-1.1-6.3-2-9.6-2.7
					c-15.6-3.2-28.5-11.2-39.3-22.5c-11.5-12-23.1-24.1-33-37.4c-43.9-59.1-78.8-123.3-107.7-190.8c-12.5-29.3-23.4-59.3-26.5-91.6
					c-0.4-4.7-1.1-10.3-6.9-13.5c-6.4,32.2-7.4,63.8-1.9,95.6c1.9,11.1,3.2,22.4,3.9,33.7c0.4,6.5,0,13.3-1.3,19.8
					c-1.7,8.3-7.7,14.3-12.6,13.5c-6.7-1.1-9.9-6.5-11.9-12.2c-11.9-32.6-21.9-65.5-20.8-100.9c0.5-15.5,2.7-30.3,8.1-44.7
					c8.7-23,17.8-45.9,26.1-69c21.5-60,41.2-120.5,52.4-183.5c3.1-17.1,0.6-33.1-5.8-48.7c-6.7-16-18.2-21.7-35.3-17.4
					c-11.6,2.9-22.9,7-34.3,10.5c-6.2,1.8-12.4,5.2-18.9,1.1c2.8-23.2,16.4-40.8,36.9-47.6c18.9-6.3,38.1-4.8,57.3-1.7
					c21.8,3.4,42.5,10.9,63.4,17.6c3.5,1.1,7.5,0.7,11.6,1c1.3-8.9,2.2-16.8,3.9-24.5c0.5-2.3,2.8-5.8,4.5-5.9
					c2.9-0.3,7.2,0.8,8.8,2.9c4.4,5.8,8.5,12,11.2,18.7c5.2,12.9,10,26.1,13.6,39.5c8.8,32.4,28.2,56.9,55.1,75.9
					c24.6,17.4,51.4,30.8,78.7,43.1c15.4,7,31.4,10.9,48.5,9.6c5.3-0.4,10.7,0.3,16-0.2c17.2-1.6,33,3.1,48.3,10.3
					c6,2.8,11.8,6.1,17.7,9.2c21.9,11.4,44.2,21.9,68,28.3c36.3,9.8,72.6,6.5,108.6-2.1c6.4-1.5,12.8-4,18.4-7.3
					c16.2-9.5,20.7-26.8,11-42.9c-3.7-6.1-9.1-11.4-14.3-16.5c-3.8-3.7-8.5-6.4-12.9-9.4c-17.5-11.8-30.9-27.1-39.4-46.6
					c-3.4-7.9-6.9-15.9-11.1-23.4c-1.8-3.1-5.3-5.8-8.7-7.4c-4.8-2.4-9.7,0.6-10.3,5.7c-0.5,3.9-0.6,8-0.5,11.9
					c0.4,8.8-1.1,17.2-5.7,26.3c-9.3,0-19.3,0.3-29.2-0.1c-3.9-0.2-8-1-11.5-2.7c-27.7-13.8-44.3-35.4-45.8-67.2
					c-0.3-5.1-0.8-10.2-1.2-16.5c-9.1,1.4-16.8,2.7-24.6,3.8c-11.3,1.7-20.6-0.9-28.4-10.2c-18.4-21.9-42.9-30.1-71-29.6
					c-16,0.3-32,0.5-48-0.2c-18.4-0.7-35.9,1-51.3,12.4c-2.1,1.5-4.7,2.7-7.2,3.2c-8.2,1.5-15.3,0.6-21.7-6.4
					c-12-13.3-24.8-25.9-37.5-38.6c-15.6-15.7-32.8-29.2-51.5-41c-13.1-8.2-26.9-14.6-42.6-15.7c-12.6-0.8-25.2-1.1-37.8-1.8
					c-13-0.7-24.6,1.2-35.5,9.9c-11.4,9.1-26.2,10.1-40,9.6c-12.9-0.5-16.3-9-12.4-19.4c4.4-11.5,12.1-20.8,23.2-26.5
					c20.4-10.4,42.3-16.1,65.1-17.5c7.8-0.4,15.8,1.4,23.6,2.5c11.9,1.6,23.6,3.9,35.6,5.1c11.5,1.1,21.4-1.4,24.4-14.9
					c0.6-2.5,2-5,3.5-7.1c14.7-21.3,32.8-36.8,60.8-35.4c5.3,0.3,10.7,0.2,16-0.1c2.3-0.1,4.5-1.3,9.2-2.6
					c-8.1-7.2-14.2-12.9-20.7-18.4c-13.3-11.2-27-21.7-42.9-29c-22-10-44.6-13-68-4.7c-7.5,2.7-15.4,4.2-23.1,6.1
					c-7.3,1.8-14.5,1.3-21.5-1.8c-8.9-3.8-11.1-12-4.9-19.2c6.3-7.4,14.9-11.1,23.9-13.9c42.3-13,84.2-12.7,124.7,6.5
					c57.5,27.2,99.8,69.8,126.3,127.9c5,10.9,10.7,21.4,16.6,31.8c8,14.2,18.8,25.8,34,32.7c11.6,5.3,19.2,14.2,21.3,27
					c2.9,18.2,15.1,28.9,29.4,38.2c9.8,6.4,20.1,10,32,9c11.3-0.9,22.7-0.6,33.9-2c24.4-3,49-3.9,73.5-3.6
					c23.4,0.3,46.5,3.3,68.1,13.2c15.7,7.2,31.3,14.8,47.3,21.4c17.2,7.1,34.7,13.5,52.4,19.4c9.3,3.2,19.2,5.4,28.9,1.7
					c1.9-12.5,2-12.5-1.3-19.5c-6.4-13.4-14.9-25.3-26-35.1c-19.4-16.9-41.3-29.9-67.3-32.5c-24.4-2.4-49.2-3.1-73.8-2.6
					c-21.4,0.4-40.9-3.4-58.9-14.9c-8.1-5.2-17-7.2-26.6-7.2c-18.2,0-35.6,2.5-51.5,12.5c-6.6,4.2-14.4,6.9-22,8.9
					c-8.3,2.1-13.8-3.4-17.9-9.9c-3.4-5.3-1.1-10.2,1.9-14.8c5.7-8.9,13.3-14.1,24.3-15.2c14-1.4,27.9-1.2,41.9,0.1
					c3.4,0.3,8.3,1.8,9.4-4.1c-10.6-10.1-21.3-20.2-31.8-30.4c-25.3-24.6-50.7-49.1-75.9-73.9c-5.2-5.1-9.4-11.2-13.7-17.2
					c-1.9-2.6-3.1-5.9-4.1-9c-1.7-5.6,1.4-10.6,7.2-12.2c4.6-1.3,9.3-1.7,13.4,1.4c4.8,3.6,9.7,7.1,14,11.3
					c23.5,22.7,46.8,45.5,70.2,68.3c9.9,9.7,19.6,19.5,29.9,29.7c3.3-8.8-1.4-15.2-3.4-22c-3.4-11.4-8.1-22.5-10.8-34.1
					c-3-12.7,3.9-20.8,16.8-21c4.5-0.1,8.9,1.1,13.9,1.8c9.8,33.7,7.2,67.8,9.8,100.9c11.8,3.5,11.8,3.4,21.8-0.9
					c1-4.2,2.4-8.7,3-13.3c2.2-19.8,3.8-39.7,6.2-59.4c2-16.5,4-33,7.6-49.2c3.6-15.9,16.3-22.6,31.8-18.5c6.4,1.7,12.4,4.9,18.7,7
					c4.9,1.6,9.6,5.2,15.1,2.3c2.8-10.6,2.8-11.1-0.4-14.6c-2.2-2.4-4.7-4.7-7.3-6.7c-25-18.8-53.1-29.8-84.1-34.3
					c-22.5-3.3-42.1,1.8-58.9,17.2c-3.4,3.2-6.5,6.7-9.9,9.9c-11.5,10.6-20.4,9.5-29.5-3.8c-1.9-2.7-3.1-6-5.1-8.6
					c-7-8.9-13.6-18.1-21.4-26.2c-9.2-9.5-19.5-18-29.3-26.9c2.1-1.4,4.2-4,6.3-4.1c7.9-0.2,15.9,0.2,23.8,0.8
					c5.3,0.4,10.4,2.3,15.7,2.4c18,0.4,35.4,4.4,53.1,6.9c14.4,2,28.9,2.7,43.8-0.4c0.8-4.6,1.5-8.5,2.2-12.3
					c12.6,0.2,25.2,0,37.7,0.8c11.1,0.7,22.2,2.6,33.2,3.9c2.8,5.7,3.7,5.9,8.2,2.2c5.3,1.4,10.7,2.8,16,4.2c1.8,6.9,2.9,7.3,8,3.7
					c2.6,1.3,5.3,2.5,8,3.8c0.3,7.3,5.2,8.4,11,8c1.6,1.4,3.2,2.9,4.8,4.3c-0.6,6.2,4.1,9.3,7.7,13.1c12.6,13.4,26.9,25.2,37.5,40.5
					c2,2.8,6.4,4,9.7,6c0.3,2.6,0.5,5.3,0.8,7.9c-5.7,7.4-4.3,15-0.5,22.6c0.4,0.8,2.1,1.1,3.2,1.6c1.9,17.8,3.6,35.7,5.7,53.5
					c1.4,12.5,3.2,25,5.1,37.5c0.8,5.2,2.6,10.4,3,15.6c1.1,12.6,6.4,22.9,15.5,31.5c6.8,6.4,13.1,13.3,19.9,19.7
					c14.6,14,26.2,30.1,33.4,49.1c4.1,10.9,10.9,19.7,19.3,27.6c12.7,12,23.9,25.1,27.9,42.9c0.4,1.9,1.6,3.7,2.6,5.4
					c12,19.9,24.6,39.6,36.1,59.8c16.4,28.9,36.3,55.7,50.1,86.1c7.1,15.7,15.3,30.9,23.4,46.2c3.6,6.8,4.3,13.8,4.2,21.3
					c-0.1,14.7,0.1,29.3,0,44c0,10.6,3.6,17.8,13.1,24.7c25.4,18.5,47.2,40.9,63.7,68.1c9.3,15.3,20.3,29.7,29.3,45.2
					c19.3,33.5,32.6,69.8,47.6,105.3c3.1,7.3,6.1,14.7,9.4,21.9c13,28.3,22.9,58.1,40.1,84.5c3.7,5.7,4.8,12.3,4.8,19.1
					c-0.2,41.3,0.6,82.7-0.6,124c-0.8,26.5-2.1,53.1-6.6,79.4c-2.5,15-2.6,30.4-3.7,45.7c-1.3,17.9-4.8,35.4-9,53
					c-4.3,18-7,36.5-11.6,54.5c-7.4,29.2-20.5,54.6-44.4,73.7c-10.4,8.3-20.4,17.1-30.5,25.8c-2.3,2-3.8,4.8-6.5,8.1
					c3.2,1.1,4.8,2.2,6.4,2.2c75.3,0.2,150.7,0.2,226,0.4c19.1,0,34.6-8.8,49.1-19.8c29.3-22.3,43.1-53.1,48.1-88.7
					c1.1-7.9,1.7-15.9,3.7-23.6c5.4-20.3,4-41,4.9-61.6c6-131.2,2.3-262.5,2.9-393.7c0.6-131.3,0.3-262.7-0.1-394
					c0-15.9-1-32.1-4-47.7c-5.4-28.5-21-50.3-48.6-61.2c-14.1-5.6-29.1-8.7-45.5-13.4c-3.7-13.7-0.6-29.5-0.7-46.3
					c4.2-0.7,7.9-2,11.6-1.9c22,0.3,44,1.1,65.9,1.2c90.7,0.2,181.3,0.2,272,0c54-0.1,107.9-0.8,161.9-1.3
					c34.6-0.3,69.3-1.1,103.9-1.2c23.3-0.1,46.6,0.8,69.9,1.3c3.3,0.1,6.8,0.1,9.9,1c17.5,5.4,35.6,4.4,53.6,4.9
					c26.6,0.7,53.1,2.2,79.5,6.5c30.9,5,61.7,10.1,92.2,17c45,10.2,88.3,25.1,128.8,47.4c32.6,17.9,60.6,41.5,82,71.8
					c15.8,22.3,27.1,47.2,33.6,74c1.4,5.8,1.7,11.9,1.7,17.8c0.1,27.3,0,54.7-0.1,82c0,6.7-1.7,12.9-3.5,19.4
					c-10.8,38.1-30.6,70.3-58.7,98.2c-23.4,23.3-49.7,42-79.5,56c-37.4,17.4-75.1,34-115.4,43.9c-2.2,0.5-4.3,1.5-6.7,2.4
					c3.9,5.4,9.1,4.3,13.4,5.3c24,5.6,48.1,10.4,71.9,16.5c18,4.6,35.8,10.2,53.5,15.9c42,13.7,81.7,32.3,117.5,58.5
					c27.6,20.2,52.4,43.8,71.7,72c24.7,36.2,40.4,76.2,40.1,121.1c-0.1,16.7-0.4,33.3,0,50c0.8,34.8-8.9,67.1-23.6,98
					c-8.5,17.9-16.7,36.3-30.5,51.1c-11.4,12.2-23.1,24-34.6,36.1c-22.9,24-50.9,40.6-79.8,55.9c-15.8,8.4-32.7,14.7-49,22
					c-2.7,1.2-6.5,1.6-7.3,6.8c12.7,0.1,25.1,0.4,37.5,0.4c86.7,0,173.3-0.1,260,0.2c17.3,0.1,32.6-4.5,46.9-14.1
					c19.2-13,34.9-29,43.2-50.9c7.3-19.3,13.4-38.9,14.7-59.9c1-16.6,4-33,6-49.5c0.5-4,1.1-7.9,1.2-11.9
					c0.9-31.3,2.3-62.6,2.4-93.8c0.6-226,1-452,1.1-677.9c0-22.6-1.2-45.3-4-67.7c-3.4-28.2-19-49.4-44.2-62.6
					c-10.6-5.5-21.9-9.5-34-11.3c-5.2-0.7-10.2-2.4-14.9-3.5c-8.7-15.8,0.6-31-3.5-46.8c6.3-0.9,10.8-2.1,15.2-2.1
					c34,0.3,68,1.1,101.9,1.2c80,0.2,160,0.2,240,0c52-0.1,104-0.8,155.9-1.3c36.6-0.4,73.3-1.4,109.9-1.2
					c32.6,0.2,65.5-0.3,97.8,3.1c23.6,2.5,47.9,2.1,71.1,9.6c4.9,1.6,10.5,1.8,15.8,1.8c32.8-0.1,65,3.8,96.6,12.9
					c16.6,4.8,33.9,7.1,50.6,11.4c34.3,9,66.8,23.1,97.5,40.4c31.5,17.8,59.4,40.8,80.4,70.8c12.6,18,21,38.3,28.6,59
					c9.1,24.6,6.7,49.9,7.7,75.1c0.2,5.3-0.7,10.7-0.4,16c1.9,32.4-9.4,61.3-23.9,89.3c-18.2,35.2-46.2,61.6-78.2,83.9
					c-29.6,20.6-62.3,35.2-95.9,48.1c-18,6.9-36.3,12.7-54.8,18.4c-2.9,0.9-5.7,2.4-8.5,3.7c2.6,6.8,8.3,5.1,12.2,5.8
					c42.1,7.1,83.2,18.3,123.6,32c37.9,12.9,74.3,29.7,107.5,51.7c53.6,35.5,92.3,83.8,112.6,145.6c8,24.3,8.9,49.6,9.7,75
					c1,30.3-3.1,59.9-9.9,89c-4.9,21.3-15,41.1-26.2,60c-24.3,40.9-57.2,73.1-96.8,99.2c-26.8,17.7-56.1,30.2-84.9,43.7
					c-2.9,1.3-5.7,2.8-8.2,4c0.1,1.6,0,2.4,0.3,2.8c0.2,0.4,1.1,0.5,1.6,0.5c271.3,0.1,542.6,0.2,814,0.3c3.9,0,7.8-0.4,12.2-0.7
					c0.5-8.3-2.8-15-6-21.3c-20.6-40.9-40.9-81.9-62.6-122.2c-19.6-36.3-37.7-73.3-55.8-110.3c-13.7-28-28.7-55.4-42.9-83.3
					c-20.2-39.6-39.8-79.6-60.5-119c-22.8-43.4-43.1-88.2-67.5-130.9c-15.9-27.6-28.9-56.8-43.3-85.3
					c-15.6-30.8-31.8-61.4-46.8-92.4c-26.4-54.4-55.7-107.3-84.6-160.3c-16.5-30.3-35.1-59.6-54.1-88.4
					c-18.8-28.5-42.1-53.2-69.1-74.3c-7-5.4-14.6-9.3-23.2-11c-7.1-1.4-14.2-3-22.5-4.8c-4.2-15.2-1.6-31-1.6-47.5
					c3.5-0.8,6.5-2.1,9.6-2c45.3,0.9,90.5,2,135.8,3.1c4,0.1,8.1-0.2,11.9,0.7c18.3,4.6,37,4.1,55.7,4.1c51.3,0,102.7,0.2,154-0.2
					c12.6-0.1,25.1-2.2,37.7-3.4c4-0.4,7.9-1.2,11.9-1.3c26.6-0.5,53.3-0.8,79.9-1.3c24.6-0.5,49.1-1.3,74.7-2
					c4.8,15.3,2.3,30.2,1.9,43.8c-18.5,6.8-35.9,13.2-53.3,19.7c-17.6,6.6-26.3,19.8-27.2,38.2c-0.7,14,0.9,27.7,5.1,41.3
					c8.7,28.1,22,54.1,35.9,79.7c20.3,37.3,41.5,74.2,62.4,111.2c20.2,35.9,40.7,71.6,60.8,107.6c22.1,39.4,43.8,79,65.9,118.4
					c19.2,34.2,38.7,68.2,58.1,102.3c17.4,30.6,34.9,61.2,52.5,91.7c2.9,5,6.8,9.5,11.2,15.6c3.7-6,6.9-10.2,9.2-14.9
					c12.6-26.4,25-52.9,37.5-79.4c26.4-55.8,54-111,78.8-167.5c21.9-49.9,46.8-98.4,67.5-148.9c9.4-22.8,18-45.7,25.3-69.2
					c2.2-7,4.8-13.8,7.3-20.7c13-36,20.2-72.8,19.5-111.3c-0.6-34.1-13-62.1-39.6-83.6c-13.2-10.7-28.1-17.7-45.1-19.7
					c-9.2-1.1-18.4-2.5-28.5-3.9c-2.2-8-0.9-15.9-1.1-23.6c-0.2-7.9,0-15.9,0-24.7c4.9-0.5,8.7-1.3,12.5-1.2
					c98.6,2.4,197.2,3.4,295.8,2.6c42.6-0.3,85.2-1.6,127.8-2.6C7458.1,1466.5,7459,1464.9,7460,1464z M7408.4,1501.1
					c-2.2-0.4-3.9-1.1-5.6-1.1c-18,0-36-0.1-54,0.4c-23.9,0.7-47.8,2-71.8,2.8c-11.3,0.4-22.7-0.8-34,0.2
					c-29.9,2.8-59.7-6.7-89.6-0.7c-1.8,0.4-3.9-0.6-5.9-1c-15.7-3.3-31.5-1.2-47.5-0.2c17.2,12.2,32.3,25.6,43.2,42.5
					c21.9,33.8,28.2,72,23.3,111.1c-3.9,30.9-11.7,61.2-21.2,91.1c-20.4,64.3-48,125.5-76.1,186.6c-18.9,41.2-38.2,82.1-57.5,123.1
					c-23.8,50.6-47.7,101.2-71.6,151.7c-13.4,28.3-26.7,56.6-40.3,84.8c-1.9,3.9-2.7,9.2-8.7,10.2c-8.2-2.9-7.8-11.7-11.4-17.6
					c-17.7-29.7-34.8-59.8-51.8-90c-26.2-46.4-52.1-92.9-78.2-139.3c-15.6-27.9-31.3-55.7-47-83.5c-19.9-35.4-39.9-70.7-59.9-106.1
					c-13.7-24.4-26.9-49-41-73.2c-25.9-44.3-50.7-89.1-72.7-135.5c-12.8-27-23.7-54.5-22.2-86c1.3-26.8,10.8-47.5,32.3-63
					c2.5-1.8,6.2-2.9,4.9-8.5c-10.9,0.6-22-0.9-33.2,1.9c-6.3,1.6-13.4,1.7-19.8,0.6c-13.4-2.3-26.4-2.3-39.6,0.4
					c-6.5,1.3-13.3,1.2-19.9,1.1c-78.5-1.8-157.1,3.5-235.7-2.9c-25.8-2.1-52-0.8-77.9-0.9c-2.4,0-5.4-1.1-7.5,3.4
					c1.8,1.9,3.8,4.3,6.1,6.3c7,6.1,14.3,11.9,21.2,18.1c31.1,28,53,63.1,74.8,98.2c36.6,58.8,68.1,120.5,100.5,181.6
					c32.7,61.8,63.9,124.5,95.6,186.8c16,31.4,31.7,62.9,47.6,94.3c29.9,58.8,59.8,117.6,89.9,176.3c23.6,46.3,47.6,92.4,71.1,138.7
					c6.7,13.1,12.2,26.6,18.9,39.7c10.3,20.1,21.2,39.9,31.5,60c24.3,47.4,48.5,94.9,72.8,142.4c2.4,4.6,5.4,8.8,8.5,13.8
					c7.7-4.9,9.4-12.3,12.5-18.6c69.1-139,138-278.1,207.1-417.1c13.6-27.4,28.1-54.4,41.8-81.8c20.2-40.5,39.8-81.3,60-121.8
					c32.8-65.5,65.6-131,100.4-195.5c30.6-56.9,62.4-113,97.5-167.2c20.3-31.3,42.5-61.3,66.9-89.4c10.4-11.9,19.7-25,33-34.5
					C7381.9,1523.8,7394.6,1512.3,7408.4,1501.1z M6028,2440.9c24.7-51.6,29.3-105.7,20.9-161.6c-7.1-47.4-29.4-86.3-63-119.7
					c-23-22.8-49.4-40.6-77.9-55.2c-16.5-8.5-33.9-15.7-51.4-21.8c-23.2-8.2-46.6-16.6-70.5-21.7c-33.1-7.1-66.1-14.5-100-18.1
					c-27.1-2.9-54-7.2-81.3-7.4c-9.4-0.1-18.3-2.1-27.4-5.4c-1.4-9-2.6-17.3-3.9-25.6c7.8-5.4,15.6-7.1,23.4-7.7
					c35.9-2.7,71-10.4,105.9-18.2c35.1-7.8,69.2-19.1,102.2-33.7c22.1-9.7,42.8-21.6,62.4-35.4c11.4-8,22-17.4,31.7-27.4
					c16.8-17.4,29-38,38.2-60.4c8.4-20.4,13.5-41.7,14.2-63.9c0.6-17.2-1.1-34.4-4.1-51.3c-5.7-32.8-19.9-61.9-42.1-86.9
					c-23-25.8-51.3-44.5-82.3-58.9c-51.7-24-106.9-36.3-162.9-44.8c-25.6-3.9-51.1-9.1-77.2-8.6c-0.7,0-1.3-0.1-2-0.2
					c-24.9-5.1-50.3-4.2-75.4-6.4c-24.5-2.2-49.3-1-73.9-1.2c-23.3-0.1-46.7-0.1-70,0c-23.3,0.1-46.6,0.5-70,0.7s-46.7,0.7-70-0.2
					c-23.3-0.9-46.3,4.4-69.6,1c-2.6-0.4-5.3,0.2-8,0.3c-11.3,0.7-22.5,2-33.8,2.1c-32,0.3-64,0.4-96,0c-26.6-0.3-53.3,1.9-79.8-2.3
					c-5.8-0.9-12.1-1-17.9,0.1c-10,1.9-19.7,1.5-29.6,0c-1.3-0.2-2.8,1.3-4.4,2.1c1.5,1.9,2.2,3.1,3.2,3.9c1.6,1.2,3.4,2.1,5,3.2
					c28.2,20.3,42.3,49.1,48.8,82.1c4.4,22.2,4.8,44.9,4.8,67.5c-0.1,174,0,348,0,522c0,81.2,1.1,162.5-4.4,243.6
					c-0.5,6.6,0.3,13.4-0.6,20c-3.6,27.6-6.7,55.4-11.7,82.8c-7.3,39.9-24.5,74.5-59,98.4c-2.5,1.8-5.9,3.5-4.5,9
					c7.4,0.2,15.2,0.5,23,0.5c196.6,0,393.3,0.1,589.9-0.1c23.9,0,48,2.5,71.7-3c3.2-0.7,6.6-0.3,10-0.2c28.7,1.3,57-4.7,85.6-4.8
					c1.3,0,2.6-0.3,4-0.5c15.1-2.3,30.2-4.5,45.2-6.9c21.6-3.5,43.3-6.6,64.7-11.2c21.4-4.6,42.6-10.5,63.7-16.6
					c44.4-12.9,86.5-30.9,124.4-57.7C5981,2510.1,6009.4,2479.7,6028,2440.9z M4695.5,2328.8c0.9-14.8-1.4-29.3-3.9-43.6
					c-4.7-26.9-12-53.4-26.1-77.1c-19-32-45-57.6-75.2-79c-45.3-32-96.7-50.4-149.5-64.8c-37.2-10.2-75.1-16.9-113.5-21.3
					c-28.4-3.3-56.6-7.6-85.3-7.9c-8.6-0.1-17-2.1-24.9-6.2c-0.8-9.7-2.8-18.8,2.1-28.3c16.4-2.7,32.6-5.9,49-8.1
					c48.9-6.6,96.6-18,143.3-34c37.4-12.9,72.5-30.2,104-54.4c29.6-22.8,51.8-51.2,65-86.6c10-26.7,13-54.2,11.6-82.4
					c-1-19.4-4.7-38.3-10.9-56.6c-14.6-42.9-44-73.9-81-98.3c-24-15.8-50.3-27.1-77.6-36.2c-31.6-10.6-63.7-19-96.6-24.3
					c-19.7-3.2-39.4-5.8-59.2-8.3c-15.2-1.9-30.5-2.7-45.6-4.7c-25.1-3.2-50.1-6.1-75.4-6.7c-27.3-0.6-54.6-0.9-82-0.9
					c-70.7,0.1-141.3,0.4-212,0.7c-15.1,0.1-30.2,3.8-45.5,0.8c-2.5-0.5-5.3,0.3-7.9,0.5c-8.6,0.7-17.2,1.8-25.8,1.8
					c-44.7,0.2-89.3,0.1-134,0.1c-6.6,0-13.3-0.5-19.9-0.7c-22.6-0.6-45.2-1.5-67.8-1.5c-6.9,0-13.9,2.4-20.6,3.7
					c0.3,6.7,5.1,8.8,8.6,11.4c18.3,13.8,29.2,32.7,35.8,54c6.7,21.6,9.9,43.8,9.9,66.8c-0.3,222-0.1,444-0.3,665.9
					c0,39.9,0.5,79.7-3.3,119.7c-2.8,29.7-4.4,59.6-9,89.1c-7,45.5-23.9,85.8-61.5,115c-1.9,1.5-3.4,3.5-6.2,6.4
					c9,4.1,17,2.6,24.6,2.6c171.3,0.1,342.6,0.5,513.9-0.1c49.9-0.2,99.7,1.8,149.6-2.4c36.3-3.1,72.9-4,109.2-8.5
					c40.9-5,81.6-11.2,121.6-21c53.9-13.2,106.1-31.1,152.9-61.8c22.2-14.6,42.9-30.8,60.6-51.3
					C4677.1,2443.8,4691.9,2388.6,4695.5,2328.8z M3251.8,2340c11.2-37.2,17.3-75,16.6-114.1c-0.6-38.7-8.8-74.9-27.9-108.8
					c-14.7-26.1-27.8-53.1-42.1-79.3c-15.6-28.6-30.1-57.8-49.1-84.5c-40.2-56.3-79.9-113.1-119.9-169.5
					c-9.1-12.8-9.4-23.6-0.1-36.3c1.9-2.7,3.9-5.3,6.1-8.3c-10-20-24.8-35-44.2-44.9c-17.5-8.9-35.7-9.3-53.8-0.2
					c-18.7,9.4-35.2,21.6-48.5,37.6c-12.3,14.8-23.4,30.7-35,46.1c-4,5.3-7.9,10.7-12.1,15.8c-10.7,13.3-25.2,13.3-40.1,10.6
					c-4.3-0.8-6.7-4.3-7-8.6c-0.3-4,0-8,0.1-12c0.4-20-1.3-39.8-6.5-59.2c-1.7-6.2-4.8-12.3-8.2-17.8c-2.2-3.6-6.8-4.6-10.7-2.4
					c-4.6,2.6-9.1,5.6-12.9,9.2c-8.3,7.7-16,16.1-24.3,23.7c-25.8,23.7-31.4,54.6-31.3,87.4c0.1,11.2,2.3,22.5,4.1,33.6
					c2.7,17.1,7.2,33.9,14.9,49.4c3.5,7,8.5,13.4,13.4,19.6c3.7,4.7,8.5,8.6,15.2,8.4c7.5-0.1,12.6,4,16.5,9.7
					c6.8,9.8,13.9,19.6,19.5,30.1c16.2,29.9,27.5,61.9,36.5,94.6c3,10.9,6.5,21.9,7.1,33c1.4,25.9-0.2,51.8-2.9,77.5
					c-2.1,20.2-0.2,40,5.4,59.3c4.4,15.2,14.2,16.9,24.3,12.3c12.8-5.9,26.6-8.4,40.5-9.9c14.2-1.5,27.7,1.7,40,8.7
					c2.6,1.5,4.3,4.8,6.2,7.5c2.8,3.9,1.8,8.2-1.5,10.7c-4.1,3.2-8.9,5.7-13.8,7.5c-7.3,2.6-13,6.3-15.6,13.8
					c3.9,5.3,7.7,10.5,11.1,15.1c-3.3,7.8-8.2,12-14.4,15c-5.4,2.6-10.8,5.3-15.7,8.7c-53.3,36.6-84.6,87.4-94.8,151
					c-4.2,26.3-2.6,53-0.8,79.6c0.7,10.2,4.3,19.4,8,28.6c2.9,7.3,8.5,11.9,15.6,14.6c9.5,3.6,19.1,3.2,28.1,0.5
					c0.6-2,1-2.7,0.9-3.2c-0.2-1.3-0.4-2.8-1.2-3.7c-16.1-19.8-15.4-43.2-14.1-66.6c0.4-7.2,2.1-14.6,4.7-21.3
					c4.5-11.3,13.7-18.9,25.8-19.1c12.1-0.2,19.1,9.1,22.6,19.6c3.1,9.4,5,19.3,5.9,29.1c2,22-0.4,43.7-7.1,64.9
					c-1.6,5.1,2.6,9.3,7.9,8.4c11.1-1.8,20.4-6.9,26-16.7c4.6-8.1,8.7-16.5,11.7-25.3c10.6-31,16.3-63,20.1-95.5
					c0.6-5.2,1.3-10.7,3.7-15.2c1.5-2.9,6.1-5.3,9.5-5.6c2.2-0.2,6.1,3.3,7,5.9c2.4,6.8,4.5,14,4.9,21.2c1.4,23.9,3.8,47.7,8.3,71.2
					c2.8,14.5,7.1,28.6,15.8,40.6c3.7,5.2,8.9,11.3,14.5,12.9c11.7,3.4,24.2,5.9,39.2,1.5c-14.9-16.3-12.4-35.8-12.8-53.9
					c-0.4-18.6-1.9-38.7,11.8-54.9c3.2-0.3,5.9-0.7,8.5-0.8c21.8-0.2,27.8,4.8,31.6,27c3.9,22.5,2.8,45,0.1,67.6
					c-0.6,5-3.9,10.3,0.8,15.1c7,2.1,13.1,0.2,19-3.5c13.3-8.3,23.7-19.4,31.5-32.8c6.3-10.9,12.4-22.1,17.5-33.6
					c12.5-27.8,16.9-57.5,16.6-87.5c-0.2-17.8-3.1-35.8-6.8-53.3c-5-23.5-13.8-45.7-27.2-65.9c-11.3-17-26.5-25.8-47-24.6
					c-15.3,0.8-30.5,2-45.7,3.3c-5.3,0.5-10.5,1.4-16.3-3.1c0.9-3.1,0.9-7.8,3.3-10c8.7-8.1,17.4-16.8,27.6-22.8
					c14.8-8.8,31.1-10.3,48.1-5c17,5.3,31.3,14.4,44.3,26.2c13.5,12.1,23.6,26.8,33,42.1c4.2,26.2,5.7,52.5,5,79
					c-0.3,13.2-0.1,26.5,0,39.7c0,3.3,0.1,6.6,0.6,9.9c0.7,4.8,5.4,7.6,10.3,6.8c5.8-1,9-4.3,8.9-11.1c-0.2-23.1-0.5-46.3-1.5-69.4
					c-0.7-17.8-2.3-35.6-15.2-49.8c-1.3-1.4-1.6-3.6-2.4-5.4c0.8-1.8,1.8-3.6,2.3-5.5c1.7-7.1,6.7-9.1,13.4-9.4
					c7.6-0.3,13.1,3.2,16.3,9.5c4.7,9.3,8.7,19,13,28.6C3248.8,2354.5,3249.8,2346.9,3251.8,2340z M2914.2,1665.9
					c13.2-27,16.7-55.5,13.3-85.1c-0.2-2.1-2.4-3.9-4.1-6.6c-5.9,7.9-10.6,14.9-16,21.5c-11.2,13.6-26,22.5-40.9,31.3
					c-8.5,5-17.1,9.8-27.2,15.6c3.5,2.9,4.4,4.2,5.5,4.4c16,2.6,27.8,11.7,38.2,23.5c4.3,4.9,9.5,9,13.7,12.8
					C2906.6,1680.1,2910.6,1673.2,2914.2,1665.9z M2869.6,1713.6c2.4-5.7,0.6-10.6-3.8-14.2c-3.5-2.8-7.7-6.4-11.8-6.7
					c-16.3-1.4-33-3.7-48.8,5.6c4.4,13.3,10.2,26,12.6,39.3c2.4,13.3,1.3,27.2,1.9,45.9c18.2-20,31.4-37.2,43.3-55.5
					C2865.9,1723.7,2867.5,1718.5,2869.6,1713.6z M2822.4,1358.7c1.8-6.9,4-10.6,3.4-13.9c-3.1-17.2-9-33.3-19.9-47.2
					c-4.1-5.2-8.4-10.3-13.6-14.4c-7.7-6.1-16.8-4.7-23.1,2.7c-1.7,2-3,4.4-4.4,6.6c-13.8,20.6-13.6,43.5-11.3,66.4
					c6.4,2.8,11.3,1.8,15.1-2.9c2.1-2.6,3.8-5.5,5.6-8.2c5.1-7.5,12.5-10,20.9-7.7c4.9,1.3,9.6,4.1,14,7
					C2812.7,1349.5,2815.9,1353,2822.4,1358.7z M2818.6,2357.2c2.8-6.2,3.5-12.6-1-18.3c-9-0.8-16.4,1.5-22.9,6.7
					c-11.4,9.2-23.1,18-34.3,27.4c-7.1,6-13.5,12.7-20.3,19.2c-5.4-2.8-3.6-8.1-4.4-12.5c2.4-6.1,4.6-12.4,7.3-18.4
					c5-10.8,10.3-21.5,15.6-32.3c5.7-11.6,7.2-24.2,8.5-36.7c0.7-6.3-1.5-11.8-8.5-14.6c-8.1,4.2-15.2,9.7-21.1,17
					c-8.1,10.2-14.5,21.4-21,32.8c-19.7,34.7-34.6,71.6-50.8,107.8c-1.1,2.4-0.7,5.3-1.1,8.6c12.4-7.8,23.6-14.8,34.8-21.8
					c3,3.6,6,7.3,9,10.9c-8.2,16.2-12.6,33.6-14.9,51.4c-2.7,20.4-5.1,40.9-0.8,61.4c0.9,4.3,1.2,9.4,8.2,11
					c1.2-1.8,2.7-3.7,3.8-5.9c1.2-2.3,2.7-4.8,2.9-7.3c1.2-12.5,2.1-25,3-37.5c0.5-6.6,0.7-13.2,1.1-19.8c0.8-13.5,8.6-22,20.3-27.2
					c3-1.4,7.2-0.2,11.3-0.2c0,15.1,0.4,29-0.1,42.9c-0.6,15.9-1.9,31.8-3,47.7c-0.6,8.3,1.2,15.8,6.7,22.3c4.1,4.9,10,4.7,13.2-0.6
					c5-8.1,7.9-16.8,7.9-26.4c-0.1-13.3-0.3-26.7,0.2-40c0.8-22,3.2-43.9,11.9-64.3c9.1-21.4,18.9-42.5,28.6-63.6
					C2811.9,2370.2,2815.7,2363.9,2818.6,2357.2z M2749,2101.8c10.3-3.8,16.2-11.3,15.3-22.9c-1.6-19.7-3.1-39.5-5-59.2
					c-0.3-3.5-3-6.8-4.8-10.7c-2.5,1.6-4.8,2.2-5.6,3.7c-12.7,21.6-22.2,45-38.3,64.7c-5,6.1-3,15.4,1.8,22.5
					c4.2,6.2,10.6,7.6,17.5,6.3C2736.2,2105.1,2742.9,2104.1,2749,2101.8z M2716,2005.6c3.5-4.7,2.3-10.1-1.9-14.5
					c-5.8-6.3-12.3-12.2-17.3-19.2c-15.3-21.2-25.4-45-32.9-70c-10-33.5-12.7-67.8-11.7-99.1c0-7.4,0-11.4,0-15.4
					c-0.1-9.3,0.3-18.7-0.3-28c-0.5-8.6-5.6-12.9-13.9-14.2c-11.3-1.7-19.6,2.3-25.1,12c-2.6,4.6-4.9,9.5-6.6,14.4
					c-9.3,25.9-12.7,52.7-11.7,80.2c0.4,10.8,1.8,21.1,6.6,30.8c22.4,46,44.7,92,67.1,138c1.2,2.4,2.5,4.7,4.1,6.9
					c6.3,9,13.9,11,21.9,3.6C2702.5,2023.7,2709.3,2014.6,2716,2005.6z M2694.9,2271.9c0.7-19.8,0-39.8-2.2-59.8
					c-4.5-42.5-12.8-84.1-24.5-125.1c-11.9-41.8-28.3-81.8-51.3-118.8c-25.9-41.5-56.6-79.1-93.2-111.5
					c-12.9-11.4-27.1-21.4-41.1-31.6c-3.6-2.6-8.4-4-12.9-5c-4.5-1.1-9.3-1.3-13.9-1.3c-4.2,0-9.1-1.7-12.5,2.4
					c9.2,9.5,18.6,18,26.3,27.7c31.3,39.1,59.4,80.4,79.2,126.7c5.7,13.3,9.4,27.7,13,41.8c1.5,5.6,1.1,11.9,0.2,17.7
					c-0.7,5.2-3.1,10.8-9.1,12.1c-6,1.3-9.8-3.2-13-7.6c-1.9-2.6-3.3-5.8-4.2-8.9c-1.5-5.1-2.7-10.3-3.7-15.6
					c-3.6-19.8-10-38.5-19-56.5c-9-17.9-18.6-35.3-29.8-51.9c-30.1-44.8-66.5-83.1-113.6-110.5c-20.4-11.9-42.2-19.8-65.3-23.7
					c-12.3-2.1-25-3.5-37.5-0.1c-0.8,6.7,3.2,8.3,8.1,9.2c3.6,0.7,7.1,1.5,11.4,2.4c-3,22.4-4,43.6,2.2,64.7
					c5.4-6.8,10.4-13.5,15.9-19.9c2.7-3.2,6.4-4.8,10.7-1.2c0,12.3-0.4,24.9,0.1,37.4c0.5,12.3-2.6,25.2,5.5,37.9
					c2.8-3.3,5.2-5.5,6.9-8.1c3.6-5.6,6.3-11.8,10.2-17.1c3.9-5.3,8.6-10.1,13.5-14.5c3.9-3.5,8.7-2.9,13,0
					c3.7,2.4,5.1,7.8,2.7,12.5c-2.4,4.7-5.9,8.8-8.4,13.5c-1.5,2.7-1.9,5.9-3.1,9.9c3.8,0.6,6.2,1.3,8.7,1.3
					c5.3,0.1,10.7-0.4,15.9,0c5.3,0.4,8.6,4.3,7.9,9.6c-1.2,7.9-3,15.7-4.9,23.4c-1.9,7.7-4.4,15.4-6.4,23.1
					c-1.2,4.7-1.1,9.2,3.2,12.7c3.8,3.1,7.6,1.6,11.1-0.2c7.7-4,15.5-7.7,22.8-12.4c20.4-13.3,27.4-0.6,30.1,14.9
					c0.4,2.6,0.4,5.3,0.4,8c0.1,6,0.4,12,0,18c-1.5,18.6,6.4,33.6,17.4,47.5c2.9,3.6,6.5,6.7,9.6,10.1c8.3,9.2,13.3,19.8,13,32.6
					c-0.2,8.7-0.3,17.3-0.5,26c-0.7,33.2-0.9,66.4-3.2,99.7c-1.8,25.2-1.4,50.6-1.7,75.9c-0.2,17.3-0.6,34.7,0.5,52
					c2.1,33.3,20.3,55.1,50.7,67.8c19.7,8.2,40.1,8.6,60.9,8.1c24.4-0.6,43.7-11.1,57.9-30.4c8.7-11.7,15.5-24.8,23.8-36.9
					C2688.9,2326.1,2693.9,2299.3,2694.9,2271.9z M2679,2619.6c1,0,2-1.1,4.1-2.4c-2.6-2.2-5-4.1-7.2-6.2
					c-11.8-11.7-23.9-23.1-35.3-35.2c-6.5-6.8-11-15.1-11.5-24.9c-0.9-19.4-0.6-38.5,8.1-56.7c4.8-10,7.9-20.7,13-34.1
					c-17.7,5.2-31.5,9.6-45.6,13.3c-20.1,5.4-40.2,9.5-60.8,2c-3.7-1.3-7.8-2-11.8-2c-13.8-0.1-25.8-5.4-37.9-11.1
					c-26.4-12.3-49.2-29.1-67.5-51.7c-18.4-22.8-30.4-48.3-29.4-78.5c0.2-5.8,1.1-12.1-3.1-16.7c-10.1-6.4-20.5-4.6-31.2-4
					c-11.3,0.6-18.7,6.1-24.5,14.8c-4.1,6.1-7.7,12.4-11.9,18.4c-6.5,9-15.2,14.1-26.4,16.3c-28.9,5.7-58,7.9-87.3,7.8
					c-26-0.1-52,0.3-78,0.3c-10.8,0-21.2,1.3-31.4,4.7c-28.3,9.5-55.6,21.7-84.1,30.8c-19.7,6.3-31.4,21.2-31.4,43.8
					c0,16.6-2.6,33.2-3.3,49.8c-0.6,15.6-7.3,28.4-17.8,39.1c-8.3,8.5-17.6,16.3-27.4,23c-12,8.2-25.1,15.1-37.7,22.4
					c-11.7,6.7-24.1,11-37.8,11c-39.3-0.1-78.6-0.2-118-0.2c-10.8,0-21.2-1.5-31.1-6c-3.5-1.6-7.6-2.4-11.5-2.7
					c-5-0.4-9.4,1.6-10.7,7c-2.1,8.9-7.7,17-6.7,26.7c1.3,0.6,2.4,1.7,3.5,1.7C2019.2,2619.8,2349.1,2619.7,2679,2619.6z
					 M2519.2,1732c7.9-20.8,15.5-41.8,30.4-61.2c-14.7-3.2-27.8-2.4-40.6-4.1c-13.5-1.8-26.9-4.8-42.2-5.4
					c4.1,38.7,16.6,72.5,38.8,105.2c2.8-5.9,4.9-9.8,6.4-13.9C2514.6,1745.8,2516.6,1738.8,2519.2,1732z M2457.1,1345.5
					c-0.5-3.2-0.2-4.8-0.9-5.7c-12.4-15.9-27-29.4-45.1-38.3c-7.4-3.6-16.6-6.2-24.7-5.5c-17.3,1.4-31,10.8-41.7,24.6
					c-5,6.4-6,13.3-3.6,20.6c2.4,7.6,6.3,14.4,12.3,20.1c16.8,16.1,32.8,32.9,46.6,51.7c1.8,2.4,4.8,3.8,6.7,5.3
					c7.8-4.2,9.2-9.1,6-15.6c-4.7-9.6-7.9-19.7-8.4-30.4c-0.7-14.9,4-20.8,18.4-22.8c3.9-0.5,7.9-0.2,11.9-0.2
					C2441.9,1349.2,2449,1348.6,2457.1,1345.5z M2426.7,2092.5c2.8-18.9-0.3-37.4-9.3-54c-6.4-11.9-11.6-23.6-10.1-39.7
					c-4.9,2.1-7.2,2.3-8.3,3.6c-13.2,14.1-23.6,30.3-33.1,47.1c-1.6,2.8-1.8,6.3-2.7,9.5c-1.5,5.7-0.1,10.3,4.3,14.3
					c10.8,9.8,20.8,20.5,32.1,29.7C2414.3,2115,2423.9,2111.1,2426.7,2092.5z M1920,2321.1c6.6-6.6,6.7-12.3-0.3-19
					c-10.5-10-21.7-19.2-33.3-29.3c-3.8,3-5.7,3.9-6.8,5.4c-9.8,14.5-14.9,31-18.7,47.9c-1,4.4-0.4,9.3,0.1,13.9
					c0.6,6.1,5,9.1,11.3,8.4c1.3-0.1,2.7-0.1,3.9-0.6C1892.5,2341.8,1907.6,2333.5,1920,2321.1z M1919.2,2497.2
					c6.7-25.1,3.1-50.3-1.2-75.2c-1.8-10.6-8.1-19.6-15.5-27.5c-5.1-5.5-11.1-9.6-19.2-9.1c-6.9,0.4-13.5-1-18.7-5.5
					c-8.8-7.5-19.3-8.2-30.1-8.2c-22,0.1-44-0.7-66,0.3c-25.7,1.2-50.4-1.2-73.6-13.3c-1.7-0.9-3.8-1.3-5.7-1.9
					c-9.7-3.3-18.9-4.7-28.9,0.6c-9.5,5.1-19.5,3.2-28-3.8c-7.7-6.3-15.7-12.5-22.4-19.8c-9.8-10.6-21.3-15.3-35.5-14.4
					c-13.9,0.9-27.9,1.8-41.8,1.8c-13.8,0-24.4,5.9-33.4,15.3c-5,5.3-9.7,11.1-13.4,17.3c-9.5,16-18.4,32.3-27.4,48.6
					c-1.5,2.8-2,6.1-2.6,8.1c3.1,6.6,7.6,8.6,12.9,10.5c24.4,8.8,49.1,16.8,72.8,27.3c36.6,16.2,72.1,34.6,98.1,66.7
					c7.1,8.8,16.2,13.1,27.8,13c25.4-0.3,50,5.7,74.8,10.3c3.9,0.7,7.9,1.2,11.9,1.2c13.4,0.3,19.4-4.7,21.8-17.8
					c0.5-2.6,0.4-5.3,0.4-8c0-16-0.3-32,0.2-48c0.3-9.1-2.7-17-7-24.5c-5-8.7-11.1-16.6-19.3-22.6c-6.4-4.7-12.9-9.4-16-17.2
					c2.7-7.2,8.8-10.3,15.4-11.3c4.2-0.7,9.4,0.4,13.3,2.4c25.2,12.8,42.6,31.6,44.8,61.3c0.4,6,0.9,12,0.8,18
					c-0.3,16-1.1,31.9-1.5,47.9c-0.2,8,2.6,11.5,10.3,11.6c22,0.3,44,0.5,66,0c11.9-0.3,22-5.9,28.6-16
					C1915.2,2509.9,1917.6,2503.5,1919.2,2497.2z M1817.7,2327.1c4.9-6,5.3-13,5.2-20.5c-0.3-29.3-0.5-58.7-0.1-88
					c0.1-10.6-2.2-19.7-9-27.7c-15.2-17.9-26.2-38.5-37.2-59c-9.4-17.5-18.6-35.4-22.6-55.1c-2.6-12.7-8.9-23.5-15.7-34.2
					c-23.6-37.3-53-70.1-80.4-104.5c-5.8-7.3-13.2-11.2-22.1-12c-6.6-0.6-13.4-0.8-19.8,0.4c-15,3-30,6.3-44.6,10.7
					c-10.4,3.1-20.8,4.9-31.5,3.9c-3.4-0.3-6.5-3.4-9.7-5.2c2.2-11.1,6.7-19.8,12-28.3c13.2-21.2,30.5-38.6,50.6-53.1
					c13.5-9.8,17.8-22.6,14.9-38.4c-0.5-2.6-1.6-5.1-2.2-7.7c-5.7-28-12.5-55.8-16.8-84c-4.3-28.2-6.3-56.8-6-85.5
					c0.2-22-0.5-44,0.3-66c0.5-13.3-4.1-23.4-13.8-31.6c-5.1-4.3-10.1-8.8-15.9-12.1c-12.1-6.9-24.6-13.3-37.1-19.4
					c-15.5-7.6-31.4-14.5-47-22.1c-7.4-3.6-10-10.7-9.3-18.4c0.7-7.6,6.6-11.6,13.5-12.8c9.1-1.7,18.4-3.1,27.7-3.2
					c26.7-0.4,53.3,0.1,80-0.2c12.4-0.1,14.8-2.4,18.7-13.9c6.6-19.5,12.9-39.1,19.8-58.5c19.8-55.7,39.9-111.3,59.8-166.8
					c-5.5-11.3-10.8-22-15.9-32.8c-11.6-24.7-23.1-49.5-29.7-76c-2.2-8.9-2.4-18.4-2.5-27.6c-0.1-5.8,4.6-9.4,10.6-9.9
					c7.7-0.5,14.5,1.9,20.6,6.3c6,4.3,11.4,9.2,17.3,13.5c11.9,8.7,25.1,15.2,39.3,19.1c7.8,2.2,15.8,2,23.5-1.2
					c6.6-2.7,11.1-7.1,12.6-14.7c-4.1-9-12.7-13-20.9-17.1c-29.6-14.6-52.1-36.5-68.8-64.8c-3.7-6.3-7.5-12.6-11.4-18.8
					c-8.4-13.6-16.9-27.1-25.3-40.7c-10-16.3-24.9-25-43.2-29.5c-18.1-4.4-36.1-3-53.4,1.6c-62.6,16.9-120.2,43.3-165.7,91.5
					c-21,22.3-43.2,43.5-63.7,66.2c-25.9,28.7-51,58.1-72.4,90.4c-10.3,15.5-19.5,31.7-28.9,47.8c-18.2,31.1-40.1,59.7-61.8,88.3
					c-16.1,21.2-32.1,42.5-48,63.9c-6,8.1-10.5,17.2-10.9,27.4c-0.1,3.4,2.1,6.9,3.4,10.8c13.2-4,22.3-11.7,31.1-19.8
					c11.9-10.8,24.4-20.5,40.1-25.3c9.7-3,17.1,0.6,23.5,6.7c7.1,6.8,5.1,18.8-4,23.7c-4,2.2-8.7,2.8-13.1,4.4
					c-4.3,1.5-9.5,2.2-12.8,5c-15.5,13.6-31,27.3-45.5,41.9c-10.7,10.8-15.4,24.6-15.1,40c0.3,13.3,0.6,26.7-0.2,40
					c-0.9,14.6-2.8,29.1-4.8,43.6c-0.7,5.2-2.9,10.4-9.3,12.1c-6.7-1.9-11.8-6.1-14-12.8c-2.9-8.8-6.9-17.6-7.6-26.6
					c-3.8-47.6-10.1-95.1-9.9-143c0-4,0-8.1-0.9-11.9c-1.1-4.7-3.4-8.7-10.6-9.1c-11.4,7-23.7,14.8-36.3,22.2
					c-49.5,28.7-99,57.5-148.8,85.8c-34.1,19.4-68.8,38-105.6,52c-29.3,11.2-57.7,24.3-85,39.6c-73.6,41.2-133.9,96.5-175.3,170.6
					c-15.9,28.4-29.7,58-43.4,87.6c-10.4,22.4-22.2,43.9-36,64.3c-25.2,37.3-59,65-98.9,85.2c-49.3,25-92.9,57.1-128.3,99.9
					c-25,30.3-42.8,64.2-52.3,102.1c-3.5,14-5.6,29.3-3.9,43.5c2.7,23.3,2.8,46.5,2.9,69.8c0.1,12.9-2.8,25.1-8.9,36.5
					c-6.2,11.8-12.5,23.5-18.7,35.3c-5.7,10.7-8.3,22.2-10.1,34.2c-2.6,17.9-1.7,35.8-2.5,53.7c-0.5,11.9-2.4,23.8-4.4,35.6
					c-1.6,9.1-4.9,17.9-6.4,27c-5.2,32.8,3.1,60.8,30.7,81.2c6.4,4.7,13.2,9,20.2,12.8c27.8,14.9,57.5,24.2,88.6,29.5
					c30.9,5.3,62,8.2,93.4,6.6c17.9-0.9,35.8-2.3,53.5-4.9c11.1-1.6,22-5.3,31.1-12.9c3.8-17.4-2-35.7,3.4-53.4
					c9.9-0.6,19.1-2.2,27.5,1.8c7.1,15,5.5,30.5,6.7,45.6c0.3,3.7,1.5,7.4,2.4,11.9c6.9,0,12.8,0.2,18.8,0
					c19.9-0.8,39.9-1.7,59.8-2.5c12-0.5,24-0.6,35.9-1.7c24.5-2.1,41.4-20.1,42.7-44.6c1-19-2.4-37.1-9.5-54.7
					c-12.1-29.9-28-57.4-52.1-79.5c-8.1-7.4-16.8-12.4-28.3-13c-17.9-0.8-35.8-3.9-53.6-3.9c-56-0.1-111.9,0.8-167.9,1.3
					c-2.6,0-5.6,0.2-7.9-0.8c-2.1-0.9-4.1-3.1-5-5.2c-0.6-1.4,0.3-4.5,1.5-5.4c4.8-3.5,9.9-6.9,15.2-9.4c14.3-6.9,25.2-17.4,33-31
					c5.6-9.8,11.1-19.8,15.2-30.2c15.9-40.3,29.6-81.3,27.3-125.6c-0.1-1.3,0.6-2.6,1.2-5c2.2-0.5,3.5-1.1,4.7-1
					c2,0.2,4,0.6,5.7,1.5c31.1,15.9,64.5,19.9,98.8,20c33.4,0.2,66.4-3.7,99-10.7c22-4.7,44-10.5,65.2-18.2
					c44.4-16.1,81.7-44.4,118.7-72.9c9.5-7.3,13.4-17.6,13.5-29.8c0.1-31.2,3.2-62.2,8.4-93.1c6.4-38.3,17.9-74.8,31.9-110.7
					c15.9-40.5,38.3-77.5,59.5-115.1c12.1-21.5,24.9-42.5,40.1-62c30-38.3,59.9-76.6,90.2-114.7c7.4-9.3,16.3-17.5,24.2-26.6
					c6.4-7.5,14.4-8.9,23.5-7.6c7.2,1,12.6,9.9,9.5,16.6c-2.4,5.4-5.8,10.5-9.4,15.3c-28.1,38.1-56.8,75.7-84.4,114.1
					c-45.1,62.8-86.8,127.8-118.4,198.7c-12.5,28-23.4,56.7-28.8,86.7c-4.9,27.4-6.1,55.5-6.7,83.5c-0.4,23.7,5.4,44.5,20.3,63.1
					c20.4,25.5,31.2,55.3,37.4,87.1c8.7,44.3,18.4,88.5,31.7,131.7c8.5,27.3,18.4,54.1,33.1,78.8c8.3,14,18.6,25.9,32.7,34.4
					c5.7,3.4,11.1,7.4,16.4,11.3c13.6,9.9,18.9,23,17.5,39.9c-1.1,13.9-0.3,27.9-0.2,41.8c0,10.2,5.4,17.6,13.1,23.5
					c2.6,2,5.4,3.8,8.2,5.7c47.3,31.3,96.5,59.2,149.8,78.9c26.9,9.9,54.6,18.2,83.6,17.9c69.9-0.5,139.9,3.1,209.6-3.8
					c19.8-2,39.8-3,59.6-5.6c12.5-1.6,25-4.3,37-8c14.1-4.3,20.4-14.8,18.1-29.4c-7.3-46.6-41.7-83.2-79-87.4
					c-6.6-0.7-13.1-2.1-19.7-3.2c-8.5-1.4-17.1-2.6-25.6-4.4c-5.8-1.2-7.7-8-3.9-12.6c0.8-1,1.6-2.2,2.6-3
					c22.7-19.1,48.9-22.5,73.7-6.5c12.9,8.3,24.9,17.6,34.6,29.7c8.7,10.9,18.2,21.2,27.8,31.4c12.2,12.8,27.5,11.9,42.8,7.9
					c5.7-1.5,10.4-6.3,11.8-12.7c1.8-8.4,3-16.4,1.4-25.5c-5.4-31.8-21.1-57-45.6-77.3c-52.4-43.6-113.2-56.9-179.6-49
					c-7.8,0.9-15.7,3.1-21.9,8.8c-2,1.8-4.3,3.2-6.7,4.4c-4.9,2.4-11.7-0.8-12.1-6.5c-0.3-4.4,0.8-9.1,2.2-13.3
					c1.7-4.9,5.3-9.4,1.3-16.2c-7-2.7-14.9-6.1-23.1-8.8c-5.7-1.9-11.6-3.5-17.5-4.2c-7.2-0.9-14.7-1.6-21.9-0.9
					c-12.8,1.2-23.1,10.8-23.9,23c-1.1,15.9-1.5,31.8-1.5,47.8c0,13.9,1.1,27.8,1.7,41.5c-3.7,2.3-6.4,4-9.3,5.6
					c-2.3,1.3-4.7,2.5-7.2,3.5c-7.7,3.1-13,1.5-16.8-5.6c-1.8-3.4-3.1-7.4-3.3-11.3c-1.6-23.2-3.3-46.4-4.1-69.6
					c-0.6-16.6,1.2-33.1,2.2-49.6c2.2-34.9,8-68.7,21.7-100.8c7.5-17.6,10.3-35.7,10.4-54.4c0.3-36.7,0.4-73.3,0-110
					c-0.2-17.9-1-36.2-9.2-52.5c-8.6-17.1-6.9-34.9-6.6-52.7c0.1-4.2,1.4-8.8,5.8-9.4c3.4-0.5,7.6,1.4,10.8,3.2
					c2.8,1.6,4.8,4.6,6.9,7.1c3,3.5,6.2,7,8.8,10.9c11.6,16.8,24.2,17.4,36.2,0.5c4.6-6.5,9-13.2,13.2-19.9
					c5.3-8.4,9.9-17.5,15.8-25.4c5.1-6.9,11.4-12.9,17.7-18.8c4.7-4.4,10.6-5.2,16.8-3.3c11.8,3.5,23.5,23.3,14.3,35.8
					c-2.7,3.7-5.7,7.8-6.8,12.1c-1.9,7.3-8.2,14-4.4,23.7c3.5-0.9,6.7-1.2,9.4-2.6c10-5.3,19.6-11.5,29.8-16.2
					c12-5.6,24.6-10,36.9-14.8c3.9-1.5,8-2,10.5,2.5c2.3,4.1,0.6,7.9-2,11.1c-5.5,6.7-11.4,13-17.1,19.6c-1.9,2.3-3.5,4.8-6.2,8.6
					c6.2,1.6,10.7,2.7,15.1,3.9c23,6.3,46.1,12.5,69.1,19.1c4.4,1.2,8.5,3.6,12.3,6.1c3.5,2.3,5.8,6.4,3.5,10.3
					c-1.4,2.4-5,5.1-7.7,5.1c-14,0.3-28,0.8-41.9-0.6c-28.5-2.8-56.8-6.8-85.3-9.9c-22.7-2.5-45.1-1.5-67.1,5.5
					c-12.6,4.1-20.5,11.5-21.3,25.6c-0.9,15.2-2.8,30.4-3.7,45.6c-0.5,10,0.6,19.8,7.8,28.5c6,0,12.2,1,17.9-0.2
					c14.5-3.1,29.2-1.7,43.8-2.2c4-0.1,8.3,1,11.9-0.1c16.6-5,29.5,2.6,42.8,10.8c18.1,11.3,36.5,21.9,55.2,32.1
					c28.3,15.5,59.3,23.4,90.1,31.9c65.4,18.1,130.7,36.6,196,54.9C1804.6,2328.8,1811,2330.6,1817.7,2327.1z M1798.3,1212
					c3.2-9.1,2.8-18.4,0.9-27.5c-1.5-7.1-8.4-10.1-14.1-13.3c-26-14.7-52.1-29.2-78.3-43.4c-6.2-3.4-12.8-6.5-23.8-6.9
					c2.4,6.1,3.4,9.9,5.3,13.2c14,24.8,28.2,49.6,42.4,74.3c5.3,9.2,10.6,18.4,16.6,27.2c5.1,7.5,13.2,10,20.9,6.5
					C1782,1235.9,1793.1,1226.8,1798.3,1212z M1693.1,1880.6c6.1-3.5,10-9.9,9.4-16.7c-0.8-9.1-3.3-18.2-6-27
					c-1-3.3-4.6-5.9-6.7-8.5c-31.7,13.9-72,51-79.6,72.9v0c0.3,0.2,0.7,0.4,1,0.7c0.1,0,0.1,0.1,0.2,0.1c0.1,0.1,0.3,0.2,0.4,0.3
					c0.6,0.4,1.2,0.7,1.7,0.6c18.3-3.3,36.7-6,54.7-10.4C1676.9,1890.3,1685.1,1885.2,1693.1,1880.6z M1674.2,1533.3
					c0.5-11.9,0.8-24-0.4-35.8c-0.9-8.1-6.3-12.8-15.2-12.7c-26.6,0.2-53.3,0-79.9,0.2c-3,0-6,1.8-9.6,2.9
					c1.5,8.8,6.6,13.8,12.5,18.1c7,5.1,14.3,9.7,21.1,15c14,10.8,30.1,16.8,46.9,21.2c4.4,1.1,9.2,1.4,13.8,1.1
					C1669.3,1543,1674,1539,1674.2,1533.3z M1404.8,2400.4c1.1-6.2,3.4-13.3,3.3-20.4c-0.4-21.9-1.7-43.9-3-65.8
					c-0.3-4.6-2.2-9-3.4-13.5c-1.9-7.5-7.5-11.6-14.4-11.9c-14.5-0.6-29.2-2.6-44.1,3.8c-2.3,9.3-4.5,18.9-6.9,28.5
					c-5.5,22.5-12.7,44.7-14.3,68.1c-0.5,7.1,2.4,11.4,9.4,12.7c3.3,0.6,6.6,0.4,9.9,0.7c11.2,1.1,22.7,1.2,33.7,3.6
					C1385.6,2408.5,1394.7,2407,1404.8,2400.4z M674.7,2609.1c1.7-25.6-7.6-48.3-19.6-69.9c-15.6-28.1-38.5-48.7-68.9-60.1
					c-2-0.7-4.5-0.1-8.8-0.1c3.6,6.2,6.1,10.8,8.9,15.1c3.2,5,7.1,9.6,10,14.8c17.5,31.3,21.6,64.6,13.2,99.4
					c-1.3,5.6-0.5,10.5,5.1,15.3c18-0.1,37.2,0.7,55.4-0.3c1.6-2.3,2.8-3.3,3.1-4.5C673.8,2615.6,674.4,2612.3,674.7,2609.1z
					 M638.3,1534.7c5.3-5.2,5.6-12.4,0-17.5c-3.9-3.6-8.3-7-13.1-9c-33.7-14.2-67.3-28.7-101.4-41.7c-15.5-5.9-32.5-8.2-49-3.5
					c-28.8,8.2-58.2,13.6-87.7,18.6c-14.3,2.4-28.6,4.8-43,7.2c0,1.4,0,2.7-0.1,4.1c6,2.1,11.9,4.8,18.1,6.1
					c34.6,7.5,67.6,19.6,100.2,33.2c30.1,12.5,59.3,26.8,85.7,46.3c11.8,8.8,14.7,8.8,26.5,0.7c19.8-13.5,39.4-27.2,59.1-40.8
					C635.3,1537.3,636.9,1536.1,638.3,1534.7z"/>
				<path class="st2" d="M7402.8,1500c1.7,0,3.4,0.6,5.6,1.1c-13.8,11.3-26.5,22.7-40.3,32.6c-13.3,9.5-22.6,22.5-33,34.5
					c-24.4,28.1-46.6,58.1-66.9,89.4c-35.1,54.2-66.9,110.3-97.5,167.2c-34.8,64.5-67.6,130-100.4,195.5
					c-20.2,40.5-39.8,81.3-60,121.8c-13.7,27.4-28.1,54.4-41.8,81.8c-69.1,139-138,278.1-207.1,417.1c-3.1,6.3-4.9,13.7-12.5,18.6
					c-3.1-5-6.1-9.2-8.5-13.8c-24.3-47.4-48.4-94.9-72.8-142.4c-10.3-20.1-21.3-39.9-31.5-60c-6.6-13-12.2-26.6-18.9-39.7
					c-23.6-46.3-47.5-92.4-71.1-138.7c-30-58.7-60-117.5-89.9-176.3c-16-31.4-31.6-62.9-47.6-94.3c-31.7-62.3-62.8-125-95.6-186.8
					c-32.4-61.1-63.9-122.8-100.5-181.6c-21.8-35-43.7-70.2-74.8-98.2c-6.9-6.2-14.2-12-21.2-18.1c-2.3-2-4.3-4.4-6.1-6.3
					c2.1-4.5,5.1-3.4,7.5-3.4c26,0.1,52.1-1.2,77.9,0.9c78.5,6.4,157.1,1.1,235.7,2.9c6.6,0.2,13.5,0.3,19.9-1.1
					c13.3-2.7,26.3-2.7,39.6-0.4c6.4,1.1,13.5,1,19.8-0.6c11.3-2.9,22.3-1.3,33.2-1.9c1.4,5.6-2.4,6.7-4.9,8.5
					c-21.5,15.5-31,36.3-32.3,63c-1.5,31.5,9.4,59,22.2,86c22,46.3,46.9,91.2,72.7,135.5c14.1,24.1,27.3,48.8,41,73.2
					c19.9,35.4,39.9,70.7,59.9,106.1c15.7,27.8,31.4,55.7,47,83.5c26.1,46.4,52,92.9,78.2,139.3c17,30.1,34.1,60.3,51.8,90
					c3.5,5.9,3.2,14.8,11.4,17.6c6.1-1,6.8-6.3,8.7-10.2c13.6-28.2,26.9-56.5,40.3-84.8c23.9-50.6,47.8-101.1,71.6-151.7
					c19.3-41,38.6-81.9,57.5-123.1c28-61.1,55.6-122.4,76.1-186.6c9.5-29.9,17.3-60.2,21.2-91.1c4.9-39.1-1.4-77.3-23.3-111.1
					c-10.9-16.9-26-30.3-43.2-42.5c16-0.9,31.8-3.1,47.5,0.2c1.9,0.4,4,1.4,5.9,1c29.9-6,59.7,3.4,89.6,0.7c11.2-1,22.7,0.1,34-0.2
					c23.9-0.8,47.8-2.1,71.8-2.8C7366.8,1499.9,7384.8,1500,7402.8,1500z"/>
				<path class="st2" d="M6048.9,2279.2c8.4,55.9,3.9,110-20.9,161.6c-18.6,38.8-47,69.2-81.8,93.8c-37.9,26.8-80,44.9-124.4,57.7
					c-21.1,6.1-42.3,11.9-63.7,16.6c-21.4,4.6-43.1,7.7-64.7,11.2c-15.1,2.5-30.2,4.6-45.2,6.9c-1.3,0.2-2.6,0.5-4,0.5
					c-28.6,0.1-56.9,6.1-85.6,4.8c-3.3-0.1-6.8-0.6-10,0.2c-23.7,5.5-47.8,3-71.7,3c-196.6,0.2-393.3,0.1-589.9,0.1
					c-7.8,0-15.5-0.3-23-0.5c-1.4-5.4,2-7.2,4.5-9c34.5-23.9,51.7-58.4,59-98.4c5-27.4,8.1-55.1,11.7-82.8c0.9-6.6,0.1-13.3,0.6-20
					c5.5-81.1,4.4-162.4,4.4-243.6c0.1-174,0-348,0-522c0-22.6-0.4-45.3-4.8-67.5c-6.5-33-20.6-61.8-48.8-82.1c-1.6-1.2-3.5-2-5-3.2
					c-1-0.8-1.6-2-3.2-3.9c1.6-0.8,3.2-2.3,4.4-2.1c9.9,1.5,19.6,1.9,29.6,0c5.8-1.1,12.1-1,17.9-0.1c26.5,4.2,53.2,2,79.8,2.3
					c32,0.4,64,0.3,96,0c11.3-0.1,22.5-1.4,33.8-2.1c2.7-0.2,5.4-0.7,8-0.3c23.3,3.4,46.3-1.9,69.6-1c23.3,0.9,46.6,0.3,70,0.2
					s46.7-0.5,70-0.7c23.3-0.1,46.7-0.1,70,0c24.7,0.1,49.5-1.1,73.9,1.2c25.1,2.3,50.5,1.4,75.4,6.4c0.7,0.1,1.3,0.2,2,0.2
					c26.1-0.5,51.6,4.7,77.2,8.6c56.1,8.5,111.2,20.8,162.9,44.8c31,14.4,59.3,33.1,82.3,58.9c22.2,25,36.4,54.1,42.1,86.9
					c2.9,16.9,4.6,34,4.1,51.3c-0.7,22.2-5.8,43.4-14.2,63.9c-9.1,22.4-21.4,43-38.2,60.4c-9.7,10-20.3,19.3-31.7,27.4
					c-19.6,13.8-40.3,25.7-62.4,35.4c-33,14.6-67.1,25.8-102.2,33.7c-35,7.8-70,15.5-105.9,18.2c-7.9,0.6-15.7,2.3-23.4,7.7
					c1.3,8.3,2.5,16.6,3.9,25.6c9.1,3.3,18,5.3,27.4,5.4c27.3,0.2,54.2,4.6,81.3,7.4c33.9,3.6,66.9,11.1,100,18.1
					c24,5.1,47.3,13.5,70.5,21.7c17.5,6.2,34.9,13.4,51.4,21.8c28.5,14.6,54.9,32.4,77.9,55.2
					C6019.5,2193,6041.8,2231.9,6048.9,2279.2z M5751,2337.8c1.5-6.1-0.1-13.2-0.6-19.8c-0.4-5.3-2.1-10.5-2-15.8
					c0.5-30.3-5.5-59.6-14.2-88.3c-17.5-57.5-52.1-101.1-106.5-128.3c-25.2-12.6-51.4-21.6-78.9-27.6c-38.4-8.4-77-14.7-116.4-14.4
					c-5.3,0-11,0.8-15.9-0.7c-9.8-3-19.8-2.9-29.7-2.6c-30.5,1-61,2.4-91.6,3.6c0-0.3,0-0.6-0.1-1c-24.5,1.6-49,3.2-73.6,4.9
					c-1.3,0.1-2.7,0.3-4,0.5c-6,1.3-9.8,5.5-8.4,11.5c3.6,15.9,1.9,31.9,2,47.8c0.2,66.6,0.3,133.3,0,200
					c-0.1,17.3,1.9,34.7-1.9,51.8c-0.4,1.9-0.1,4,0.1,5.9c2,21.8,4.5,43.6,5.9,65.4c0.9,14.6,1.7,29.2,4.8,43.5
					c5.2,24.1,9.7,48.3,21.8,70.2c5.5,9.9,11.3,19.8,20.8,26.5c14.7,10.5,30.4,19.4,47.6,24.9c29.9,9.6,60.9,13.8,92.1,15
					c25.2,1,50.4-0.6,75.7-2.6c40.8-3.3,80.4-10.8,118.4-25.6c28.7-11.2,55.1-26.7,77.9-47.8c27-24.9,45.8-55.2,57.6-89.8
					c7.9-23.3,15.2-46.8,15.9-71.8C5748.5,2361.6,5748,2349.6,5751,2337.8z M5658.2,1827.2c8.7-45.7,8.8-91.2-2.5-136.4
					c-14.8-59.3-51.2-101.4-105.9-127.2c-47.4-22.4-98.4-31.4-150.4-35.3c-12.6-1-25.2-0.9-37.8-1.7c-7.3-0.4-14.5-2.3-21.7-2
					c-30.5,1-61.1,2.2-91.5,4.1c-11.7,0.7-23.3,3.6-34.7,5.5c-3.5,8.7-2.2,16.8-2.2,24.6c-0.1,132.5,0,265.1-0.2,397.6
					c0,10.6-1.2,21.2-2.2,31.8c-0.7,7.5-0.6,14.6,4.6,22.2c26.2,6,52.1,4.9,77.7,5.4c50.5,1.1,100.9,1.5,151.1-7.4
					c39.6-7,77.7-17.3,113.3-36.2c27.7-14.7,49.8-35.6,67.9-60.6C5642,1886.3,5652.4,1857.7,5658.2,1827.2z"/>
				<path class="st3" d="M5750.4,2318c0.5,6.6,2.2,13.6,0.6,19.8c-3,11.9-2.6,23.8-2.9,35.7c-0.7,25-8,48.5-15.9,71.8
					c-11.8,34.6-30.5,64.9-57.6,89.8c-22.8,21-49.3,36.6-77.9,47.8c-38,14.8-77.6,22.4-118.4,25.6c-25.3,2-50.5,3.6-75.7,2.6
					c-31.2-1.2-62.2-5.4-92.1-15c-17.2-5.6-32.9-14.5-47.6-24.9c-9.4-6.7-15.2-16.6-20.8-26.5c-12.2-21.9-16.6-46.1-21.8-70.2
					c-3.1-14.4-3.9-28.9-4.8-43.5c-1.4-21.8-3.9-43.6-5.9-65.4c-0.2-2-0.5-4.1-0.1-5.9c3.8-17.2,1.8-34.6,1.9-51.8
					c0.3-66.7,0.2-133.3,0-200c0-15.9,1.6-31.9-2-47.8c-1.3-5.9,2.4-10.2,8.4-11.5c1.3-0.3,2.6-0.4,4-0.5c24.5-1.6,49-3.2,73.6-4.9
					c0,0.3,0,0.6,0.1,1c30.5-1.2,61-2.6,91.6-3.6c9.9-0.3,19.9-0.5,29.7,2.6c4.9,1.5,10.6,0.8,15.9,0.7c39.4-0.3,78,6,116.4,14.4
					c27.5,6,53.7,15,78.9,27.6c54.4,27.2,89,70.8,106.5,128.3c8.7,28.7,14.7,58,14.2,88.3C5748.4,2307.5,5750,2312.7,5750.4,2318z
					 M5719.1,2328.3c0.4-17.9-1.5-35.8-2.6-53.7c-0.4-5.9-0.5-12-2-17.8c-7-27.8-17.3-54.4-31.5-79.4c-9.3-16.4-21.2-31-36.1-42.2
					c-24-18-50.2-32.5-79.8-39.6c-12.3-2.9-24.4-6.6-36.7-9.3c-29.9-6.5-60.2-12.1-90.6-12.9c-55.9-1.5-111.9-0.1-167.8,0.1
					c-9.5,0-18.5,2.1-29,7.5c-0.2,7.8-0.6,15-0.6,22.3c-0.1,77.9,0,155.9-0.1,233.8c0,38.6,1.1,77.2,7.8,115.4
					c0.7,3.9,1.5,7.9,1.3,11.9c-0.8,19.9,6.2,37.8,13.6,55.7c8.1,19.6,22.5,32.8,41.8,40.4c27.4,10.9,56.2,16.4,85.6,17.6
					c23.3,0.9,46.7,1.6,69.9-0.2c27.1-2.1,54.5-4.9,80.9-11.1c31.7-7.5,62.1-19.3,89-38.9c41-29.9,68-68.5,77.4-118.7
					c1.3-7.2,3.6-14.3,4.4-21.5C5716.2,2368,5718.6,2348.1,5719.1,2328.3z"/>
				<path class="st3" d="M5655.8,1690.8c11.2,45.2,11.2,90.7,2.5,136.4c-5.8,30.5-16.3,59.2-34.4,84.3c-18.1,25-40.3,46-67.9,60.6
					c-35.6,18.9-73.8,29.2-113.3,36.2c-50.2,8.9-100.6,8.6-151.1,7.4c-25.6-0.6-51.6,0.6-77.7-5.4c-5.2-7.5-5.3-14.7-4.6-22.2
					c1-10.6,2.1-21.2,2.2-31.8c0.2-132.5,0.1-265.1,0.2-397.6c0-7.8-1.2-15.9,2.2-24.6c11.5-1.9,23-4.7,34.7-5.5
					c30.5-1.9,61-3.1,91.5-4.1c7.2-0.2,14.5,1.6,21.7,2c12.6,0.7,25.3,0.7,37.8,1.7c52,4,102.9,12.9,150.4,35.3
					C5604.6,1589.4,5641,1631.5,5655.8,1690.8z M5628.5,1815.8c4-25.6,4-51.6,2.7-77.5c-1.8-36.9-12.4-70.3-35.2-99.8
					c-11.2-14.5-24.7-25.6-40.2-35.2c-38.2-23.5-80.8-33.2-124-41.5c-1.3-0.3-2.6-0.3-4-0.3c-31.9-1.4-63.7-3.5-95.6-4
					c-20.6-0.3-41.2,1.6-61.7,2.6c-8.5,0.4-17,0.9-25.5,1.3c-3.7,9.5-2.6,18.2-2.6,26.7c-0.1,109.3,0,218.5,0,327.8
					c0,18.7,0,37.3,0.2,56c0,3.8,1.2,7.5,2,12c4.8,0.5,8.6,1.3,12.4,1.4c10,0.4,20,0.6,30,0.6c22,0.1,44,0.7,65.9-0.2
					c15.2-0.6,30.3-3.7,45.5-4.9c19.9-1.6,39.5-4.6,59.2-8c30.1-5.1,57.9-15.8,84.2-30C5592.2,1915.6,5619.7,1871.5,5628.5,1815.8z"
					/>
				<path class="st2" d="M4691.6,2285.3c2.5,14.3,4.8,28.7,3.9,43.6c-3.6,59.8-18.4,115-58.8,161.8c-17.7,20.5-38.4,36.7-60.6,51.3
					c-46.8,30.7-98.9,48.6-152.9,61.8c-40.1,9.8-80.7,16-121.6,21c-36.3,4.4-72.9,5.4-109.2,8.5c-50,4.2-99.8,2.3-149.6,2.4
					c-171.3,0.6-342.6,0.2-513.9,0.1c-7.6,0-15.6,1.4-24.6-2.6c2.8-3,4.3-5,6.2-6.4c37.6-29.2,54.4-69.4,61.5-115
					c4.6-29.6,6.1-59.4,9-89.1c3.8-39.9,3.3-79.8,3.3-119.7c0.2-222,0-444,0.3-665.9c0-22.9-3.2-45.2-9.9-66.8
					c-6.6-21.3-17.5-40.1-35.8-54c-3.5-2.6-8.3-4.7-8.6-11.4c6.8-1.3,13.7-3.7,20.6-3.7c22.6,0,45.2,0.9,67.8,1.5
					c6.7,0.2,13.3,0.7,19.9,0.7c44.7,0.1,89.3,0.1,134-0.1c8.6,0,17.2-1.2,25.8-1.8c2.7-0.2,5.4-1,7.9-0.5c15.3,3,30.3-0.8,45.5-0.8
					c70.7-0.3,141.3-0.6,212-0.7c27.3,0,54.7,0.2,82,0.9c25.3,0.6,50.3,3.5,75.4,6.7c15.1,1.9,30.4,2.8,45.6,4.7
					c19.8,2.5,39.5,5.1,59.2,8.3c32.9,5.3,65,13.7,96.6,24.3c27.3,9.1,53.6,20.4,77.6,36.2c37,24.3,66.5,55.4,81,98.3
					c6.2,18.3,9.9,37.2,10.9,56.6c1.4,28.2-1.6,55.6-11.6,82.4c-13.2,35.4-35.4,63.9-65,86.6c-31.4,24.2-66.6,41.5-104,54.4
					c-46.7,16.1-94.4,27.5-143.3,34c-16.4,2.2-32.7,5.4-49,8.1c-4.9,9.5-2.9,18.6-2.1,28.3c8,4.1,16.3,6.1,24.9,6.2
					c28.7,0.3,56.9,4.6,85.3,7.9c38.4,4.5,76.3,11.2,113.5,21.3c52.8,14.4,104.2,32.8,149.5,64.8c30.3,21.4,56.3,47,75.2,79
					C4679.6,2231.9,4687,2258.3,4691.6,2285.3z M4391.5,2356c1.1-35.9-0.8-71.7-7.2-107.2c-7-38.6-20.8-74.2-44.7-105.5
					c-20.2-26.4-45.4-46.8-75.6-60.7c-52.6-24.2-108.8-33.8-166-38.2c-13.9-1.1-28.1,0.5-41.8-1.7c-10-1.6-19.8-2.6-29.7-2.3
					c-29.9,1-59.7,2.4-89.6,3.6c0-0.3,0-0.6-0.1-0.8c-25.2,1.6-50.3,3.2-75.5,4.8c-1.3,0.1-2.7,0.3-4,0.6c-5.3,1.1-8,4.6-7.7,9.9
					c0.5,8.6,1.6,17.2,1.6,25.8c0.1,71.3,0,142.6,0.1,213.9c0,15.8-1.3,31.5,0,47.5c2.2,26.4,0.4,53.1,4.1,79.6
					c1.9,13.7,2,27.8,4.6,41.5c4.1,21.5,8.1,43.1,16,63.7c4.6,11.9,11,22.4,19.7,32c17.3,19.1,39.6,29.2,63.3,36.3
					c28.7,8.6,58.7,11.5,88.5,12.3c23.2,0.7,46.4,0.5,69.7-2.3c21.1-2.5,42.2-5,63-9c44.3-8.6,85.5-25,121.3-53
					c21.6-16.9,39.7-37.3,53.5-61.3c19-32.8,28.4-68.5,33-105.8C4389.2,2371.7,4391.3,2363.9,4391.5,2356z M4295,1846.4
					c12.5-47.5,14.1-96.1,4.6-144.3c-11.6-58.6-43-103.8-96.5-132.3c-49.7-26.5-103.8-36.2-159-41.4c-13.9-1.3-28.1,0-41.8-1.9
					c-20.6-2.8-40.9-3.6-61.4,0.3c-3.9,0.7-7.9,0.8-11.9,0.9c-11.3,0.3-22.7-0.1-34,0.8c-13.7,1.1-27.3,3.3-40.9,5
					c-3.9,8.8-2.5,16.9-2.5,24.7c-0.1,138.6-0.1,277.2-0.1,415.8c0,8.6-0.7,17.3-1.2,25.9c-0.6,8.4,1.4,11.3,9.4,11.9
					c20.6,1.5,41.1,3.4,61.7,3.8c54.4,1.2,108.8,1.8,162.8-7.5c28.2-4.9,56.2-10.5,82.7-21.7c35.9-15.3,68.5-35,92.6-66.9
					C4276,1897.3,4288.1,1872.7,4295,1846.4z"/>
				<path class="st3" d="M4384.3,2248.8c6.5,35.5,8.4,71.2,7.2,107.2c-0.3,7.9-2.3,15.7-3.3,23.6c-4.6,37.3-14,73-33,105.8
					c-13.9,24-31.9,44.3-53.5,61.3c-35.8,28-77,44.4-121.3,53c-20.8,4.1-41.9,6.5-63,9c-23.3,2.8-46.5,3-69.7,2.3
					c-29.9-0.8-59.8-3.8-88.5-12.3c-23.7-7-46-17.1-63.3-36.3c-8.7-9.6-15.1-20.1-19.7-32c-7.9-20.6-11.8-42.2-16-63.7
					c-2.6-13.8-2.7-27.8-4.6-41.5c-3.7-26.6-1.9-53.2-4.1-79.6c-1.3-16,0-31.7,0-47.5c-0.1-71.3,0-142.6-0.1-213.9
					c0-8.6-1.1-17.2-1.6-25.8c-0.3-5.3,2.4-8.8,7.7-9.9c1.3-0.3,2.6-0.5,4-0.6c25.2-1.6,50.3-3.2,75.5-4.8c0,0.3,0,0.6,0.1,0.8
					c29.9-1.2,59.7-2.6,89.6-3.6c9.9-0.3,19.7,0.7,29.7,2.3c13.7,2.2,27.9,0.7,41.8,1.7c57.2,4.4,113.4,14,166,38.2
					c30.1,13.8,55.4,34.3,75.6,60.7C4363.5,2174.6,4377.2,2210.2,4384.3,2248.8z M4357.4,2369.1c3.1-45.9,3.3-91.5-8.7-136.5
					c-6.9-26.1-18.8-49.5-34.8-70.9c-30.9-41.3-76.4-58.2-123.3-71.9c-11.4-3.3-23.4-4.5-35.2-6.6c-5.9-1-11.8-1.9-17.8-2.6
					c-15.9-1.9-31.7-3.8-47.6-5.5c-7.9-0.9-15.9-1.9-23.8-1.9c-49.9,0-99.9,0.3-149.8,0.3c-10.9,0-21.2,1.8-33.1,7.3
					c-0.3,5.1-0.8,9.7-0.8,14.3c0.4,97.9,0.8,195.8,1.5,293.7c0.2,24.5-1.4,49.4,7.6,73c0.3,16.9,6,32.5,10.8,48.4
					c4,13.1,10.4,24.2,20.3,33.7c14.3,13.8,31,22.8,50.7,25.8c7.2,1.1,14.7,1.3,21.7,3.3c14.9,4.4,30.2,5,45.4,5.3
					c16.6,0.3,33.3-0.2,50,0.1c30.9,0.7,60.7-7,91.1-10.6c2-0.2,3.9-0.8,5.8-1.5c23.7-8.5,48-15.1,70-28.4
					c32.1-19.4,59.1-43.1,74.8-77.7c7.9-17.5,14.5-35.6,21-53.7c2.2-6.1,2.7-13,3.4-19.5C4357.3,2381.1,4357,2375.1,4357.4,2369.1z"
					/>
				<path class="st3" d="M4299.6,1702.1c9.6,48.2,7.9,96.9-4.6,144.3c-6.9,26.3-19,50.9-35.8,73c-24.2,31.9-56.8,51.6-92.6,66.9
					c-26.4,11.3-54.4,16.9-82.7,21.7c-53.9,9.3-108.4,8.7-162.8,7.5c-20.6-0.4-41.1-2.3-61.7-3.8c-8-0.6-9.9-3.5-9.4-11.9
					c0.6-8.6,1.2-17.3,1.2-25.9c0.1-138.6,0-277.2,0.1-415.8c0-7.8-1.4-15.9,2.5-24.7c13.5-1.7,27.2-3.9,40.9-5
					c11.3-0.9,22.6-0.5,34-0.8c4-0.1,8-0.1,11.9-0.9c20.5-3.9,40.8-3.1,61.4-0.3c13.8,1.9,27.9,0.6,41.8,1.9
					c55.2,5.2,109.3,14.9,159,41.4C4256.5,1598.3,4288,1643.5,4299.6,1702.1z M4267.7,1828.2c5.8-30.7,5.9-62.2,3.9-93.6
					c-1.3-20.8-5.3-40.9-13.5-60.1c-7.4-17.2-16.2-33.4-29.8-46.8c-14.9-14.6-31.5-26.3-50.4-35.2c-19.4-9.1-39.5-15.7-60.2-20.7
					c-16.1-3.9-32.3-8.6-48.8-10.1c-30.4-2.7-61.1-4-91.6-4.4c-23.2-0.3-46.5,1.6-69.7,2.9c-7.8,0.4-16-2.2-23.1,2.9
					c-3.2,18.7-4.7,309.8-2,407.6c0.1,3.8,0.9,7.6,1.6,12.4c4.2,0.9,6.1,1.7,8.1,1.7c39.3,0.3,78.6,0.7,117.9,0.8
					c13.3,0,26.5-1.1,39.6-4.4c6.4-1.6,13.1-2.5,19.7-2.8c24.9-1.3,48.3-8.8,71.9-15.9c8.2-2.5,16.2-5.8,24-9.5
					c24.3-11.6,45.6-27.3,63.5-47.5C4248.7,1883.3,4262.3,1857.2,4267.7,1828.2z"/>
				<path class="st0" d="M3268.5,2225.9c0.6,39.1-5.4,76.9-16.6,114.1c-2.1,6.9-3,14.5-9.8,19.1c-4.3-9.6-8.2-19.3-13-28.6
					c-3.2-6.3-8.7-9.7-16.3-9.5c-6.7,0.3-11.6,2.3-13.4,9.4c-0.5,1.9-1.5,3.7-2.3,5.5c0.8,1.8,1.1,4,2.4,5.4
					c13,14.2,14.5,32,15.2,49.8c0.9,23.1,1.3,46.3,1.5,69.4c0.1,6.9-3.1,10.1-8.9,11.1c-4.9,0.9-9.6-2-10.3-6.8
					c-0.5-3.3-0.5-6.6-0.6-9.9c-0.1-13.3-0.3-26.5,0-39.7c0.7-26.5-0.8-52.9-5-79c-9.4-15.3-19.5-30-33-42.1
					c-13-11.8-27.3-20.9-44.3-26.2c-17-5.3-33.3-3.8-48.1,5c-10.2,6-18.9,14.7-27.6,22.8c-2.3,2.2-2.3,6.9-3.3,10
					c5.8,4.4,10.9,3.6,16.3,3.1c15.2-1.3,30.5-2.5,45.7-3.3c20.4-1.1,35.7,7.6,47,24.6c13.5,20.3,22.3,42.5,27.2,65.9
					c3.7,17.5,6.6,35.5,6.8,53.3c0.3,30-4.1,59.7-16.6,87.5c-5.2,11.5-11.2,22.6-17.5,33.6c-7.8,13.4-18.2,24.6-31.5,32.8
					c-5.9,3.7-12,5.6-19,3.5c-4.7-4.7-1.4-10.1-0.8-15.1c2.8-22.5,3.8-45.1-0.1-67.6c-3.8-22.1-9.8-27.2-31.6-27
					c-2.6,0-5.3,0.5-8.5,0.8c-13.7,16.1-12.2,36.3-11.8,54.9c0.4,18.1-2.1,37.6,12.8,53.9c-15,4.4-27.5,1.9-39.2-1.5
					c-5.7-1.6-10.8-7.7-14.5-12.9c-8.6-12.1-13-26.1-15.8-40.6c-4.5-23.5-7-47.3-8.3-71.2c-0.4-7.2-2.5-14.3-4.9-21.2
					c-0.9-2.6-4.8-6.1-7-5.9c-3.4,0.3-7.9,2.7-9.5,5.6c-2.4,4.5-3.1,10-3.7,15.2c-3.7,32.5-9.5,64.5-20.1,95.5
					c-3,8.8-7.1,17.2-11.7,25.3c-5.6,9.8-14.8,15-26,16.7c-5.3,0.8-9.5-3.3-7.9-8.4c6.6-21.2,9.1-42.9,7.1-64.9
					c-0.9-9.8-2.8-19.8-5.9-29.1c-3.5-10.5-10.5-19.8-22.6-19.6c-12.1,0.2-21.3,7.8-25.8,19.1c-2.7,6.7-4.3,14.1-4.7,21.3
					c-1.3,23.4-2,46.8,14.1,66.6c0.8,0.9,1,2.4,1.2,3.7c0.1,0.6-0.3,1.3-0.9,3.2c-9,2.6-18.6,3.1-28.1-0.5
					c-7.1-2.7-12.6-7.4-15.6-14.6c-3.8-9.2-7.3-18.5-8-28.6c-1.8-26.6-3.4-53.3,0.8-79.6c10.2-63.5,41.5-114.3,94.8-151
					c4.9-3.4,10.3-6.1,15.7-8.7c6.2-3,11.1-7.1,14.4-15c-3.4-4.6-7.2-9.8-11.1-15.1c2.6-7.5,8.3-11.2,15.6-13.8
					c4.9-1.8,9.7-4.3,13.8-7.5c3.3-2.5,4.3-6.8,1.5-10.7c-1.9-2.7-3.6-6-6.2-7.5c-12.4-7-25.8-10.2-40-8.7
					c-13.9,1.5-27.7,4-40.5,9.9c-10.1,4.6-19.9,2.9-24.3-12.3c-5.6-19.3-7.5-39.1-5.4-59.3c2.7-25.8,4.3-51.7,2.9-77.5
					c-0.6-11.1-4.1-22.1-7.1-33c-9-32.8-20.3-64.7-36.5-94.6c-5.7-10.5-12.8-20.2-19.5-30.1c-3.9-5.7-9-9.8-16.5-9.7
					c-6.7,0.1-11.4-3.7-15.2-8.4c-4.9-6.2-9.9-12.6-13.4-19.6c-7.7-15.5-12.2-32.3-14.9-49.4c-1.8-11.2-4-22.4-4.1-33.6
					c-0.2-32.7,5.5-63.7,31.3-87.4c8.3-7.7,16-16,24.3-23.7c3.9-3.6,8.4-6.6,12.9-9.2c3.9-2.2,8.5-1.3,10.7,2.4
					c3.4,5.5,6.5,11.6,8.2,17.8c5.2,19.3,6.9,39.2,6.5,59.2c-0.1,4-0.4,8-0.1,12c0.3,4.4,2.7,7.8,7,8.6c14.9,2.7,29.4,2.7,40.1-10.6
					c4.2-5.2,8.1-10.5,12.1-15.8c11.6-15.4,22.8-31.2,35-46.1c13.3-16.1,29.8-28.2,48.5-37.6c18.2-9.1,36.3-8.7,53.8,0.2
					c19.4,9.8,34.2,24.9,44.2,44.9c-2.2,3-4.1,5.7-6.1,8.3c-9.3,12.8-9,23.6,0.1,36.3c40,56.5,79.7,113.2,119.9,169.5
					c19,26.7,33.5,55.9,49.1,84.5c14.4,26.3,27.5,53.2,42.1,79.3C3259.6,2151,3267.8,2187.2,3268.5,2225.9z"/>
				<path class="st0" d="M2912.5,1475.8c3.3,7,3.3,7,1.3,19.5c-9.7,3.7-19.5,1.5-28.9-1.7c-17.6-6-35.1-12.4-52.4-19.4
					c-16-6.6-31.6-14.2-47.3-21.4c-21.6-9.9-44.7-12.9-68.1-13.2c-24.5-0.3-49.1,0.6-73.5,3.6c-11.2,1.4-22.6,1.1-33.9,2
					c-11.9,1-22.2-2.7-32-9c-14.3-9.4-26.4-20.1-29.4-38.2c-2-12.8-9.6-21.7-21.3-27c-15.2-6.9-26-18.4-34-32.7
					c-5.9-10.4-11.6-21-16.6-31.8c-26.5-58.1-68.8-100.7-126.3-127.9c-40.5-19.2-82.4-19.5-124.7-6.5c-9,2.8-17.5,6.5-23.9,13.9
					c-6.2,7.2-4.1,15.4,4.9,19.2c7,3,14.2,3.5,21.5,1.8c7.8-1.9,15.7-3.4,23.1-6.1c23.4-8.4,46-5.3,68,4.7
					c15.9,7.2,29.6,17.8,42.9,29c6.4,5.4,12.6,11.2,20.7,18.4c-4.7,1.4-6.9,2.5-9.2,2.6c-5.3,0.3-10.7,0.4-16,0.1
					c-28-1.4-46.1,14.1-60.8,35.4c-1.5,2.2-3,4.6-3.5,7.1c-3,13.5-12.9,16-24.4,14.9c-11.9-1.2-23.7-3.5-35.6-5.1
					c-7.8-1.1-15.8-2.9-23.6-2.5c-22.8,1.3-44.7,7.1-65.1,17.5c-11.1,5.7-18.8,15-23.2,26.5c-3.9,10.3-0.5,18.9,12.4,19.4
					c13.9,0.5,28.7-0.5,40-9.6c10.8-8.7,22.5-10.6,35.5-9.9c12.6,0.7,25.2,1,37.8,1.8c15.7,1.1,29.6,7.5,42.6,15.7
					c18.7,11.7,35.9,25.3,51.5,41c12.7,12.7,25.4,25.3,37.5,38.6c6.3,7,13.5,7.9,21.7,6.4c2.5-0.5,5.1-1.7,7.2-3.2
					c15.4-11.4,32.9-13.1,51.3-12.4c16,0.6,32,0.5,48,0.2c28.1-0.6,52.6,7.7,71,29.6c7.8,9.3,17.1,11.9,28.4,10.2
					c7.8-1.2,15.5-2.4,24.6-3.8c0.5,6.2,1,11.3,1.2,16.5c1.5,31.8,18.1,53.3,45.8,67.2c3.4,1.7,7.6,2.6,11.5,2.7
					c9.9,0.4,19.9,0.1,29.2,0.1c4.6-9.1,6-17.5,5.7-26.3c-0.2-4,0-8,0.5-11.9c0.6-5.1,5.6-8.1,10.3-5.7c3.3,1.6,6.9,4.3,8.7,7.4
					c4.2,7.5,7.6,15.5,11.1,23.4c8.5,19.5,21.9,34.8,39.4,46.6c4.4,3,9.1,5.7,12.9,9.4c5.2,5.1,10.6,10.3,14.3,16.5
					c9.7,16.1,5.2,33.4-11,42.9c-5.6,3.3-12.1,5.8-18.4,7.3c-36,8.6-72.3,11.8-108.6,2.1c-23.9-6.4-46.2-16.9-68-28.3
					c-5.9-3.1-11.7-6.3-17.7-9.2c-15.3-7.2-31.1-11.9-48.3-10.3c-5.3,0.5-10.7-0.2-16,0.2c-17.1,1.2-33.1-2.7-48.5-9.6
					c-27.3-12.4-54.1-25.7-78.7-43.1c-27-19.1-46.4-43.5-55.1-75.9c-3.6-13.4-8.5-26.6-13.6-39.5c-2.7-6.7-6.8-12.9-11.2-18.7
					c-1.6-2.1-5.9-3.2-8.8-2.9c-1.7,0.2-4,3.6-4.5,5.9c-1.6,7.7-2.5,15.6-3.9,24.5c-4.2-0.3-8.1,0.1-11.6-1
					c-20.9-6.7-41.6-14.2-63.4-17.6c-19.2-3-38.4-4.5-57.3,1.7c-20.4,6.8-34.1,24.4-36.9,47.6c6.5,4.1,12.8,0.8,18.9-1.1
					c11.5-3.4,22.7-7.6,34.3-10.5c17.1-4.3,28.6,1.4,35.3,17.4c6.5,15.6,8.9,31.6,5.8,48.7c-11.2,63-30.9,123.5-52.4,183.5
					c-8.3,23.1-17.4,46-26.1,69c-5.4,14.4-7.6,29.2-8.1,44.7c-1.2,35.5,8.8,68.4,20.8,100.9c2.1,5.6,5.2,11.1,11.9,12.2
					c4.9,0.8,10.9-5.3,12.6-13.5c1.3-6.4,1.8-13.2,1.3-19.8c-0.8-11.3-2-22.6-3.9-33.7c-5.5-31.8-4.5-63.4,1.9-95.6
					c5.8,3.3,6.5,8.8,6.9,13.5c3.1,32.2,13.9,62.3,26.5,91.6c28.9,67.5,63.9,131.7,107.7,190.8c9.9,13.3,21.5,25.4,33,37.4
					c10.8,11.2,23.7,19.3,39.3,22.5c3.3,0.7,6.4,1.6,9.6,2.7c4.1,1.4,6.9,4.5,6.9,8.8c0.1,18.6,0.8,37.4-0.5,55.9
					c-1.1,14.7-7.6,19.9-22,20.4c-7.9,0.3-16-0.2-23.8-1.7c-12.9-2.6-22.8-9.9-29.9-21.4c-15.1-24.3-30.6-48.4-46.1-72.5
					c-5-7.9-10.2-15.6-15.5-23.3c-1.9-2.7-4-5.4-6.4-7.5c-5.2-4.5-10.9-5.6-14.5-3.4c-4.8,2.9-4.9,7.6-4.9,12.3
					c0.1,8.7-0.1,17.4,0.7,25.9c1.9,19.2,4.8,38.3,6.4,57.5c1.7,20.6,1.8,41.3-2.7,61.7c-1,4.5-2.2,9.1-4.1,13.3
					c-5.4,11.8-13.5,18.9-27.9,18c-17.3-1-34.7-0.3-52-0.3c-3.3,0-6.7,0-9.9-0.5c-4.8-0.7-7.3-6.6-4.6-10.9c1.4-2.3,2.9-4.5,4.8-6.4
					c15-15.8,24.2-34.7,31.9-54.8c7.3-19.4,13.1-39.1,16.4-59.5c2.8-17.5-0.7-34.4-4.1-51.3c-0.5-2.5-1.8-5-3.1-7.3
					c-2.8-5-8.2-6.5-13.8-4.3c-9.7,3.8-14,12-16.6,21.1c-2,7-2.8,14.3-4.2,21.5c-7.6,40.1-19.2,78.7-40.7,113.8
					c-8.1,13.3-18.5,24.5-30.3,34.3c-10.8,9-23.5,14.8-37.9,16.4c-30.3,3.4-58.2-1.7-82.5-21.2c-17.1-13.8-34.7-27.1-50.9-41.9
					c-35.8-33-69.1-68.3-94.1-110.8c-17.1-29.1-28.3-60.1-34.7-92.9c-4.2-21.5-7.4-43.2-10.8-64.9c-1.2-7.9-1.9-15.8-2.5-23.8
					c-2.7-35.2-5-70.5-3-105.7c2.1-35.8,4-71.6,9.8-107.2c5.2-32.2,11.4-64.1,22.4-94.8c6-16.9,12.7-33.8,21.3-49.4
					c15.3-28,32.4-55.1,48.7-82.5c22.8-38.2,54.4-67.3,93.8-87.5c25.4-13,51.7-24.6,77.6-36.8c6-2.8,12.2-5.4,18-8.7
					c2.7-1.6,5.1-4.2,6.8-6.9c3-4.9,0.4-11.6-5.1-12.7c-4.5-0.9-9.2-1.2-13.8-1.1c-22.3,0.4-43.5,6.4-64,14.5
					c-33,13-63.6,30.4-91.7,52.1c-31.3,24.3-57.6,53.3-80,85.9c-28.1,40.8-48.9,85.3-64.7,132.2c-8.1,23.9-15.2,48.2-22.7,72.3
					c-1.2,3.8-1.5,8.1-7.8,8.3c-1.5-9.5-4.1-19.1-4.5-28.7c-1.4-36.6-2.7-73.1-0.7-109.8c2.2-38,6.2-75.7,13.1-112.9
					c8.5-46.4,21.2-92,37.7-136.2c12.4-33,25.8-65.5,39.6-97.9c8.9-20.8,19.6-40.8,29.2-61.2c3.2-6.8,7.3-12.6,14.6-17.1
					c7.7,4.6,14.3,10.9,20.1,18.1c8.1,9.9,8.6,14.4,2.1,25.2c-5.8,9.7-11.7,19.2-14.3,31.8c3.7,1.3,7.7,4.4,10.3,3.5
					c20.7-7.1,35.7-19.9,40.9-42.4c4.8-20.5,4.1-41.1,0.6-61.4c-2.8-16.4-6.7-32.6-11.3-48.6c-3.1-10.6-2.8-21.3-1.8-31.7
					c1.8-19.3,14.2-26.1,32.5-19.4c9.6,3.5,16.3,10,18,19.7c2.9,16.4,13.1,22,28.3,21.8c4.1,26.3,8.3,52.6,12.3,78.9
					c4.2,28.2,8.2,56.3,12.6,86c5.2-2.2,9.6-3.5,13.4-5.8c48.4-29.6,99.4-54,152.8-73.2c44.6-16,90.4-27.3,137.2-34.8
					c25-4,50.1-6.4,75.4-8.7c37.3-3.5,74.5-1.3,111.8-2c11.2-0.2,22.3,2.3,32.7,7.2c9.8,8.9,20.1,17.4,29.3,26.9
					c7.8,8.1,14.4,17.3,21.4,26.2c2,2.6,3.3,5.8,5.1,8.6c9.1,13.3,18,14.4,29.5,3.8c3.4-3.2,6.5-6.7,9.9-9.9
					c16.8-15.4,36.4-20.5,58.9-17.2c31,4.5,59.1,15.4,84.1,34.3c2.6,2,5.1,4.3,7.3,6.7c3.2,3.5,3.1,4,0.4,14.6
					c-5.6,2.9-10.3-0.7-15.1-2.3c-6.3-2.1-12.3-5.3-18.7-7c-15.6-4.2-28.3,2.6-31.8,18.5c-3.6,16.1-5.6,32.7-7.6,49.2
					c-2.4,19.8-4,39.6-6.2,59.4c-0.5,4.6-2,9-3,13.3c-10,4.3-10,4.4-21.8,0.9c-2.6-33.2,0-67.3-9.8-100.9c-5-0.7-9.5-1.9-13.9-1.8
					c-12.9,0.2-19.7,8.2-16.8,21c2.7,11.6,7.4,22.7,10.8,34.1c2,6.7,6.7,13.1,3.4,22c-10.2-10.2-20-20-29.9-29.7
					c-23.3-22.8-46.7-45.6-70.2-68.3c-4.3-4.1-9.2-7.7-14-11.3c-4.1-3.1-8.7-2.8-13.4-1.4c-5.8,1.7-8.9,6.6-7.2,12.2
					c1,3.2,2.2,6.4,4.1,9c4.3,6,8.5,12.1,13.7,17.2c25.1,24.8,50.5,49.4,75.9,73.9c10.5,10.2,21.2,20.2,31.8,30.4
					c-1.1,5.9-6,4.4-9.4,4.1c-14-1.2-27.8-1.4-41.9-0.1c-11.1,1.1-18.6,6.2-24.3,15.2c-3,4.7-5.3,9.5-1.9,14.8
					c4.1,6.5,9.5,12,17.9,9.9c7.6-2,15.4-4.7,22-8.9c15.9-10,33.3-12.5,51.5-12.5c9.6,0,18.5,2,26.6,7.2
					c18,11.6,37.6,15.4,58.9,14.9c24.6-0.5,49.3,0.2,73.8,2.6c25.9,2.6,47.9,15.6,67.3,32.5
					C2897.6,1450.5,2906.1,1462.4,2912.5,1475.8z M2607.3,1517.3c0.6-15.9-14.2-29.8-28.7-28.6c-16.9,1.5-27.7,10.7-27.8,27
					c-0.2,18.1,10.5,29.7,27.3,29.7C2595.8,1545.4,2606.6,1534.5,2607.3,1517.3z M2534.8,1599.8c15.9-1.5,27-12.2,28.2-28.6
					c-0.1-15.8-14.3-30.5-29-29.9c-15.2,0.6-28.7,13.5-29.1,27.7C2504.5,1585.6,2519.1,1601.3,2534.8,1599.8z M2502.7,1539.9
					c15.9-0.3,28.3-12.3,28.3-27.5c0-17.4-12.3-31.4-27.5-30.3c-20.4,1.5-28.9,12.1-29.3,30.5
					C2473.9,1527.4,2487.6,1540.2,2502.7,1539.9z M1980.3,1633c0.7-24.6-12.1-33.5-30.9-25.9c-3.7,1.5-7.1,3.6-10.3,6
					c-8.3,6-14.9,13.6-18.8,22.9c-5.1,12.2-9.7,24.7-13.3,37.4c-8.2,28.4-9.3,57.7-8.5,87.1c0.2,5.9,1.5,11.9,3.3,17.5
					c1.2,3.8,4.8,6.4,9.3,6.4c4.3,0.1,8.2-1.4,9.9-5.5c1.7-4.2,2.8-8.8,3.5-13.3c2.3-14.4,4.4-28.8,6.6-43.2
					c1.7-10.9,8-17.8,18-22.1c4.1-1.8,9-4.3,11-7.8C1970.8,1672.6,1977.9,1651.2,1980.3,1633z"/>
				<path class="st4" d="M2867.3,1220.2c0.9,8,1.8,16.1,2.7,24.1c-1.1-0.5-2.8-0.7-3.2-1.6C2863,1235.2,2861.7,1227.6,2867.3,1220.2
					z"/>
				<path class="st4" d="M2865.4,1206.7c1,1.5,0.8,3.7,1.2,5.5c-3.3-1.9-7.7-3.1-9.7-6c-10.7-15.2-24.9-27.1-37.5-40.5
					c-3.6-3.7-8.3-6.9-7.7-13.1C2832.6,1167.8,2851.1,1185.1,2865.4,1206.7z"/>
				<path class="st4" d="M2857.2,554.8c9.3,35.7,13.9,71.8,7.1,108.5c-5.7,31-16.5,60.1-33.5,86.8c-27.8,43.5-64.5,77.4-109.1,103.2
					c-20.7,12-40.9,24.6-62.1,37.3c0.6,19-0.8,38.3,4.2,57.2c3.4,13,4.2,26.2,4.2,39.6c0,6.6,0.1,13.5,1.6,19.9
					c8.7,37.7,11.2,76.3,15,114.6c-0.7,3.8-1.4,7.7-2.2,12.3c-15,3.1-29.5,2.5-43.8,0.4c-17.7-2.5-35.1-6.5-53.1-6.9
					c-5.2-0.1-10.4-2-15.7-2.4c-7.9-0.6-15.9-1-23.8-0.8c-2.2,0.1-4.2,2.7-6.3,4.1c-10.3-4.9-21.5-7.3-32.7-7.2
					c-37.2,0.6-74.5-1.5-111.8,2c-25.2,2.3-50.4,4.7-75.4,8.7c-46.8,7.5-92.6,18.8-137.2,34.8c-53.5,19.1-104.4,43.5-152.8,73.2
					c-3.8,2.3-8.2,3.6-13.4,5.8c-4.3-29.6-8.3-57.8-12.6-86c-4-26.3-8.2-52.6-12.3-78.9c2.8-16.7-1.5-32.9-4.1-49.1
					c-2.6-16.1-4.1-32.7-11.7-47.6c7.5-4.8,4.2-11.7,3.3-17.9c-1.8-12.3-4.1-24.6-6.3-36.9c-0.3-1.5-0.8-3.1-1.3-4.6
					c-0.3-0.8-0.5-1.5-0.8-2.2c-0.3-0.8-0.5-1.5-0.8-2.3c-3.6-25-7-50-10.9-74.9c-1.8-11.8-4.5-23.4-6.8-35.2
					c5.8-8.3,0.5-14.6-3.8-22.6c-9.7,0-19.6,0.2-29.4-0.1c-5.9-0.1-12.2,0.3-17.6-1.7c-8.3-3-15.4-1.6-22.6,2.3
					c-1.3-1.4-2.3-3.6-3.8-4c-7-1.9-14.2-3.5-21.3-4.9c-33.5-6.9-65.5-18.3-94.7-35.8c-34.4-20.7-64.4-46.7-87.1-80.8
					c-16-24-29.2-49.5-38.7-76.2c-10.6-29.9-20.4-60.4-20.9-93c-0.3-15.9-4-31.6-5.7-47.5c-5.2-50.5,0.4-99.5,19.7-146.8
					c14.9-36.5,33.2-70.9,59.4-100.7c20.9-23.6,44.3-44.5,72.1-59.4c18.1-9.7,37.4-17.3,56.7-24.3c25.7-9.3,51.9-15.7,79.7-16.5
					c38.3-1.2,73.8,8.6,108.2,23.6c25.7,11.2,49.4,25.9,71.3,43.5c11.4,9.2,22.8,18.4,34.3,27.4c2.6,2,5.6,3.4,9.4,5.7
					c3.3-3.3,7-6.1,9.4-9.6c20.7-30.6,47.3-55.8,73.9-81c31.2-29.7,67.9-51.1,107-68.4c17.6-7.8,35.9-14.1,54.1-20.2
					c22.3-7.4,45.4-10.3,68.9-8.8c22.2,3,44.4,2.8,66.6,0.1c34.6-2.5,67.2,6.2,99.6,16.9c30.5,10.1,59,24.1,85.4,42.3
					c12,8.3,23.6,17.3,34.6,26.9c28.2,24.7,53.2,52.2,73.4,83.9c5.7,8.9,10.3,18.6,14.8,28.2c12.7,27.1,23.6,55,29.1,84.6
					c6.1,32.8,10.1,65.8,8.1,99.3c-0.2,3.9-1.6,7.8-2,11.8c-1.6,13.9-2.9,27.7-4.4,41.6c-0.9,8.6-1.8,17.2-3.3,25.7
					c-1.7,9.5-0.5,18.2,3.6,27.1C2844.4,517,2852.2,535.3,2857.2,554.8z M2826.2,633.6c2.2-29.2,0.5-58.6-6.5-87.4
					c-0.5-2.2-1.8-4.2-3.6-8.1c-3.4,5.1-5.7,8.2-7.6,11.6c-29.6,53-67.7,98.7-115.3,136.5c-27.2,21.6-56.4,40.1-88.6,53.5
					c-0.3-2.8-0.7-5.6-1-8.3c8.3-6.7,16.5-13.4,24.9-20c46.2-36.8,86.8-78.8,118.5-128.8c25.9-40.9,44.3-85,51-133.2
					c4.3-31.1,3.6-62.4-0.4-93.6c-0.1-0.7-0.4-1.3-0.5-1.9c-7.5-46.6-24.1-89.8-47.9-130.4c-36.6-62.5-87.6-108.1-154.7-135.9
					c-56.7-23.5-115.7-28.5-176-22.6c-57.7,5.7-111.7,23.8-162.7,51.3c-30.7,16.6-58.8,36.9-83.6,61.1
					c-23.4,22.8-43.2,48.9-56.7,79.2c-1.3,3-3.2,5.7-5.7,10c-7.1-7.3-13.9-13.5-19.8-20.5c-25.4-29.8-55.8-53.3-90.5-71.2
					c-43.6-22.4-89.4-29.5-137.6-18.3c-26.9,6.3-51.7,17.6-75,32c-56.8,34.9-95.1,84.7-115.2,148.1c-18.2,57.4-16.4,115.6-4.5,173.8
					c4.3,20.8,10.1,41.3,16.2,61.6c13.5,45,36.6,83.9,73.1,114.4c37.8,31.7,80.5,52,129.7,56.8c21.2,2.1,42.6,1.4,63.9,2.1
					c4.4,0.1,8.9,0.9,14.2,1.4c2.7,18,5.1,35,7.7,52.1c2.6,17.8,5.4,35.5,8,53.3c2.5,17.1,4.9,34.2,7.3,51.3
					c2.5,17.8,4.8,35.6,7.5,53.4c2.6,17.1,5.6,34.1,8.2,51.2c2.7,17.8,5.1,35.6,7.6,53.4c2.4,17.1,4.6,34.3,7,51.4
					c2.5,17.8,4.5,35.7,7.8,53.3c3.1,16.7,3.3,33.9,9,49.9c2.5,0,4,0.4,5.1-0.1c4.8-2.2,9.6-4.6,14.3-7
					c47-23.7,95.3-44.3,145.3-61.2c60.7-20.5,122.4-36.8,186-45.4c30.9-4.2,62.1-6.7,93.3-8.8c27.3-1.9,54.5,0.9,81.7,3.2
					c30.6,2.6,60.7,7.9,90.6,14.9c3,0.7,6.4,2.6,9.3-1.6c-9.8-85.3-19.7-171.1-29.7-258c6.2-2.6,11.5-5.2,17.1-7.1
					c55.1-18.7,100.9-50.5,136.5-96.7C2809.6,714.3,2823,675.5,2826.2,633.6z"/>
				<path class="st0" d="M2819.8,546.3c7,28.8,8.7,58.2,6.5,87.4c-3.2,41.8-16.7,80.6-42.6,114.3c-35.6,46.2-81.4,78-136.5,96.7
					c-5.5,1.9-10.8,4.5-17.1,7.1c10,86.9,19.9,172.6,29.7,258c-2.9,4.2-6.3,2.3-9.3,1.6c-29.9-7-60-12.3-90.6-14.9
					c-27.2-2.3-54.5-5.1-81.7-3.2c-31.2,2.1-62.4,4.6-93.3,8.8c-63.5,8.6-125.3,24.9-186,45.4c-49.9,16.9-98.2,37.5-145.3,61.2
					c-4.7,2.4-9.5,4.8-14.3,7c-1.1,0.5-2.6,0.1-5.1,0.1c-5.7-15.9-5.9-33.2-9-49.9c-3.3-17.6-5.3-35.5-7.8-53.3
					c-2.4-17.1-4.6-34.3-7-51.4c-2.5-17.8-4.9-35.6-7.6-53.4c-2.6-17.1-5.6-34.1-8.2-51.2c-2.7-17.8-5-35.6-7.5-53.4
					c-2.4-17.1-4.8-34.2-7.3-51.3c-2.6-17.8-5.3-35.5-8-53.3c-2.5-17.1-5-34.1-7.7-52.1c-5.3-0.6-9.7-1.3-14.2-1.4
					c-21.3-0.7-42.7,0-63.9-2.1c-49.2-4.8-91.9-25.1-129.7-56.8c-36.4-30.5-59.6-69.4-73.1-114.4c-6.1-20.3-11.9-40.8-16.2-61.6
					c-11.9-58.2-13.7-116.4,4.5-173.8c20.1-63.4,58.4-113.2,115.2-148.1c23.3-14.3,48.2-25.7,75-32c48.2-11.2,94-4.1,137.6,18.3
					c34.7,17.8,65,41.4,90.5,71.2c5.9,6.9,12.7,13.1,19.8,20.5c2.5-4.3,4.3-7,5.7-10c13.5-30.3,33.3-56.4,56.7-79.2
					c24.8-24.2,52.9-44.5,83.6-61.1c51-27.5,105-45.5,162.7-51.3c60.3-6,119.3-0.9,176,22.6c67.1,27.8,118.1,73.4,154.7,135.9
					c23.8,40.7,40.5,83.8,47.9,130.4c0.1,0.7,0.4,1.3,0.5,1.9c4,31.2,4.7,62.5,0.4,93.6c-6.7,48.2-25.1,92.3-51,133.2
					c-31.7,50-72.3,92-118.5,128.8c-8.3,6.6-16.6,13.3-24.9,20c-9.3,2.9-16.3,8.7-21.8,16.9c8.1-1.8,16-3.7,22.9-8.5
					c32.2-13.4,61.3-31.9,88.6-53.5c47.6-37.7,85.8-83.5,115.3-136.5c1.9-3.3,4.2-6.4,7.6-11.6
					C2817.9,542.1,2819.2,544.1,2819.8,546.3z"/>
				<path class="st0" d="M2825.8,1344.8c0.6,3.3-1.6,7-3.4,13.9c-6.5-5.7-9.6-9.2-13.4-11.6c-4.3-2.8-9-5.6-14-7
					c-8.4-2.3-15.8,0.2-20.9,7.7c-1.9,2.7-3.5,5.6-5.6,8.2c-3.8,4.7-8.6,5.7-15.1,2.9c-2.3-23-2.5-45.8,11.3-66.4
					c1.5-2.2,2.7-4.6,4.4-6.6c6.3-7.3,15.4-8.7,23.1-2.7c5.1,4.1,9.5,9.2,13.6,14.4C2816.8,1311.5,2822.7,1327.7,2825.8,1344.8z"/>
				<path class="st0" d="M2817.6,2338.9c4.6,5.8,3.8,12.1,1,18.3c-3,6.7-6.7,13-9.8,19.7c-9.7,21.1-19.5,42.2-28.6,63.6
					c-8.7,20.5-11.1,42.3-11.9,64.3c-0.5,13.3-0.2,26.6-0.2,40c0,9.6-2.9,18.3-7.9,26.4c-3.3,5.3-9.1,5.4-13.2,0.6
					c-5.5-6.5-7.3-13.9-6.7-22.3c1.2-15.9,2.5-31.8,3-47.7c0.5-13.9,0.1-27.8,0.1-42.9c-4.1,0-8.3-1.1-11.3,0.2
					c-11.6,5.2-19.5,13.6-20.3,27.2c-0.4,6.6-0.6,13.2-1.1,19.8c-0.9,12.5-1.8,25-3,37.5c-0.3,2.5-1.7,5-2.9,7.3
					c-1.1,2.2-2.6,4.1-3.8,5.9c-7-1.6-7.3-6.7-8.2-11c-4.4-20.5-2-41,0.8-61.4c2.4-17.8,6.7-35.3,14.9-51.4
					c10.5-13.6,21.1-27.2,31.6-40.8c6.7-6.4,13.2-13.2,20.3-19.2c11.2-9.4,22.9-18.2,34.3-27.4
					C2801.2,2340.3,2808.6,2338.1,2817.6,2338.9z"/>
				<path class="st4" d="M2806.8,1148.4c-5.9,0.4-10.7-0.7-11-8C2800.7,1141.4,2805,1143.2,2806.8,1148.4z"/>
				<path class="st4" d="M2779.8,1133.1c2.7,1.2,5.3,2.4,8,3.7C2782.7,1140.4,2781.6,1139.9,2779.8,1133.1z"/>
				<path class="st0" d="M2764.2,2079c0.9,11.5-5,19-15.3,22.9c-6.1,2.3-12.7,3.3-19.2,4.5c-7,1.3-13.3-0.1-17.5-6.3
					c-4.8-7.1-6.8-16.4-1.8-22.5c16.1-19.8,25.6-43.2,38.3-64.7c0.8-1.5,3.1-2.1,5.6-3.7c1.8,3.9,4.4,7.2,4.8,10.7
					C2761.2,2039.5,2762.7,2059.2,2764.2,2079z"/>
				<path class="st4" d="M2755.6,1126.7c2.7,0.7,5.4,1.5,8.2,2.2C2759.3,1132.5,2758.4,1132.3,2755.6,1126.7z"/>
				<path class="st4" d="M2740.2,2392.1c-10.5,13.6-21.1,27.2-31.6,40.8c-3-3.6-6-7.3-9-10.9c6-5.9,11-12.5,15.6-19.6
					c5.6-8.5,10.9-17.8,20.6-22.8C2736.6,2384,2734.8,2389.3,2740.2,2392.1z"/>
				<path class="st0" d="M2714.2,1991.1c4.1,4.4,5.4,9.8,1.9,14.5c-6.7,9-13.6,18.1-21.7,25.7c-8,7.4-15.6,5.4-21.9-3.6
					c-1.5-2.2-2.9-4.5-4.1-6.9c-22.4-46-44.7-92-67.1-138c-4.8-9.8-6.2-20-6.6-30.8c-1.1-27.5,2.4-54.3,11.7-80.2
					c1.8-5,4-9.8,6.6-14.4c5.5-9.7,13.8-13.7,25.1-12c8.2,1.3,13.3,5.6,13.9,14.2c0.6,9.3,0.3,18.6,0.3,28c0,4,0,8,0,15.4
					c-1,31.3,1.7,65.6,11.7,99.1c7.5,24.9,17.6,48.8,32.9,70C2701.9,1978.8,2708.3,1984.7,2714.2,1991.1z"/>
				<path class="st5" d="M2692.7,2212.1c2.1,20,2.8,39.9,2.2,59.8c-0.9,27.4-6,54.2-22.1,77.6c-8.3,12.1-15.1,25.1-23.8,36.9
					c-14.2,19.3-33.5,29.8-57.9,30.4c-20.7,0.5-41.2,0.1-60.9-8.1c-30.4-12.7-48.6-34.5-50.7-67.8c-1.1-17.3-0.7-34.6-0.5-52
					c0.3-25.3-0.1-50.7,1.7-75.9c2.4-33.2,2.5-66.4,3.2-99.7c0.2-8.7,0.3-17.3,0.5-26c0.3-12.7-4.6-23.3-13-32.6
					c-3.1-3.5-6.8-6.5-9.6-10.1c-11-13.9-18.9-28.9-17.4-47.5c0.5-6,0.1-12,0-18c0-2.7,0.1-5.4-0.4-8c-2.6-15.5-9.6-28.2-30.1-14.9
					c-7.2,4.7-15.1,8.4-22.8,12.4c-3.6,1.9-7.3,3.3-11.1,0.2c-4.3-3.5-4.4-8-3.2-12.7c2-7.7,4.5-15.3,6.4-23.1
					c1.9-7.7,3.7-15.5,4.9-23.4c0.8-5.3-2.6-9.2-7.9-9.6c-5.3-0.4-10.6,0.1-15.9,0c-2.5-0.1-4.9-0.7-8.7-1.3c1.2-4,1.7-7.2,3.1-9.9
					c2.5-4.7,6-8.8,8.4-13.5c2.4-4.8,1-10.1-2.7-12.5c-4.3-2.8-9.1-3.4-13,0c-4.9,4.4-9.6,9.2-13.5,14.5
					c-3.9,5.3-6.6,11.5-10.2,17.1c-1.7,2.7-4.1,4.9-6.9,8.1c-8.1-12.8-5-25.7-5.5-37.9c-0.5-12.6-0.1-25.1-0.1-37.4
					c-4.4-3.7-8-2-10.7,1.2c-5.5,6.4-10.5,13.1-15.9,19.9c-6.2-21.1-5.3-42.3-2.2-64.7c-4.3-0.9-7.8-1.7-11.4-2.4
					c-4.9-0.9-9-2.5-8.1-9.2c12.4-3.4,25.2-1.9,37.5,0.1c23.1,3.9,44.9,11.8,65.3,23.7c47.1,27.4,83.5,65.7,113.6,110.5
					c11.2,16.6,20.8,34,29.8,51.9c9,18,15.5,36.7,19,56.5c0.9,5.2,2.2,10.4,3.7,15.6c0.9,3.1,2.3,6.3,4.2,8.9
					c3.1,4.3,6.9,8.9,13,7.6c5.9-1.3,8.3-6.8,9.1-12.1c0.8-5.8,1.2-12.1-0.2-17.7c-3.7-14.1-7.3-28.5-13-41.8
					c-19.9-46.2-47.9-87.5-79.2-126.7c-7.8-9.7-17.2-18.2-26.3-27.7c3.4-4.1,8.3-2.3,12.5-2.4c4.6,0,9.4,0.2,13.9,1.3
					c4.5,1,9.3,2.4,12.9,5c14,10.2,28.2,20.2,41.1,31.6c36.7,32.4,67.4,70.1,93.2,111.5c23,37,39.4,76.9,51.3,118.8
					C2679.9,2128,2688.2,2169.6,2692.7,2212.1z"/>
				<path class="st3" d="M2578.5,1488.8c14.5-1.3,29.3,12.7,28.7,28.6c-0.6,17.2-11.4,28-29.3,28c-16.7,0-27.4-11.6-27.3-29.7
					C2550.8,1499.4,2561.6,1490.2,2578.5,1488.8z"/>
				<path class="st6" d="M2603.6,731.4c0.3,2.8,0.7,5.6,1,8.3c-6.8,4.9-14.7,6.8-22.9,8.5C2587.2,740.1,2594.3,734.3,2603.6,731.4z"
					/>
				<path class="st3" d="M2563,1571.2c-1.2,16.4-12.3,27.1-28.2,28.6c-15.7,1.5-30.3-14.2-29.9-30.8c0.4-14.3,13.8-27.1,29.1-27.7
					C2548.7,1540.7,2562.9,1555.4,2563,1571.2z"/>
				<path class="st0" d="M2549.6,1670.9c-14.9,19.4-22.5,40.3-30.4,61.2c-2.6,6.8-4.6,13.8-7.2,20.6c-1.6,4.1-3.7,8-6.4,13.9
					c-22.2-32.7-34.7-66.5-38.8-105.2c15.2,0.7,28.6,3.7,42.2,5.4C2521.8,1668.4,2534.9,1667.7,2549.6,1670.9z"/>
				<path class="st3" d="M2531,1512.4c0,15.2-12.4,27.2-28.3,27.5c-15.1,0.3-28.8-12.5-28.5-27.2c0.4-18.5,8.9-29.1,29.3-30.5
					C2518.7,1481,2531,1495,2531,1512.4z"/>
				<path class="st6" d="M2432,4c21.3,0,42.7,0,64,0c-3.2,2.9,0.6,4.5,1.3,6.7c-22.2,2.7-44.4,2.8-66.6-0.1
					C2431.1,8.4,2431.6,6.2,2432,4z"/>
				<path class="st0" d="M2456.2,1339.8c0.7,0.9,0.4,2.5,0.9,5.7c-8.1,3.1-15.2,3.7-22.5,3.7c-4,0-8-0.3-11.9,0.2
					c-14.4,1.9-19.1,7.9-18.4,22.8c0.5,10.8,3.8,20.8,8.4,30.4c3.2,6.6,1.8,11.4-6,15.6c-2-1.5-5-2.9-6.7-5.3
					c-13.9-18.8-29.8-35.6-46.6-51.7c-6-5.7-9.9-12.5-12.3-20.1c-2.4-7.3-1.4-14.3,3.6-20.6c10.7-13.8,24.4-23.2,41.7-24.6
					c8.1-0.7,17.3,1.9,24.7,5.5C2429.2,1310.4,2443.8,1323.9,2456.2,1339.8z"/>
				<path class="st0" d="M2417.4,2038.5c9,16.6,12.1,35.1,9.3,54c-2.8,18.6-12.4,22.5-27,10.6c-11.2-9.2-21.3-19.9-32.1-29.7
					c-4.4-4-5.9-8.6-4.3-14.3c0.9-3.2,1.1-6.7,2.7-9.5c9.4-16.8,19.8-33,33.1-47.1c1.2-1.2,3.4-1.5,8.3-3.6
					C2405.8,2014.9,2410.9,2026.6,2417.4,2038.5z"/>
				<path class="st3" d="M1949.4,1607.1c18.8-7.6,31.6,1.3,30.9,25.9c-2.4,18.2-9.5,39.5-20.4,59.5c-2,3.6-6.9,6.1-11,7.8
					c-10,4.3-16.3,11.2-18,22.1c-2.2,14.4-4.2,28.8-6.6,43.2c-0.7,4.5-1.8,9.1-3.5,13.3c-1.7,4-5.6,5.5-9.9,5.5
					c-4.5,0-8-2.6-9.3-6.4c-1.8-5.6-3.1-11.6-3.3-17.5c-0.8-29.4,0.3-58.6,8.5-87.1c3.7-12.7,8.2-25.2,13.3-37.4
					c3.9-9.3,10.6-16.9,18.8-22.9C1942.3,1610.8,1945.8,1608.6,1949.4,1607.1z"/>
				<path class="st6" d="M1979.1,966.5c0.9,6.2,4.2,13.1-3.3,17.9c-1.4-5.1-2.5-10.3-4.4-15.2c-6.1-15.6-7.6-31.9-7.9-48.5
					c2.1-0.1,4.2-0.2,6.2-0.2c0.3,0.8,0.5,1.5,0.8,2.3c0.3,0.7,0.6,1.5,0.8,2.2c0.5,1.5,1,3,1.3,4.6
					C1975,941.8,1977.3,954.1,1979.1,966.5z"/>
				<path class="st0" d="M1969.8,920.5c0.3,0.8,0.5,1.5,0.8,2.3C1970.3,922,1970.1,921.3,1969.8,920.5c-2.1,0.1-4.2,0.2-6.3,0.2
					c-7.6-2.7-12.6,1.3-17.6,6.2c-17.9,18-35.5,36.2-53.8,53.6c-12.5,11.9-25.6,23.5-39.5,33.5c-15.1,10.8-31.5,19.1-50.2,23.5
					c-15.4,3.6-29.7,1.9-42.6-4.8c-54.7-28.6-88.3-71.6-88.9-135.9c-0.1-14.6-0.1-29.2,6.4-43.6c8.9-1.8,17.4,0.8,25.7,2.3
					c35.4,6.1,71.1,10,106.8,13.8c25.9,2.8,51.8,2.4,77.8,2.2c7.2-0.1,14.4-1.8,21.5-3.4c7.3-1.7,11.1-6.6,11.5-14.3
					c0.3-5.9,1.7-11.8,2-17.8c0.4-9.3,5.8-14.5,13.5-18.1c5.4-2.5,10.8-5,16.2-7.6c2.3,11.7,5,23.4,6.8,35.2
					C1962.8,870.5,1966.2,895.5,1969.8,920.5z"/>
				<path class="st6" d="M1919.6,2302.1c7,6.7,6.9,12.5,0.3,19c-12.4,12.4-27.5,20.7-43.9,26.6c-1.2,0.4-2.6,0.4-3.9,0.6
					c-6.3,0.7-10.7-2.3-11.3-8.4c-0.5-4.6-1.1-9.5-0.1-13.9c3.9-16.9,8.9-33.4,18.7-47.9c1-1.5,3-2.4,6.8-5.4
					C1897.9,2282.9,1909.2,2292.1,1919.6,2302.1z"/>
				<path class="st4" d="M1875.3,794.8c1.2,6-1.3,9.1-7.5,9.2C1870.4,800.9,1872.9,797.8,1875.3,794.8z"/>
				<path class="st0" d="M1822.9,2306.6c0.1,7.5-0.3,14.5-5.2,20.5c-6.7,3.5-13,1.6-19.5-0.2c-65.3-18.4-130.6-36.8-196-54.9
					c-30.8-8.5-61.8-16.4-90.1-31.9c-18.7-10.3-37.1-20.9-55.2-32.1c-13.3-8.3-26.2-15.8-42.8-10.8c-3.7,1.1-7.9,0-11.9,0.1
					c-14.6,0.4-29.3-1-43.8,2.2c-5.7,1.2-11.9,0.2-17.9,0.2c-7.2-8.7-8.3-18.6-7.8-28.5c0.8-15.2,2.8-30.4,3.7-45.6
					c0.8-14.1,8.7-21.5,21.3-25.6c21.9-7,44.4-8,67.1-5.5c28.4,3.1,56.8,7.2,85.3,9.9c13.9,1.3,27.9,0.9,41.9,0.6
					c2.7-0.1,6.2-2.7,7.7-5.1c2.3-3.9,0.1-8-3.5-10.3c-3.8-2.5-8-4.9-12.3-6.1c-23-6.6-46.1-12.8-69.1-19.1
					c-4.4-1.2-8.8-2.3-15.1-3.9c2.7-3.8,4.3-6.4,6.2-8.6c5.6-6.6,11.6-12.9,17.1-19.6c2.5-3.1,4.3-7,2-11.1c-2.5-4.4-6.6-4-10.5-2.5
					c-12.4,4.8-24.9,9.2-36.9,14.8c-10.2,4.7-19.8,10.9-29.8,16.2c-2.7,1.4-5.9,1.7-9.4,2.6c-3.8-9.7,2.5-16.3,4.4-23.7
					c1.1-4.3,4.1-8.4,6.8-12.1c9.2-12.5-2.6-32.3-14.3-35.8c-6.3-1.9-12.2-1.1-16.8,3.3c-6.3,5.9-12.6,11.9-17.7,18.8
					c-5.9,8-10.5,17-15.8,25.4c-4.3,6.7-8.6,13.5-13.2,19.9c-12.1,16.9-24.6,16.3-36.2-0.5c-2.7-3.8-5.8-7.3-8.8-10.9
					c-2.2-2.5-4.2-5.5-6.9-7.1c-3.2-1.9-7.3-3.7-10.8-3.2c-4.3,0.6-5.7,5.2-5.8,9.4c-0.3,17.9-2,35.7,6.6,52.7
					c8.2,16.3,9,34.5,9.2,52.5c0.4,36.7,0.3,73.3,0,110c-0.1,18.7-2.9,36.7-10.4,54.4c-13.7,32.1-19.5,65.9-21.7,100.8
					c-1,16.5-2.8,33.1-2.2,49.6c0.8,23.2,2.5,46.4,4.1,69.6c0.3,3.8,1.6,7.8,3.3,11.3c3.7,7.2,9,8.7,16.8,5.6c2.5-1,4.9-2.2,7.2-3.5
					c2.8-1.6,5.6-3.4,9.3-5.6c-0.6-13.7-1.7-27.6-1.7-41.5c-0.1-15.9,0.4-31.9,1.5-47.8c0.8-12.1,11.1-21.8,23.9-23
					c7.2-0.6,14.7,0,21.9,0.9c5.9,0.7,11.8,2.3,17.5,4.2c8.1,2.7,16.1,6.1,23.1,8.8c4,6.8,0.3,11.2-1.3,16.2
					c-1.4,4.2-2.5,8.9-2.2,13.3c0.4,5.7,7.2,8.9,12.1,6.5c2.4-1.2,4.7-2.6,6.7-4.4c6.3-5.6,14.1-7.8,21.9-8.8
					c66.4-7.9,127.2,5.4,179.6,49c24.5,20.3,40.1,45.5,45.6,77.3c1.6,9.1,0.3,17.1-1.4,25.5c-1.4,6.4-6,11.1-11.8,12.7
					c-15.3,4-30.6,4.9-42.8-7.9c-9.6-10.1-19.1-20.5-27.8-31.4c-9.8-12.2-21.8-21.5-34.6-29.7c-24.9-16-51-12.6-73.7,6.5
					c-1,0.9-1.8,2-2.6,3c-3.7,4.6-1.9,11.4,3.9,12.6c8.4,1.8,17,3,25.6,4.4c6.6,1.1,13.1,2.4,19.7,3.2c37.3,4.2,71.7,40.8,79,87.4
					c2.3,14.5-4,25-18.1,29.4c-12,3.7-24.5,6.4-37,8c-19.8,2.5-39.7,3.6-59.6,5.6c-69.8,6.9-139.8,3.3-209.6,3.8
					c-29,0.2-56.7-8.1-83.6-17.9c-53.4-19.6-102.5-47.6-149.8-78.9c-2.8-1.8-5.6-3.6-8.2-5.7c-7.7-6-13-13.3-13.1-23.5
					c0-13.9-0.9-28,0.2-41.8c1.4-16.9-4-30-17.5-39.9c-5.4-3.9-10.8-7.9-16.4-11.3c-14.1-8.5-24.4-20.5-32.7-34.4
					c-14.7-24.8-24.7-51.5-33.1-78.8c-13.4-43.2-23-87.3-31.7-131.7c-6.3-31.8-17-61.6-37.4-87.1c-14.9-18.6-20.8-39.4-20.3-63.1
					c0.5-28,1.8-56.1,6.7-83.5c5.4-30.1,16.3-58.7,28.8-86.7c31.6-70.9,73.3-135.9,118.4-198.7c27.6-38.4,56.3-76,84.4-114.1
					c3.5-4.8,6.9-9.8,9.4-15.3c3.1-6.8-2.3-15.6-9.5-16.6c-9-1.3-17,0.2-23.5,7.6c-7.8,9.1-16.7,17.3-24.2,26.6
					c-30.3,38.1-60.2,76.4-90.2,114.7c-15.2,19.4-28,40.5-40.1,62c-21.3,37.7-43.7,74.7-59.5,115.1c-14.1,35.9-25.5,72.5-31.9,110.7
					c-5.2,30.9-8.2,61.8-8.4,93.1c0,12.1-4,22.4-13.5,29.8c-37,28.5-74.3,56.7-118.7,72.9c-21.2,7.7-43.2,13.5-65.2,18.2
					c-32.5,7-65.6,10.9-99,10.7c-34.3-0.2-67.7-4.1-98.8-20c-1.7-0.9-3.8-1.3-5.7-1.5c-1.2-0.1-2.5,0.5-4.7,1
					c-0.6,2.4-1.2,3.7-1.2,5c2.3,44.4-11.4,85.3-27.3,125.6c-4.1,10.5-9.6,20.4-15.2,30.2c-7.8,13.6-18.6,24.1-33,31
					c-5.4,2.6-10.4,5.9-15.2,9.4c-1.2,0.9-2.1,4-1.5,5.4c0.9,2.1,3,4.3,5,5.2c2.3,1,5.2,0.8,7.9,0.8c56-0.5,111.9-1.4,167.9-1.3
					c17.9,0,35.7,3.1,53.6,3.9c11.5,0.5,20.1,5.5,28.3,13c24.2,22.1,40,49.6,52.1,79.5c7.1,17.6,10.5,35.7,9.5,54.7
					c-1.3,24.4-18.2,42.4-42.7,44.6c-11.9,1-23.9,1.1-35.9,1.7c-19.9,0.9-39.9,1.8-59.8,2.5c-5.9,0.2-11.9,0-18.8,0
					c-0.9-4.5-2.1-8.2-2.4-11.9c-1.2-15.1,0.4-30.6-6.7-45.6c-8.4-4.1-17.6-2.4-27.5-1.8c-5.3,17.7,0.5,35.9-3.4,53.4
					c-9.2,7.6-20.1,11.3-31.1,12.9c-17.7,2.6-35.6,3.9-53.5,4.9c-31.4,1.6-62.5-1.3-93.4-6.6c-31.1-5.3-60.8-14.6-88.6-29.5
					c-7-3.8-13.8-8.1-20.2-12.8c-27.6-20.4-35.9-48.4-30.7-81.2c1.4-9.1,4.8-17.9,6.4-27c2-11.8,3.9-23.7,4.4-35.6
					c0.8-17.9-0.1-35.8,2.5-53.7c1.7-12,4.4-23.5,10.1-34.2c6.2-11.8,12.5-23.5,18.7-35.3c6-11.4,8.9-23.6,8.9-36.5
					c-0.2-23.3-0.2-46.5-2.9-69.8c-1.7-14.2,0.4-29.5,3.9-43.5c9.5-37.9,27.3-71.9,52.3-102.1c35.4-42.8,79-74.9,128.3-99.9
					c39.9-20.2,73.6-47.9,98.9-85.2c13.8-20.4,25.7-41.9,36-64.3c13.7-29.6,27.5-59.2,43.4-87.6c41.4-74.1,101.7-129.3,175.3-170.6
					c27.3-15.3,55.7-28.5,85-39.6c36.8-14,71.4-32.6,105.6-52c49.8-28.3,99.3-57.1,148.8-85.8c12.6-7.3,24.9-15.2,36.3-22.2
					c7.2,0.3,9.6,4.4,10.6,9.1c0.9,3.8,0.9,7.9,0.9,11.9c-0.2,47.9,6.1,95.4,9.9,143c0.7,9,4.7,17.8,7.6,26.6
					c2.3,6.8,7.3,10.9,14,12.8c6.3-1.8,8.5-6.9,9.3-12.1c2-14.5,4-29,4.8-43.6c0.8-13.3,0.4-26.7,0.2-40c-0.3-15.4,4.4-29.2,15.1-40
					c14.5-14.6,30-28.3,45.5-41.9c3.2-2.8,8.4-3.5,12.8-5c4.4-1.5,9.1-2.2,13.1-4.4c9-4.9,11.1-16.9,4-23.7
					c-6.4-6.1-13.8-9.7-23.5-6.7c-15.8,4.8-28.3,14.5-40.1,25.3c-8.9,8.1-18,15.8-31.1,19.8c-1.3-3.9-3.5-7.4-3.4-10.8
					c0.4-10.3,4.8-19.3,10.9-27.4c15.9-21.4,31.9-42.7,48-63.9c21.8-28.6,43.6-57.2,61.8-88.3c9.4-16,18.6-32.3,28.9-47.8
					c21.4-32.3,46.5-61.7,72.4-90.4c20.5-22.7,42.7-44,63.7-66.2c45.5-48.2,103.1-74.6,165.7-91.5c17.3-4.7,35.2-6.1,53.4-1.6
					c18.3,4.5,33.2,13.3,43.2,29.5c8.4,13.6,16.9,27.1,25.3,40.7c3.8,6.2,7.7,12.5,11.4,18.8c16.7,28.3,39.2,50.2,68.8,64.8
					c8.2,4,16.8,8.1,20.9,17.1c-1.5,7.6-6,12-12.6,14.7c-7.8,3.2-15.7,3.3-23.5,1.2c-14.2-3.9-27.3-10.4-39.3-19.1
					c-5.9-4.3-11.4-9.2-17.3-13.5c-6.1-4.4-12.9-6.8-20.6-6.3c-5.9,0.4-10.7,4-10.6,9.9c0.1,9.2,0.3,18.8,2.5,27.6
					c6.6,26.6,18.2,51.3,29.7,76c5.1,10.8,10.4,21.5,15.9,32.8c-19.9,55.6-40,111.1-59.8,166.8c-6.9,19.4-13.3,39-19.8,58.5
					c-3.9,11.5-6.3,13.8-18.7,13.9c-26.7,0.3-53.3-0.2-80,0.2c-9.3,0.1-18.6,1.5-27.7,3.2c-6.9,1.3-12.8,5.2-13.5,12.8
					c-0.7,7.7,1.9,14.8,9.3,18.4c15.6,7.6,31.4,14.5,47,22.1c12.6,6.1,25,12.5,37.1,19.4c5.7,3.3,10.8,7.8,15.9,12.1
					c9.7,8.2,14.3,18.3,13.8,31.6c-0.8,22-0.1,44-0.3,66c-0.3,28.7,1.7,57.3,6,85.5c4.3,28.2,11.1,56,16.8,84
					c0.5,2.6,1.7,5.1,2.2,7.7c2.9,15.8-1.3,28.7-14.9,38.4c-20.1,14.5-37.4,31.9-50.6,53.1c-5.3,8.5-9.8,17.3-12,28.3
					c3.3,1.8,6.4,4.9,9.7,5.2c10.7,0.9,21.1-0.9,31.5-3.9c14.7-4.3,29.6-7.7,44.6-10.7c6.4-1.3,13.3-1,19.8-0.4
					c8.9,0.8,16.3,4.7,22.1,12c27.4,34.3,56.8,67.2,80.4,104.5c6.8,10.7,13.1,21.5,15.7,34.2c4,19.8,13.2,37.6,22.6,55.1
					c11,20.5,22,41.1,37.2,59c6.8,8.1,9.2,17.2,9,27.7C1822.4,2248,1822.6,2277.3,1822.9,2306.6z M529.4,2563.6
					c0.5-2.6,1.1-5.2,1.9-9.2c-2.7-9-4.5-19.7-9.1-29.1c-4.9-10-11.5-19.5-21.6-25.6c-16.6-10-31.2-2.9-32.1,16.4
					c-0.4,8.4,1,17.3,3.3,25.4c4.1,14.4,13,26.2,25.2,34.8C512,2586.9,525.7,2581.3,529.4,2563.6z M339.4,2585.2
					c13.2-0.2,27.6-15.8,27.6-31.8c-0.7-2-1.5-6.9-4-10.5c-11.3-16.3-26.6-27.7-45.4-33.9c-10.7-3.5-17.4-0.5-23.9,8.9
					c-6.4,9.1-7.3,18.4-1.4,27.9c9.2,14.9,20.6,27.7,35.9,36.4C331.5,2584.1,335.7,2585.2,339.4,2585.2z"/>
				<path class="st6" d="M1799.3,1184.5c1.9,9.1,2.3,18.4-0.9,27.5c-5.2,14.8-16.3,23.9-30.1,30.1c-7.8,3.5-15.8,1-20.9-6.5
					c-5.9-8.8-11.3-18-16.6-27.2c-14.2-24.7-28.4-49.5-42.4-74.3c-1.9-3.3-2.9-7.1-5.3-13.2c11,0.4,17.6,3.5,23.8,6.9
					c26.2,14.3,52.3,28.7,78.3,43.4C1790.8,1174.4,1797.8,1177.4,1799.3,1184.5z"/>
				<path class="st6" d="M1702.4,1863.9c0.6,6.8-3.3,13.2-9.4,16.7c-8,4.6-16.2,9.8-25,11.9c-18,4.5-36.4,7.2-54.7,10.4
					c-0.5,0.1-1.1-0.2-1.7-0.6c-0.1-0.1-0.3-0.2-0.4-0.3c-0.1-0.1-0.1-0.1-0.2-0.1c-0.3-0.3-0.7-0.5-1-0.7
					c7.6-21.9,47.9-59,79.6-72.9c2.2,2.6,5.7,5.2,6.7,8.5C1699.1,1845.7,1701.6,1854.8,1702.4,1863.9z"/>
				<path class="st6" d="M1673.8,1497.5c1.3,11.8,0.9,23.8,0.4,35.8c-0.3,5.7-5,9.7-10.7,10c-4.6,0.3-9.4,0-13.8-1.1
					c-16.8-4.3-32.9-10.3-46.9-21.2c-6.8-5.3-14.2-9.9-21.1-15c-5.9-4.3-11.1-9.3-12.5-18.1c3.5-1.1,6.6-2.8,9.6-2.9
					c26.6-0.2,53.3,0,79.9-0.2C1667.5,1484.8,1672.9,1489.4,1673.8,1497.5z"/>
				<path class="st3" d="M531.3,2554.4c-0.8,4-1.4,6.6-1.9,9.2c-3.7,17.6-17.3,23.3-32.3,12.8c-12.3-8.6-21.1-20.4-25.2-34.8
					c-2.3-8.2-3.7-17-3.3-25.4c0.9-19.3,15.5-26.4,32.1-16.4c10.1,6.1,16.7,15.6,21.6,25.6C526.8,2534.7,528.6,2545.4,531.3,2554.4z
					"/>
				<path class="st3" d="M367,2553.4c0.1,15.9-14.3,31.5-27.6,31.8c-3.7,0.1-7.9-1.1-11.2-3c-15.3-8.7-26.8-21.6-35.9-36.4
					c-5.9-9.5-4.9-18.8,1.4-27.9c6.5-9.3,13.1-12.4,23.9-8.9c18.8,6.2,34.1,17.6,45.4,33.9C365.5,2546.5,366.3,2551.4,367,2553.4z"
					/>
			</g>
			<g>
			</g>
		</g>
	</g>
</g>
<g id="Layer_2">
</g>
</svg>
