<?xml version="1.0" encoding="utf-8"?>
<!-- Generator: Adobe Illustrator 19.0.0, SVG Export Plug-In . SVG Version: 6.00 Build 0)  -->
<svg version="1.1" id="Layer_1" xmlns="http://www.w3.org/2000/svg" xmlns:xlink="http://www.w3.org/1999/xlink" x="0px" y="0px"
	 viewBox="0 0 2000 591" style="enable-background:new 0 0 2000 591;" xml:space="preserve">
<style type="text/css">
	.st0{fill:#FFFFFF;}
</style>
<g>
	<path class="st0" d="M239.5,52.8c34.7,0.5,61.2,4.8,86.9,14.5c29.7,11.2,55.8,27.5,78.7,49.5c22.6,21.6,40.1,46.7,52,75.4
		c15.8,37.7,21,77.1,15.9,117.8c-3.8,30.3-13.4,58.5-28.7,84.9c-12.3,21.4-27.5,40.4-46.5,56.2c-6,5-7.6,10.8-6.7,18.1
		c1.1,9.2,1.7,18.5,2.4,27.8c0.3,3.1-0.8,4.6-4.1,3.1c-1.8-0.8-3.6-1.7-5.3-2.6c-8.2-4.3-16.1-9.3-24.7-12.8
		c-3.6-1.4-9.2-0.9-12.8,0.9c-22.7,11.3-46.6,18.6-71.8,21.1c-12.2,1.2-24.6,2.4-36.8,1.9c-32.5-1.5-63.7-8.5-93-23.4
		c-3.6-1.8-9.4-1.5-13.3,0.1c-8.7,3.5-16.9,8.4-25.3,12.7c-5.9,3-7.6,2.2-7.2-4.4c0.6-9.5,1.5-18.9,2.5-28.3
		c0.5-4.3-0.4-7.6-3.5-10.8c-11.5-11.8-23.3-23.3-33.8-35.9c-14.9-17.9-25.2-38.7-33.2-60.5c-11-29.8-14.5-60.8-12.9-92.3
		c1.1-21,5-41.6,12.8-61.2c5.6-13.8,11.7-27.5,19-40.5c13.5-24,32-44.2,53.5-61.4C132,80,164,64.9,199.4,57.7
		C214.9,54.5,231,53.8,239.5,52.8z M356.6,405.4c0.5-7.2,1.5-14.4,1.5-21.5c0.1-57.5,0.2-115,0-172.5c0-6.5-1.2-13.3-3.3-19.5
		c-7.1-21.1-23-32.3-44.1-36.6c-7.7-1.6-14.8,0.5-19.5,8c-2.4,3.9-5.3,7.9-8.8,10.7c-11.3,8.9-24.6,12.3-38.8,11.7
		c-19-0.9-36.2-5.4-46.4-24c-1.5-2.7-5.5-5-8.7-5.8c-8.7-2.2-17,0.8-24.4,4.7c-19.2,10.2-29.1,26.7-29.4,48.5
		c-0.3,16.3-0.4,32.7,0,49c0.9,46.1-3.1,92.2,2.2,138.2c0.3,2.4,1.7,4.6,2.6,6.9c4-1.6,2.8-4.9,2.3-7.7c-0.9-5.2,0.7-9.6,5.6-10.9
		c8.9-2.3,9.9-8.5,9.9-16c-0.1-20.2-0.3-40.3,0-60.5c0.1-9.3-0.7-18.4,2.6-27.9c4.8-14,12.9-23.6,26.4-29.1
		c11.5-4.7,17.7-2.8,25.4,7.2c2.9,3.8,6.9,7.2,11,9.8c9.3,5.8,19.7,5.4,30.1,4.4c10.4-1,19.1-5.4,25.4-14c1.9-2.5,3.9-5.2,6.4-7
		c3.7-2.6,7.5-5.8,12.7-3.3c2.8,1.3,5.6,2.5,8.5,3.7c2.7,1.2,5.8,1.9,8.1,3.5c12.4,8.6,19.1,20.3,19,35.8c-0.2,23.7,0.5,47.3-0.2,71
		c-0.3,11.9,2.1,20.4,15.1,23.3c3.7,0.8,7,4.3,4.6,8.3C349,399.7,350.3,403.1,356.6,405.4z M197.7,128.7c-0.2,25.8,19,47,47,47.3
		c26.9,0.2,46.7-20,46.9-46.9c0.2-26.1-20.3-46.7-47.2-46.8C218.1,82.1,198.1,102.6,197.7,128.7z M246.7,407.8
		c12.2-15.1,27.9-22.7,45.6-26.8c3.6-0.8,5.9-1.9,5.9-5.9c0-9.2,0.2-18.3,0.1-27.5c-0.1-7.4-3.9-13-9.8-17.1
		c-6.7-4.6-18.1-4.7-21.5,0.6c-4.1,6.6-10.3,9-17,9.9c-8.7,1.2-17.7,0.3-24-6.7c-8.4-9.3-19.7-9.4-27.3,0.7c-9.6,12.6-7.6,27-6,41.2
		c0.2,1.5,3.3,3.1,5.3,3.8c2.8,0.9,6.1,0.2,8.7,1.3C221.4,388,236.6,393.9,246.7,407.8z M137,438.5c3.1-1.7,6.4-4.6,10-5.3
		c11.7-2.1,23.5-4,35.4-4.9c6.2-0.5,12.5,1.1,18.8,1.9c1.7,0.2,3.5,1,5.1,1.8c10.4,5.4,20.8,10.9,31.2,16.3c0.9,0.5,2.5,0.6,3.1,0.1
		c0.7-0.5,0.9-2,0.9-3.1c-0.3-6.4-1.6-12.9-1-19.2c1.1-9.8-3.5-16.1-11.3-20.3c-9.6-5.2-19.5-9.7-29.4-14.3
		c-1.5-0.7-3.6-0.4-5.4-0.3c-3.1,0.1-6.3,0.5-9.4,0.5c-8,0.1-16-0.5-23.9,0.3c-4.5,0.5-10.3,2.2-12.6,5.4c-3.3,4.6-4.1,11-5.7,16.8
		C140.7,422.2,139,430.2,137,438.5z M301.4,391.7c0-0.1,0-0.2,0-0.3c-3.1,0.3-6.6-0.2-9.3,1c-10.4,4.7-20.6,9.9-30.7,15.1
		c-5.1,2.7-7.6,7.2-7.7,13.1c-0.2,8.1-0.4,16.3-0.9,24.4c-0.3,4.5,1.7,5,5,3c4.6-2.7,8.8-6,13.5-8.4c6.7-3.5,13.5-7.4,20.7-9.3
		c14.2-3.7,28.8-2.2,43.1,0c5.6,0.9,11,3.3,16.5,5.1c1.3,0.4,2.6,0.9,3.9,1.4c0-1.4,0.3-2.9-0.1-4.2c-2.9-9.5-6.2-18.9-8.9-28.5
		c-2.7-9.4-6.3-12.4-16.1-12.5C320.6,391.7,311,391.7,301.4,391.7z M109.4,479.9c0.4,0.9,1.3,4,2.1,3.9c2.5-0.1,5-1.1,7.3-2.2
		c2.3-1.1,4.1-3.6,6.5-4.2c22.3-6.2,44.9-12.3,68.2-7.9c13.8,2.6,27.2,7.2,40.8,10.8c2,0.5,4.1,0.4,6.1,0.6
		c-0.4-1.9-0.4-4.1-1.4-5.7c-8.8-14.6-22.4-22.1-38.6-25.7c-8.9-2-17.7-4.6-27-2.7c-10.5,2-21.5,2.2-31.1,8
		c-6.2,3.8-12.7,7.1-19.2,10.6c-4.5,2.4-6.5,1.3-5.9-3.7c0.6-5.1,1.4-10.2,2.9-15.1c1.6-5.2,4.2-10,5.9-15.1
		c0.6-1.7-0.2-3.8-0.4-5.7c-2.8,0.5-5.6,0.9-8.3,1.7c-0.8,0.3-1.6,1.8-1.7,2.9c-1.6,9.6-3.7,19.2-4.2,28.9
		c-0.3,5.6,2.4,11.4-1.5,16.7C109.5,476.6,109.7,477.8,109.4,479.9z M311.6,446.2c-5.5,0.9-15.4,2-25.2,4.1
		c-3.5,0.8-6.6,3.7-9.9,5.5c-1.4,0.8-3,1.4-4.5,2.2c-8.2,4.3-14.3,10.7-18.6,18.8c-0.6,1.2-0.4,3.5,0.4,4.4c0.7,0.7,3,0.6,4.3,0.1
		c6.4-2.3,12.5-5.3,19-7.3c20.9-6.3,42.2-8.2,63.6-3.5c12.7,2.8,25.9,4.6,36.9,12.7c2.8,2.1,5.7,1.4,5.7-2.9
		c0-8.1,0.3-16.3-0.7-24.3c-1.2-9.4-3.5-18.6-5.5-27.8c-0.2-0.9-1.5-2.3-2.4-2.3c-2.2-0.2-6.1-0.1-6.3,0.6c-0.6,2.4-0.2,5.2,0.5,7.6
		c2.7,8.9,5.7,17.6,8.4,26.5c0.6,2,0.4,4.3,0.6,6.5c-2.7-0.5-5.4-1-8-1.7c-1.1-0.3-1.9-1.3-2.9-1.9
		C351.6,453,334.9,446.2,311.6,446.2z M244.9,290.7c-11.8-1.7-22.6,11.1-22.2,22.2c0.5,14.1,9,20.2,23.4,21.2
		c9.3,0.6,21.3-8.9,20.5-22.6C265.8,298.5,258.2,290.6,244.9,290.7z"/>
	<path class="st0" d="M1272,296.2c-5.7,0-11.3-0.1-17,0c-3.8,0.1-6.2-1.4-7.6-5c-4.9-13.2-10.2-26.3-15-39.6
		c-2.9-7.9-3.4-8.8-11.6-8.8c-33.3,0-66.6,0-100,0c-8.5,0-9.1,1-12.5,9.2c-4.1,9.8-8.9,19.3-13.4,29c-0.6,1.4-1.8,2.6-2,4
		c-1.3,9.1-7.1,11.8-15.5,11.7c-8.6-0.2-17.3,0.3-25.9,0.2c-4.7-0.1-3.1-3.7-2.3-5.9c2.5-6.9,5.4-13.6,8.3-20.3
		c10.3-24,20.5-48,30.9-71.9c11.5-26.5,23.3-52.9,34.8-79.4c7.3-16.9,14.4-33.9,21.4-51c2.2-5.5,5.8-8.2,11.7-8.1
		c9.5,0.1,19,0.1,28.5,0c3.8,0,6.1,1.7,7.7,5.1c16.1,36.5,32.2,72.9,48.4,109.4c12.6,28.4,25.1,56.8,37.6,85.3
		c4.7,10.6,9.1,21.4,13.6,32.1c1.4,3.4,0.8,4.9-3.2,4.8c-5.7-0.2-11.3-0.1-17-0.1C1272,296.6,1272,296.4,1272,296.2z M1208.8,203
		c-0.8-3.3-1-5.1-1.7-6.8c-3.6-8.8-7.7-17.3-11-26.2c-7.7-20.5-18.6-39.7-22.9-61.5c-0.5-2.5-1.8-3.4-3.6-1.2
		c-2.6,3.2-5.5,6.4-7,10.1c-9.1,22.3-17.8,44.7-26.7,67c-2.1,5.2-4.6,10.3-6.5,15.6c-1.6,4.2,0.1,6.4,4.1,6.2
		c7.5-0.3,14.9-0.7,22.4-0.6c15.9,0.2,31.9,0.8,47.8,0.8C1205.5,206.5,1207.3,204.1,1208.8,203z"/>
	<path class="st0" d="M693.9,56.5c20.8-0.3,39.6,1.7,57.7,7.9c7.2,2.5,13.9,6.3,20.6,9.9c4.6,2.4,4.7,6.2,2.7,10.7
		c-3.5,7.9-7,15.8-10,23.9c-1.3,3.4-2.8,3-5.2,1.9c-9.5-4.3-18.8-9.5-28.7-12.5c-20.8-6.2-41.9-7.5-62.6,1.3
		c-8.1,3.5-14,9.3-15.2,17.8c-1.6,10.9,3.4,19.6,12.3,26.2c12.7,9.3,27.9,12.8,42.4,17.9c17.5,6.1,35.6,10.9,51.3,21.3
		c22.1,14.5,31.1,35.3,28.2,61.2c-3.1,28.6-21.8,43.8-47.3,51.9c-29.9,9.5-59.9,8.3-89.6-1.9c-13.8-4.7-25.7-12.3-36.1-22.4
		c-4.7-4.6-4.4-7.6,0.5-11.9c4.5-3.9,8.7-8.2,12.6-12.7c6.1-7,9.2-7.2,15.9-1.2c14,12.6,31,18.7,49.4,20.4
		c12.6,1.2,25.2-0.4,37.4-4.8c7.3-2.6,13.2-7.1,17-13.3c4-6.4,3.7-14,0.8-21.2c-5.4-13.5-17.4-19.4-29.8-23.9
		c-18.4-6.6-37.2-12.2-55.7-18.7c-17-6-31.7-15.6-41-31.6c-2.9-4.9-5.1-10.7-5.9-16.3c-4.6-34.2,10.3-61.8,42.9-73.3
		c5.9-2.1,12.1-3.6,18.3-4.8C682.9,57.2,689.3,56.9,693.9,56.5z"/>
	<path class="st0" d="M1377.2,177c0-36.8,0-73.7,0-110.5c0-2.8-0.6-5.6-0.8-8.4c-0.2-4.2,1.6-6.7,6.1-6.8c7.8,0,15.7-0.2,23.5,0.1
		c7.2,0.2,8.3,2.6,7.5,9.5c-1,7.9-1.1,15.9-1.2,23.9c0,15.7,0.3,31.3,0.4,47c0,3.6-0.5,7.3-0.6,10.9c0,1.7,0.4,3.3,0.7,5
		c1.6-0.5,3.6-0.7,4.9-1.7c10.6-8.4,22.6-13.8,35.9-16.4c33.8-6.7,65.7,6.6,82.5,34.3c11.9,19.6,13.4,41.2,11.3,63.2
		c-1.4,14.3-5.4,28-13.5,39.8c-11.5,16.8-27.2,27.8-47.7,31.8c-20.5,4-40,0.2-59.1-6.9c-3.6-1.3-6.7-4.2-9.7-6.8
		c-4.2-3.6-7.6-4-11.3,0.1c-3.2,3.4-5.6,7.4-8.4,11.1c-3,4-8.6,5.3-14.5,3.2c-4.3-1.6-6-4.9-6-9.4c0-18.8,0-37.7,0-56.5
		C1377,214.7,1377.1,195.8,1377.2,177C1377.1,177,1377.1,177,1377.2,177z M1412.1,222.2c-0.4,0.1-0.9,0.1-1.3,0.2
		c1.2,6.3,1,13.3,3.8,18.7c6.9,12.9,18.1,21.5,32.3,25.7c19.1,5.6,36.2,2.4,50.6-11.9c11.6-11.5,15.7-25.8,15-41.9
		c-0.6-14-3.7-27.4-13.4-37.8c-22.8-24.4-65-19-82.6,10c-2.3,3.7-4,8.3-4.4,12.6C1411.6,205.8,1412.1,214,1412.1,222.2z"/>
	<path class="st0" d="M1654.1,227.6c-15.7,0-31.3,0.1-47-0.1c-4.2-0.1-5.7,1.5-5.5,5.5c0.6,10.5,6.1,18.6,13.6,25.3
		c10.7,9.5,23.8,12,37.6,11.6c12.7-0.4,24.5-3.8,34.8-11.8c4.4-3.4,8.2-1.2,11.6,1.9c3.8,3.4,7.5,7.1,11.2,10.6
		c3.3,3.2,2.5,8.6-2,11.5c-35.1,23.2-71.8,25.1-108.4,5.1c-22.2-12.1-32.9-33.1-35.8-58c-1.9-16.4-0.4-32.6,4.5-48.3
		c9.1-29,35.5-49.3,66.4-51.6c19.9-1.5,38.5,2.2,54.7,14.2c5.9,4.4,11.5,9.8,15.9,15.7c8.7,11.6,14.5,24.6,15.8,39.3
		c0.8,8.6-4.2,15.1-8,22.1c-3.6,6.6-9.1,8.7-16.6,8.4c-14.3-0.6-28.6-0.2-43-0.2C1654.1,228.3,1654.1,228,1654.1,227.6z
		 M1643.4,201.3c12.7,0,25.3,0,38,0c3.2,0,6.2-0.8,5.2-4.7c-2.9-10.9-7.3-21.3-16.5-28.4c-25.8-19.8-62.1-6.6-69.1,24.9
		c-1.4,6.4,0,8.2,6.5,8.2C1619.4,201.3,1631.4,201.3,1643.4,201.3z"/>
	<path class="st0" d="M1287.2,357.2c214.2,0,428.3,0,642.5,0c9.8,0,19.6-0.6,29.4-1.1c6.2-0.3,10.1,5,7.2,10.4
		c-0.7,1.3-3.6,2.1-5.4,2.1c-9.8,0-19.6-0.4-29.4-0.4c-425,0-850,0-1275,0c-10.7,0-21.3,0.3-32,0.5c-4.1,0.1-7.4-0.3-7.5-6
		c-0.1-4.9,2-6,6.2-5.9c13.2,0.2,26.3,0.4,39.5,0.4C870.9,357.2,1079.1,357.2,1287.2,357.2z"/>
	<path class="st0" d="M858.7,203.8c0,14.5-0.3,29,0.1,43.4c0.3,9.8,7.6,16.3,17.6,16.6c5.1,0.2,10.3-0.1,15.4-0.6
		c4.7-0.5,7.4,0.9,7.5,6c0.1,7.7,0.5,15.3,0.2,23c-0.1,1.6-2.6,4.5-3.9,4.5c-13.2-0.8-27-0.1-39.5-3.6
		c-19.1-5.3-30.1-19.8-32.6-39.5c-1.5-12.2-1.5-24.5-1.6-36.8c-0.1-17,0.3-34,0.6-50.9c0.1-3.9-1.8-5.5-5.2-5.9
		c-1.6-0.2-3.3-0.1-5-0.1c-8.2,0.2-9.2-1.2-6.7-8.9c1.2-3.9,1.8-8,2.7-12.1c1.3-6.1,4.1-8.3,10.3-7.9c3.3,0.2,4.4-1.4,4.3-4.5
		c-0.3-14.4-0.5-28.9-0.8-43.3c-0.1-2.8-0.6-5.6-0.8-8.4c-0.2-4.1,1.8-6.3,5.9-6.3c7.8-0.1,15.7-0.1,23.5,0c4,0.1,5.9,2.2,5.8,6.4
		c-0.4,13.9-0.7,27.9-0.9,41.8c-0.1,3.2,0.4,6.3,0.2,9.5c-0.3,4.3,1.4,5.9,5.8,5.7c10.7-0.4,21.3-0.4,32-0.5c7.4-0.1,8.1,0.8,8,7.9
		c0,5.3,0.1,10.7,0.2,16c0.1,3.2-1.4,4.6-4.5,4.6c-10.2-0.1-20.3,0-30.5-0.4c-7.6-0.3-9.1,0.9-9.1,8.5c0.1,12,0,24,0,36
		C858,203.8,858.3,203.8,858.7,203.8z"/>
	<path class="st0" d="M1876.3,205c0-13-0.2-26,0.1-39c0.1-5.2-2-6.7-6.8-6.5c-13.3,0.8-12.1-0.2-9.2-11.3c0.5-1.9,1.2-3.9,1.4-5.8
		c0.6-5.8,2.1-10.3,9.4-10c1.3,0,3.4-2.6,4-4.3c0.9-2.6,1.1-5.6,1.1-8.4c-0.1-14.8-0.4-29.6-0.7-44.4c-0.1-5,1.7-7,6.6-7
		c7.7,0,15.3,0.1,23,0c4.4-0.1,5.9,1.8,5.8,6c-0.4,16.5-0.8,32.9-0.9,49.4c-0.1,8.4,1.2,8.8,9.4,8.3c10.8-0.6,21.6-0.4,32.4-0.1
		c1.4,0,3.8,2.8,3.9,4.4c0.5,6.1,0.1,12.3,0.3,18.4c0.1,4-1.5,5.2-5.4,5.2c-11-0.2-22-0.1-33,0c-4.3,0-6.6,1.6-6.5,6.6
		c0.5,24.5,0.5,49,0.9,73.4c0.3,18.4,5.8,23,23.8,23.6c4.5,0.1,9,0.6,13.5,0.7c3.5,0.1,4.6,2.1,4.5,5.2c-0.1,7-0.1,14,0,21
		c0.1,3.8-1.2,6-5.5,5.8c-10.1-0.3-20.4,0.6-30.3-0.9c-22.2-3.5-37.9-19.8-40.2-42.8c-1.6-15.6-0.3-31.6-0.3-47.4
		C1876.9,205,1876.6,205,1876.3,205z"/>
	<path class="st0" d="M1310.3,174c0-35.8,0-71.6,0-107.5c0-2.2-0.1-4.3-0.2-6.5c-0.5-7.3,0.8-8.7,7.9-8.7c7.3,0,14.7-0.2,22,0.2
		c6,0.3,7.3,1.9,7,7.2c-0.5,8.6-1.2,17.2-1.2,25.9c-0.1,65.5-0.1,131-0.1,196.4c0,0.8,0,1.7,0,2.5c1.1,15.1-0.2,11.7-12,13.1
		c-5.9,0.7-12,0.3-17.9,0.5c-4.4,0.1-5.3-2.7-5.3-6.2c0-7.3,0-14.7,0-22C1310.3,237.3,1310.3,205.6,1310.3,174
		C1310.3,174,1310.3,174,1310.3,174z"/>
	<path class="st0" d="M1748.3,214.5c0-25.2,0.1-50.3-0.1-75.5c0-4.7,1.9-6.4,6.4-6.8c11.4-1.1,16.9,2.1,21.2,13
		c0.4,1.1,0.7,2.3,1.3,3.2c1.9,2.8,3.4,4.3,6.8,0.8c12.1-12.3,26.5-20.6,44.3-21c4.5-0.1,9,0.5,13.4,1.2c7.4,1.3,9.6,4.7,7.9,12.1
		c-1.3,6.2-2.9,12.3-4.4,18.4c-1.3,5.6-5.1,3.9-8.7,3.2c-4.7-1-9.3-2.6-14-2.8c-23.4-0.8-38,15.8-38.6,38.6
		c-0.8,29.6-0.2,59.3-0.3,89c0,8.5-0.6,9-9.1,8.9c-6.7-0.1-13.3-0.1-20-0.2c-5.6,0-6.8-1.2-6.8-6.7c0-25.2,0-50.3,0-75.5
		C1748,214.5,1748.1,214.5,1748.3,214.5z"/>
	<path class="st0" d="M1603.4,413.2c32.8-0.7,59.1,26.7,59.6,60c0.4,34.5-26.4,60.2-58.9,60.4c-34.6,0.2-60.8-26.9-60.7-62.3
		C1543.3,439.5,1570.5,413.2,1603.4,413.2z M1565.4,472.8c-0.2,23.3,15.8,37.3,34.5,39.4c23.5,2.7,40.5-17.4,41.5-36
		c1.2-22.2-15.8-41.1-37-42.3C1585.3,432.9,1565.4,449.6,1565.4,472.8z"/>
	<path class="st0" d="M1683.1,472.7c-2.2-32.9,28.4-61.6,63-59.7c30.2,1.7,57.4,28.3,56,63.7c-1.3,31.9-28.6,58.5-62.1,56.9
		C1705.3,531.9,1681.8,504.1,1683.1,472.7z M1704.6,472.5c-1.2,23.4,16.8,39.2,36.9,39.9c21.3,0.8,38.3-16.7,38.7-37.8
		c0.4-23.7-17.6-40.4-38.5-40.6C1723.6,433.8,1704.5,449.6,1704.6,472.5z"/>
	<path class="st0" d="M818.9,473.9c0-16.7,0-33.3,0-50c0-7.2,1.2-8.2,8.5-7.8c9.8,0.5,19.6,0.5,29.4,1.3
		c16.6,1.3,28.4,16.1,25.7,32.3c-0.7,4-3.4,7.8-5.7,11.4c-3.2,5-3,7.9,1.4,11.1c11.1,8.1,15.3,20.1,11.9,33.4
		c-3.5,13.4-13.5,23-26.8,24.1c-13.1,1-26.2,1-39.4,1.3c-4.2,0.1-4.7-2.7-4.7-6.1c0-17,0-34,0-51C819,473.9,819,473.9,818.9,473.9z
		 M840.6,494.4C840.6,494.4,840.6,494.4,840.6,494.4c0.1,3.3,0.1,6.7,0.1,10c-0.1,4.3,2.1,6.1,6.2,5.8c3.8-0.3,7.6-0.6,11.4-1
		c5.6-0.6,11.2-6.5,11.6-12.1c0.4-6.2-3.4-12.6-9-14c-4.8-1.2-9.7-2-14.6-2.7c-4.1-0.6-6.4,0.8-5.8,5.5
		C840.9,488.7,840.6,491.6,840.6,494.4z M840.7,447.7c0,0,0.1,0,0.1,0c0,2.8-0.5,5.8,0.2,8.4c0.5,1.8,2.5,4.2,4.1,4.5
		c2.8,0.4,6-0.4,8.8-1.3c5.4-1.7,8.7-8.6,7.3-14.2c-1.3-5-9.6-9.9-16.4-8.9c-6.9,1-3.2,6.8-4.1,10.5
		C840.7,447,840.7,447.3,840.7,447.7z"/>
	<path class="st0" d="M1518.1,473.5c0,17.3-0.1,34.7,0.1,52c0,3.9-1.5,5.5-5.3,5.3c-3.5-0.1-7-0.3-10.5,0c-4.8,0.5-6.5-1.3-6.3-6.1
		c0.3-12.8,0-25.7,0.3-38.5c0.1-4.4-1.7-6-5.7-6c-9.5,0-19,0-28.5,0c-3.8,0-5.1,1.7-5.1,5.6c0.2,12.7,0.2,25.3,0.2,38
		c0,6.5-0.8,7.1-7.2,7c-2.5,0-5,0.1-7.5,0.3c-5,0.4-7.1-1.4-7.1-6.5c0-33.5-0.1-66.9-0.1-100.4c0-7.2,1.3-8.5,8.2-8
		c1.7,0.1,3.3,0.1,5,0c8-0.6,8.4-0.2,8.5,8c0.1,9.7,0.2,19.3,0.1,29c0,4.3,1.3,6.3,6,6.2c9-0.3,18-0.2,27-0.1
		c4.5,0.1,6.3-1.9,6.2-6.3c-0.2-10.3-0.1-20.7-0.3-31c-0.1-4.2,1.4-6.2,5.8-5.8c3.3,0.3,6.7,0.2,10-0.1c4.8-0.4,6.4,1.6,6.3,6.4
		C1518,439.5,1518.1,456.5,1518.1,473.5C1518.1,473.5,1518.1,473.5,1518.1,473.5z"/>
	<path class="st0" d="M1035,474.9c-0.9-36.5,27.7-63.3,62.9-61.7c15.7,0.7,29.4,5.9,41.7,15.5c6.4,5,6.5,8.1,0.4,13.5
		c-0.9,0.8-1.7,1.6-2.5,2.5c-5.8,5.7-6.7,5.3-13.1,0.2c-11.7-9.2-25-14.2-39.9-9.3c-14.3,4.7-24,14.4-27,29.3
		c-3.1,15.4,1.7,32.4,16.1,41c13.8,8.3,30.9,9.6,45.6-0.3c3.1-2.1,5.9-4.8,9.1-6.8c1.1-0.7,3.7-0.8,4.5-0.1
		c3.8,3.6,7.5,7.5,10.8,11.6c0.7,0.9,0.4,4-0.6,4.8c-14.2,12.3-30.6,19.4-49.6,18.4c-19-1-35.5-7.9-47.1-23.4
		C1037.8,499.2,1034.9,486.2,1035,474.9z"/>
	<path class="st0" d="M1301.2,472.6c-1.6-37.2,31.5-61.7,64.5-59.4c14.6,1,27.5,5.7,38.8,14.9c1.9,1.5,3.6,3.4,5.1,5.4
		c2.3,3,1.8,5.3-1.6,7.4c-2.2,1.4-4.1,3.4-6,5.2c-3.9,3.8-6.1,3.7-10.2,0.1c-11.4-10.3-24.9-15.2-39.9-11.1
		c-20.3,5.6-33.4,24.9-28.3,47c2.2,9.8,6.6,17.8,15,23.2c13.1,8.4,30.6,10.3,44.7,1.3c4-2.6,7.7-5.8,11.6-8.5
		c0.8-0.6,2.8-0.8,3.3-0.3c4,4,7.9,8.1,11.4,12.5c0.7,0.9,0.3,4.1-0.7,4.9c-10.9,8.9-22.9,15.7-37.3,17.6
		c-35.7,4.8-69.6-16.7-70.4-56.8C1301.1,475,1301.2,473.8,1301.2,472.6z"/>
	<path class="st0" d="M788.8,461c0,12.5,0.2,25,0,37.5c-0.4,23.2-21,37.4-40.6,34.9c-7.2-0.9-14.5-3.6-21-6.9
		c-11-5.6-14.4-16.3-14.8-27.7c-0.8-25.1-0.9-50.3-1.3-75.4c-0.1-6.7,0.9-7.4,7.4-7.2c2.3,0.1,4.7-0.1,6.9-0.5
		c4.6-0.9,7.1,0.9,7.8,5.4c0.3,2.1,0.4,4.3,0.4,6.5c0,22.8,0.4,45.7-0.1,68.5c-0.2,9.8,7.9,16.1,15.8,16.5
		c9.7,0.5,17.5-6.1,17.7-15.6c0.5-17.3,0.5-34.6,0.7-52c0.1-7.3-0.1-14.7-0.1-22c0-6.4,1.1-7.3,7.2-6.9c3,0.2,6,0.3,9,0.1
		c4.4-0.3,5.9,1.7,5.9,5.9c-0.1,13,0,26,0,39C789.4,461,789.1,461,788.8,461z"/>
	<path class="st0" d="M618.3,473.7c0-17,0-34,0-51c0-6.3,2.1-7.8,8.3-7.3c6.8,0.6,13.6,0.4,20.4,0.8c5.5,0.3,11,0.4,16.3,1.4
		c12.4,2.4,20.4,11.6,22.5,24.8c3.5,22.7-8.1,36.9-32,39c-14.3,1.3-14.2,1.3-14,16c0.1,9.3-0.1,18.6,0,28c0.1,3.9-1.6,5.4-5.4,5.2
		c-2.8-0.1-5.6,0.2-8.4,0.7c-5.2,0.8-7.6-1-7.6-6.3c-0.1-8.7,0-17.3,0-26C618.3,490.7,618.3,482.2,618.3,473.7z M639.9,447.7
		c0,3-0.4,6.1,0.2,8.9c0.3,1.5,2.3,3.7,3.6,3.7c4.8,0.1,9.7-0.1,14.3-1.1c4.4-0.9,6.8-4.5,7.3-9.1c0.6-6.7-4.9-12.6-13.2-13.1
		C640.1,436.3,638.8,435.9,639.9,447.7z"/>
	<path class="st0" d="M1929.6,413.1c12.8-0.4,21.7,7.1,30.4,15.1c0.7,0.7,0.5,3.7-0.3,4.6c-3.2,3.6-6.6,7.1-10.4,10.1
		c-1.2,0.9-4.3,0.3-5.8-0.6c-4.1-2.4-7.5-6.1-11.7-7.9c-4-1.7-8.9-1.2-11.5,3.3c-2.6,4.5-0.5,8.5,3,11.5
		c9.2,8.2,18.6,16.1,27.8,24.3c13.3,11.9,16.8,28.3,9.1,43.8c-5.4,10.8-15.6,15.2-26.9,16.2c-16.2,1.5-28.7-5.4-38-18.4
		c-0.6-0.8-1.1-1.7-1.3-2.6c-0.6-4.1,3.8-8.7,10.4-11.3c4.7-1.9,8.2-1.4,11,3.3c4.3,7.1,13.3,10.1,20.3,7c7.8-3.4,9.8-11.6,3.9-17.8
		c-5.9-6.1-12.4-11.6-18.6-17.3c-4.3-4-8.6-7.8-12.8-11.9c-9.8-9.7-12.9-22.5-8.3-33.6C1904.2,419.9,1915.8,413.1,1929.6,413.1z"/>
	<path class="st0" d="M1246.3,413.2c12.7-0.2,21.9,6.7,30.4,15c0.7,0.7,0.4,3.7-0.4,4.6c-3.2,3.6-6.6,7.1-10.3,10.1
		c-1,0.9-3.8,0.8-5.1,0c-2.1-1.2-3.7-3.3-5.4-5.1c-3.7-3.8-8.4-4.7-13.4-3.8c-6.5,1.2-8.5,8.4-3.4,13.6c5.7,5.8,12.2,10.8,18,16.5
		c6.7,6.6,14,12.9,19.4,20.5c7.8,11,6.2,23.4-0.3,34.5c-5.6,9.6-15.4,13.6-26,14.4c-15.9,1.3-28.4-5.3-37.7-18.1
		c-2.3-3.2-1.5-8,2.6-10.7c3-2,6.5-3.4,9.9-4.5c3.9-1.1,6,1.7,7.8,4.8c3.8,6.5,13.4,9.5,20,6.5c8.3-3.8,10-11.5,3.6-18.1
		c-5.9-6.1-12.5-11.5-18.7-17.3c-4.6-4.3-9.5-8.4-13.8-13c-8.2-8.9-11.6-19.4-7.3-31.2c3.9-10.8,15.2-18.4,27.1-18.7
		C1244.3,413.1,1245.3,413.2,1246.3,413.2z"/>
	<path class="st0" d="M1848.9,462.9c0,13.2,0,26.3,0,39.5c0,6.2,1.2,7.6,7.6,7.8c5.5,0.2,11,0,16.5,0.1c7.5,0.2,8.8,1.9,7.5,9.1
		c-0.4,1.9-0.3,4,0,5.9c0.8,3.9-0.5,5.5-4.6,5.5c-10.5-0.2-21-0.1-31.5-0.1c-3.5,0-7,0.1-10.5,0.3c-5.7,0.3-6.9-0.7-6.9-6.3
		c0-17.5,0.1-35,0.1-52.5c0-16.1-0.3-32.3-0.4-48.4c0-5.4,1.4-10,8.5-7.8c2.1,0.6,4.6,0.2,6.9-0.1c4.8-0.6,6.8,1.3,6.7,6.1
		C1848.8,435.6,1848.8,449.3,1848.9,462.9z"/>
	<path class="st0" d="M916.3,474.5c0-16.8,0-33.6,0-50.4c0-6.9,0.9-7.9,7.5-7.9c14,0,13.9,0,13.9,13.8c0,24.1,0,48.3,0.1,72.4
		c0,6.8,1.1,7.7,7.9,7.8c6,0.1,12-0.1,18,0.1c6.3,0.2,7.6,2.1,6.5,8.1c-0.2,1.1-0.4,2.3-0.4,3.5c-0.3,8.8-0.3,8.9-9.3,8.9
		c-12.6,0-25.3-0.1-37.9,0.1c-4.8,0.1-6.3-1.6-6.3-6.4C916.4,507.8,916.3,491.1,916.3,474.5C916.3,474.5,916.3,474.5,916.3,474.5z"
		/>
	<path class="st0" d="M1010.7,473c0,17-0.1,33.9,0.1,50.9c0.1,4.7-1.6,6.6-6.3,6.8c-14.2,0.8-14.2,0.9-14.3-13.4
		c-0.1-30.8-0.1-61.5-0.1-92.3c0-8.3,0.5-8.8,8.8-8.8c14.1,0,11.8-1.4,11.9,11.9C1010.8,443.1,1010.7,458.1,1010.7,473
		C1010.7,473,1010.7,473,1010.7,473z"/>
	<path class="st0" d="M962.2,281.6c0.1,11-3.9,15.8-14.8,17.6c-12.9,2.1-20.2-0.7-25.4-9.8c-5.3-9.4-0.2-22.1,10.3-24.1
		c5.3-1,11-1.2,16.3-0.5C959.6,266.1,962,269.6,962.2,281.6z"/>
	<path class="st0" d="M281.2,229.9c0.1,21.3-17.1,35-37.3,35.7c-20.8,0.7-38.4-17.7-37.2-40.3c0.4-7.3,5.6-15.2,10.4-21.4
		c6.9-8.9,17.4-12.2,28.5-12C262.8,192.2,282.4,205.5,281.2,229.9z"/>
</g>
</svg>
