<?xml version="1.0" encoding="utf-8"?>
<!-- Generator: Adobe Illustrator 19.0.0, SVG Export Plug-In . SVG Version: 6.00 Build 0)  -->
<svg version="1.1" id="Layer_1" xmlns="http://www.w3.org/2000/svg" xmlns:xlink="http://www.w3.org/1999/xlink" x="0px" y="0px"
	 viewBox="0 0 1949.5 483.4" style="enable-background:new 0 0 1949.5 483.4;" xml:space="preserve">
<style type="text/css">
	.st0{fill:#FFFFFF;}
</style>
<g>
	<path class="st0" d="M80.2,451.4c1.2-13.7,2.5-27.2,3.4-40.8c0.1-2-1.3-4.5-2.8-6c-8.4-8.8-17.4-16.9-25.5-26
		c-19.5-21.8-33.3-46.9-43.1-74.5C1.6,274.3-1.3,243.5,0.5,212.2c1.2-21.1,6.2-41.6,13.5-61.5c10.8-29.5,27.1-55.4,48.7-78.1
		c16.6-17.5,35.5-32,56.8-43.4C160,7.3,203.4-1.6,249.3,2.4c20.3,1.8,40.1,6.2,59.4,13.5c27.2,10.3,51.6,24.7,73.2,44.1
		c23.7,21.4,42.5,46.5,55.5,75.7c18.9,42.1,24.5,86,17.2,131.6c-4.3,27.2-13.6,52.6-27.3,76.4c-12.4,21.6-27.7,40.6-46.7,56.7
		c-5.5,4.6-7.5,10-6.7,17.1c1.2,10.8,1.7,21.8,2.7,33.9c-4-1.8-7.2-3.1-10.2-4.6c-8.2-4.3-16.2-9.2-24.7-12.8
		c-3.2-1.4-8.3-1.3-11.4,0.3c-20.3,10.5-41.7,16.9-64.1,20.8c-17.3,3-34.8,4.2-52.2,2.7c-30.2-2.6-59.6-9.2-86.9-23.3
		c-3.4-1.8-9.1-1.6-12.7,0C102.6,439.6,91.3,445.8,80.2,451.4z M335.3,350.1c0.8,0.1,1.7,0.1,2.5,0.2c0.8-5.8,2.3-11.6,2.3-17.4
		c0.2-57.3,0.3-114.6,0.1-171.9c0-13-3.5-25.2-11.9-35.7c-9.1-11.4-20.9-17.7-34.8-20.3c-8-1.5-15,0.3-19.9,8
		c-2.6,4.1-6,8.1-9.8,11.1c-12.3,9.7-26.8,11.8-41.9,10.9c-12.1-0.7-23.5-3.5-32.7-11.7c-4.2-3.7-7.6-8.4-11-12.8
		c-4.1-5.3-9.3-6.3-15.6-5.4c-22.4,3.1-41.2,20.8-44,43.2c-1.6,12.5-1.3,25.2-1.3,37.9c-0.1,47.3-0.2,94.6,0.1,141.9
		c0.1,7.5,2.2,15.1,3.4,22.6c0.8-0.1,1.6-0.1,2.4-0.2c0-2.5,0.1-5,0-7.5c-0.2-4.7,1.7-8.8,6.1-9.8c8.5-1.9,9.9-7.6,9.8-14.9
		c-0.3-25.6-0.5-51.3-0.6-76.9c0-1.9,0.5-4,1.1-5.8c1.1-3.4,2.9-6.7,3.7-10.2c1.7-7.9,5.8-14.2,12.4-18.7c4.2-2.9,8.9-5.1,13.6-7.1
		c10.9-4.7,17.9-2.7,24.5,7.1c5.2,7.8,12.5,12.1,21.3,13.4c6.7,1,13.6,1,20.4,0.7c9.2-0.4,16.9-4.5,22.9-11.7
		c2.5-2.9,4.7-6.2,7.7-8.5c3.9-2.9,8.1-6.1,13.6-3.7c2.9,1.3,5.9,2.6,8.9,3.9c2.7,1.2,5.7,1.9,8.1,3.6c12.4,8.8,19.2,20.6,18.9,36.3
		c-0.3,25.3-0.1,50.6,0,76c0,10.4,2.6,13.7,12.6,16.6c0.6,0.2,1.2,0.5,1.9,0.7c5,2.1,6.3,4.7,5.3,10.1
		C335,346,335.3,348.1,335.3,350.1z M273.6,76.4c-1.2-26.9-24.1-45.3-47.9-44.7c-27.5,0.7-47.1,24.2-45.2,49.7
		c2,26,22.6,44.5,49.2,43.3C256.5,123.3,273.6,101.9,273.6,76.4z M229.1,355c13.1-14.1,29.1-22,46.9-26.7c1.7-0.4,3.9-3,4-4.6
		c0.3-9,0.3-18-0.2-27c-0.4-6.4-3.2-11.8-8.8-15.5c-8.6-5.7-16.9-4.7-23.7,2.8c-1,1.1-2.1,2.2-3.4,2.9c-12.8,6.8-30.8,4.4-39.2-5.3
		c-4-4.6-9.3-5.9-14.4-3.3c-4.2,2.2-8.5,5.6-11,9.5c-7.4,11.5-5.6,24.5-4,37.3c0.2,1.3,2.1,3.4,2.9,3.3c8-1,14.3,3.6,21.2,6.1
		c9.2,3.4,17,8.9,24.3,15.3C225.6,351.5,227.3,353.3,229.1,355z M338.5,386.5c-0.8-2.9-1.2-4.7-1.8-6.5c-3-9.5-6.2-18.9-9.2-28.4
		c-2.3-7.5-6.1-10.5-14.1-10.5c-11.3,0-22.6-0.1-33.9,0c-1.6,0-3.5-0.2-4.9,0.5c-10.4,5.1-20.8,10.3-31.1,15.6
		c-4.2,2.1-6.4,5.9-6.7,10.5c-0.4,6.5-0.4,13-0.6,19.4c-0.1,3.4-0.4,6.7-0.7,11.7c16.7-9.3,31.1-20.7,49.5-21.7
		C303,376.1,320.7,377.2,338.5,386.5z M119.6,385.6c6.3-2.2,12.1-4.7,18.2-6.3c3.8-1,8-0.6,11.9-1.4c20.6-4.1,39.2,1.1,56.8,11.8
		c4.9,3,10.3,5.3,15,7.7c0-8.6-0.4-16.7,0.1-24.7c0.4-6.7-2.6-10.8-7.3-14.8c-9.6-8.2-21.6-11.5-32.5-17c-0.8-0.4-1.9-0.6-2.9-0.5
		c-10.6,0.2-21.3,0.2-31.9,0.9c-4.8,0.3-9.8,1.6-14.2,3.7c-1.7,0.8-1.9,4.9-2.7,7.5C126.5,363.7,123,375,119.6,385.6z M109.8,375.8
		c-7.9-2-10.6-1.2-11.9,5.2c-1.9,9.6-3.3,19.4-3.3,29.1c0,5.2,1.7,10-1.7,15c-1.1,1.7,0.4,5.1,0.8,7.8c2.5-1,5.1-1.7,7.5-2.9
		c2.2-1.1,3.9-3.3,6.2-3.9c22-5.8,44-11.5,67.2-8.1c15,2.3,29.8,5,43.4,11.9c1.1,0.5,2.6,0.1,3.9,0.2c0-1.4,0.4-3.1-0.2-4.1
		c-2.2-3.5-4.3-7.2-7.2-10.1c-9.2-9.2-20.6-14.1-33.3-17.5c-16.4-4.4-32.2-2-47.7,2c-9,2.3-17,8.7-25.5,13.2c-2.6,1.4-5.3,2.7-9,4.6
		C97.9,401.9,103.8,388.8,109.8,375.8z M298,395.4c-5.8,0.7-11.6,1.1-17.3,2.2c-5.5,1-10.9,2.4-16.1,4.4c-4,1.5-7.6,3.9-11.3,6.1
		c-7.6,4.5-13.5,10.7-17.4,18.6c-0.4,0.9,0,2.6,0.7,3.5c0.4,0.6,2.3,0.6,3,0.2c10.3-6.2,21.9-8.5,33.4-10.8
		c17.8-3.5,35.6-4,53.3,0.6c11.6,3,23.9,4.3,34,12c0.8,0.6,4.1-0.2,4.5-1.1c1.8-4.2-0.8-9.9-4.9-12.2c-3.8-2-7.7-3.9-11.3-6.3
		C333.3,402.4,316.9,395.4,298,395.4z M227.3,240.1c-11.7-1.6-21.9,10.9-21.9,22c0,11.4,12.7,21.1,22.5,21
		c10.4-0.1,20.2-10.2,20.4-21.2C248.4,249.3,239.5,240.1,227.3,240.1z M358.7,374.8c-2.7,0.4-5.4,0.7-8,1c0.5,2.7,0.1,5.9,1.5,8
		c5.1,7.6,5.8,16.4,8,24.8c0.5,1.8,1.4,3.4,2.1,5.2c0.7-0.2,1.3-0.4,2-0.6C365.6,400.2,360.4,388.2,358.7,374.8z"/>
	<path class="st0" d="M1277.5,246.2c-12.6,0-23.7-0.6-34.8,0.2c-8.6,0.6-13.4-1.8-15.9-10.5c-3.6-12.1-8.5-23.7-12.8-35.6
		c-2.5-6.9-3.3-8-10.7-8c-33.5-0.1-67-0.1-100.5,0.1c-8.2,0-8.6,1.1-11.7,8.8c-4.1,9.8-8.9,19.3-13.3,28.9
		c-1.6,3.6-2.6,7.6-4.7,10.9c-1.4,2.2-4.3,4.6-6.7,4.7c-11.1,0.8-22.3,0.8-33.4,1c-3.5,0.1-4.3-1.7-2.9-4.9
		c6-13.7,11.9-27.4,17.8-41.1c7.3-16.9,14.4-33.9,21.7-50.8c9.5-21.9,19.2-43.8,28.7-65.7c7.3-16.7,14.4-33.5,21.6-50.3
		c2.5-5.9,5-11.9,7.3-17.9c1.7-4.3,4.6-6.9,9.4-6.9c10.7-0.1,21.3-0.3,32,0.1c2.2,0.1,5.4,2.4,6.3,4.5
		c16.5,36.7,32.8,73.6,49.1,110.5c12.7,28.7,25.2,57.4,37.8,86.1C1266.9,221.8,1272,233.4,1277.5,246.2z M1153.1,57.1
		c-2.4,3.5-5.4,6.6-7,10.3c-4.9,11.1-9.1,22.4-13.7,33.5c-5,12.3-10.1,24.5-15.1,36.7c-1.6,4-3.5,7.9-5,11.9
		c-1.3,3.4,0.2,4.9,3.8,4.9c15.8-0.2,31.6-0.5,47.4-0.6c6.3,0,12.6,0.3,18.9,0.3c2.3,0,6.2,0.6,6.7-0.3c1-2,0.9-5.3,0.1-7.5
		c-5.5-13.9-11.3-27.6-16.9-41.4C1165.9,89.4,1159.8,73.9,1153.1,57.1z"/>
	<path class="st0" d="M745.4,61.7c-4.5-2.1-9.9-4.4-15-7c-26.5-13.4-53.7-16.2-81.3-4.6c-12.8,5.4-16.6,20.4-9.9,32.5
		c4.6,8.2,12.1,13,20.1,16.3c12.4,5.2,25.6,8.7,38.2,13.4c16.3,6,33.3,10.6,47.4,21.2c17.5,13,26,30.6,25.9,52.4
		c-0.1,18-6.9,33.1-20.6,44.7c-10.7,9.1-23.5,14.3-37,17.4c-16.5,3.8-33.1,4-50,2.4c-12.7-1.3-24.9-4.5-36.5-9.3
		c-12.2-5-23.3-12.1-32.2-22.2c-2.9-3.3-2.1-6.8,1.3-10c4.8-4.5,9.6-9.1,14-14c5.7-6.5,9.7-6.8,15.8-0.8
		c9.6,9.6,21.9,14.3,34.6,17.8c17.9,4.9,35.7,4,53-2.5c21.3-8,23.8-28.6,9.9-43.5c-7.9-8.4-18.6-11.8-29-15.8
		c-21.5-8.2-44.5-12.1-64.8-23.5c-21.1-11.9-33.5-29.3-32.8-54.5c0.6-22.2,9.7-39.8,27.8-52.5c10.1-7,21.8-10.3,33.8-12.6
		c17.4-3.2,34.8-2.1,52.2,0.3c14.1,1.9,27.3,6.5,39.9,12.9c1.8,0.9,3.4,2.1,5.1,3.1c4.3,2.6,4.5,6.1,2.6,10.3
		C753.8,42.5,750,51.4,745.4,61.7z"/>
	<path class="st0" d="M1394.5,97.5c2.8-1.7,4.6-2.7,6.3-3.8c25.1-17.3,52.1-23,81.1-11.6c29.7,11.7,44.4,35.1,48.3,65.8
		c3.1,24-0.4,47.1-13.5,67.7c-11,17.3-27.1,28.3-47.6,32.5c-20.6,4.2-40.3,0.4-59.5-6.6c-3.5-1.3-6.7-3.7-9.5-6.1
		c-4.6-3.9-7.4-4.4-11.7-0.2c-3,3-5.4,6.7-7.9,10.2c-3.2,4.6-7,5.6-14.7,3.6c-4.4-1.2-6.7-4.3-6.8-8.8c-0.2-9.5-0.3-19-0.3-28.5
		c0-63.3,0-126.6,0-189.9c0-5-0.4-10-0.4-14.9c-0.1-5,1.5-6.7,6.4-6.8c7.8-0.1,15.7-0.1,23.5,0c7.4,0.1,8.9,2.5,8,9.6
		c-0.7,6.1-0.7,12.2-0.7,18.4c0.1,18.8,0.4,37.6,0.5,56.5C1396.1,88.2,1395.2,92,1394.5,97.5z M1395.4,164.9c-0.1,0-0.2,0-0.3,0
		c0,5.5-0.2,11,0.1,16.5c0.1,2.6,0.3,5.6,1.5,7.7c10.6,18.5,27.1,28.1,48.1,28.8c27.5,1,49-22.1,49.5-48.1
		c0.2-8.6-0.6-17.4-2.6-25.7c-2.7-11-8.4-20.9-18.5-26.8c-23.8-14-53.1-9.8-71,13.3c-3.3,4.3-5.5,10-6.4,15.4
		C1394.5,152.1,1395.4,158.6,1395.4,164.9z"/>
	<path class="st0" d="M1274.3,317.9c-218.2,0-436.3,0-654.5,0c-5.3,0-10.7,0.1-16,0.1c-6.3,0-4.4-4.8-4.8-8.2
		c-0.5-4,1.8-4.7,5.1-4.6c11.8,0.3,23.7,0.5,35.5,0.5c425.8,0,851.6,0,1277.5,0c8.3,0,16.6-0.7,24.9-1.2c5.3-0.3,7.2,1.5,7.5,7.4
		c0.2,5.5-0.6,6.3-6.2,6.3c-69.5-0.1-139-0.3-208.5-0.3C1581.3,317.9,1427.8,317.9,1274.3,317.9
		C1274.3,317.9,1274.3,317.9,1274.3,317.9z"/>
	<path class="st0" d="M1640.3,177.1c-17,0-33.9,0.1-50.9-0.1c-4.1,0-5.5,1.6-5,5.3c1.3,10.4,6.5,18.7,14.3,25.5
		c7.1,6.3,15.9,9,25,10c13.9,1.5,27.6,0.3,40-7c1.4-0.8,3-1.6,4.1-2.8c4.5-5.1,9.9-3.6,14.4,0.6c3.6,3.4,7.2,6.8,10.8,10.2
		c3.8,3.5,3.1,9.1-1.6,12.3c-25.5,17.5-53.2,22.5-83.4,15.6c-18.3-4.2-33.9-12.7-45.5-27.5c-8.6-10.9-13.7-23.5-15.7-37.2
		c-2.6-18-1.8-35.9,4.4-53.2c10.8-29.7,32.3-46.6,63.6-50.9c14.5-2,28.6-0.5,42.1,5.1c10.6,4.4,20.3,10.7,27.8,19.7
		c9.1,10.8,15.3,23,18.9,36.9c3,11.7-1.3,21.1-7.4,30.3c-0.9,1.4-1.7,3-3,3.9c-2.4,1.7-5.1,4-7.8,4.1c-15,0.4-30,0.2-45,0.2
		C1640.3,177.9,1640.3,177.5,1640.3,177.1z M1625.8,150c12.6,0,25.3,0,37.9,0c3.1,0,5.7-0.8,4.6-4.5c-4.7-16.4-12.4-30.4-30.6-34.6
		c-6.1-1.4-12.6-1.9-18.8-1.5c-18.7,1.3-33.4,15.6-35.7,34c-0.7,5.7,0,6.6,6,6.6C1601.5,150,1613.7,150,1625.8,150z"/>
	<path class="st0" d="M884.4,80.7c0,8.7,0,16.7,0,24.6c0,3.7-2.4,3.9-5,3.8c-10.2-0.1-20.3-0.1-30.5-0.3c-7.9-0.2-8.6,0.6-8.6,8.3
		c0.2,21.8,0.1,43.6,0.3,65.5c0,5.5,0.3,11,0.8,16.4c0.6,6.9,8.3,12.8,16.7,12.9c5.8,0.1,11.6,0.1,17.4-0.2c3.9-0.2,6.2,1,6.3,5.1
		c0.2,8.3,0.5,16.6,0.2,25c0,1.5-2.3,4.4-3.4,4.3c-12.7-0.6-25.9,0-38.1-2.9c-20.1-4.8-32-19.1-35.1-39.5
		c-1.7-11.3-1.8-22.8-2.1-34.3c-0.3-15.3-0.1-30.6-0.1-46c0-1.8,0.3-3.6,0.6-5.4c1.2-7.2-0.4-9-7.8-8.9c-1.7,0-3.3,0.3-5,0.3
		c-3.8,0-5.6-1.8-4.7-5.7c1.3-5.8,2.5-11.7,4-17.4c1.2-4.9,4.7-7.5,9.8-7.3c3.6,0.1,4.2-0.9,4-4.6c-0.6-13.4-0.5-26.9-0.7-40.4
		c-0.1-3.3-0.3-6.6-0.4-9.9c-0.1-5.5,1.1-7,6.5-7.1c7.7-0.2,15.3-0.2,23,0c5.3,0.1,6.7,2.5,6.6,7.7c-0.3,17.5-0.3,34.9-0.4,52.4
		c0,3.4,2.2,3.1,4.4,3.1c10.2-0.1,20.3-0.2,30.5-0.2C877.1,80,880.5,80.4,884.4,80.7z"/>
	<path class="st0" d="M1845.4,80.8c2.4,0.2,3.9,0.2,5.4,0.3c4.1,0.3,6.3-1.6,6.6-5.6c0.3-4,0.8-8,0.7-12c-0.1-13-0.4-26-0.7-38.9
		c-0.1-6,1.5-7.7,7.4-7.7c7.7,0,15.3,0.1,23,0c4.4-0.1,5.8,1.9,5.7,6.1c-0.4,14.1-0.7,28.3-0.9,42.4c-0.1,2.7-0.1,5.3,0.1,8
		c0.5,7.4,1,7.3,8.5,7c11.1-0.5,22.3-0.4,33.4-0.2c1.3,0,3.6,2.2,3.7,3.5c0.3,7.5,0.2,15,0.1,22.5c0,3.5-2.6,3.2-5,3.2
		c-10.3,0-20.7-0.2-31-0.1c-8.3,0.1-8.2,0.7-8.1,9c0.3,22.1,0.1,44.3,0.2,66.4c0,3.2,0,6.4,0.5,9.5c2.2,14.7,5.1,15.9,19.2,17.8
		c5.9,0.8,12,0.4,18,0.1c3.2-0.1,4.2,1.1,4.2,4c-0.1,8.7-0.1,17.3-0.1,26c0,2.4-0.4,4.2-3.5,4.1c-9.1-0.3-18.4,0.2-27.4-0.6
		c-28.2-2.6-45.9-22.7-46.9-50.9c-0.9-26.4-0.2-52.9-0.2-79.4c0-5.7-0.4-6.4-6.2-6.2c-14.1,0.5-12.9,0.5-9.8-12
		c0.7-2.7,1.3-5.5,1.9-8.3C1844.6,86.2,1844.9,83.6,1845.4,80.8z"/>
	<path class="st0" d="M1292.3,126.3c0-37,0-74,0-111c0-2.7-0.4-5.3-0.7-8c-0.4-5,1.5-7.2,6.5-7.3c8-0.1,16-0.1,24,0.1
		c6.8,0.2,8.2,2.4,7.5,9.1c-0.7,6.4-0.8,12.9-0.8,19.4c0,68.2,0.1,136.3,0.2,204.5c0,3,0.2,6,0.4,9c0.1,2.9-1.1,4.2-4.1,4.2
		c-9.1,0.1-18.3,0.4-27.4,0.6c-4.3,0.1-5.4-2.5-5.5-6.1c-0.1-7.5-0.1-15-0.1-22.5C1292.2,187.6,1292.2,156.9,1292.3,126.3
		C1292.2,126.3,1292.3,126.3,1292.3,126.3z"/>
	<path class="st0" d="M1762.6,101c10-10,20.2-17.8,32.9-21.8c10.3-3.2,20.6-3.5,31-0.7c4.1,1.1,6.4,3.6,6,7.9
		c-0.2,2.8-0.9,5.5-1.5,8.3c-0.8,3.7-2,7.4-2.6,11.2c-1.3,8-3.3,9.2-11.2,6.7c-3.8-1.2-7.7-2.4-11.6-2.4
		c-21.3-0.3-34.1,10.1-38.2,30.9c-1,5-1.1,10.2-1.1,15.4c-0.1,27-0.1,54-0.1,81c0,8.7-0.6,9.1-9,8.8c-7.3-0.2-14.7-0.3-22,0.3
		c-4.7,0.4-6.1-1.5-5.9-5.6c0.2-6.3,0.6-12.6,0.6-19c0-43.8-0.1-87.6-0.2-131.5c0-9.3-0.1-9.3,9-10.3c10.7-1.1,15,1.9,19.6,13.5
		C1759.4,96.2,1761.1,98.4,1762.6,101z"/>
	<path class="st0" d="M1645.6,423.9c0.2,32.6-26.4,60-61.2,59.1c-33.9-0.9-59.7-27.3-59.1-63.3c0.5-30.8,26.8-58.8,62.3-58.1
		C1618.3,362.3,1646.5,388.7,1645.6,423.9z M1548.1,422.7c-0.2,22.7,17.2,37.2,35.8,38.3c21.9,1.4,39.2-17.2,39.3-38.1
		c0-21-17.2-39.4-37.5-39.6C1565.7,383.2,1547.5,400.6,1548.1,422.7z"/>
	<path class="st0" d="M1724.8,361.8c32.3-0.9,60,26.5,60,61.2c0,33.1-26.9,61.1-61.7,59.9c-34.6-1.2-57.4-27-58.6-58.5
		C1663.1,386,1694.3,360.9,1724.8,361.8z M1687.3,420.9c-0.9,24.3,16.4,39.3,36.5,40.1c21.6,0.8,38.2-16.5,38.5-37.8
		c0.3-21.9-16.6-39.5-38-39.9C1704.9,383,1687.4,400.8,1687.3,420.9z"/>
	<path class="st0" d="M800.5,425.8c0-17.8,0-35.6,0-53.4c0-7.2,2-8.7,9.1-8c5.4,0.5,11-0.1,16.4,0.5c7.3,0.8,15,1.2,21.9,3.5
		c16.9,5.8,22.9,27.2,12.2,41.4c-3.8,5.1-3.5,7.6,1.6,11.5c10.4,8,14.7,21.2,11,34.3c-3.3,12.2-14.1,22-26.6,23.2
		c-9.1,0.9-18.2,0.8-27.4,1.1c-3.8,0.1-7.6,0.2-11.4,0.5c-4.7,0.3-6.7-1.5-6.7-6.4c0-16.1,0-32.2,0-48.4
		C800.6,425.8,800.6,425.8,800.5,425.8z M831.2,429.5c-3.6,1.1-7.9-1.5-7.9,4.1c0,6.8,0,13.6-0.1,20.4c0,3.6,2,5.1,5.4,4.9
		c4-0.3,7.9-0.5,11.9-0.9c4.9-0.5,9.8-5.3,10.8-10.2c0.9-4.6-1.7-12.7-5.3-14.1C841,431.7,835.7,430.7,831.2,429.5z M823.5,396.6
		c0,1.5,0,3,0,4.5c-0.1,8.1,0.8,8.9,8.9,7.8c6.8-0.9,10.7-5.2,11-11.9c0.2-5.1-3.6-9.4-10-10.6c-9.8-1.8-10.5-0.6-9.9,7.7
		C823.5,395,823.5,395.8,823.5,396.6z"/>
	<path class="st0" d="M1478.4,364.8c6.2,0,11.7,0.1,17.1,0c4.3-0.1,5.7,1.7,5.7,6c-0.3,25.3-0.4,50.6-0.4,75.9
		c0,9.7,0.2,19.3,0.5,29c0.1,3.2-0.9,4.6-4.2,4.6c-6.1-0.1-12.2,0-19.1,0c0-7.7,0-14.8,0-21.9c0-8,0-16,0.2-24
		c0.1-3.2-1.1-4.5-4.3-4.5c-9.8,0.1-19.6,0.1-29.4-0.1c-3.6-0.1-4.5,1.4-4.4,4.8c0.2,13.2,0.2,26.3,0.1,39.5c0,5.8-1.2,6.6-6.8,6.3
		c-2.6-0.2-5.3-0.1-7.9,0.3c-5.7,0.9-8-1.1-8-6.9c0-31.8,0-63.6,0-95.4c0-2.7-0.2-5.3,0-8c0.4-5.3,2.2-6.5,7.5-5.7
		c2.3,0.3,4.7,0.4,6.9,0.1c6.4-0.9,8.2,0.4,8.2,7c0.1,10.2,0.3,20.3,0,30.5c-0.1,4.4,0.9,6.3,5.8,6.1c8.5-0.4,17-0.1,25.5-0.1
		c6.4,0,7.1-0.7,7-7.3c-0.1-9.2-0.4-18.3-0.5-27.5C1477.7,370.7,1478.1,368.1,1478.4,364.8z"/>
	<path class="st0" d="M1113.6,444.9c4.1,4.6,8.6,9.4,12.7,14.5c0.8,1,0.4,4.2-0.5,4.9c-5.1,3.9-10.2,8-15.9,10.9
		c-22.4,11.4-45,10.8-66.5-1.7c-15.9-9.2-24.2-24.4-25.8-42.7c-0.6-7-0.9-14.4,0.4-21.3c4.7-25.6,21.4-40.3,45.8-46.1
		c18.3-4.4,35.9-1.3,51.6,9.7c3.3,2.3,6.6,4.5,9.5,7.2c3.3,3.1,3.9,7.8-0.9,10.3c-2.3,1.2-3.9,3.5-5.9,5.3
		c-4.2,3.8-5.8,3.6-10.2-0.2c-10.7-9.4-23-14.2-37.5-11.6c-21.4,3.8-35.4,26.3-30.3,47.4c2.6,10.7,7.8,19.3,17.4,24.3
		c14.6,7.6,29.5,8.1,43.7-1.5C1105.2,451.5,1108.9,448.5,1113.6,444.9z"/>
	<path class="st0" d="M1379.2,444.4c4.6,5.2,9.2,10.1,13.4,15.3c0.7,0.9,0,4.1-1.1,4.9c-5.1,3.9-10.3,7.9-16.1,10.8
		c-20.2,10.1-40.8,10.4-61.2,0.6c-19.9-9.5-29.4-26.3-30.7-47.6c-0.5-8.5,0.3-17.3,2.2-25.6c3.3-14.1,12.5-24.1,24.7-31.7
		c15.5-9.7,32.2-11.3,49.5-7.8c10.9,2.2,20.7,7.7,29.2,15.2c1.7,1.5,3.3,3.5,4,5.6c0.5,1.4-0.1,3.8-1.1,4.9
		c-2.4,2.7-5.6,4.7-8.2,7.2c-3.3,3.2-6.3,2.9-9.5-0.1c-10.8-10.3-23.6-14.9-38.2-11.9c-19.6,4-34.8,23.6-30,45.7
		c2,9.3,5.6,17.4,13.5,23c11.2,7.9,23.5,10.4,36.8,6.5C1365,456.8,1372.3,451.7,1379.2,444.4z"/>
	<path class="st0" d="M771.5,410c0,12.7,0,25.3,0,38c0,23.4-23.4,39.2-44.5,34.3c-6.3-1.5-12.6-3.7-18.3-6.8
		c-10.2-5.6-13.9-15.5-14.2-26.4c-0.8-25.6-1.1-51.3-1.5-76.9c-0.1-7.2,1.1-8,7.9-7.3c2.4,0.2,4.9-0.3,7.4-0.7
		c4.2-0.7,6.8,0.9,7.6,5.1c0.4,2.1,0.5,4.3,0.5,6.5c0.1,23.3,0.3,46.7,0,70c-0.1,8.8,6.8,14.5,14.5,15.4c8.8,1,16.6-4.7,17.8-13
		c0.7-4.4,0.9-9,0.9-13.4c0.1-20.7,0-41.3-0.1-62c0-7.7,1.3-8.9,8.7-8c2.5,0.3,5,0.2,7.5,0.1c5.9-0.3,6.8,0.5,6.8,6.2
		c0,13,0,26,0,39C772.1,410,771.8,410,771.5,410z"/>
	<path class="st0" d="M1228.7,483c-15.4,0.4-26.5-7.1-35.3-19c-2.3-3.1-0.6-8.4,3.7-11.1c3.1-1.9,6.5-3.4,10-4.5
		c4-1.2,5.9,1.8,7.6,4.9c3.1,5.6,12.4,9.3,18.4,7.4c9-2.9,11.4-11.3,4.7-18.2c-6.3-6.4-13.3-12-19.9-18.2
		c-5.1-4.8-10.9-9.1-14.9-14.7c-11.7-16-8.3-36.9,11.2-45.1c15-6.3,27.9-2.4,39.8,7.4c8.5,7,8.6,7.3,0.5,15
		c-9.2,8.7-7.3,10.1-17.2,0.2c-1.5-1.5-3.5-2.5-5.5-3.2c-5.4-1.8-10.2-0.6-12.2,2.8c-2.1,3.6-1,7.7,3.6,11.8
		c9.1,8.1,18.4,15.8,27.3,24.1c9.4,8.7,14.3,19.2,12.8,32.5c-2,17.2-16.6,26.3-31.1,27.8C1231.1,483.1,1229.9,483,1228.7,483z"/>
	<path class="st0" d="M1912.2,483.2c-16,0.5-27.2-7.6-35.9-19.9c-0.9-1.3-0.5-4.3,0.3-5.9c3-5.9,9-8,14.8-8.8
		c1.9-0.3,4.9,2.9,6.4,5.1c3.6,5.2,12.2,8.9,18.2,7.2c10.6-3,10.1-13,5.2-17.8c-6-6-12.4-11.5-18.7-17.3c-5-4.6-10.4-8.9-14.8-14.1
		c-7.6-9-11.1-19.3-6.6-30.9c4.6-11.8,14.1-17.3,26.1-18.8c11.4-1.5,21.1,2.8,29.7,10.2c8.5,7.3,8.7,7.3,0.4,15.2
		c-8.8,8.3-6.6,9.6-16.5,0.3c-2.3-2.1-5.7-3.5-8.8-4.2c-3.7-0.9-7.6,0-9.4,3.9c-1.7,3.6-0.8,7.3,2.3,10c7.3,6.5,14.5,13.2,22.1,19.4
		c6.6,5.4,12.6,11.4,16.4,19.1c4.7,9.4,4.7,19.1,0.5,28.4C1937.9,477.7,1926.1,482.3,1912.2,483.2z"/>
	<path class="st0" d="M600.2,422.6c0-17.1,0-34.3,0-51.4c0-6.1,1.8-7.5,7.9-7.2c7.1,0.4,14.3,0.4,21.4,0.9c6.4,0.5,13,0.6,19.1,2.3
		c15.5,4.3,24.2,23.1,19.3,40.7c-3.7,13.5-14.4,21.6-30.4,23c-3.6,0.3-7.3,0.6-11,0.7c-3.4,0.1-4.5,1.7-4.5,5
		c0.2,12.3,0.1,24.6,0.2,36.9c0,6.5-0.2,6.7-6.7,6.6c-2.5,0-4.9,0.4-7.4,0.8c-5.5,0.9-8.1-1.2-8.1-6.8
		C600.2,456.9,600.2,439.8,600.2,422.6C600.2,422.6,600.2,422.6,600.2,422.6z M622.1,396.7c0.2,3.1,0.2,6.3,0.8,9.3
		c0.3,1.2,2.1,2.9,3.2,2.9c4.4,0,8.9-0.2,13.3-0.9c4.8-0.8,7.3-4.3,7.8-9c0.7-6.2-4.5-11.8-12.6-12.5
		C622,385.5,621.8,385.9,622.1,396.7z"/>
	<path class="st0" d="M1863.1,480c-12.7,0-25,0-37.3,0c-3.2,0-6.3,0-9.4,0.4c-5.6,0.8-7.8-0.9-7.8-6.5c0-21.8,0.1-43.6,0.1-65.4
		c0-11.8-0.1-23.6-0.3-35.5c-0.1-7.6,2-9.5,9.4-8.5c2.1,0.3,4.3,0,6.4-0.3c5.2-0.7,7.3,0.7,7.3,5.9c0.2,12.3,0.4,24.6,0.3,37
		c0,15.2-0.1,30.3-0.4,45.5c-0.1,4.9,2.8,6,6.5,6.1c5.8,0.2,11.7,0,17.5,0.1c8.5,0.2,9.4,1.4,8.2,9.8
		C1863.3,472.3,1863.3,475.8,1863.1,480z"/>
	<path class="st0" d="M953.2,480.3c-6.8,0-13.1,0-19.4,0c-10.2,0-20.3-0.2-30.5-0.1c-3.9,0-5.2-1.4-5.1-5.3
		c0.1-34.3,0.1-68.6,0.1-102.9c0-6.8,0.6-7.4,7.3-7.3c4,0,8,0.1,12,0.2c2.8,0,3.6,1.5,3.6,4.2c-0.2,24.1-0.3,48.2-0.4,72.4
		c0,3.5-0.1,7-0.2,10.5c-0.2,4.7,1.5,7.1,6.7,6.9c6.5-0.3,13-0.1,19.5,0.2c6.6,0.3,7.7,2.1,6.4,8.6c-0.4,1.9-0.4,3.9-0.4,5.9
		C952.7,475.4,952.9,477.4,953.2,480.3z"/>
	<path class="st0" d="M993.8,422.6c0,17.8-0.1,35.7,0.1,53.5c0,2.9-1.1,4-3.7,4c-5.2,0.1-10.3,0.4-15.5,0.1c-1.1-0.1-2.9-2.6-2.9-4
		c0-26.7,0.1-53.3,0.2-80c0-8.8-0.1-17.7-0.2-26.5c0-3.2,1-5,4.6-4.8c4,0.2,8,0.2,12-0.1c3.9-0.2,5.1,1.1,5.1,5.1
		c-0.2,17.5-0.1,35-0.1,52.5C993.6,422.6,993.7,422.6,993.8,422.6z"/>
	<path class="st0" d="M923.8,250c-4.7-1.3-9.9-1.9-14-4.2c-7.6-4.4-8.6-12-7.1-20.1c1.3-7.4,6.4-10.8,13.2-12.4
		c8.1-1.9,15.8-0.6,23.3,2.5c1.2,0.5,2.5,1.3,3,2.4c3.4,6.9,4.8,14.2,1.6,21.6c-2.9,6.9-9.1,8.7-15.8,9.3c-1.3,0.1-2.7,0-4,0
		C923.9,249.3,923.9,249.6,923.8,250z"/>
	<path class="st0" d="M264.3,178.2c1.2,20.1-17.7,36.9-36.6,37.1c-22.6,0.3-40.3-17-39.2-40.9c0.3-7.5,5.5-15.5,10.3-21.9
		c6.9-9.3,18-11.9,29-12.1C245.8,140.1,265.3,155.3,264.3,178.2z"/>
</g>
</svg>
