<svg xmlns="http://www.w3.org/2000/svg" viewBox="0 0 2000 591" id="Layer_1"><style id="style2">.st0{fill:#FFFFFF;}</style><g id="g54"><path id="path4" d="M239.5 52.8c34.7.5 61.2 4.8 86.9 14.5 29.7 11.2 55.8 27.5 78.7 49.5 22.6 21.6 40.1 46.7 52 75.4 15.8 37.7 21 77.1 15.9 117.8-3.8 30.3-13.4 58.5-28.7 84.9-12.3 21.4-27.5 40.4-46.5 56.2-6 5-7.6 10.8-6.7 18.1 1.1 9.2 1.7 18.5 2.4 27.8.3 3.1-.8 4.6-4.1 3.1-1.8-.8-3.6-1.7-5.3-2.6-8.2-4.3-16.1-9.3-24.7-12.8-3.6-1.4-9.2-.9-12.8.9-22.7 11.3-46.6 18.6-71.8 21.1-12.2 1.2-24.6 2.4-36.8 1.9-32.5-1.5-63.7-8.5-93-23.4-3.6-1.8-9.4-1.5-13.3.1-8.7 3.5-16.9 8.4-25.3 12.7-5.9 3-7.6 2.2-7.2-4.4.6-9.5 1.5-18.9 2.5-28.3.5-4.3-.4-7.6-3.5-10.8-11.5-11.8-23.3-23.3-33.8-35.9-14.9-17.9-25.2-38.7-33.2-60.5-11-29.8-14.5-60.8-12.9-92.3 1.1-21 5-41.6 12.8-61.2 5.6-13.8 11.7-27.5 19-40.5 13.5-24 32-44.2 53.5-61.4C132 80 164 64.9 199.4 57.7c15.5-3.2 31.6-3.9 40.1-4.9zm117.1 352.6c.5-7.2 1.5-14.4 1.5-21.5.1-57.5.2-115 0-172.5 0-6.5-1.2-13.3-3.3-19.5-7.1-21.1-23-32.3-44.1-36.6-7.7-1.6-14.8.5-19.5 8-9.9 16.48-29.5 23.34-45.42 22.84-26.45-.17-42.33-14.23-57.28-30.24-8.7-2.2-17 .8-24.4 4.7-19.2 10.2-29.1 26.7-29.4 48.5-.3 16.3-.4 32.7 0 49 .9 46.1-3.1 92.2 2.2 138.2.3 2.4 1.7 4.6 2.6 6.9 4-1.6 2.8-4.9 2.3-7.7.13-16.55 15.38-8.25 15.5-26.9-.1-20.2-.3-40.3 0-60.5.1-9.3-.7-18.4 2.6-27.9 4.8-14 12.9-23.6 26.4-29.1 11.5-4.7 17.7-2.8 25.4 7.2 2.9 3.8 6.9 7.2 11 9.8 18.36 9.15 44.42 5.04 55.5-9.6 1.9-2.5 3.9-5.2 6.4-7 3.7-2.6 7.5-5.8 12.7-3.3 2.8 1.3 5.6 2.5 8.5 3.7 2.7 1.2 5.8 1.9 8.1 3.5 12.4 8.6 19.1 20.3 19 35.8-.2 23.7.5 47.3-.2 71-5.05 19.77 24.54 21.15 17.96 32.9-3.4 5.9-.36 8 5.94 10.3zM197.7 128.7c-.2 25.8 19 47 47 47.3 26.9.2 46.7-20 46.9-46.9.2-26.1-20.3-46.7-47.2-46.8-26.3-.2-46.3 20.3-46.7 46.4zm49 279.1c12.2-15.1 27.9-22.7 45.6-26.8 3.6-.8 5.9-1.9 5.9-5.9 0-9.2.2-18.3.1-27.5-.1-7.4-3.9-13-9.8-17.1-6.7-4.6-18.1-4.7-21.5.6-4.1 6.6-10.3 9-17 9.9-8.7 1.2-17.7.3-24-6.7-8.4-9.3-19.7-9.4-27.3.7-9.6 12.6-7.6 27-6 41.2.2 1.5 3.3 3.1 5.3 3.8 2.8.9 6.1.2 8.7 1.3 14.7 6.7 29.9 12.6 40 26.5zM137 438.5c3.1-1.7 6.4-4.6 10-5.3 37.8-8.5 60.27-.6 90.5 15.1.9.5 2.5.6 3.1.1.7-.5.9-2 .9-3.1-.3-6.4-1.6-12.9-1-19.2 1.1-9.8-3.5-16.1-11.3-20.3-26.06-12.85-41.77-16.3-68.1-13.8-4.5.5-10.3 2.2-12.6 5.4-3.3 4.6-4.1 11-5.7 16.8-2.1 8-3.8 16-5.8 24.3zm124.4-31c-5.1 2.7-7.6 7.2-7.7 13.1-.2 8.1-.4 16.3-.9 24.4-.3 4.5 1.7 5 5 3 35.4-19.92 61.4-23.33 93.8-12.6 1.3.4 2.6.9 3.9 1.4 0-1.4.3-2.9-.1-4.2-2.9-9.5-6.2-18.9-8.9-28.5-2.7-9.4-6.3-12.4-16.1-12.5-29.43-2.04-43.34 2.47-69 15.9zm-142.6 74.1c19.37-10.62 56.9-15.17 74.7-12.1 13.8 2.6 27.2 7.2 40.8 10.8 5.67 1.38 7.86.22 4.7-5.1-43.32-33.78-77.47-30.45-115.9-9.8-4.5 2.4-6.5 1.3-5.9-3.7.6-5.1 1.4-10.2 2.9-15.1 1.6-5.2 4.2-10 5.9-15.1.6-1.7-.2-3.8-.4-5.7-2.8.5-5.6.9-8.3 1.7-.8.3-1.6 1.8-1.7 2.9.2 11-15.67 60.24 3.2 51.2zm134.6-4.8c-2.3 4.22.6 5.95 4.7 4.5 6.4-2.3 12.5-5.3 19-7.3 31.2-7.85 76.43-7.9 100.5 9.2 2.8 2.1 5.7 1.4 5.7-2.9 0-8.1.3-16.3-.7-24.3-1.2-9.4-3.5-18.6-5.5-27.8-.2-.9-1.5-2.3-2.4-2.3-2.2-.2-6.1-.1-6.3.6-.6 2.4-.2 5.2.5 7.6 2.7 8.9 5.7 17.6 8.4 26.5.9 9.06-5.88 5.63-10.3 2.9-35.17-23.24-92.08-21.94-113.6 13.3zm-8.5-186.1c-11.8-1.7-22.6 11.1-22.2 22.2.5 14.1 8.13 19.76 22.53 20.76 13.65-.27 22.17-8.46 21.37-22.16-.8-13-8.4-20.9-21.7-20.8z" class="st0" fill="#fff"/><path id="path6" d="M1272 296.2c-5.7 0-11.3-.1-17 0-3.8.1-6.2-1.4-7.6-5-4.9-13.2-10.2-26.3-15-39.6-2.9-7.9-3.4-8.8-11.6-8.8h-100c-8.5 0-9.1 1-12.5 9.2-4.1 9.8-8.9 19.3-13.4 29-.6 1.4-1.8 2.6-2 4-1.3 9.1-7.1 11.8-15.5 11.7-8.6-.2-17.3.3-25.9.2-4.7-.1-3.1-3.7-2.3-5.9 2.5-6.9 5.4-13.6 8.3-20.3 10.3-24 20.5-48 30.9-71.9 11.5-26.5 23.3-52.9 34.8-79.4 7.3-16.9 14.4-33.9 21.4-51 2.2-5.5 5.8-8.2 11.7-8.1 9.5.1 19 .1 28.5 0 3.8 0 6.1 1.7 7.7 5.1 16.1 36.5 32.2 72.9 48.4 109.4 12.6 28.4 25.1 56.8 37.6 85.3 4.7 10.6 9.1 21.4 13.6 32.1 1.4 3.4.8 4.9-3.2 4.8-5.7-.2-11.3-.1-17-.1.1-.3.1-.5.1-.7zm-63.2-93.2c-.8-3.3-1-5.1-1.7-6.8-3.6-8.8-7.7-17.3-11-26.2-7.7-20.5-18.6-39.7-22.9-61.5-.5-2.5-1.8-3.4-3.6-1.2-2.6 3.2-5.5 6.4-7 10.1-9.1 22.3-17.8 44.7-26.7 67-2.1 5.2-4.6 10.3-6.5 15.6-1.6 4.2.1 6.4 4.1 6.2 7.5-.3 14.9-.7 22.4-.6 15.9.2 31.9.8 47.8.8 1.8.1 3.6-2.3 5.1-3.4z" class="st0"/><path id="path8" d="M693.9 56.5c20.8-.3 39.6 1.7 57.7 7.9 7.2 2.5 13.9 6.3 20.6 9.9 4.6 2.4 4.7 6.2 2.7 10.7-3.5 7.9-7 15.8-10 23.9-1.3 3.4-2.8 3-5.2 1.9-9.5-4.3-18.8-9.5-28.7-12.5-20.8-6.2-41.9-7.5-62.6 1.3-8.1 3.5-14 9.3-15.2 17.8-1.6 10.9 3.4 19.6 12.3 26.2 12.7 9.3 27.9 12.8 42.4 17.9 17.5 6.1 35.6 10.9 51.3 21.3 22.1 14.5 31.1 35.3 28.2 61.2-3.1 28.6-21.8 43.8-47.3 51.9-29.9 9.5-59.9 8.3-89.6-1.9-13.8-4.7-25.7-12.3-36.1-22.4-4.7-4.6-4.4-7.6.5-11.9 4.5-3.9 8.7-8.2 12.6-12.7 6.1-7 9.2-7.2 15.9-1.2 14 12.6 31 18.7 49.4 20.4 12.6 1.2 25.2-.4 37.4-4.8 7.3-2.6 13.2-7.1 17-13.3 4-6.4 3.7-14 .8-21.2-5.4-13.5-17.4-19.4-29.8-23.9-18.4-6.6-37.2-12.2-55.7-18.7-17-6-31.7-15.6-41-31.6-2.9-4.9-5.1-10.7-5.9-16.3-4.6-34.2 10.3-61.8 42.9-73.3 5.9-2.1 12.1-3.6 18.3-4.8 6.1-1.1 12.5-1.4 17.1-1.8z" class="st0"/><path id="path10" d="M1377.2 177V66.5c0-2.8-.6-5.6-.8-8.4-.2-4.2 1.6-6.7 6.1-6.8 7.8 0 15.7-.2 23.5.1 7.2.2 8.3 2.6 7.5 9.5-1 7.9-1.1 15.9-1.2 23.9 0 15.7.3 31.3.4 47 0 3.6-.5 7.3-.6 10.9 0 1.7.4 3.3.7 5 1.6-.5 3.6-.7 4.9-1.7 10.6-8.4 22.6-13.8 35.9-16.4 33.8-6.7 65.7 6.6 82.5 34.3 11.9 19.6 13.4 41.2 11.3 63.2-1.4 14.3-5.4 28-13.5 39.8-11.5 16.8-27.2 27.8-47.7 31.8-20.5 4-40 .2-59.1-6.9-3.6-1.3-6.7-4.2-9.7-6.8-4.2-3.6-7.6-4-11.3.1-3.2 3.4-5.6 7.4-8.4 11.1-3 4-8.6 5.3-14.5 3.2-4.3-1.6-6-4.9-6-9.4v-56.5c-.2-18.8-.1-37.7 0-56.5-.1 0-.1 0 0 0zm34.9 45.2c-.4.1-.9.1-1.3.2 1.2 6.3 1 13.3 3.8 18.7 6.9 12.9 18.1 21.5 32.3 25.7 19.1 5.6 36.2 2.4 50.6-11.9 11.6-11.5 15.7-25.8 15-41.9-.6-14-3.7-27.4-13.4-37.8-22.8-24.4-65-19-82.6 10-2.3 3.7-4 8.3-4.4 12.6-.5 8 0 16.2 0 24.4z" class="st0"/><path id="path12" d="M1654.1 227.6c-15.7 0-31.3.1-47-.1-4.2-.1-5.7 1.5-5.5 5.5.6 10.5 6.1 18.6 13.6 25.3 10.7 9.5 23.8 12 37.6 11.6 12.7-.4 24.5-3.8 34.8-11.8 4.4-3.4 8.2-1.2 11.6 1.9 3.8 3.4 7.5 7.1 11.2 10.6 3.3 3.2 2.5 8.6-2 11.5-35.1 23.2-71.8 25.1-108.4 5.1-22.2-12.1-32.9-33.1-35.8-58-1.9-16.4-.4-32.6 4.5-48.3 9.1-29 35.5-49.3 66.4-51.6 19.9-1.5 38.5 2.2 54.7 14.2 5.9 4.4 11.5 9.8 15.9 15.7 8.7 11.6 14.5 24.6 15.8 39.3.8 8.6-4.2 15.1-8 22.1-3.6 6.6-9.1 8.7-16.6 8.4-14.3-.6-28.6-.2-43-.2.2-.5.2-.8.2-1.2zm-10.7-26.3h38c3.2 0 6.2-.8 5.2-4.7-2.9-10.9-7.3-21.3-16.5-28.4-25.8-19.8-62.1-6.6-69.1 24.9-1.4 6.4 0 8.2 6.5 8.2h35.9z" class="st0"/><path id="path14" d="M1287.2 357.2h642.5c9.8 0 19.6-.6 29.4-1.1 6.2-.3 10.1 5 7.2 10.4-.7 1.3-3.6 2.1-5.4 2.1-9.8 0-19.6-.4-29.4-.4h-1275c-10.7 0-21.3.3-32 .5-4.1.1-7.4-.3-7.5-6-.1-4.9 2-6 6.2-5.9 13.2.2 26.3.4 39.5.4h624.5z" class="st0"/><path id="path16" d="M858.7 203.8c0 14.5-.3 29 .1 43.4.3 9.8 7.6 16.3 17.6 16.6 5.1.2 10.3-.1 15.4-.6 4.7-.5 7.4.9 7.5 6 .1 7.7.5 15.3.2 23-.1 1.6-2.6 4.5-3.9 4.5-13.2-.8-27-.1-39.5-3.6-19.1-5.3-30.1-19.8-32.6-39.5-1.5-12.2-1.5-24.5-1.6-36.8-.1-17 .3-34 .6-50.9.1-3.9-1.8-5.5-5.2-5.9-1.6-.2-3.3-.1-5-.1-8.2.2-9.2-1.2-6.7-8.9 1.2-3.9 1.8-8 2.7-12.1 1.3-6.1 4.1-8.3 10.3-7.9 3.3.2 4.4-1.4 4.3-4.5-.3-14.4-.5-28.9-.8-43.3-.1-2.8-.6-5.6-.8-8.4-.2-4.1 1.8-6.3 5.9-6.3 7.8-.1 15.7-.1 23.5 0 4 .1 5.9 2.2 5.8 6.4-.4 13.9-.7 27.9-.9 41.8-.1 3.2.4 6.3.2 9.5-.3 4.3 1.4 5.9 5.8 5.7 10.7-.4 21.3-.4 32-.5 7.4-.1 8.1.8 8 7.9 0 5.3.1 10.7.2 16 .1 3.2-1.4 4.6-4.5 4.6-10.2-.1-20.3 0-30.5-.4-7.6-.3-9.1.9-9.1 8.5.1 12 0 24 0 36 .3-.2.6-.2 1-.2z" class="st0"/><path id="path18" d="M1876.3 205c0-13-.2-26 .1-39 .1-5.2-2-6.7-6.8-6.5-13.3.8-12.1-.2-9.2-11.3.5-1.9 1.2-3.9 1.4-5.8.6-5.8 2.1-10.3 9.4-10 1.3 0 3.4-2.6 4-4.3.9-2.6 1.1-5.6 1.1-8.4-.1-14.8-.4-29.6-.7-44.4-.1-5 1.7-7 6.6-7 7.7 0 15.3.1 23 0 4.4-.1 5.9 1.8 5.8 6-.4 16.5-.8 32.9-.9 49.4-.1 8.4 1.2 8.8 9.4 8.3 10.8-.6 21.6-.4 32.4-.1 1.4 0 3.8 2.8 3.9 4.4.5 6.1.1 12.3.3 18.4.1 4-1.5 5.2-5.4 5.2-11-.2-22-.1-33 0-4.3 0-6.6 1.6-6.5 6.6.5 24.5.5 49 .9 73.4.3 18.4 5.8 23 23.8 23.6 4.5.1 9 .6 13.5.7 3.5.1 4.6 2.1 4.5 5.2-.1 7-.1 14 0 21 .1 3.8-1.2 6-5.5 5.8-10.1-.3-20.4.6-30.3-.9-22.2-3.5-37.9-19.8-40.2-42.8-1.6-15.6-.3-31.6-.3-47.4-.7-.1-1-.1-1.3-.1z" class="st0"/><path id="path20" d="M1310.3 174V66.5c0-2.2-.1-4.3-.2-6.5-.5-7.3.8-8.7 7.9-8.7 7.3 0 14.7-.2 22 .2 6 .3 7.3 1.9 7 7.2-.5 8.6-1.2 17.2-1.2 25.9-.1 65.5-.1 131-.1 196.4v2.5c1.1 15.1-.2 11.7-12 13.1-5.9.7-12 .3-17.9.5-4.4.1-5.3-2.7-5.3-6.2v-22c-.2-31.6-.2-63.3-.2-94.9z" class="st0"/><path id="path22" d="M1748.3 214.5c0-25.2.1-50.3-.1-75.5 0-4.7 1.9-6.4 6.4-6.8 11.4-1.1 16.9 2.1 21.2 13 .4 1.1.7 2.3 1.3 3.2 1.9 2.8 3.4 4.3 6.8.8 12.1-12.3 26.5-20.6 44.3-21 4.5-.1 9 .5 13.4 1.2 7.4 1.3 9.6 4.7 7.9 12.1-1.3 6.2-2.9 12.3-4.4 18.4-1.3 5.6-5.1 3.9-8.7 3.2-4.7-1-9.3-2.6-14-2.8-23.4-.8-38 15.8-38.6 38.6-.8 29.6-.2 59.3-.3 89 0 8.5-.6 9-9.1 8.9-6.7-.1-13.3-.1-20-.2-5.6 0-6.8-1.2-6.8-6.7v-75.5c.4.1.5.1.7.1z" class="st0"/><path id="path24" d="M1603.4 413.2c32.8-.7 59.1 26.7 59.6 60 .4 34.5-26.4 60.2-58.9 60.4-34.6.2-60.8-26.9-60.7-62.3-.1-31.8 27.1-58.1 60-58.1zm-38 59.6c-.2 23.3 15.8 37.3 34.5 39.4 23.5 2.7 40.5-17.4 41.5-36 1.2-22.2-15.8-41.1-37-42.3-19.1-1-39 15.7-39 38.9z" class="st0"/><path id="path26" d="M1683.1 472.7c-2.2-32.9 28.4-61.6 63-59.7 30.2 1.7 57.4 28.3 56 63.7-1.3 31.9-28.6 58.5-62.1 56.9-34.7-1.7-58.2-29.5-56.9-60.9zm21.5-.2c-1.2 23.4 16.8 39.2 36.9 39.9 21.3.8 38.3-16.7 38.7-37.8.4-23.7-17.6-40.4-38.5-40.6-18.1-.2-37.2 15.6-37.1 38.5z" class="st0"/><path id="path28" d="M818.9 473.9v-50c0-7.2 1.2-8.2 8.5-7.8 9.8.5 19.6.5 29.4 1.3 16.6 1.3 28.4 16.1 25.7 32.3-.7 4-3.4 7.8-5.7 11.4-3.2 5-3 7.9 1.4 11.1 11.1 8.1 15.3 20.1 11.9 33.4-3.5 13.4-13.5 23-26.8 24.1-13.1 1-26.2 1-39.4 1.3-4.2.1-4.7-2.7-4.7-6.1v-51zm21.7 20.5c.1 3.3.1 6.7.1 10-.1 4.3 2.1 6.1 6.2 5.8 9.53-.3 21.9-2.57 23-13.1-1.44-15.3-12.1-15.05-23.6-16.7-4.1-.6-6.4.8-5.8 5.5.4 2.8.1 5.7.1 8.5zm.1-46.7c.35 9.12-2.43 13.1 4.4 12.9 2.8.4 6-.4 8.8-1.3 5.4-1.7 8.7-8.6 7.3-14.2-1.3-5-9.6-9.9-16.4-8.9-6.05 1.58-4.1 7.06-4.1 11.5z" class="st0" fill="#fff"/><path id="path30" d="M1518.1 473.5c0 17.3-.1 34.7.1 52 0 3.9-1.5 5.5-5.3 5.3-3.5-.1-7-.3-10.5 0-4.8.5-6.5-1.3-6.3-6.1.3-12.8 0-25.7.3-38.5.1-4.4-1.7-6-5.7-6h-28.5c-3.8 0-5.1 1.7-5.1 5.6.2 12.7.2 25.3.2 38 0 6.5-.8 7.1-7.2 7-2.5 0-5 .1-7.5.3-5 .4-7.1-1.4-7.1-6.5 0-33.5-.1-66.9-.1-100.4 0-7.2 1.3-8.5 8.2-8 1.7.1 3.3.1 5 0 8-.6 8.4-.2 8.5 8 .1 9.7.2 19.3.1 29 0 4.3 1.3 6.3 6 6.2 9-.3 18-.2 27-.1 4.5.1 6.3-1.9 6.2-6.3-.2-10.3-.1-20.7-.3-31-.1-4.2 1.4-6.2 5.8-5.8 3.3.3 6.7.2 10-.1 4.8-.4 6.4 1.6 6.3 6.4-.2 17-.1 34-.1 51z" class="st0"/><path id="path32" d="M1035 474.9c-.9-36.5 27.7-63.3 62.9-61.7 15.7.7 29.4 5.9 41.7 15.5 6.4 5 6.5 8.1.4 13.5-.9.8-1.7 1.6-2.5 2.5-5.8 5.7-6.7 5.3-13.1.2-11.7-9.2-25-14.2-39.9-9.3-14.3 4.7-24 14.4-27 29.3-3.1 15.4 1.7 32.4 16.1 41 13.8 8.3 30.9 9.6 45.6-.3 3.1-2.1 5.9-4.8 9.1-6.8 1.1-.7 3.7-.8 4.5-.1 3.8 3.6 7.5 7.5 10.8 11.6.7.9.4 4-.6 4.8-14.2 12.3-30.6 19.4-49.6 18.4s-35.5-7.9-47.1-23.4c-8.5-10.9-11.4-23.9-11.3-35.2z" class="st0"/><path id="path34" d="M1301.2 472.6c-1.6-37.2 31.5-61.7 64.5-59.4 14.6 1 27.5 5.7 38.8 14.9 1.9 1.5 3.6 3.4 5.1 5.4 2.3 3 1.8 5.3-1.6 7.4-2.2 1.4-4.1 3.4-6 5.2-3.9 3.8-6.1 3.7-10.2.1-11.4-10.3-24.9-15.2-39.9-11.1-20.3 5.6-33.4 24.9-28.3 47 2.2 9.8 6.6 17.8 15 23.2 13.1 8.4 30.6 10.3 44.7 1.3 4-2.6 7.7-5.8 11.6-8.5.8-.6 2.8-.8 3.3-.3 4 4 7.9 8.1 11.4 12.5.7.9.3 4.1-.7 4.9-10.9 8.9-22.9 15.7-37.3 17.6-35.7 4.8-69.6-16.7-70.4-56.8-.1-1 0-2.2 0-3.4z" class="st0"/><path id="path36" d="M788.8 461c0 12.5.2 25 0 37.5-.4 23.2-21 37.4-40.6 34.9-13.6.5-34.85-13.84-35.8-34.6-.8-25.1-.9-50.3-1.3-75.4-.1-6.7.9-7.4 7.4-7.2 2.3.1 4.7-.1 6.9-.5 4.6-.9 7.1.9 7.8 5.4.3 2.1.4 4.3.4 6.5 0 22.8.4 45.7-.1 68.5 3.05 23.92 32.62 18.06 33.5.9.5-17.3.5-34.6.7-52 .1-7.3-.1-14.7-.1-22 0-6.4 1.1-7.3 7.2-6.9 3 .2 6 .3 9 .1 4.4-.3 5.9 1.7 5.9 5.9-.1 13 0 26 0 39-.3-.1-.6-.1-.9-.1z" class="st0" fill="#fff"/><path id="path38" d="M618.3 473.7v-51c0-6.3 2.1-7.8 8.3-7.3 6.8.6 13.6.4 20.4.8 5.5.3 11 .4 16.3 1.4 12.4 2.4 20.4 11.6 22.5 24.8 3.5 22.7-8.1 36.9-32 39-14.3 1.3-14.2 1.3-14 16 .1 9.3-.1 18.6 0 28 .1 3.9-1.6 5.4-5.4 5.2-2.8-.1-5.6.2-8.4.7-5.2.8-7.6-1-7.6-6.3-.1-8.7 0-17.3 0-26-.1-8.3-.1-16.8-.1-25.3zm21.6-26c0 3-.4 6.1.2 8.9.3 1.5 2.3 3.7 3.6 3.7 4.8.1 9.7-.1 14.3-1.1 4.4-.9 6.8-4.5 7.3-9.1.6-6.7-4.9-12.6-13.2-13.1-12-.7-13.3-1.1-12.2 10.7z" class="st0"/><path id="path40" d="M1929.6 413.1c12.8-.4 21.7 7.1 30.4 15.1.7.7.5 3.7-.3 4.6-3.2 3.6-6.6 7.1-10.4 10.1-1.2.9-4.3.3-5.8-.6-4.1-2.4-7.5-6.1-11.7-7.9-4-1.7-8.9-1.2-11.5 3.3-2.6 4.5-.5 8.5 3 11.5 9.2 8.2 18.6 16.1 27.8 24.3 13.3 11.9 16.8 28.3 9.1 43.8-5.4 10.8-15.6 15.2-26.9 16.2-16.2 1.5-28.7-5.4-38-18.4-.6-.8-1.1-1.7-1.3-2.6-.6-4.1 3.8-8.7 10.4-11.3 4.7-1.9 8.2-1.4 11 3.3 4.3 7.1 13.3 10.1 20.3 7 7.8-3.4 9.8-11.6 3.9-17.8-5.9-6.1-12.4-11.6-18.6-17.3-4.3-4-8.6-7.8-12.8-11.9-9.8-9.7-12.9-22.5-8.3-33.6 4.3-11 15.9-17.8 29.7-17.8z" class="st0"/><path id="path42" d="M1246.3 413.2c12.7-.2 21.9 6.7 30.4 15 .7.7.4 3.7-.4 4.6-3.2 3.6-6.6 7.1-10.3 10.1-1 .9-3.8.8-5.1 0-2.1-1.2-3.7-3.3-5.4-5.1-3.7-3.8-8.4-4.7-13.4-3.8-6.5 1.2-8.5 8.4-3.4 13.6 5.7 5.8 12.2 10.8 18 16.5 6.7 6.6 14 12.9 19.4 20.5 7.8 11 6.2 23.4-.3 34.5-5.6 9.6-15.4 13.6-26 14.4-15.9 1.3-28.4-5.3-37.7-18.1-2.3-3.2-1.5-8 2.6-10.7 3-2 6.5-3.4 9.9-4.5 3.9-1.1 6 1.7 7.8 4.8 3.8 6.5 13.4 9.5 20 6.5 8.3-3.8 10-11.5 3.6-18.1-5.9-6.1-12.5-11.5-18.7-17.3-4.6-4.3-9.5-8.4-13.8-13-8.2-8.9-11.6-19.4-7.3-31.2 3.9-10.8 15.2-18.4 27.1-18.7 1-.1 2 0 3 0z" class="st0"/><path id="path44" d="M1848.9 462.9v39.5c0 6.2 1.2 7.6 7.6 7.8 5.5.2 11 0 16.5.1 7.5.2 8.8 1.9 7.5 9.1-.4 1.9-.3 4 0 5.9.8 3.9-.5 5.5-4.6 5.5-10.5-.2-21-.1-31.5-.1-3.5 0-7 .1-10.5.3-5.7.3-6.9-.7-6.9-6.3 0-17.5.1-35 .1-52.5 0-16.1-1.6-31-1.7-47.1.9-12.1 4.25-8.46 13.22-9.64 4.8-.6 10.28 1.74 10.18 6.54 0 13.6 0 27.3.1 40.9z" class="st0" fill="#fff"/><path id="path46" d="M916.3 474.5v-50.4c0-6.9.9-7.9 7.5-7.9 14 0 13.9 0 13.9 13.8 0 24.1 0 48.3.1 72.4 0 6.8 1.1 7.7 7.9 7.8 6 .1 12-.1 18 .1 6.3.2 7.6 2.1 6.5 8.1-.2 1.1-.4 2.3-.4 3.5-.3 8.8-.3 8.9-9.3 8.9-12.6 0-25.3-.1-37.9.1-4.8.1-6.3-1.6-6.3-6.4.1-16.7 0-33.4 0-50z" class="st0"/><path id="path48" d="M1010.7 473c0 17-.1 33.9.1 50.9.1 4.7-1.6 6.6-6.3 6.8-14.2.8-14.2.9-14.3-13.4-.1-30.8-.1-61.5-.1-92.3 0-8.3.5-8.8 8.8-8.8 14.1 0 11.8-1.4 11.9 11.9 0 15-.1 30-.1 44.9z" class="st0"/><path id="path50" d="M947.4 299.2c-21.1-1.4-22.25-34.3 1.2-34.4 24.64.45 22.18 33.93-1.2 34.4z" class="st0" fill="#fff"/><path id="path52" d="M283.38 230.34c.1 21.3-18.4 36.3-39.48 35.26-20.8.7-38.4-17.7-37.2-40.3 3.48-20.18 20.73-33.5 38.9-33.4 17.2.3 38.98 14.04 37.78 38.44z" class="st0" fill="#fff"/></g></svg>